<svg xmlns="http://www.w3.org/2000/svg" xmlns:xlink="http://www.w3.org/1999/xlink" width="1280" height="680" version="1.1">
<style type="text/css">
.l0{
 fill: #000000;
  stroke: #000000;
  stroke-linecap:round;
  stroke-linejoin:round;
  stroke-width: 0.932381;
}
.l1{
 fill: #00ccee;
  stroke: #00ccee;
  stroke-linecap:round;
  stroke-linejoin:round;
  stroke-width: 0.932381;
}
.l2{
  fill: none;
  stroke: #3f3f3f;
  stroke-linecap:round;
  stroke-linejoin:round;
  stroke-width: 0.932381;
}
.l3{
 fill: #cccccc; fill-opacity: 0.5;
  stroke: #cccccc;
  stroke-linecap:round;
  stroke-linejoin:round;
  stroke-width: 0.932381;
}
.l4{
 fill: #88dd00;
  stroke: #88dd00;
  stroke-linecap:round;
  stroke-linejoin:round;
  stroke-width: 0.932381;
}
.l5{
 fill: #bb2200;
  stroke: #bb2200;
  stroke-linecap:round;
  stroke-linejoin:round;
  stroke-width: 0.932381;
}
.l6{
 fill: #00ccee; fill-opacity: 0.5;
  stroke: #00ccee;
  stroke-linecap:round;
  stroke-linejoin:round;
  stroke-width: 0.932381;
}
.l7{
 fill: #ff0000; fill-opacity: 0.5;
  stroke: #ff0000;
  stroke-linecap:round;
  stroke-linejoin:round;
  stroke-width: 0.932381;
}
.l8{
 fill: #ffff00; fill-opacity: 0.5;
  stroke: #ffff00;
  stroke-linecap:round;
  stroke-linejoin:round;
  stroke-width: 0.932381;
}
.l9{
 fill: #ffffff; fill-opacity: 0.5;
  stroke: #ffffff;
  stroke-linecap:round;
  stroke-linejoin:round;
  stroke-width: 0.932381;
}
.l10{
 fill: #ff00ff;
  stroke: #ff00ff;
  stroke-linecap:round;
  stroke-linejoin:round;
  stroke-width: 0.932381;
}
.l11{
 fill: #00ff00; fill-opacity: 0.5;
  stroke: #00ff00;
  stroke-linecap:round;
  stroke-linejoin:round;
  stroke-width: 0.932381;
}
.l12{
 fill: #0044dd; fill-opacity: 0.5;
  stroke: #0044dd;
  stroke-linecap:round;
  stroke-linejoin:round;
  stroke-width: 0.932381;
}
.l13{
 fill: #aaaa00; fill-opacity: 0.5;
  stroke: #aaaa00;
  stroke-linecap:round;
  stroke-linejoin:round;
  stroke-width: 0.932381;
}
.l14{
  fill: none;
  stroke: #aaccaa;
  stroke-linecap:round;
  stroke-linejoin:round;
  stroke-width: 0.932381;
}
.l15{
 fill: #ff7777; fill-opacity: 0.5;
  stroke: #ff7777;
  stroke-linecap:round;
  stroke-linejoin:round;
  stroke-width: 0.932381;
}
.l16{
 fill: #bfff81; fill-opacity: 0.5;
  stroke: #bfff81;
  stroke-linecap:round;
  stroke-linejoin:round;
  stroke-width: 0.932381;
}
.l17{
  fill: none;
  stroke: #00ffcc;
  stroke-linecap:round;
  stroke-linejoin:round;
  stroke-width: 0.932381;
}
.l18{
 fill: #ce0097; fill-opacity: 0.5;
  stroke: #ce0097;
  stroke-linecap:round;
  stroke-linejoin:round;
  stroke-width: 0.932381;
}
.l19{
  fill: none;
  stroke: #d2d46b;
  stroke-linecap:round;
  stroke-linejoin:round;
  stroke-width: 0.932381;
}
.l20{
  fill: none;
  stroke: #ef6158;
  stroke-linecap:round;
  stroke-linejoin:round;
  stroke-width: 0.932381;
}
.l21{
  fill: none;
  stroke: #fdb200;
  stroke-linecap:round;
  stroke-linejoin:round;
  stroke-width: 0.932381;
}
text {font-family: Sans-Serif;}
</style>
<rect class="l0" x="0" y="0" width="1280" height="680"/>
<text fill="#00ccee"  xml:space="preserve" font-size="14.8145" transform="translate(44.5354, 213.041)" >A</text>
<text fill="#00ccee"  xml:space="preserve" font-size="14.8145" transform="translate(45.5354, 247.574)" >B</text>
<text fill="#00ccee"  xml:space="preserve" font-size="14.8145" transform="translate(41.5354, 282.107)" >CI</text>
<text fill="#00ccee"  xml:space="preserve" font-size="14.8145" transform="translate(1228.57, 282.107)" >S</text>
<text fill="#00ccee"  xml:space="preserve" font-size="14.8145" transform="translate(693.31, 575.634)" >CO</text>
<text fill="#00ccee"  xml:space="preserve" font-size="14.8145" transform="translate(95.4638, 213.581)" >A</text>
<text fill="#00ccee"  xml:space="preserve" font-size="14.8145" transform="translate(95.4638, 248.114)" >B</text>
<text fill="#00ccee"  xml:space="preserve" font-size="14.8145" transform="translate(95.4638, 282.646)" >CI</text>
<text fill="#00ccee"  xml:space="preserve" font-size="14.8145" transform="translate(166.479, 153.149)" >A</text>
<text fill="#00ccee"  xml:space="preserve" font-size="14.8145" transform="translate(166.479, 412.144)" >A</text>
<text fill="#00ccee"  xml:space="preserve" font-size="14.8145" transform="translate(442.74, 153.149)" >A</text>
<text fill="#00ccee"  xml:space="preserve" font-size="14.8145" transform="translate(442.74, 412.144)" >A</text>
<text fill="#00ccee"  xml:space="preserve" font-size="14.8145" transform="translate(580.87, 153.149)" >A</text>
<text fill="#00ccee"  xml:space="preserve" font-size="14.8145" transform="translate(580.87, 412.144)" >A</text>
<text fill="#00ccee"  xml:space="preserve" font-size="14.8145" transform="translate(995.262, 66.8173)" >A</text>
<text fill="#00ccee"  xml:space="preserve" font-size="14.8145" transform="translate(995.262, 498.475)" >A</text>
<text fill="#00ccee"  xml:space="preserve" font-size="14.8145" transform="translate(305.609, 153.149)" >B</text>
<text fill="#00ccee"  xml:space="preserve" font-size="14.8145" transform="translate(305.609, 412.144)" >B</text>
<text fill="#00ccee"  xml:space="preserve" font-size="14.8145" transform="translate(443.74, 325.812)" >B</text>
<text fill="#00ccee"  xml:space="preserve" font-size="14.8145" transform="translate(443.74, 239.48)" >B</text>
<text fill="#00ccee"  xml:space="preserve" font-size="14.8145" transform="translate(720.001, 412.144)" >B</text>
<text fill="#00ccee"  xml:space="preserve" font-size="14.8145" transform="translate(720.001, 153.149)" >B</text>
<text fill="#00ccee"  xml:space="preserve" font-size="14.8145" transform="translate(992.262, 153.149)" >CI</text>
<text fill="#00ccee"  xml:space="preserve" font-size="14.8145" transform="translate(992.262, 412.144)" >CI</text>
<text fill="#00ccee"  xml:space="preserve" font-size="14.8145" transform="translate(172.112, 282.646)" >CI</text>
<text fill="#00ccee"  xml:space="preserve" font-size="14.8145" transform="translate(854.131, 153.149)" >CI</text>
<text fill="#00ccee"  xml:space="preserve" font-size="14.8145" transform="translate(854.131, 412.144)" >CI</text>
<text fill="#00ccee"  xml:space="preserve" font-size="14.8145" transform="translate(996.262, 325.812)" >B</text>
<text fill="#00ccee"  xml:space="preserve" font-size="14.8145" transform="translate(996.262, 239.48)" >B</text>
<text fill="#00ccee"  xml:space="preserve" font-size="12.1209" transform="translate(904.88, 272.233)" >COM</text>
<text fill="#00ccee"  xml:space="preserve" font-size="12.1209" transform="translate(1020.74, 99.5699)" >alpha</text>
<text fill="#00ccee"  xml:space="preserve" font-size="12.1209" transform="translate(1026.74, 185.901)" >beta</text>
<text fill="#00ccee"  xml:space="preserve" font-size="12.1209" transform="translate(1007.74, 358.565)" >gamma</text>
<text fill="#00ccee"  xml:space="preserve" font-size="12.1209" transform="translate(1023.74, 444.896)" >delta</text>
<text fill="#00ccee"  xml:space="preserve" font-size="12.1209" transform="translate(597.353, 185.901)" >epsilon</text>
<text fill="#00ccee"  xml:space="preserve" font-size="12.1209" transform="translate(614.353, 358.565)" >zeta</text>
<text fill="#00ccee"  xml:space="preserve" font-size="12.1209" transform="translate(633.252, 272.233)" >theta</text>
<text fill="#00ccee"  xml:space="preserve" font-size="12.1209" transform="translate(479.222, 185.901)" >iota</text>
<text fill="#00ccee"  xml:space="preserve" font-size="12.1209" transform="translate(464.222, 358.565)" >kappa</text>
<text fill="#00ccee"  xml:space="preserve" font-size="12.1209" transform="translate(179.961, 185.901)" >lambda</text>
<text fill="#00ccee"  xml:space="preserve" font-size="12.1209" transform="translate(204.961, 358.565)" >mu</text>
<text fill="#00ccee"  xml:space="preserve" font-size="14.8145" transform="translate(28.5354, 325.272)" >vdd</text>
<text fill="#00ccee"  xml:space="preserve" font-size="14.8145" transform="translate(104.097, 325.812)" >vdd</text>
<text fill="#00ccee"  xml:space="preserve" font-size="14.8145" transform="translate(28.5354, 308.006)" >gnd</text>
<text fill="#00ccee"  xml:space="preserve" font-size="14.8145" transform="translate(104.097, 308.546)" >gnd</text>
<text fill="#00ccee"  xml:space="preserve" font-size="14.8145" transform="translate(262.71, 92.7168)" >vdd</text>
<text fill="#00ccee"  xml:space="preserve" font-size="14.8145" transform="translate(469.905, 92.7168)" >vdd</text>
<text fill="#00ccee"  xml:space="preserve" font-size="14.8145" transform="translate(746.166, 92.7168)" >vdd</text>
<text fill="#00ccee"  xml:space="preserve" font-size="14.8145" transform="translate(1022.43, 23.6516)" >vdd</text>
<text fill="#00ccee"  xml:space="preserve" font-size="14.8145" transform="translate(1143.29, 196.315)" >vdd</text>
<text fill="#00ccee"  xml:space="preserve" font-size="14.8145" transform="translate(625.302, 489.842)" >vdd</text>
<text fill="#00ccee"  xml:space="preserve" font-size="14.8145" transform="translate(302.659, 472.576)" >gnd</text>
<text fill="#00ccee"  xml:space="preserve" font-size="14.8145" transform="translate(509.855, 472.576)" >gnd</text>
<text fill="#00ccee"  xml:space="preserve" font-size="14.8145" transform="translate(786.116, 472.576)" >gnd</text>
<text fill="#00ccee"  xml:space="preserve" font-size="14.8145" transform="translate(1183.24, 368.978)" >gnd</text>
<text fill="#00ccee"  xml:space="preserve" font-size="14.8145" transform="translate(1062.38, 541.641)" >gnd</text>
<text fill="#00ccee"  xml:space="preserve" font-size="14.8145" transform="translate(665.252, 662.505)" >gnd</text>
<text fill="#cccccc"  xml:space="preserve" font-size="8.97848" transform="translate(269.235, 301.628)" >M1</text>
<text fill="#ff0000"  xml:space="preserve" font-size="6.73386" transform="translate(298.343, 340.597)" >S</text>
<text fill="#ff0000"  xml:space="preserve" font-size="6.73386" transform="translate(298.343, 302.657)" >D</text>
<text fill="#ff0000"  xml:space="preserve" font-size="6.73386" transform="translate(265.285, 316.856)" >G</text>
<text fill="#cccccc"  xml:space="preserve" font-size="8.97848" transform="translate(304.818, 309.675)" >nfet_01v8</text>
<text fill="#aaaa00"  xml:space="preserve" font-size="8.97848" transform="translate(305.897, 339.398)" >1 x 0.52 / 0.15</text>
<text fill="#aaaa00"  xml:space="preserve" font-size="8.97848" transform="translate(305.897, 328.606)" >nf=1</text>
<text fill="#cccccc"  xml:space="preserve" font-size="8.97848" transform="translate(269.235, 215.296)" >M2</text>
<text fill="#ff0000"  xml:space="preserve" font-size="6.73386" transform="translate(298.343, 254.266)" >D</text>
<text fill="#ff0000"  xml:space="preserve" font-size="6.73386" transform="translate(298.343, 216.326)" >S</text>
<text fill="#ff0000"  xml:space="preserve" font-size="6.73386" transform="translate(265.285, 230.524)" >G</text>
<text fill="#cccccc"  xml:space="preserve" font-size="8.97848" transform="translate(304.818, 223.343)" >pfet_01v8</text>
<text fill="#aaaa00"  xml:space="preserve" font-size="8.97848" transform="translate(305.897, 253.066)" >1 x 1.26 / 0.15</text>
<text fill="#aaaa00"  xml:space="preserve" font-size="8.97848" transform="translate(305.897, 242.275)" >nf=1</text>
<text fill="#cccccc"  xml:space="preserve" font-size="8.97848" transform="translate(200.17, 128.965)" >M3</text>
<text fill="#ff0000"  xml:space="preserve" font-size="6.73386" transform="translate(229.278, 167.934)" >D</text>
<text fill="#ff0000"  xml:space="preserve" font-size="6.73386" transform="translate(229.278, 129.994)" >S</text>
<text fill="#ff0000"  xml:space="preserve" font-size="6.73386" transform="translate(196.22, 144.193)" >G</text>
<text fill="#cccccc"  xml:space="preserve" font-size="8.97848" transform="translate(235.753, 137.012)" >pfet_01v8</text>
<text fill="#aaaa00"  xml:space="preserve" font-size="8.97848" transform="translate(236.832, 166.735)" >1 x 1.26 / 0.15</text>
<text fill="#aaaa00"  xml:space="preserve" font-size="8.97848" transform="translate(236.832, 155.943)" >nf=1</text>
<text fill="#cccccc"  xml:space="preserve" font-size="8.97848" transform="translate(338.3, 128.965)" >M4</text>
<text fill="#ff0000"  xml:space="preserve" font-size="6.73386" transform="translate(367.408, 167.934)" >D</text>
<text fill="#ff0000"  xml:space="preserve" font-size="6.73386" transform="translate(367.408, 129.994)" >S</text>
<text fill="#ff0000"  xml:space="preserve" font-size="6.73386" transform="translate(334.35, 144.193)" >G</text>
<text fill="#cccccc"  xml:space="preserve" font-size="8.97848" transform="translate(373.883, 137.012)" >pfet_01v8</text>
<text fill="#aaaa00"  xml:space="preserve" font-size="8.97848" transform="translate(374.962, 166.735)" >1 x 1.26 / 0.15</text>
<text fill="#aaaa00"  xml:space="preserve" font-size="8.97848" transform="translate(374.962, 155.943)" >nf=1</text>
<text fill="#cccccc"  xml:space="preserve" font-size="8.97848" transform="translate(200.17, 387.959)" >M5</text>
<text fill="#ff0000"  xml:space="preserve" font-size="6.73386" transform="translate(229.278, 426.929)" >S</text>
<text fill="#ff0000"  xml:space="preserve" font-size="6.73386" transform="translate(229.278, 388.989)" >D</text>
<text fill="#ff0000"  xml:space="preserve" font-size="6.73386" transform="translate(196.22, 403.188)" >G</text>
<text fill="#cccccc"  xml:space="preserve" font-size="8.97848" transform="translate(235.753, 396.007)" >nfet_01v8</text>
<text fill="#aaaa00"  xml:space="preserve" font-size="8.97848" transform="translate(236.832, 425.729)" >1 x 0.52 / 0.15</text>
<text fill="#aaaa00"  xml:space="preserve" font-size="8.97848" transform="translate(236.832, 414.938)" >nf=1</text>
<text fill="#cccccc"  xml:space="preserve" font-size="8.97848" transform="translate(338.3, 387.959)" >M6</text>
<text fill="#ff0000"  xml:space="preserve" font-size="6.73386" transform="translate(367.408, 426.929)" >S</text>
<text fill="#ff0000"  xml:space="preserve" font-size="6.73386" transform="translate(367.408, 388.989)" >D</text>
<text fill="#ff0000"  xml:space="preserve" font-size="6.73386" transform="translate(334.35, 403.188)" >G</text>
<text fill="#cccccc"  xml:space="preserve" font-size="8.97848" transform="translate(373.883, 396.007)" >nfet_01v8</text>
<text fill="#aaaa00"  xml:space="preserve" font-size="8.97848" transform="translate(374.962, 425.729)" >1 x 0.52 / 0.15</text>
<text fill="#aaaa00"  xml:space="preserve" font-size="8.97848" transform="translate(374.962, 414.938)" >nf=1</text>
<text fill="#cccccc"  xml:space="preserve" font-size="8.97848" transform="translate(476.431, 215.296)" >M7</text>
<text fill="#ff0000"  xml:space="preserve" font-size="6.73386" transform="translate(505.539, 254.266)" >D</text>
<text fill="#ff0000"  xml:space="preserve" font-size="6.73386" transform="translate(505.539, 216.326)" >S</text>
<text fill="#ff0000"  xml:space="preserve" font-size="6.73386" transform="translate(472.481, 230.524)" >G</text>
<text fill="#cccccc"  xml:space="preserve" font-size="8.97848" transform="translate(512.013, 223.343)" >pfet_01v8</text>
<text fill="#aaaa00"  xml:space="preserve" font-size="8.97848" transform="translate(513.093, 253.066)" >1 x 1.26 / 0.15</text>
<text fill="#aaaa00"  xml:space="preserve" font-size="8.97848" transform="translate(513.093, 242.275)" >nf=1</text>
<text fill="#cccccc"  xml:space="preserve" font-size="8.97848" transform="translate(476.431, 128.965)" >M8</text>
<text fill="#ff0000"  xml:space="preserve" font-size="6.73386" transform="translate(505.539, 167.934)" >D</text>
<text fill="#ff0000"  xml:space="preserve" font-size="6.73386" transform="translate(505.539, 129.994)" >S</text>
<text fill="#ff0000"  xml:space="preserve" font-size="6.73386" transform="translate(472.481, 144.193)" >G</text>
<text fill="#cccccc"  xml:space="preserve" font-size="8.97848" transform="translate(512.013, 137.012)" >pfet_01v8</text>
<text fill="#aaaa00"  xml:space="preserve" font-size="8.97848" transform="translate(513.093, 166.735)" >1 x 1.26 / 0.15</text>
<text fill="#aaaa00"  xml:space="preserve" font-size="8.97848" transform="translate(513.093, 155.943)" >nf=1</text>
<text fill="#cccccc"  xml:space="preserve" font-size="8.97848" transform="translate(476.431, 301.628)" >M9</text>
<text fill="#ff0000"  xml:space="preserve" font-size="6.73386" transform="translate(505.539, 340.597)" >S</text>
<text fill="#ff0000"  xml:space="preserve" font-size="6.73386" transform="translate(505.539, 302.657)" >D</text>
<text fill="#ff0000"  xml:space="preserve" font-size="6.73386" transform="translate(472.481, 316.856)" >G</text>
<text fill="#cccccc"  xml:space="preserve" font-size="8.97848" transform="translate(512.013, 309.675)" >nfet_01v8</text>
<text fill="#aaaa00"  xml:space="preserve" font-size="8.97848" transform="translate(513.093, 339.398)" >1 x 0.52 / 0.15</text>
<text fill="#aaaa00"  xml:space="preserve" font-size="8.97848" transform="translate(513.093, 328.606)" >nf=1</text>
<text fill="#cccccc"  xml:space="preserve" font-size="8.97848" transform="translate(470.431, 387.959)" >M10</text>
<text fill="#ff0000"  xml:space="preserve" font-size="6.73386" transform="translate(505.539, 426.929)" >S</text>
<text fill="#ff0000"  xml:space="preserve" font-size="6.73386" transform="translate(505.539, 388.989)" >D</text>
<text fill="#ff0000"  xml:space="preserve" font-size="6.73386" transform="translate(472.481, 403.188)" >G</text>
<text fill="#cccccc"  xml:space="preserve" font-size="8.97848" transform="translate(512.013, 396.007)" >nfet_01v8</text>
<text fill="#aaaa00"  xml:space="preserve" font-size="8.97848" transform="translate(513.093, 425.729)" >1 x 0.52 / 0.15</text>
<text fill="#aaaa00"  xml:space="preserve" font-size="8.97848" transform="translate(513.093, 414.938)" >nf=1</text>
<text fill="#cccccc"  xml:space="preserve" font-size="8.97848" transform="translate(608.561, 128.965)" >M11</text>
<text fill="#ff0000"  xml:space="preserve" font-size="6.73386" transform="translate(643.669, 167.934)" >D</text>
<text fill="#ff0000"  xml:space="preserve" font-size="6.73386" transform="translate(643.669, 129.994)" >S</text>
<text fill="#ff0000"  xml:space="preserve" font-size="6.73386" transform="translate(610.611, 144.193)" >G</text>
<text fill="#cccccc"  xml:space="preserve" font-size="8.97848" transform="translate(650.144, 137.012)" >pfet_01v8</text>
<text fill="#aaaa00"  xml:space="preserve" font-size="8.97848" transform="translate(651.223, 166.735)" >1 x 1.26 / 0.15</text>
<text fill="#aaaa00"  xml:space="preserve" font-size="8.97848" transform="translate(651.223, 155.943)" >nf=1</text>
<text fill="#cccccc"  xml:space="preserve" font-size="8.97848" transform="translate(746.692, 128.965)" >M12</text>
<text fill="#ff0000"  xml:space="preserve" font-size="6.73386" transform="translate(781.8, 167.934)" >D</text>
<text fill="#ff0000"  xml:space="preserve" font-size="6.73386" transform="translate(781.8, 129.994)" >S</text>
<text fill="#ff0000"  xml:space="preserve" font-size="6.73386" transform="translate(748.742, 144.193)" >G</text>
<text fill="#cccccc"  xml:space="preserve" font-size="8.97848" transform="translate(788.274, 137.012)" >pfet_01v8</text>
<text fill="#aaaa00"  xml:space="preserve" font-size="8.97848" transform="translate(789.354, 166.735)" >1 x 1.26 / 0.15</text>
<text fill="#aaaa00"  xml:space="preserve" font-size="8.97848" transform="translate(789.354, 155.943)" >nf=1</text>
<text fill="#cccccc"  xml:space="preserve" font-size="8.97848" transform="translate(884.822, 128.965)" >M13</text>
<text fill="#ff0000"  xml:space="preserve" font-size="6.73386" transform="translate(919.93, 167.934)" >D</text>
<text fill="#ff0000"  xml:space="preserve" font-size="6.73386" transform="translate(919.93, 129.994)" >S</text>
<text fill="#ff0000"  xml:space="preserve" font-size="6.73386" transform="translate(886.872, 144.193)" >G</text>
<text fill="#cccccc"  xml:space="preserve" font-size="8.97848" transform="translate(926.405, 137.012)" >pfet_01v8</text>
<text fill="#aaaa00"  xml:space="preserve" font-size="8.97848" transform="translate(927.484, 166.735)" >1 x 1.26 / 0.15</text>
<text fill="#aaaa00"  xml:space="preserve" font-size="8.97848" transform="translate(927.484, 155.943)" >nf=1</text>
<text fill="#cccccc"  xml:space="preserve" font-size="8.97848" transform="translate(746.692, 215.296)" >M14</text>
<text fill="#ff0000"  xml:space="preserve" font-size="6.73386" transform="translate(781.8, 254.266)" >D</text>
<text fill="#ff0000"  xml:space="preserve" font-size="6.73386" transform="translate(781.8, 216.326)" >S</text>
<text fill="#ff0000"  xml:space="preserve" font-size="6.73386" transform="translate(748.742, 230.524)" >G</text>
<text fill="#cccccc"  xml:space="preserve" font-size="8.97848" transform="translate(788.274, 223.343)" >pfet_01v8</text>
<text fill="#aaaa00"  xml:space="preserve" font-size="8.97848" transform="translate(789.354, 253.066)" >1 x 1.26 / 0.15</text>
<text fill="#aaaa00"  xml:space="preserve" font-size="8.97848" transform="translate(789.354, 242.275)" >nf=1</text>
<text fill="#cccccc"  xml:space="preserve" font-size="8.97848" transform="translate(746.692, 301.628)" >M15</text>
<text fill="#ff0000"  xml:space="preserve" font-size="6.73386" transform="translate(781.8, 340.597)" >S</text>
<text fill="#ff0000"  xml:space="preserve" font-size="6.73386" transform="translate(781.8, 302.657)" >D</text>
<text fill="#ff0000"  xml:space="preserve" font-size="6.73386" transform="translate(748.742, 316.856)" >G</text>
<text fill="#cccccc"  xml:space="preserve" font-size="8.97848" transform="translate(788.274, 309.675)" >nfet_01v8</text>
<text fill="#aaaa00"  xml:space="preserve" font-size="8.97848" transform="translate(789.354, 339.398)" >1 x 0.52 / 0.15</text>
<text fill="#aaaa00"  xml:space="preserve" font-size="8.97848" transform="translate(789.354, 328.606)" >nf=1</text>
<text fill="#cccccc"  xml:space="preserve" font-size="8.97848" transform="translate(608.561, 387.959)" >M16</text>
<text fill="#ff0000"  xml:space="preserve" font-size="6.73386" transform="translate(643.669, 426.929)" >S</text>
<text fill="#ff0000"  xml:space="preserve" font-size="6.73386" transform="translate(643.669, 388.989)" >D</text>
<text fill="#ff0000"  xml:space="preserve" font-size="6.73386" transform="translate(610.611, 403.188)" >G</text>
<text fill="#cccccc"  xml:space="preserve" font-size="8.97848" transform="translate(650.144, 396.007)" >nfet_01v8</text>
<text fill="#aaaa00"  xml:space="preserve" font-size="8.97848" transform="translate(651.223, 425.729)" >1 x 0.52 / 0.15</text>
<text fill="#aaaa00"  xml:space="preserve" font-size="8.97848" transform="translate(651.223, 414.938)" >nf=1</text>
<text fill="#cccccc"  xml:space="preserve" font-size="8.97848" transform="translate(746.692, 387.959)" >M17</text>
<text fill="#ff0000"  xml:space="preserve" font-size="6.73386" transform="translate(781.8, 426.929)" >S</text>
<text fill="#ff0000"  xml:space="preserve" font-size="6.73386" transform="translate(781.8, 388.989)" >D</text>
<text fill="#ff0000"  xml:space="preserve" font-size="6.73386" transform="translate(748.742, 403.188)" >G</text>
<text fill="#cccccc"  xml:space="preserve" font-size="8.97848" transform="translate(788.274, 396.007)" >nfet_01v8</text>
<text fill="#aaaa00"  xml:space="preserve" font-size="8.97848" transform="translate(789.354, 425.729)" >1 x 0.52 / 0.15</text>
<text fill="#aaaa00"  xml:space="preserve" font-size="8.97848" transform="translate(789.354, 414.938)" >nf=1</text>
<text fill="#cccccc"  xml:space="preserve" font-size="8.97848" transform="translate(884.822, 387.959)" >M18</text>
<text fill="#ff0000"  xml:space="preserve" font-size="6.73386" transform="translate(919.93, 426.929)" >S</text>
<text fill="#ff0000"  xml:space="preserve" font-size="6.73386" transform="translate(919.93, 388.989)" >D</text>
<text fill="#ff0000"  xml:space="preserve" font-size="6.73386" transform="translate(886.872, 403.188)" >G</text>
<text fill="#cccccc"  xml:space="preserve" font-size="8.97848" transform="translate(926.405, 396.007)" >nfet_01v8</text>
<text fill="#aaaa00"  xml:space="preserve" font-size="8.97848" transform="translate(927.484, 425.729)" >1 x 0.52 / 0.15</text>
<text fill="#aaaa00"  xml:space="preserve" font-size="8.97848" transform="translate(927.484, 414.938)" >nf=1</text>
<text fill="#cccccc"  xml:space="preserve" font-size="8.97848" transform="translate(1022.95, 215.296)" >M19</text>
<text fill="#ff0000"  xml:space="preserve" font-size="6.73386" transform="translate(1058.06, 254.266)" >D</text>
<text fill="#ff0000"  xml:space="preserve" font-size="6.73386" transform="translate(1058.06, 216.326)" >S</text>
<text fill="#ff0000"  xml:space="preserve" font-size="6.73386" transform="translate(1025, 230.524)" >G</text>
<text fill="#cccccc"  xml:space="preserve" font-size="8.97848" transform="translate(1064.54, 223.343)" >pfet_01v8</text>
<text fill="#aaaa00"  xml:space="preserve" font-size="8.97848" transform="translate(1065.61, 253.066)" >1 x 1.26 / 0.15</text>
<text fill="#aaaa00"  xml:space="preserve" font-size="8.97848" transform="translate(1065.61, 242.275)" >nf=1</text>
<text fill="#cccccc"  xml:space="preserve" font-size="8.97848" transform="translate(1022.95, 128.965)" >M20</text>
<text fill="#ff0000"  xml:space="preserve" font-size="6.73386" transform="translate(1058.06, 167.934)" >D</text>
<text fill="#ff0000"  xml:space="preserve" font-size="6.73386" transform="translate(1058.06, 129.994)" >S</text>
<text fill="#ff0000"  xml:space="preserve" font-size="6.73386" transform="translate(1025, 144.193)" >G</text>
<text fill="#cccccc"  xml:space="preserve" font-size="8.97848" transform="translate(1064.54, 137.012)" >pfet_01v8</text>
<text fill="#aaaa00"  xml:space="preserve" font-size="8.97848" transform="translate(1065.61, 166.735)" >1 x 1.26 / 0.15</text>
<text fill="#aaaa00"  xml:space="preserve" font-size="8.97848" transform="translate(1065.61, 155.943)" >nf=1</text>
<text fill="#cccccc"  xml:space="preserve" font-size="8.97848" transform="translate(1022.95, 42.6332)" >M21</text>
<text fill="#ff0000"  xml:space="preserve" font-size="6.73386" transform="translate(1058.06, 81.6026)" >D</text>
<text fill="#ff0000"  xml:space="preserve" font-size="6.73386" transform="translate(1058.06, 43.6628)" >S</text>
<text fill="#ff0000"  xml:space="preserve" font-size="6.73386" transform="translate(1025, 57.8614)" >G</text>
<text fill="#cccccc"  xml:space="preserve" font-size="8.97848" transform="translate(1064.54, 50.6803)" >pfet_01v8</text>
<text fill="#aaaa00"  xml:space="preserve" font-size="8.97848" transform="translate(1065.61, 80.4033)" >1 x 1.26 / 0.15</text>
<text fill="#aaaa00"  xml:space="preserve" font-size="8.97848" transform="translate(1065.61, 69.6118)" >nf=1</text>
<text fill="#cccccc"  xml:space="preserve" font-size="8.97848" transform="translate(1022.95, 301.628)" >M22</text>
<text fill="#ff0000"  xml:space="preserve" font-size="6.73386" transform="translate(1058.06, 340.597)" >S</text>
<text fill="#ff0000"  xml:space="preserve" font-size="6.73386" transform="translate(1058.06, 302.657)" >D</text>
<text fill="#ff0000"  xml:space="preserve" font-size="6.73386" transform="translate(1025, 316.856)" >G</text>
<text fill="#cccccc"  xml:space="preserve" font-size="8.97848" transform="translate(1064.54, 309.675)" >nfet_01v8</text>
<text fill="#aaaa00"  xml:space="preserve" font-size="8.97848" transform="translate(1065.61, 339.398)" >1 x 0.52 / 0.15</text>
<text fill="#aaaa00"  xml:space="preserve" font-size="8.97848" transform="translate(1065.61, 328.606)" >nf=1</text>
<text fill="#cccccc"  xml:space="preserve" font-size="8.97848" transform="translate(1022.95, 387.959)" >M23</text>
<text fill="#ff0000"  xml:space="preserve" font-size="6.73386" transform="translate(1058.06, 426.929)" >S</text>
<text fill="#ff0000"  xml:space="preserve" font-size="6.73386" transform="translate(1058.06, 388.989)" >D</text>
<text fill="#ff0000"  xml:space="preserve" font-size="6.73386" transform="translate(1025, 403.188)" >G</text>
<text fill="#cccccc"  xml:space="preserve" font-size="8.97848" transform="translate(1064.54, 396.007)" >nfet_01v8</text>
<text fill="#aaaa00"  xml:space="preserve" font-size="8.97848" transform="translate(1065.61, 425.729)" >1 x 0.52 / 0.15</text>
<text fill="#aaaa00"  xml:space="preserve" font-size="8.97848" transform="translate(1065.61, 414.938)" >nf=1</text>
<text fill="#cccccc"  xml:space="preserve" font-size="8.97848" transform="translate(1022.95, 474.291)" >M24</text>
<text fill="#ff0000"  xml:space="preserve" font-size="6.73386" transform="translate(1058.06, 513.26)" >S</text>
<text fill="#ff0000"  xml:space="preserve" font-size="6.73386" transform="translate(1058.06, 475.321)" >D</text>
<text fill="#ff0000"  xml:space="preserve" font-size="6.73386" transform="translate(1025, 489.519)" >G</text>
<text fill="#cccccc"  xml:space="preserve" font-size="8.97848" transform="translate(1064.54, 482.338)" >nfet_01v8</text>
<text fill="#aaaa00"  xml:space="preserve" font-size="8.97848" transform="translate(1065.61, 512.061)" >1 x 0.52 / 0.15</text>
<text fill="#aaaa00"  xml:space="preserve" font-size="8.97848" transform="translate(1065.61, 501.27)" >nf=1</text>
<text fill="#cccccc"  xml:space="preserve" font-size="8.97848" transform="translate(625.827, 595.155)" >M25</text>
<text fill="#ff0000"  xml:space="preserve" font-size="6.73386" transform="translate(660.935, 634.124)" >S</text>
<text fill="#ff0000"  xml:space="preserve" font-size="6.73386" transform="translate(660.935, 596.185)" >D</text>
<text fill="#ff0000"  xml:space="preserve" font-size="6.73386" transform="translate(627.878, 610.383)" >G</text>
<text fill="#cccccc"  xml:space="preserve" font-size="8.97848" transform="translate(667.41, 603.202)" >nfet_01v8</text>
<text fill="#aaaa00"  xml:space="preserve" font-size="8.97848" transform="translate(668.489, 632.925)" >1 x 0.52 / 0.15</text>
<text fill="#aaaa00"  xml:space="preserve" font-size="8.97848" transform="translate(668.489, 622.134)" >nf=1</text>
<text fill="#cccccc"  xml:space="preserve" font-size="8.97848" transform="translate(625.827, 508.824)" >M26</text>
<text fill="#ff0000"  xml:space="preserve" font-size="6.73386" transform="translate(660.935, 547.793)" >D</text>
<text fill="#ff0000"  xml:space="preserve" font-size="6.73386" transform="translate(660.935, 509.853)" >S</text>
<text fill="#ff0000"  xml:space="preserve" font-size="6.73386" transform="translate(627.878, 524.052)" >G</text>
<text fill="#cccccc"  xml:space="preserve" font-size="8.97848" transform="translate(667.41, 516.871)" >pfet_01v8</text>
<text fill="#aaaa00"  xml:space="preserve" font-size="8.97848" transform="translate(668.489, 546.594)" >1 x 1.26 / 0.15</text>
<text fill="#aaaa00"  xml:space="preserve" font-size="8.97848" transform="translate(668.489, 535.802)" >nf=1</text>
<text fill="#cccccc"  xml:space="preserve" font-size="8.97848" transform="translate(1143.82, 301.628)" >M27</text>
<text fill="#ff0000"  xml:space="preserve" font-size="6.73386" transform="translate(1178.92, 340.597)" >S</text>
<text fill="#ff0000"  xml:space="preserve" font-size="6.73386" transform="translate(1178.92, 302.657)" >D</text>
<text fill="#ff0000"  xml:space="preserve" font-size="6.73386" transform="translate(1145.87, 316.856)" >G</text>
<text fill="#cccccc"  xml:space="preserve" font-size="8.97848" transform="translate(1185.4, 309.675)" >nfet_01v8</text>
<text fill="#aaaa00"  xml:space="preserve" font-size="8.97848" transform="translate(1186.48, 339.398)" >1 x 0.52 / 0.15</text>
<text fill="#aaaa00"  xml:space="preserve" font-size="8.97848" transform="translate(1186.48, 328.606)" >nf=1</text>
<text fill="#cccccc"  xml:space="preserve" font-size="8.97848" transform="translate(1143.82, 215.296)" >M28</text>
<text fill="#ff0000"  xml:space="preserve" font-size="6.73386" transform="translate(1178.92, 254.266)" >D</text>
<text fill="#ff0000"  xml:space="preserve" font-size="6.73386" transform="translate(1178.92, 216.326)" >S</text>
<text fill="#ff0000"  xml:space="preserve" font-size="6.73386" transform="translate(1145.87, 230.524)" >G</text>
<text fill="#cccccc"  xml:space="preserve" font-size="8.97848" transform="translate(1185.4, 223.343)" >pfet_01v8</text>
<text fill="#aaaa00"  xml:space="preserve" font-size="8.97848" transform="translate(1186.48, 253.066)" >1 x 1.26 / 0.15</text>
<text fill="#aaaa00"  xml:space="preserve" font-size="8.97848" transform="translate(1186.48, 242.275)" >nf=1</text>
<path class="l4" d="M285.393 299.95L285.393 338.799"/>
<path class="l4" d="M261.652 319.375L281.077 319.375"/>
<path class="l4" d="M296.185 293.475L296.185 304.267"/>
<path class="l4" d="M296.185 334.483L296.185 345.274"/>
<path class="l4" d="M281.077 306.425L281.077 332.325"/>
<path class="l4" d="M285.393 304.267L296.185 304.267"/>
<path class="l4" d="M285.393 334.483L291.868 334.483"/>
<path class="l4" d="M291.868 332.325L296.185 334.483L291.868 336.641L291.868 332.325"/>
<path class="l4" d="M285.393 213.619L285.393 252.468"/>
<path class="l4" d="M296.185 207.144L296.185 217.935"/>
<path class="l4" d="M296.185 248.151L296.185 258.943"/>
<path class="l4" d="M281.077 220.094L281.077 245.993"/>
<path class="l4" d="M285.393 248.151L296.185 248.151"/>
<path class="l4" d="M289.71 217.935L296.185 217.935"/>
<path class="l4" d="M261.652 233.043L272.443 233.043"/>
<path class="l4" d="M289.71 215.777L285.393 217.935L289.71 220.094L289.71 215.777"/>
<circle class="l4" cx="276.76" cy="233.043" r="4.31658" style="fill:none;"/>
<path class="l4" d="M216.328 127.287L216.328 166.136"/>
<path class="l4" d="M227.119 120.812L227.119 131.604"/>
<path class="l4" d="M227.119 161.82L227.119 172.611"/>
<path class="l4" d="M212.011 133.762L212.011 159.661"/>
<path class="l4" d="M216.328 161.82L227.119 161.82"/>
<path class="l4" d="M220.645 131.604L227.119 131.604"/>
<path class="l4" d="M192.587 146.712L203.378 146.712"/>
<path class="l4" d="M220.645 129.445L216.328 131.604L220.645 133.762L220.645 129.445"/>
<circle class="l4" cx="207.695" cy="146.712" r="4.31658" style="fill:none;"/>
<path class="l4" d="M354.458 127.287L354.458 166.136"/>
<path class="l4" d="M365.25 120.812L365.25 131.604"/>
<path class="l4" d="M365.25 161.82L365.25 172.611"/>
<path class="l4" d="M350.142 133.762L350.142 159.661"/>
<path class="l4" d="M354.458 161.82L365.25 161.82"/>
<path class="l4" d="M358.775 131.604L365.25 131.604"/>
<path class="l4" d="M330.717 146.712L341.509 146.712"/>
<path class="l4" d="M358.775 129.445L354.458 131.604L358.775 133.762L358.775 129.445"/>
<circle class="l4" cx="345.825" cy="146.712" r="4.31658" style="fill:none;"/>
<path class="l4" d="M216.328 386.282L216.328 425.131"/>
<path class="l4" d="M192.587 405.706L212.011 405.706"/>
<path class="l4" d="M227.119 379.807L227.119 390.598"/>
<path class="l4" d="M227.119 420.814L227.119 431.606"/>
<path class="l4" d="M212.011 392.757L212.011 418.656"/>
<path class="l4" d="M216.328 390.598L227.119 390.598"/>
<path class="l4" d="M216.328 420.814L222.803 420.814"/>
<path class="l4" d="M222.803 418.656L227.119 420.814L222.803 422.973L222.803 418.656"/>
<path class="l4" d="M354.458 386.282L354.458 425.131"/>
<path class="l4" d="M330.717 405.706L350.142 405.706"/>
<path class="l4" d="M365.25 379.807L365.25 390.598"/>
<path class="l4" d="M365.25 420.814L365.25 431.606"/>
<path class="l4" d="M350.142 392.757L350.142 418.656"/>
<path class="l4" d="M354.458 390.598L365.25 390.598"/>
<path class="l4" d="M354.458 420.814L360.933 420.814"/>
<path class="l4" d="M360.933 418.656L365.25 420.814L360.933 422.973L360.933 418.656"/>
<path class="l4" d="M492.589 213.619L492.589 252.468"/>
<path class="l4" d="M503.38 207.144L503.38 217.935"/>
<path class="l4" d="M503.38 248.151L503.38 258.943"/>
<path class="l4" d="M488.272 220.094L488.272 245.993"/>
<path class="l4" d="M492.589 248.151L503.38 248.151"/>
<path class="l4" d="M496.905 217.935L503.38 217.935"/>
<path class="l4" d="M468.848 233.043L479.639 233.043"/>
<path class="l4" d="M496.905 215.777L492.589 217.935L496.905 220.094L496.905 215.777"/>
<circle class="l4" cx="483.956" cy="233.043" r="4.31658" style="fill:none;"/>
<path class="l4" d="M492.589 127.287L492.589 166.136"/>
<path class="l4" d="M503.38 120.812L503.38 131.604"/>
<path class="l4" d="M503.38 161.82L503.38 172.611"/>
<path class="l4" d="M488.272 133.762L488.272 159.661"/>
<path class="l4" d="M492.589 161.82L503.38 161.82"/>
<path class="l4" d="M496.905 131.604L503.38 131.604"/>
<path class="l4" d="M468.848 146.712L479.639 146.712"/>
<path class="l4" d="M496.905 129.445L492.589 131.604L496.905 133.762L496.905 129.445"/>
<circle class="l4" cx="483.956" cy="146.712" r="4.31658" style="fill:none;"/>
<path class="l4" d="M492.589 299.95L492.589 338.799"/>
<path class="l4" d="M468.848 319.375L488.272 319.375"/>
<path class="l4" d="M503.38 293.475L503.38 304.267"/>
<path class="l4" d="M503.38 334.483L503.38 345.274"/>
<path class="l4" d="M488.272 306.425L488.272 332.325"/>
<path class="l4" d="M492.589 304.267L503.38 304.267"/>
<path class="l4" d="M492.589 334.483L499.064 334.483"/>
<path class="l4" d="M499.064 332.325L503.38 334.483L499.064 336.641L499.064 332.325"/>
<path class="l4" d="M492.589 386.282L492.589 425.131"/>
<path class="l4" d="M468.848 405.706L488.272 405.706"/>
<path class="l4" d="M503.38 379.807L503.38 390.598"/>
<path class="l4" d="M503.38 420.814L503.38 431.606"/>
<path class="l4" d="M488.272 392.757L488.272 418.656"/>
<path class="l4" d="M492.589 390.598L503.38 390.598"/>
<path class="l4" d="M492.589 420.814L499.064 420.814"/>
<path class="l4" d="M499.064 418.656L503.38 420.814L499.064 422.973L499.064 418.656"/>
<path class="l4" d="M630.719 127.287L630.719 166.136"/>
<path class="l4" d="M641.511 120.812L641.511 131.604"/>
<path class="l4" d="M641.511 161.82L641.511 172.611"/>
<path class="l4" d="M626.403 133.762L626.403 159.661"/>
<path class="l4" d="M630.719 161.82L641.511 161.82"/>
<path class="l4" d="M635.036 131.604L641.511 131.604"/>
<path class="l4" d="M606.978 146.712L617.77 146.712"/>
<path class="l4" d="M635.036 129.445L630.719 131.604L635.036 133.762L635.036 129.445"/>
<circle class="l4" cx="622.086" cy="146.712" r="4.31658" style="fill:none;"/>
<path class="l4" d="M768.85 127.287L768.85 166.136"/>
<path class="l4" d="M779.641 120.812L779.641 131.604"/>
<path class="l4" d="M779.641 161.82L779.641 172.611"/>
<path class="l4" d="M764.533 133.762L764.533 159.661"/>
<path class="l4" d="M768.85 161.82L779.641 161.82"/>
<path class="l4" d="M773.166 131.604L779.641 131.604"/>
<path class="l4" d="M745.109 146.712L755.9 146.712"/>
<path class="l4" d="M773.166 129.445L768.85 131.604L773.166 133.762L773.166 129.445"/>
<circle class="l4" cx="760.217" cy="146.712" r="4.31658" style="fill:none;"/>
<path class="l4" d="M906.98 127.287L906.98 166.136"/>
<path class="l4" d="M917.772 120.812L917.772 131.604"/>
<path class="l4" d="M917.772 161.82L917.772 172.611"/>
<path class="l4" d="M902.664 133.762L902.664 159.661"/>
<path class="l4" d="M906.98 161.82L917.772 161.82"/>
<path class="l4" d="M911.297 131.604L917.772 131.604"/>
<path class="l4" d="M883.239 146.712L894.031 146.712"/>
<path class="l4" d="M911.297 129.445L906.98 131.604L911.297 133.762L911.297 129.445"/>
<circle class="l4" cx="898.347" cy="146.712" r="4.31658" style="fill:none;"/>
<path class="l4" d="M768.85 213.619L768.85 252.468"/>
<path class="l4" d="M779.641 207.144L779.641 217.935"/>
<path class="l4" d="M779.641 248.151L779.641 258.943"/>
<path class="l4" d="M764.533 220.094L764.533 245.993"/>
<path class="l4" d="M768.85 248.151L779.641 248.151"/>
<path class="l4" d="M773.166 217.935L779.641 217.935"/>
<path class="l4" d="M745.109 233.043L755.9 233.043"/>
<path class="l4" d="M773.166 215.777L768.85 217.935L773.166 220.094L773.166 215.777"/>
<circle class="l4" cx="760.217" cy="233.043" r="4.31658" style="fill:none;"/>
<path class="l4" d="M768.85 299.95L768.85 338.799"/>
<path class="l4" d="M745.109 319.375L764.533 319.375"/>
<path class="l4" d="M779.641 293.475L779.641 304.267"/>
<path class="l4" d="M779.641 334.483L779.641 345.274"/>
<path class="l4" d="M764.533 306.425L764.533 332.325"/>
<path class="l4" d="M768.85 304.267L779.641 304.267"/>
<path class="l4" d="M768.85 334.483L775.325 334.483"/>
<path class="l4" d="M775.325 332.325L779.641 334.483L775.325 336.641L775.325 332.325"/>
<path class="l4" d="M630.719 386.282L630.719 425.131"/>
<path class="l4" d="M606.978 405.706L626.403 405.706"/>
<path class="l4" d="M641.511 379.807L641.511 390.598"/>
<path class="l4" d="M641.511 420.814L641.511 431.606"/>
<path class="l4" d="M626.403 392.757L626.403 418.656"/>
<path class="l4" d="M630.719 390.598L641.511 390.598"/>
<path class="l4" d="M630.719 420.814L637.194 420.814"/>
<path class="l4" d="M637.194 418.656L641.511 420.814L637.194 422.973L637.194 418.656"/>
<path class="l4" d="M768.85 386.282L768.85 425.131"/>
<path class="l4" d="M745.109 405.706L764.533 405.706"/>
<path class="l4" d="M779.641 379.807L779.641 390.598"/>
<path class="l4" d="M779.641 420.814L779.641 431.606"/>
<path class="l4" d="M764.533 392.757L764.533 418.656"/>
<path class="l4" d="M768.85 390.598L779.641 390.598"/>
<path class="l4" d="M768.85 420.814L775.325 420.814"/>
<path class="l4" d="M775.325 418.656L779.641 420.814L775.325 422.973L775.325 418.656"/>
<path class="l4" d="M906.98 386.282L906.98 425.131"/>
<path class="l4" d="M883.239 405.706L902.664 405.706"/>
<path class="l4" d="M917.772 379.807L917.772 390.598"/>
<path class="l4" d="M917.772 420.814L917.772 431.606"/>
<path class="l4" d="M902.664 392.757L902.664 418.656"/>
<path class="l4" d="M906.98 390.598L917.772 390.598"/>
<path class="l4" d="M906.98 420.814L913.455 420.814"/>
<path class="l4" d="M913.455 418.656L917.772 420.814L913.455 422.973L913.455 418.656"/>
<path class="l4" d="M1045.11 213.619L1045.11 252.468"/>
<path class="l4" d="M1055.9 207.144L1055.9 217.935"/>
<path class="l4" d="M1055.9 248.151L1055.9 258.943"/>
<path class="l4" d="M1040.79 220.094L1040.79 245.993"/>
<path class="l4" d="M1045.11 248.151L1055.9 248.151"/>
<path class="l4" d="M1049.43 217.935L1055.9 217.935"/>
<path class="l4" d="M1021.37 233.043L1032.16 233.043"/>
<path class="l4" d="M1049.43 215.777L1045.11 217.935L1049.43 220.094L1049.43 215.777"/>
<circle class="l4" cx="1036.48" cy="233.043" r="4.31658" style="fill:none;"/>
<path class="l4" d="M1045.11 127.287L1045.11 166.136"/>
<path class="l4" d="M1055.9 120.812L1055.9 131.604"/>
<path class="l4" d="M1055.9 161.82L1055.9 172.611"/>
<path class="l4" d="M1040.79 133.762L1040.79 159.661"/>
<path class="l4" d="M1045.11 161.82L1055.9 161.82"/>
<path class="l4" d="M1049.43 131.604L1055.9 131.604"/>
<path class="l4" d="M1021.37 146.712L1032.16 146.712"/>
<path class="l4" d="M1049.43 129.445L1045.11 131.604L1049.43 133.762L1049.43 129.445"/>
<circle class="l4" cx="1036.48" cy="146.712" r="4.31658" style="fill:none;"/>
<path class="l4" d="M1045.11 40.9556L1045.11 79.8048"/>
<path class="l4" d="M1055.9 34.4807L1055.9 45.2722"/>
<path class="l4" d="M1055.9 75.4882L1055.9 86.2797"/>
<path class="l4" d="M1040.79 47.4305L1040.79 73.3299"/>
<path class="l4" d="M1045.11 75.4882L1055.9 75.4882"/>
<path class="l4" d="M1049.43 45.2722L1055.9 45.2722"/>
<path class="l4" d="M1021.37 60.3802L1032.16 60.3802"/>
<path class="l4" d="M1049.43 43.1139L1045.11 45.2722L1049.43 47.4305L1049.43 43.1139"/>
<circle class="l4" cx="1036.48" cy="60.3802" r="4.31658" style="fill:none;"/>
<path class="l4" d="M1045.11 299.95L1045.11 338.799"/>
<path class="l4" d="M1021.37 319.375L1040.79 319.375"/>
<path class="l4" d="M1055.9 293.475L1055.9 304.267"/>
<path class="l4" d="M1055.9 334.483L1055.9 345.274"/>
<path class="l4" d="M1040.79 306.425L1040.79 332.325"/>
<path class="l4" d="M1045.11 304.267L1055.9 304.267"/>
<path class="l4" d="M1045.11 334.483L1051.59 334.483"/>
<path class="l4" d="M1051.59 332.325L1055.9 334.483L1051.59 336.641L1051.59 332.325"/>
<path class="l4" d="M1045.11 386.282L1045.11 425.131"/>
<path class="l4" d="M1021.37 405.706L1040.79 405.706"/>
<path class="l4" d="M1055.9 379.807L1055.9 390.598"/>
<path class="l4" d="M1055.9 420.814L1055.9 431.606"/>
<path class="l4" d="M1040.79 392.757L1040.79 418.656"/>
<path class="l4" d="M1045.11 390.598L1055.9 390.598"/>
<path class="l4" d="M1045.11 420.814L1051.59 420.814"/>
<path class="l4" d="M1051.59 418.656L1055.9 420.814L1051.59 422.973L1051.59 418.656"/>
<path class="l4" d="M1045.11 472.613L1045.11 511.463"/>
<path class="l4" d="M1021.37 492.038L1040.79 492.038"/>
<path class="l4" d="M1055.9 466.138L1055.9 476.93"/>
<path class="l4" d="M1055.9 507.146L1055.9 517.937"/>
<path class="l4" d="M1040.79 479.088L1040.79 504.988"/>
<path class="l4" d="M1045.11 476.93L1055.9 476.93"/>
<path class="l4" d="M1045.11 507.146L1051.59 507.146"/>
<path class="l4" d="M1051.59 504.988L1055.9 507.146L1051.59 509.304L1051.59 504.988"/>
<path class="l4" d="M647.986 593.478L647.986 632.327"/>
<path class="l4" d="M624.244 612.902L643.669 612.902"/>
<path class="l4" d="M658.777 587.003L658.777 597.794"/>
<path class="l4" d="M658.777 628.01L658.777 638.802"/>
<path class="l4" d="M643.669 599.952L643.669 625.852"/>
<path class="l4" d="M647.986 597.794L658.777 597.794"/>
<path class="l4" d="M647.986 628.01L654.461 628.01"/>
<path class="l4" d="M654.461 625.852L658.777 628.01L654.461 630.168L654.461 625.852"/>
<path class="l4" d="M647.986 507.146L647.986 545.995"/>
<path class="l4" d="M658.777 500.671L658.777 511.463"/>
<path class="l4" d="M658.777 541.679L658.777 552.47"/>
<path class="l4" d="M643.669 513.621L643.669 539.52"/>
<path class="l4" d="M647.986 541.679L658.777 541.679"/>
<path class="l4" d="M652.302 511.463L658.777 511.463"/>
<path class="l4" d="M624.244 526.571L635.036 526.571"/>
<path class="l4" d="M652.302 509.304L647.986 511.463L652.302 513.621L652.302 509.304"/>
<circle class="l4" cx="639.353" cy="526.571" r="4.31658" style="fill:none;"/>
<path class="l4" d="M1165.97 299.95L1165.97 338.799"/>
<path class="l4" d="M1142.23 319.375L1161.66 319.375"/>
<path class="l4" d="M1176.77 293.475L1176.77 304.267"/>
<path class="l4" d="M1176.77 334.483L1176.77 345.274"/>
<path class="l4" d="M1161.66 306.425L1161.66 332.325"/>
<path class="l4" d="M1165.97 304.267L1176.77 304.267"/>
<path class="l4" d="M1165.97 334.483L1172.45 334.483"/>
<path class="l4" d="M1172.45 332.325L1176.77 334.483L1172.45 336.641L1172.45 332.325"/>
<path class="l4" d="M1165.97 213.619L1165.97 252.468"/>
<path class="l4" d="M1176.77 207.144L1176.77 217.935"/>
<path class="l4" d="M1176.77 248.151L1176.77 258.943"/>
<path class="l4" d="M1161.66 220.094L1161.66 245.993"/>
<path class="l4" d="M1165.97 248.151L1176.77 248.151"/>
<path class="l4" d="M1170.29 217.935L1176.77 217.935"/>
<path class="l4" d="M1142.23 233.043L1153.03 233.043"/>
<path class="l4" d="M1170.29 215.777L1165.97 217.935L1170.29 220.094L1170.29 215.777"/>
<circle class="l4" cx="1157.34" cy="233.043" r="4.31658" style="fill:none;"/>
<path class="l5" d="M294.026 291.317L298.343 291.317L298.343 295.634L294.026 295.634L294.026 291.317z"/>
<path class="l5" d="M259.494 317.217L263.81 317.217L263.81 321.533L259.494 321.533L259.494 317.217z"/>
<path class="l5" d="M294.026 343.116L298.343 343.116L298.343 347.433L294.026 347.433L294.026 343.116z"/>
<path class="l5" d="M294.026 256.784L298.343 256.784L298.343 261.101L294.026 261.101L294.026 256.784z"/>
<path class="l5" d="M259.494 230.885L263.81 230.885L263.81 235.202L259.494 235.202L259.494 230.885z"/>
<path class="l5" d="M294.026 204.986L298.343 204.986L298.343 209.302L294.026 209.302L294.026 204.986z"/>
<path class="l5" d="M224.961 170.453L229.278 170.453L229.278 174.77L224.961 174.77L224.961 170.453z"/>
<path class="l5" d="M190.428 144.553L194.745 144.553L194.745 148.87L190.428 148.87L190.428 144.553z"/>
<path class="l5" d="M224.961 118.654L229.278 118.654L229.278 122.971L224.961 122.971L224.961 118.654z"/>
<path class="l5" d="M363.092 170.453L367.408 170.453L367.408 174.77L363.092 174.77L363.092 170.453z"/>
<path class="l5" d="M328.559 144.553L332.876 144.553L332.876 148.87L328.559 148.87L328.559 144.553z"/>
<path class="l5" d="M363.092 118.654L367.408 118.654L367.408 122.971L363.092 122.971L363.092 118.654z"/>
<path class="l5" d="M224.961 377.649L229.278 377.649L229.278 381.965L224.961 381.965L224.961 377.649z"/>
<path class="l5" d="M190.428 403.548L194.745 403.548L194.745 407.865L190.428 407.865L190.428 403.548z"/>
<path class="l5" d="M224.961 429.448L229.278 429.448L229.278 433.764L224.961 433.764L224.961 429.448z"/>
<path class="l5" d="M363.092 377.649L367.408 377.649L367.408 381.965L363.092 381.965L363.092 377.649z"/>
<path class="l5" d="M328.559 403.548L332.876 403.548L332.876 407.865L328.559 407.865L328.559 403.548z"/>
<path class="l5" d="M363.092 429.448L367.408 429.448L367.408 433.764L363.092 433.764L363.092 429.448z"/>
<path class="l5" d="M501.222 256.784L505.539 256.784L505.539 261.101L501.222 261.101L501.222 256.784z"/>
<path class="l5" d="M466.689 230.885L471.006 230.885L471.006 235.202L466.689 235.202L466.689 230.885z"/>
<path class="l5" d="M501.222 204.986L505.539 204.986L505.539 209.302L501.222 209.302L501.222 204.986z"/>
<path class="l5" d="M501.222 170.453L505.539 170.453L505.539 174.77L501.222 174.77L501.222 170.453z"/>
<path class="l5" d="M466.689 144.553L471.006 144.553L471.006 148.87L466.689 148.87L466.689 144.553z"/>
<path class="l5" d="M501.222 118.654L505.539 118.654L505.539 122.971L501.222 122.971L501.222 118.654z"/>
<path class="l5" d="M501.222 291.317L505.539 291.317L505.539 295.634L501.222 295.634L501.222 291.317z"/>
<path class="l5" d="M466.689 317.217L471.006 317.217L471.006 321.533L466.689 321.533L466.689 317.217z"/>
<path class="l5" d="M501.222 343.116L505.539 343.116L505.539 347.433L501.222 347.433L501.222 343.116z"/>
<path class="l5" d="M501.222 377.649L505.539 377.649L505.539 381.965L501.222 381.965L501.222 377.649z"/>
<path class="l5" d="M466.689 403.548L471.006 403.548L471.006 407.865L466.689 407.865L466.689 403.548z"/>
<path class="l5" d="M501.222 429.448L505.539 429.448L505.539 433.764L501.222 433.764L501.222 429.448z"/>
<path class="l5" d="M639.353 170.453L643.669 170.453L643.669 174.77L639.353 174.77L639.353 170.453z"/>
<path class="l5" d="M604.82 144.553L609.136 144.553L609.136 148.87L604.82 148.87L604.82 144.553z"/>
<path class="l5" d="M639.353 118.654L643.669 118.654L643.669 122.971L639.353 122.971L639.353 118.654z"/>
<path class="l5" d="M777.483 170.453L781.8 170.453L781.8 174.77L777.483 174.77L777.483 170.453z"/>
<path class="l5" d="M742.95 144.553L747.267 144.553L747.267 148.87L742.95 148.87L742.95 144.553z"/>
<path class="l5" d="M777.483 118.654L781.8 118.654L781.8 122.971L777.483 122.971L777.483 118.654z"/>
<path class="l5" d="M915.613 170.453L919.93 170.453L919.93 174.77L915.613 174.77L915.613 170.453z"/>
<path class="l5" d="M881.081 144.553L885.397 144.553L885.397 148.87L881.081 148.87L881.081 144.553z"/>
<path class="l5" d="M915.613 118.654L919.93 118.654L919.93 122.971L915.613 122.971L915.613 118.654z"/>
<path class="l5" d="M777.483 256.784L781.8 256.784L781.8 261.101L777.483 261.101L777.483 256.784z"/>
<path class="l5" d="M742.95 230.885L747.267 230.885L747.267 235.202L742.95 235.202L742.95 230.885z"/>
<path class="l5" d="M777.483 204.986L781.8 204.986L781.8 209.302L777.483 209.302L777.483 204.986z"/>
<path class="l5" d="M777.483 291.317L781.8 291.317L781.8 295.634L777.483 295.634L777.483 291.317z"/>
<path class="l5" d="M742.95 317.217L747.267 317.217L747.267 321.533L742.95 321.533L742.95 317.217z"/>
<path class="l5" d="M777.483 343.116L781.8 343.116L781.8 347.433L777.483 347.433L777.483 343.116z"/>
<path class="l5" d="M639.353 377.649L643.669 377.649L643.669 381.965L639.353 381.965L639.353 377.649z"/>
<path class="l5" d="M604.82 403.548L609.136 403.548L609.136 407.865L604.82 407.865L604.82 403.548z"/>
<path class="l5" d="M639.353 429.448L643.669 429.448L643.669 433.764L639.353 433.764L639.353 429.448z"/>
<path class="l5" d="M777.483 377.649L781.8 377.649L781.8 381.965L777.483 381.965L777.483 377.649z"/>
<path class="l5" d="M742.95 403.548L747.267 403.548L747.267 407.865L742.95 407.865L742.95 403.548z"/>
<path class="l5" d="M777.483 429.448L781.8 429.448L781.8 433.764L777.483 433.764L777.483 429.448z"/>
<path class="l5" d="M915.613 377.649L919.93 377.649L919.93 381.965L915.613 381.965L915.613 377.649z"/>
<path class="l5" d="M881.081 403.548L885.397 403.548L885.397 407.865L881.081 407.865L881.081 403.548z"/>
<path class="l5" d="M915.613 429.448L919.93 429.448L919.93 433.764L915.613 433.764L915.613 429.448z"/>
<path class="l5" d="M1053.74 256.784L1058.06 256.784L1058.06 261.101L1053.74 261.101L1053.74 256.784z"/>
<path class="l5" d="M1019.21 230.885L1023.53 230.885L1023.53 235.202L1019.21 235.202L1019.21 230.885z"/>
<path class="l5" d="M1053.74 204.986L1058.06 204.986L1058.06 209.302L1053.74 209.302L1053.74 204.986z"/>
<path class="l5" d="M1053.74 170.453L1058.06 170.453L1058.06 174.77L1053.74 174.77L1053.74 170.453z"/>
<path class="l5" d="M1019.21 144.553L1023.53 144.553L1023.53 148.87L1019.21 148.87L1019.21 144.553z"/>
<path class="l5" d="M1053.74 118.654L1058.06 118.654L1058.06 122.971L1053.74 122.971L1053.74 118.654z"/>
<path class="l5" d="M1053.74 84.1214L1058.06 84.1214L1058.06 88.438L1053.74 88.438L1053.74 84.1214z"/>
<path class="l5" d="M1019.21 58.2219L1023.53 58.2219L1023.53 62.5385L1019.21 62.5385L1019.21 58.2219z"/>
<path class="l5" d="M1053.74 32.3225L1058.06 32.3225L1058.06 36.639L1053.74 36.639L1053.74 32.3225z"/>
<path class="l5" d="M1053.74 291.317L1058.06 291.317L1058.06 295.634L1053.74 295.634L1053.74 291.317z"/>
<path class="l5" d="M1019.21 317.217L1023.53 317.217L1023.53 321.533L1019.21 321.533L1019.21 317.217z"/>
<path class="l5" d="M1053.74 343.116L1058.06 343.116L1058.06 347.433L1053.74 347.433L1053.74 343.116z"/>
<path class="l5" d="M1053.74 377.649L1058.06 377.649L1058.06 381.965L1053.74 381.965L1053.74 377.649z"/>
<path class="l5" d="M1019.21 403.548L1023.53 403.548L1023.53 407.865L1019.21 407.865L1019.21 403.548z"/>
<path class="l5" d="M1053.74 429.448L1058.06 429.448L1058.06 433.764L1053.74 433.764L1053.74 429.448z"/>
<path class="l5" d="M1053.74 463.98L1058.06 463.98L1058.06 468.297L1053.74 468.297L1053.74 463.98z"/>
<path class="l5" d="M1019.21 489.88L1023.53 489.88L1023.53 494.196L1019.21 494.196L1019.21 489.88z"/>
<path class="l5" d="M1053.74 515.779L1058.06 515.779L1058.06 520.096L1053.74 520.096L1053.74 515.779z"/>
<path class="l5" d="M67.406 207.144L71.7226 207.144"/>
<path class="l5" d="M67.406 207.144L64.1686 202.827L56.6146 202.827L59.852 207.144L56.6146 211.46L64.1686 211.46L67.406 207.144"/>
<path class="l5" d="M70.6434 206.065L72.8017 206.065L72.8017 208.223L70.6434 208.223L70.6434 206.065z"/>
<path class="l5" d="M67.406 241.676L71.7226 241.676"/>
<path class="l5" d="M67.406 241.676L64.1686 237.36L56.6146 237.36L59.852 241.676L56.6146 245.993L64.1686 245.993L67.406 241.676"/>
<path class="l5" d="M70.6434 240.597L72.8017 240.597L72.8017 242.756L70.6434 242.756L70.6434 240.597z"/>
<path class="l5" d="M67.406 276.209L71.7226 276.209"/>
<path class="l5" d="M67.406 276.209L64.1686 271.893L56.6146 271.893L59.852 276.209L56.6146 280.526L64.1686 280.526L67.406 276.209"/>
<path class="l5" d="M70.6434 275.13L72.8017 275.13L72.8017 277.288L70.6434 277.288L70.6434 275.13z"/>
<path class="l5" d="M1211.3 276.209L1218.85 276.209"/>
<path class="l5" d="M1226.41 276.209L1223.17 271.893L1215.62 271.893L1218.85 276.209L1215.62 280.526L1223.17 280.526L1226.41 276.209"/>
<path class="l5" d="M1210.22 275.13L1212.38 275.13L1212.38 277.288L1210.22 277.288L1210.22 275.13z"/>
<path class="l5" d="M676.043 569.736L683.597 569.736"/>
<path class="l5" d="M691.151 569.736L687.914 565.42L680.36 565.42L683.597 569.736L680.36 574.053L687.914 574.053L691.151 569.736"/>
<path class="l5" d="M674.964 568.657L677.123 568.657L677.123 570.815L674.964 570.815L674.964 568.657z"/>
<path class="l5" d="M87.9098 206.065L90.068 206.065L90.068 208.223L87.9098 208.223L87.9098 206.065z"/>
<path class="l5" d="M87.9098 240.597L90.068 240.597L90.068 242.756L87.9098 242.756L87.9098 240.597z"/>
<path class="l5" d="M87.9098 275.13L90.068 275.13L90.068 277.288L87.9098 277.288L87.9098 275.13z"/>
<path class="l5" d="M182.874 145.633L185.033 145.633L185.033 147.791L182.874 147.791L182.874 145.633z"/>
<path class="l5" d="M182.874 404.627L185.033 404.627L185.033 406.786L182.874 406.786L182.874 404.627z"/>
<path class="l5" d="M459.135 145.633L461.294 145.633L461.294 147.791L459.135 147.791L459.135 145.633z"/>
<path class="l5" d="M459.135 404.627L461.294 404.627L461.294 406.786L459.135 406.786L459.135 404.627z"/>
<path class="l5" d="M597.266 145.633L599.424 145.633L599.424 147.791L597.266 147.791L597.266 145.633z"/>
<path class="l5" d="M597.266 404.627L599.424 404.627L599.424 406.786L597.266 406.786L597.266 404.627z"/>
<path class="l5" d="M1011.66 59.3011L1013.82 59.3011L1013.82 61.4594L1011.66 61.4594L1011.66 59.3011z"/>
<path class="l5" d="M1011.66 490.959L1013.82 490.959L1013.82 493.117L1011.66 493.117L1011.66 490.959z"/>
<path class="l5" d="M321.005 145.633L323.163 145.633L323.163 147.791L321.005 147.791L321.005 145.633z"/>
<path class="l5" d="M321.005 404.627L323.163 404.627L323.163 406.786L321.005 406.786L321.005 404.627z"/>
<path class="l5" d="M459.135 318.296L461.294 318.296L461.294 320.454L459.135 320.454L459.135 318.296z"/>
<path class="l5" d="M459.135 231.964L461.294 231.964L461.294 234.122L459.135 234.122L459.135 231.964z"/>
<path class="l5" d="M735.396 404.627L737.555 404.627L737.555 406.786L735.396 406.786L735.396 404.627z"/>
<path class="l5" d="M735.396 145.633L737.555 145.633L737.555 147.791L735.396 147.791L735.396 145.633z"/>
<path class="l5" d="M1011.66 145.633L1013.82 145.633L1013.82 147.791L1011.66 147.791L1011.66 145.633z"/>
<path class="l5" d="M1011.66 404.627L1013.82 404.627L1013.82 406.786L1011.66 406.786L1011.66 404.627z"/>
<path class="l5" d="M191.508 275.13L193.666 275.13L193.666 277.288L191.508 277.288L191.508 275.13z"/>
<path class="l5" d="M873.527 145.633L875.685 145.633L875.685 147.791L873.527 147.791L873.527 145.633z"/>
<path class="l5" d="M873.527 404.627L875.685 404.627L875.685 406.786L873.527 406.786L873.527 404.627z"/>
<path class="l5" d="M1011.66 318.296L1013.82 318.296L1013.82 320.454L1011.66 320.454L1011.66 318.296z"/>
<path class="l5" d="M1011.66 231.964L1013.82 231.964L1013.82 234.122L1011.66 234.122L1011.66 231.964z"/>
<path class="l5" d="M656.619 584.844L660.935 584.844L660.935 589.161L656.619 589.161L656.619 584.844z"/>
<path class="l5" d="M622.086 610.744L626.403 610.744L626.403 615.06L622.086 615.06L622.086 610.744z"/>
<path class="l5" d="M656.619 636.643L660.935 636.643L660.935 640.96L656.619 640.96L656.619 636.643z"/>
<path class="l5" d="M656.619 550.312L660.935 550.312L660.935 554.628L656.619 554.628L656.619 550.312z"/>
<path class="l5" d="M622.086 524.412L626.403 524.412L626.403 528.729L622.086 528.729L622.086 524.412z"/>
<path class="l5" d="M656.619 498.513L660.935 498.513L660.935 502.829L656.619 502.829L656.619 498.513z"/>
<path class="l5" d="M1174.61 291.317L1178.92 291.317L1178.92 295.634L1174.61 295.634L1174.61 291.317z"/>
<path class="l5" d="M1140.08 317.217L1144.39 317.217L1144.39 321.533L1140.08 321.533L1140.08 317.217z"/>
<path class="l5" d="M1174.61 343.116L1178.92 343.116L1178.92 347.433L1174.61 347.433L1174.61 343.116z"/>
<path class="l5" d="M1174.61 256.784L1178.92 256.784L1178.92 261.101L1174.61 261.101L1174.61 256.784z"/>
<path class="l5" d="M1140.08 230.885L1144.39 230.885L1144.39 235.202L1140.08 235.202L1140.08 230.885z"/>
<path class="l5" d="M1174.61 204.986L1178.92 204.986L1178.92 209.302L1174.61 209.302L1174.61 204.986z"/>
<path class="l5" d="M933.959 275.13L936.117 275.13L936.117 277.288L933.959 277.288L933.959 275.13z"/>
<path class="l5" d="M1054.82 102.467L1056.98 102.467L1056.98 104.625L1054.82 104.625L1054.82 102.467z"/>
<path class="l5" d="M1054.82 188.798L1056.98 188.798L1056.98 190.957L1054.82 190.957L1054.82 188.798z"/>
<path class="l5" d="M1054.82 361.461L1056.98 361.461L1056.98 363.62L1054.82 363.62L1054.82 361.461z"/>
<path class="l5" d="M1054.82 447.793L1056.98 447.793L1056.98 449.951L1054.82 449.951L1054.82 447.793z"/>
<path class="l5" d="M640.432 188.798L642.59 188.798L642.59 190.957L640.432 190.957L640.432 188.798z"/>
<path class="l5" d="M640.432 361.461L642.59 361.461L642.59 363.62L640.432 363.62L640.432 361.461z"/>
<path class="l5" d="M666.331 275.13L668.489 275.13L668.489 277.288L666.331 277.288L666.331 275.13z"/>
<path class="l5" d="M502.301 188.798L504.459 188.798L504.459 190.957L502.301 190.957L502.301 188.798z"/>
<path class="l5" d="M502.301 361.461L504.459 361.461L504.459 363.62L502.301 363.62L502.301 361.461z"/>
<path class="l5" d="M226.04 188.798L228.199 188.798L228.199 190.957L226.04 190.957L226.04 188.798z"/>
<path class="l5" d="M226.04 361.461L228.199 361.461L228.199 363.62L226.04 363.62L226.04 361.461z"/>
<path class="l5" d="M67.406 319.375L71.7226 319.375"/>
<path class="l5" d="M67.406 319.375L64.1686 315.058L56.6146 315.058L59.852 319.375L56.6146 323.691L64.1686 323.691L67.406 319.375"/>
<path class="l5" d="M70.6434 318.296L72.8017 318.296L72.8017 320.454L70.6434 320.454L70.6434 318.296z"/>
<path class="l5" d="M96.5429 318.296L98.7012 318.296L98.7012 320.454L96.5429 320.454L96.5429 318.296z"/>
<path class="l5" d="M67.406 302.109L71.7226 302.109"/>
<path class="l5" d="M67.406 302.109L64.1686 297.792L56.6146 297.792L59.852 302.109L56.6146 306.425L64.1686 306.425L67.406 302.109"/>
<path class="l5" d="M70.6434 301.029L72.8017 301.029L72.8017 303.188L70.6434 303.188L70.6434 301.029z"/>
<path class="l5" d="M96.5429 301.029L98.7012 301.029L98.7012 303.188L96.5429 303.188L96.5429 301.029z"/>
<path class="l5" d="M295.105 85.2005L297.264 85.2005L297.264 87.3588L295.105 87.3588L295.105 85.2005z"/>
<path class="l5" d="M502.301 85.2005L504.459 85.2005L504.459 87.3588L502.301 87.3588L502.301 85.2005z"/>
<path class="l5" d="M778.562 85.2005L780.72 85.2005L780.72 87.3588L778.562 87.3588L778.562 85.2005z"/>
<path class="l5" d="M1054.82 16.1353L1056.98 16.1353L1056.98 18.2936L1054.82 18.2936L1054.82 16.1353z"/>
<path class="l5" d="M1175.69 188.798L1177.85 188.798L1177.85 190.957L1175.69 190.957L1175.69 188.798z"/>
<path class="l5" d="M657.698 482.326L659.856 482.326L659.856 484.484L657.698 484.484L657.698 482.326z"/>
<path class="l5" d="M295.105 465.059L297.264 465.059L297.264 467.218L295.105 467.218L295.105 465.059z"/>
<path class="l5" d="M502.301 465.059L504.459 465.059L504.459 467.218L502.301 467.218L502.301 465.059z"/>
<path class="l5" d="M778.562 465.059L780.72 465.059L780.72 467.218L778.562 467.218L778.562 465.059z"/>
<path class="l5" d="M1175.69 361.461L1177.85 361.461L1177.85 363.62L1175.69 363.62L1175.69 361.461z"/>
<path class="l5" d="M1054.82 534.125L1056.98 534.125L1056.98 536.283L1054.82 536.283L1054.82 534.125z"/>
<path class="l5" d="M657.698 654.989L659.856 654.989L659.856 657.147L657.698 657.147L657.698 654.989z"/>
<path class="l1" d="M296.185 189.878L296.185 207.144"/>
<path class="l1" d="M365.25 172.611L365.25 189.878"/>
<path class="l1" d="M227.119 172.611L227.119 189.878"/>
<path class="l1" d="M227.119 189.878L296.185 189.878"/>
<path class="l1" d="M296.185 189.878L365.25 189.878"/>
<path class="l1" d="M296.185 276.209L296.185 293.475"/>
<path class="l1" d="M296.185 345.274L296.185 362.541"/>
<path class="l1" d="M296.185 362.541L365.25 362.541"/>
<path class="l1" d="M365.25 362.541L365.25 379.807"/>
<path class="l1" d="M227.119 362.541L296.185 362.541"/>
<path class="l1" d="M227.119 362.541L227.119 379.807"/>
<path class="l1" d="M244.386 233.043L261.652 233.043"/>
<path class="l1" d="M244.386 276.209L244.386 319.375"/>
<path class="l1" d="M244.386 319.375L261.652 319.375"/>
<path class="l1" d="M227.119 103.546L227.119 120.812"/>
<path class="l1" d="M296.185 103.546L365.25 103.546"/>
<path class="l1" d="M365.25 103.546L365.25 120.812"/>
<path class="l1" d="M365.25 431.606L365.25 448.872"/>
<path class="l1" d="M296.185 448.872L365.25 448.872"/>
<path class="l1" d="M227.119 431.606L227.119 448.872"/>
<path class="l1" d="M296.185 448.872L296.185 466.138"/>
<path class="l1" d="M296.185 86.2797L296.185 103.546"/>
<path class="l1" d="M296.185 276.209L503.38 276.209"/>
<path class="l1" d="M503.38 258.943L503.38 276.209"/>
<path class="l1" d="M503.38 172.611L503.38 207.144"/>
<path class="l1" d="M503.38 86.2797L503.38 120.812"/>
<path class="l1" d="M503.38 276.209L503.38 293.475"/>
<path class="l1" d="M503.38 345.274L503.38 379.807"/>
<path class="l1" d="M503.38 431.606L503.38 466.138"/>
<path class="l1" d="M779.641 189.878L779.641 207.144"/>
<path class="l1" d="M641.511 172.611L641.511 189.878"/>
<path class="l1" d="M641.511 189.878L779.641 189.878"/>
<path class="l1" d="M779.641 189.878L917.772 189.878"/>
<path class="l1" d="M917.772 172.611L917.772 189.878"/>
<path class="l1" d="M917.772 103.546L917.772 120.812"/>
<path class="l1" d="M779.641 103.546L917.772 103.546"/>
<path class="l1" d="M641.511 103.546L641.511 120.812"/>
<path class="l1" d="M779.641 103.546L779.641 120.812"/>
<path class="l1" d="M779.641 86.2797L779.641 103.546"/>
<path class="l1" d="M779.641 258.943L779.641 276.209"/>
<path class="l1" d="M779.641 276.209L779.641 293.475"/>
<path class="l1" d="M727.842 319.375L745.109 319.375"/>
<path class="l1" d="M727.842 276.209L727.842 319.375"/>
<path class="l1" d="M727.842 233.043L745.109 233.043"/>
<path class="l1" d="M641.511 362.541L641.511 379.807"/>
<path class="l1" d="M641.511 362.541L779.641 362.541"/>
<path class="l1" d="M779.641 345.274L779.641 362.541"/>
<path class="l1" d="M779.641 362.541L779.641 379.807"/>
<path class="l1" d="M917.772 362.541L917.772 379.807"/>
<path class="l1" d="M779.641 362.541L917.772 362.541"/>
<path class="l1" d="M641.511 431.606L641.511 448.872"/>
<path class="l1" d="M779.641 448.872L917.772 448.872"/>
<path class="l1" d="M917.772 431.606L917.772 448.872"/>
<path class="l1" d="M779.641 431.606L779.641 448.872"/>
<path class="l1" d="M779.641 448.872L779.641 466.138"/>
<path class="l1" d="M1055.9 86.2797L1055.9 120.812"/>
<path class="l1" d="M1055.9 172.611L1055.9 207.144"/>
<path class="l1" d="M1055.9 276.209L1055.9 293.475"/>
<path class="l1" d="M1055.9 345.274L1055.9 379.807"/>
<path class="l1" d="M1055.9 431.606L1055.9 466.138"/>
<path class="l1" d="M1055.9 517.937L1055.9 535.204"/>
<path class="l1" d="M1055.9 17.2144L1055.9 34.4807"/>
<path class="l1" d="M779.641 276.209L1055.9 276.209"/>
<path class="l1" d="M183.954 146.712L192.587 146.712"/>
<path class="l1" d="M460.215 146.712L468.848 146.712"/>
<path class="l1" d="M598.345 146.712L606.978 146.712"/>
<path class="l1" d="M1012.74 60.3802L1021.37 60.3802"/>
<path class="l1" d="M183.954 405.706L192.587 405.706"/>
<path class="l1" d="M460.215 405.706L468.848 405.706"/>
<path class="l1" d="M598.345 405.706L606.978 405.706"/>
<path class="l1" d="M1012.74 492.038L1021.37 492.038"/>
<path class="l1" d="M322.084 146.712L330.717 146.712"/>
<path class="l1" d="M460.215 233.043L468.848 233.043"/>
<path class="l1" d="M460.215 319.375L468.848 319.375"/>
<path class="l1" d="M322.084 405.706L330.717 405.706"/>
<path class="l1" d="M736.476 405.706L745.109 405.706"/>
<path class="l1" d="M736.476 146.712L745.109 146.712"/>
<path class="l1" d="M1012.74 146.712L1021.37 146.712"/>
<path class="l1" d="M1012.74 405.706L1021.37 405.706"/>
<path class="l1" d="M192.587 276.209L244.386 276.209"/>
<path class="l1" d="M874.606 146.712L883.239 146.712"/>
<path class="l1" d="M874.606 405.706L883.239 405.706"/>
<path class="l1" d="M1012.74 319.375L1021.37 319.375"/>
<path class="l1" d="M1012.74 233.043L1021.37 233.043"/>
<path class="l1" d="M572.446 569.736L606.978 569.736"/>
<path class="l1" d="M1055.9 276.209L1124.97 276.209"/>
<path class="l1" d="M71.7226 241.676L88.9889 241.676"/>
<path class="l1" d="M71.7226 276.209L88.9889 276.209"/>
<path class="l1" d="M71.7226 207.144L88.9889 207.144"/>
<path class="l1" d="M227.119 448.872L296.185 448.872"/>
<path class="l1" d="M227.119 103.546L296.185 103.546"/>
<path class="l1" d="M296.185 258.943L296.185 276.209"/>
<path class="l1" d="M779.641 172.611L779.641 189.878"/>
<path class="l1" d="M641.511 103.546L779.641 103.546"/>
<path class="l1" d="M727.842 233.043L727.842 276.209"/>
<path class="l1" d="M641.511 448.872L779.641 448.872"/>
<path class="l1" d="M1055.9 258.943L1055.9 276.209"/>
<path class="l1" d="M244.386 233.043L244.386 276.209"/>
<path class="l1" d="M572.446 276.209L727.842 276.209"/>
<path class="l1" d="M606.978 526.571L624.244 526.571"/>
<path class="l1" d="M606.978 612.902L624.244 612.902"/>
<path class="l1" d="M658.777 569.736L658.777 587.003"/>
<path class="l1" d="M606.978 569.736L606.978 612.902"/>
<path class="l1" d="M658.777 569.736L676.043 569.736"/>
<path class="l1" d="M658.777 552.47L658.777 569.736"/>
<path class="l1" d="M606.978 526.571L606.978 569.736"/>
<path class="l1" d="M572.446 276.209L572.446 569.736"/>
<path class="l1" d="M503.38 276.209L572.446 276.209"/>
<path class="l1" d="M1124.97 233.043L1142.23 233.043"/>
<path class="l1" d="M1124.97 319.375L1142.23 319.375"/>
<path class="l1" d="M1124.97 276.209L1124.97 319.375"/>
<path class="l1" d="M1176.77 276.209L1176.77 293.475"/>
<path class="l1" d="M1124.97 233.043L1124.97 276.209"/>
<path class="l1" d="M1176.77 276.209L1211.3 276.209"/>
<path class="l1" d="M1176.77 258.943L1176.77 276.209"/>
<path class="l1" d="M71.7226 319.375L97.6221 319.375"/>
<path class="l1" d="M71.7226 302.109L97.6221 302.109"/>
<path class="l1" d="M1176.77 189.878L1176.77 207.144"/>
<path class="l1" d="M658.777 483.405L658.777 500.671"/>
<path class="l1" d="M1176.77 345.274L1176.77 362.541"/>
<path class="l1" d="M658.777 638.802L658.777 656.068"/>
<circle class="l1" cx="244.386" cy="276.209" r="3.45326"/>
<circle class="l1" cx="296.185" cy="103.546" r="3.45326"/>
<circle class="l1" cx="296.185" cy="189.878" r="3.45326"/>
<circle class="l1" cx="296.185" cy="448.872" r="3.45326"/>
<circle class="l1" cx="244.386" cy="276.209" r="3.45326"/>
<circle class="l1" cx="244.386" cy="276.209" r="3.45326"/>
<circle class="l1" cx="296.185" cy="362.541" r="3.45326"/>
<circle class="l1" cx="296.185" cy="276.209" r="3.45326"/>
<circle class="l1" cx="503.38" cy="276.209" r="3.45326"/>
<circle class="l1" cx="296.185" cy="103.546" r="3.45326"/>
<circle class="l1" cx="296.185" cy="103.546" r="3.45326"/>
<circle class="l1" cx="296.185" cy="189.878" r="3.45326"/>
<circle class="l1" cx="296.185" cy="189.878" r="3.45326"/>
<circle class="l1" cx="503.38" cy="276.209" r="3.45326"/>
<circle class="l1" cx="572.446" cy="276.209" r="3.45326"/>
<circle class="l1" cx="572.446" cy="276.209" r="3.45326"/>
<circle class="l1" cx="606.978" cy="569.736" r="3.45326"/>
<circle class="l1" cx="606.978" cy="569.736" r="3.45326"/>
<circle class="l1" cx="572.446" cy="276.209" r="3.45326"/>
<circle class="l1" cx="727.842" cy="276.209" r="3.45326"/>
<circle class="l1" cx="606.978" cy="569.736" r="3.45326"/>
<circle class="l1" cx="503.38" cy="276.209" r="3.45326"/>
<circle class="l1" cx="296.185" cy="276.209" r="3.45326"/>
<circle class="l1" cx="503.38" cy="276.209" r="3.45326"/>
<circle class="l1" cx="296.185" cy="448.872" r="3.45326"/>
<circle class="l1" cx="296.185" cy="448.872" r="3.45326"/>
<circle class="l1" cx="296.185" cy="362.541" r="3.45326"/>
<circle class="l1" cx="296.185" cy="362.541" r="3.45326"/>
<circle class="l1" cx="296.185" cy="276.209" r="3.45326"/>
<circle class="l1" cx="727.842" cy="276.209" r="3.45326"/>
<circle class="l1" cx="779.641" cy="103.546" r="3.45326"/>
<circle class="l1" cx="779.641" cy="189.878" r="3.45326"/>
<circle class="l1" cx="779.641" cy="276.209" r="3.45326"/>
<circle class="l1" cx="779.641" cy="103.546" r="3.45326"/>
<circle class="l1" cx="779.641" cy="103.546" r="3.45326"/>
<circle class="l1" cx="779.641" cy="103.546" r="3.45326"/>
<circle class="l1" cx="779.641" cy="189.878" r="3.45326"/>
<circle class="l1" cx="779.641" cy="189.878" r="3.45326"/>
<circle class="l1" cx="779.641" cy="189.878" r="3.45326"/>
<circle class="l1" cx="658.777" cy="569.736" r="3.45326"/>
<circle class="l1" cx="658.777" cy="569.736" r="3.45326"/>
<circle class="l1" cx="658.777" cy="569.736" r="3.45326"/>
<circle class="l1" cx="779.641" cy="448.872" r="3.45326"/>
<circle class="l1" cx="779.641" cy="276.209" r="3.45326"/>
<circle class="l1" cx="1055.9" cy="276.209" r="3.45326"/>
<circle class="l1" cx="779.641" cy="448.872" r="3.45326"/>
<circle class="l1" cx="779.641" cy="448.872" r="3.45326"/>
<circle class="l1" cx="779.641" cy="448.872" r="3.45326"/>
<circle class="l1" cx="779.641" cy="362.541" r="3.45326"/>
<circle class="l1" cx="779.641" cy="362.541" r="3.45326"/>
<circle class="l1" cx="779.641" cy="362.541" r="3.45326"/>
<circle class="l1" cx="779.641" cy="362.541" r="3.45326"/>
<circle class="l1" cx="727.842" cy="276.209" r="3.45326"/>
<circle class="l1" cx="779.641" cy="276.209" r="3.45326"/>
<circle class="l1" cx="1176.77" cy="276.209" r="3.45326"/>
<circle class="l1" cx="1124.97" cy="276.209" r="3.45326"/>
<circle class="l1" cx="1055.9" cy="276.209" r="3.45326"/>
<circle class="l1" cx="1176.77" cy="276.209" r="3.45326"/>
<circle class="l1" cx="1176.77" cy="276.209" r="3.45326"/>
<circle class="l1" cx="1124.97" cy="276.209" r="3.45326"/>
<circle class="l1" cx="1055.9" cy="276.209" r="3.45326"/>
<circle class="l1" cx="1124.97" cy="276.209" r="3.45326"/>
<circle class="l1" cx="1055.9" cy="276.209" r="3.45326"/>
</svg>
