<svg xmlns="http://www.w3.org/2000/svg" xmlns:xlink="http://www.w3.org/1999/xlink" width="1280" height="680" version="1.1">
<style type="text/css">
.l0{
 fill: #ffffff;
  stroke: #ffffff;
  stroke-linecap:round;
  stroke-linejoin:round;
  stroke-width: 0.953242;
  fill-opacity: 0;
  stroke-opacity: 0;
}
.l1{
 fill: #000000;
  stroke: #000000;
  stroke-linecap:round;
  stroke-linejoin:round;
  stroke-width: 0.953242;
}
.l2{
  fill: none;
  stroke: #000000;
  stroke-linecap:round;
  stroke-linejoin:round;
  stroke-width: 0.953242;
}
.l3{
 fill: #000000; fill-opacity: 0.5;
  stroke: #000000;
  stroke-linecap:round;
  stroke-linejoin:round;
  stroke-width: 0.953242;
}
.l4{
 fill: #000000;
  stroke: #000000;
  stroke-linecap:round;
  stroke-linejoin:round;
  stroke-width: 0.953242;
}
.l5{
 fill: #000000;
  stroke: #000000;
  stroke-linecap:round;
  stroke-linejoin:round;
  stroke-width: 0.953242;
}
.l6{
 fill: #000000; fill-opacity: 0.5;
  stroke: #000000;
  stroke-linecap:round;
  stroke-linejoin:round;
  stroke-width: 0.953242;
}
.l7{
 fill: #000000; fill-opacity: 0.5;
  stroke: #000000;
  stroke-linecap:round;
  stroke-linejoin:round;
  stroke-width: 0.953242;
}
.l8{
 fill: #000000; fill-opacity: 0.5;
  stroke: #000000;
  stroke-linecap:round;
  stroke-linejoin:round;
  stroke-width: 0.953242;
}
.l9{
 fill: #000000; fill-opacity: 0.5;
  stroke: #000000;
  stroke-linecap:round;
  stroke-linejoin:round;
  stroke-width: 0.953242;
}
.l10{
 fill: #000000;
  stroke: #000000;
  stroke-linecap:round;
  stroke-linejoin:round;
  stroke-width: 0.953242;
}
.l11{
 fill: #000000; fill-opacity: 0.5;
  stroke: #000000;
  stroke-linecap:round;
  stroke-linejoin:round;
  stroke-width: 0.953242;
}
.l12{
 fill: #000000; fill-opacity: 0.5;
  stroke: #000000;
  stroke-linecap:round;
  stroke-linejoin:round;
  stroke-width: 0.953242;
}
.l13{
 fill: #000000; fill-opacity: 0.5;
  stroke: #000000;
  stroke-linecap:round;
  stroke-linejoin:round;
  stroke-width: 0.953242;
}
.l14{
  fill: none;
  stroke: #000000;
  stroke-linecap:round;
  stroke-linejoin:round;
  stroke-width: 0.953242;
}
.l15{
 fill: #000000; fill-opacity: 0.5;
  stroke: #000000;
  stroke-linecap:round;
  stroke-linejoin:round;
  stroke-width: 0.953242;
}
.l16{
 fill: #000000; fill-opacity: 0.5;
  stroke: #000000;
  stroke-linecap:round;
  stroke-linejoin:round;
  stroke-width: 0.953242;
}
.l17{
  fill: none;
  stroke: #000000;
  stroke-linecap:round;
  stroke-linejoin:round;
  stroke-width: 0.953242;
}
.l18{
 fill: #000000; fill-opacity: 0.5;
  stroke: #000000;
  stroke-linecap:round;
  stroke-linejoin:round;
  stroke-width: 0.953242;
}
.l19{
  fill: none;
  stroke: #000000;
  stroke-linecap:round;
  stroke-linejoin:round;
  stroke-width: 0.953242;
}
.l20{
  fill: none;
  stroke: #000000;
  stroke-linecap:round;
  stroke-linejoin:round;
  stroke-width: 0.953242;
}
.l21{
  fill: none;
  stroke: #000000;
  stroke-linecap:round;
  stroke-linejoin:round;
  stroke-width: 0.953242;
}
text {font-family: Sans-Serif;}
</style>
<rect class="l0" x="0" y="0" width="1280" height="680"/>
<text fill="#000000"  xml:space="preserve" font-size="9.17937" transform="translate(269.255, 128.999)" >vdd</text>
<text fill="#000000"  xml:space="preserve" font-size="9.17937" transform="translate(286.907, 552.663)" >gnd</text>
<text fill="#000000"  xml:space="preserve" font-size="9.17937" transform="translate(481.086, 128.999)" >vdd</text>
<text fill="#000000"  xml:space="preserve" font-size="9.17937" transform="translate(498.739, 552.663)" >gnd</text>
<text fill="#000000"  xml:space="preserve" font-size="9.17937" transform="translate(763.528, 128.999)" >vdd</text>
<text fill="#000000"  xml:space="preserve" font-size="9.17937" transform="translate(781.181, 552.663)" >gnd</text>
<text fill="#000000"  xml:space="preserve" font-size="9.17937" transform="translate(1063.62, 623.273)" >gnd</text>
<text fill="#000000"  xml:space="preserve" font-size="9.17937" transform="translate(1045.97, 58.3889)" >vdd</text>
<text fill="#000000"  xml:space="preserve" font-size="15.146" transform="translate(23.254, 281.155)" >A</text>
<text fill="#000000"  xml:space="preserve" font-size="15.146" transform="translate(24.254, 316.46)" >B</text>
<text fill="#000000"  xml:space="preserve" font-size="15.146" transform="translate(19.254, 351.765)" >CI</text>
<text fill="#000000"  xml:space="preserve" font-size="15.146" transform="translate(1251.18, 351.765)" >S</text>
<text fill="#000000"  xml:space="preserve" font-size="15.146" transform="translate(721.603, 598.902)" >CO</text>
<text fill="#000000"  xml:space="preserve" font-size="15.146" transform="translate(75.0757, 281.706)" >A</text>
<text fill="#000000"  xml:space="preserve" font-size="15.146" transform="translate(75.0757, 317.012)" >B</text>
<text fill="#000000"  xml:space="preserve" font-size="15.146" transform="translate(75.0757, 352.317)" >CI</text>
<text fill="#000000"  xml:space="preserve" font-size="15.146" transform="translate(147.926, 219.922)" >A</text>
<text fill="#000000"  xml:space="preserve" font-size="15.146" transform="translate(147.926, 484.712)" >A</text>
<text fill="#000000"  xml:space="preserve" font-size="15.146" transform="translate(430.368, 219.922)" >A</text>
<text fill="#000000"  xml:space="preserve" font-size="15.146" transform="translate(430.368, 484.712)" >A</text>
<text fill="#000000"  xml:space="preserve" font-size="15.146" transform="translate(571.589, 219.922)" >A</text>
<text fill="#000000"  xml:space="preserve" font-size="15.146" transform="translate(571.589, 484.712)" >A</text>
<text fill="#000000"  xml:space="preserve" font-size="15.146" transform="translate(995.252, 131.659)" >A</text>
<text fill="#000000"  xml:space="preserve" font-size="15.146" transform="translate(995.252, 572.975)" >A</text>
<text fill="#000000"  xml:space="preserve" font-size="15.146" transform="translate(290.147, 219.922)" >B</text>
<text fill="#000000"  xml:space="preserve" font-size="15.146" transform="translate(290.147, 484.712)" >B</text>
<text fill="#000000"  xml:space="preserve" font-size="15.146" transform="translate(431.368, 396.448)" >B</text>
<text fill="#000000"  xml:space="preserve" font-size="15.146" transform="translate(431.368, 308.185)" >B</text>
<text fill="#000000"  xml:space="preserve" font-size="15.146" transform="translate(713.81, 484.712)" >B</text>
<text fill="#000000"  xml:space="preserve" font-size="15.146" transform="translate(713.81, 219.922)" >B</text>
<text fill="#000000"  xml:space="preserve" font-size="15.146" transform="translate(996.252, 219.922)" >B</text>
<text fill="#000000"  xml:space="preserve" font-size="15.146" transform="translate(996.252, 484.712)" >B</text>
<text fill="#000000"  xml:space="preserve" font-size="15.146" transform="translate(152.752, 352.317)" >CI</text>
<text fill="#000000"  xml:space="preserve" font-size="15.146" transform="translate(850.031, 219.922)" >CI</text>
<text fill="#000000"  xml:space="preserve" font-size="15.146" transform="translate(850.031, 484.712)" >CI</text>
<text fill="#000000"  xml:space="preserve" font-size="15.146" transform="translate(991.252, 396.448)" >CI</text>
<text fill="#000000"  xml:space="preserve" font-size="15.146" transform="translate(991.252, 308.185)" >CI</text>
<text fill="#000000"  xml:space="preserve" font-size="9.17937" transform="translate(253.048, 371.723)" >M1</text>
<text fill="#000000"  xml:space="preserve" font-size="6.88453" transform="translate(282.494, 411.564)" >S</text>
<text fill="#000000"  xml:space="preserve" font-size="6.88453" transform="translate(282.494, 372.776)" >D</text>
<text fill="#000000"  xml:space="preserve" font-size="6.88453" transform="translate(248.809, 387.292)" >G</text>
<text fill="#000000"  xml:space="preserve" font-size="9.17937" transform="translate(289.114, 379.95)" >nfet_01v8</text>
<text fill="#000000"  xml:space="preserve" font-size="9.17937" transform="translate(290.217, 410.338)" >1 x 0.42 / 0.15</text>
<text fill="#000000"  xml:space="preserve" font-size="9.17937" transform="translate(290.217, 399.305)" >nf=1</text>
<text fill="#000000"  xml:space="preserve" font-size="9.17937" transform="translate(253.048, 283.46)" >M2</text>
<text fill="#000000"  xml:space="preserve" font-size="6.88453" transform="translate(282.494, 323.301)" >D</text>
<text fill="#000000"  xml:space="preserve" font-size="6.88453" transform="translate(282.494, 284.513)" >S</text>
<text fill="#000000"  xml:space="preserve" font-size="6.88453" transform="translate(248.809, 299.029)" >G</text>
<text fill="#000000"  xml:space="preserve" font-size="9.17937" transform="translate(289.114, 291.687)" >pfet_01v8</text>
<text fill="#000000"  xml:space="preserve" font-size="9.17937" transform="translate(290.217, 322.075)" >1 x 0.42 / 0.15</text>
<text fill="#000000"  xml:space="preserve" font-size="9.17937" transform="translate(290.217, 311.042)" >nf=1</text>
<text fill="#000000"  xml:space="preserve" font-size="9.17937" transform="translate(182.438, 195.197)" >M3</text>
<text fill="#000000"  xml:space="preserve" font-size="6.88453" transform="translate(211.884, 235.038)" >D</text>
<text fill="#000000"  xml:space="preserve" font-size="6.88453" transform="translate(211.884, 196.249)" >S</text>
<text fill="#000000"  xml:space="preserve" font-size="6.88453" transform="translate(178.198, 210.766)" >G</text>
<text fill="#000000"  xml:space="preserve" font-size="9.17937" transform="translate(218.503, 203.424)" >pfet_01v8</text>
<text fill="#000000"  xml:space="preserve" font-size="9.17937" transform="translate(219.607, 233.812)" >1 x 0.42 / 0.15</text>
<text fill="#000000"  xml:space="preserve" font-size="9.17937" transform="translate(219.607, 222.779)" >nf=1</text>
<text fill="#000000"  xml:space="preserve" font-size="9.17937" transform="translate(323.659, 195.197)" >M4</text>
<text fill="#000000"  xml:space="preserve" font-size="6.88453" transform="translate(353.105, 235.038)" >D</text>
<text fill="#000000"  xml:space="preserve" font-size="6.88453" transform="translate(353.105, 196.249)" >S</text>
<text fill="#000000"  xml:space="preserve" font-size="6.88453" transform="translate(319.419, 210.766)" >G</text>
<text fill="#000000"  xml:space="preserve" font-size="9.17937" transform="translate(359.724, 203.424)" >pfet_01v8</text>
<text fill="#000000"  xml:space="preserve" font-size="9.17937" transform="translate(360.828, 233.812)" >1 x 0.42 / 0.15</text>
<text fill="#000000"  xml:space="preserve" font-size="9.17937" transform="translate(360.828, 222.779)" >nf=1</text>
<text fill="#000000"  xml:space="preserve" font-size="9.17937" transform="translate(182.438, 459.986)" >M5</text>
<text fill="#000000"  xml:space="preserve" font-size="6.88453" transform="translate(211.884, 499.828)" >S</text>
<text fill="#000000"  xml:space="preserve" font-size="6.88453" transform="translate(211.884, 461.039)" >D</text>
<text fill="#000000"  xml:space="preserve" font-size="6.88453" transform="translate(178.198, 475.555)" >G</text>
<text fill="#000000"  xml:space="preserve" font-size="9.17937" transform="translate(218.503, 468.213)" >nfet_01v8</text>
<text fill="#000000"  xml:space="preserve" font-size="9.17937" transform="translate(219.607, 498.601)" >1 x 0.42 / 0.15</text>
<text fill="#000000"  xml:space="preserve" font-size="9.17937" transform="translate(219.607, 487.569)" >nf=1</text>
<text fill="#000000"  xml:space="preserve" font-size="9.17937" transform="translate(323.659, 459.986)" >M6</text>
<text fill="#000000"  xml:space="preserve" font-size="6.88453" transform="translate(353.105, 499.828)" >S</text>
<text fill="#000000"  xml:space="preserve" font-size="6.88453" transform="translate(353.105, 461.039)" >D</text>
<text fill="#000000"  xml:space="preserve" font-size="6.88453" transform="translate(319.419, 475.555)" >G</text>
<text fill="#000000"  xml:space="preserve" font-size="9.17937" transform="translate(359.724, 468.213)" >nfet_01v8</text>
<text fill="#000000"  xml:space="preserve" font-size="9.17937" transform="translate(360.828, 498.601)" >1 x 0.42 / 0.15</text>
<text fill="#000000"  xml:space="preserve" font-size="9.17937" transform="translate(360.828, 487.569)" >nf=1</text>
<text fill="#000000"  xml:space="preserve" font-size="9.17937" transform="translate(464.88, 283.46)" >M7</text>
<text fill="#000000"  xml:space="preserve" font-size="6.88453" transform="translate(494.326, 323.301)" >D</text>
<text fill="#000000"  xml:space="preserve" font-size="6.88453" transform="translate(494.326, 284.513)" >S</text>
<text fill="#000000"  xml:space="preserve" font-size="6.88453" transform="translate(460.64, 299.029)" >G</text>
<text fill="#000000"  xml:space="preserve" font-size="9.17937" transform="translate(500.945, 291.687)" >pfet_01v8</text>
<text fill="#000000"  xml:space="preserve" font-size="9.17937" transform="translate(502.049, 322.075)" >1 x 0.42 / 0.15</text>
<text fill="#000000"  xml:space="preserve" font-size="9.17937" transform="translate(502.049, 311.042)" >nf=1</text>
<text fill="#000000"  xml:space="preserve" font-size="9.17937" transform="translate(464.88, 195.197)" >M8</text>
<text fill="#000000"  xml:space="preserve" font-size="6.88453" transform="translate(494.326, 235.038)" >D</text>
<text fill="#000000"  xml:space="preserve" font-size="6.88453" transform="translate(494.326, 196.249)" >S</text>
<text fill="#000000"  xml:space="preserve" font-size="6.88453" transform="translate(460.64, 210.766)" >G</text>
<text fill="#000000"  xml:space="preserve" font-size="9.17937" transform="translate(500.945, 203.424)" >pfet_01v8</text>
<text fill="#000000"  xml:space="preserve" font-size="9.17937" transform="translate(502.049, 233.812)" >1 x 0.42 / 0.15</text>
<text fill="#000000"  xml:space="preserve" font-size="9.17937" transform="translate(502.049, 222.779)" >nf=1</text>
<text fill="#000000"  xml:space="preserve" font-size="9.17937" transform="translate(464.88, 371.723)" >M9</text>
<text fill="#000000"  xml:space="preserve" font-size="6.88453" transform="translate(494.326, 411.564)" >S</text>
<text fill="#000000"  xml:space="preserve" font-size="6.88453" transform="translate(494.326, 372.776)" >D</text>
<text fill="#000000"  xml:space="preserve" font-size="6.88453" transform="translate(460.64, 387.292)" >G</text>
<text fill="#000000"  xml:space="preserve" font-size="9.17937" transform="translate(500.945, 379.95)" >nfet_01v8</text>
<text fill="#000000"  xml:space="preserve" font-size="9.17937" transform="translate(502.049, 410.338)" >1 x 0.42 / 0.15</text>
<text fill="#000000"  xml:space="preserve" font-size="9.17937" transform="translate(502.049, 399.305)" >nf=1</text>
<text fill="#000000"  xml:space="preserve" font-size="9.17937" transform="translate(458.88, 459.986)" >M10</text>
<text fill="#000000"  xml:space="preserve" font-size="6.88453" transform="translate(494.326, 499.828)" >S</text>
<text fill="#000000"  xml:space="preserve" font-size="6.88453" transform="translate(494.326, 461.039)" >D</text>
<text fill="#000000"  xml:space="preserve" font-size="6.88453" transform="translate(460.64, 475.555)" >G</text>
<text fill="#000000"  xml:space="preserve" font-size="9.17937" transform="translate(500.945, 468.213)" >nfet_01v8</text>
<text fill="#000000"  xml:space="preserve" font-size="9.17937" transform="translate(502.049, 498.601)" >1 x 0.42 / 0.15</text>
<text fill="#000000"  xml:space="preserve" font-size="9.17937" transform="translate(502.049, 487.569)" >nf=1</text>
<text fill="#000000"  xml:space="preserve" font-size="9.17937" transform="translate(600.101, 195.197)" >M11</text>
<text fill="#000000"  xml:space="preserve" font-size="6.88453" transform="translate(635.547, 235.038)" >D</text>
<text fill="#000000"  xml:space="preserve" font-size="6.88453" transform="translate(635.547, 196.249)" >S</text>
<text fill="#000000"  xml:space="preserve" font-size="6.88453" transform="translate(601.861, 210.766)" >G</text>
<text fill="#000000"  xml:space="preserve" font-size="9.17937" transform="translate(642.166, 203.424)" >pfet_01v8</text>
<text fill="#000000"  xml:space="preserve" font-size="9.17937" transform="translate(643.27, 233.812)" >1 x 0.42 / 0.15</text>
<text fill="#000000"  xml:space="preserve" font-size="9.17937" transform="translate(643.27, 222.779)" >nf=1</text>
<text fill="#000000"  xml:space="preserve" font-size="9.17937" transform="translate(741.322, 195.197)" >M12</text>
<text fill="#000000"  xml:space="preserve" font-size="6.88453" transform="translate(776.768, 235.038)" >D</text>
<text fill="#000000"  xml:space="preserve" font-size="6.88453" transform="translate(776.768, 196.249)" >S</text>
<text fill="#000000"  xml:space="preserve" font-size="6.88453" transform="translate(743.082, 210.766)" >G</text>
<text fill="#000000"  xml:space="preserve" font-size="9.17937" transform="translate(783.387, 203.424)" >pfet_01v8</text>
<text fill="#000000"  xml:space="preserve" font-size="9.17937" transform="translate(784.491, 233.812)" >1 x 0.42 / 0.15</text>
<text fill="#000000"  xml:space="preserve" font-size="9.17937" transform="translate(784.491, 222.779)" >nf=1</text>
<text fill="#000000"  xml:space="preserve" font-size="9.17937" transform="translate(882.543, 195.197)" >M13</text>
<text fill="#000000"  xml:space="preserve" font-size="6.88453" transform="translate(917.989, 235.038)" >D</text>
<text fill="#000000"  xml:space="preserve" font-size="6.88453" transform="translate(917.989, 196.249)" >S</text>
<text fill="#000000"  xml:space="preserve" font-size="6.88453" transform="translate(884.303, 210.766)" >G</text>
<text fill="#000000"  xml:space="preserve" font-size="9.17937" transform="translate(924.609, 203.424)" >pfet_01v8</text>
<text fill="#000000"  xml:space="preserve" font-size="9.17937" transform="translate(925.712, 233.812)" >1 x 0.42 / 0.15</text>
<text fill="#000000"  xml:space="preserve" font-size="9.17937" transform="translate(925.712, 222.779)" >nf=1</text>
<text fill="#000000"  xml:space="preserve" font-size="9.17937" transform="translate(741.322, 283.46)" >M14</text>
<text fill="#000000"  xml:space="preserve" font-size="6.88453" transform="translate(776.768, 323.301)" >D</text>
<text fill="#000000"  xml:space="preserve" font-size="6.88453" transform="translate(776.768, 284.513)" >S</text>
<text fill="#000000"  xml:space="preserve" font-size="6.88453" transform="translate(743.082, 299.029)" >G</text>
<text fill="#000000"  xml:space="preserve" font-size="9.17937" transform="translate(783.387, 291.687)" >pfet_01v8</text>
<text fill="#000000"  xml:space="preserve" font-size="9.17937" transform="translate(784.491, 322.075)" >1 x 0.42 / 0.15</text>
<text fill="#000000"  xml:space="preserve" font-size="9.17937" transform="translate(784.491, 311.042)" >nf=1</text>
<text fill="#000000"  xml:space="preserve" font-size="9.17937" transform="translate(741.322, 371.723)" >M15</text>
<text fill="#000000"  xml:space="preserve" font-size="6.88453" transform="translate(776.768, 411.564)" >S</text>
<text fill="#000000"  xml:space="preserve" font-size="6.88453" transform="translate(776.768, 372.776)" >D</text>
<text fill="#000000"  xml:space="preserve" font-size="6.88453" transform="translate(743.082, 387.292)" >G</text>
<text fill="#000000"  xml:space="preserve" font-size="9.17937" transform="translate(783.387, 379.95)" >nfet_01v8</text>
<text fill="#000000"  xml:space="preserve" font-size="9.17937" transform="translate(784.491, 410.338)" >1 x 0.42 / 0.15</text>
<text fill="#000000"  xml:space="preserve" font-size="9.17937" transform="translate(784.491, 399.305)" >nf=1</text>
<text fill="#000000"  xml:space="preserve" font-size="9.17937" transform="translate(600.101, 459.986)" >M16</text>
<text fill="#000000"  xml:space="preserve" font-size="6.88453" transform="translate(635.547, 499.828)" >S</text>
<text fill="#000000"  xml:space="preserve" font-size="6.88453" transform="translate(635.547, 461.039)" >D</text>
<text fill="#000000"  xml:space="preserve" font-size="6.88453" transform="translate(601.861, 475.555)" >G</text>
<text fill="#000000"  xml:space="preserve" font-size="9.17937" transform="translate(642.166, 468.213)" >nfet_01v8</text>
<text fill="#000000"  xml:space="preserve" font-size="9.17937" transform="translate(643.27, 498.601)" >1 x 0.42 / 0.15</text>
<text fill="#000000"  xml:space="preserve" font-size="9.17937" transform="translate(643.27, 487.569)" >nf=1</text>
<text fill="#000000"  xml:space="preserve" font-size="9.17937" transform="translate(741.322, 459.986)" >M17</text>
<text fill="#000000"  xml:space="preserve" font-size="6.88453" transform="translate(776.768, 499.828)" >S</text>
<text fill="#000000"  xml:space="preserve" font-size="6.88453" transform="translate(776.768, 461.039)" >D</text>
<text fill="#000000"  xml:space="preserve" font-size="6.88453" transform="translate(743.082, 475.555)" >G</text>
<text fill="#000000"  xml:space="preserve" font-size="9.17937" transform="translate(783.387, 468.213)" >nfet_01v8</text>
<text fill="#000000"  xml:space="preserve" font-size="9.17937" transform="translate(784.491, 498.601)" >1 x 0.42 / 0.15</text>
<text fill="#000000"  xml:space="preserve" font-size="9.17937" transform="translate(784.491, 487.569)" >nf=1</text>
<text fill="#000000"  xml:space="preserve" font-size="9.17937" transform="translate(882.543, 459.986)" >M18</text>
<text fill="#000000"  xml:space="preserve" font-size="6.88453" transform="translate(917.989, 499.828)" >S</text>
<text fill="#000000"  xml:space="preserve" font-size="6.88453" transform="translate(917.989, 461.039)" >D</text>
<text fill="#000000"  xml:space="preserve" font-size="6.88453" transform="translate(884.303, 475.555)" >G</text>
<text fill="#000000"  xml:space="preserve" font-size="9.17937" transform="translate(924.609, 468.213)" >nfet_01v8</text>
<text fill="#000000"  xml:space="preserve" font-size="9.17937" transform="translate(925.712, 498.601)" >1 x 0.42 / 0.15</text>
<text fill="#000000"  xml:space="preserve" font-size="9.17937" transform="translate(925.712, 487.569)" >nf=1</text>
<text fill="#000000"  xml:space="preserve" font-size="9.17937" transform="translate(1023.76, 283.46)" >M19</text>
<text fill="#000000"  xml:space="preserve" font-size="6.88453" transform="translate(1059.21, 323.301)" >D</text>
<text fill="#000000"  xml:space="preserve" font-size="6.88453" transform="translate(1059.21, 284.513)" >S</text>
<text fill="#000000"  xml:space="preserve" font-size="6.88453" transform="translate(1025.52, 299.029)" >G</text>
<text fill="#000000"  xml:space="preserve" font-size="9.17937" transform="translate(1065.83, 291.687)" >pfet_01v8</text>
<text fill="#000000"  xml:space="preserve" font-size="9.17937" transform="translate(1066.93, 322.075)" >1 x 0.42 / 0.15</text>
<text fill="#000000"  xml:space="preserve" font-size="9.17937" transform="translate(1066.93, 311.042)" >nf=1</text>
<text fill="#000000"  xml:space="preserve" font-size="9.17937" transform="translate(1023.76, 195.197)" >M20</text>
<text fill="#000000"  xml:space="preserve" font-size="6.88453" transform="translate(1059.21, 235.038)" >D</text>
<text fill="#000000"  xml:space="preserve" font-size="6.88453" transform="translate(1059.21, 196.249)" >S</text>
<text fill="#000000"  xml:space="preserve" font-size="6.88453" transform="translate(1025.52, 210.766)" >G</text>
<text fill="#000000"  xml:space="preserve" font-size="9.17937" transform="translate(1065.83, 203.424)" >pfet_01v8</text>
<text fill="#000000"  xml:space="preserve" font-size="9.17937" transform="translate(1066.93, 233.812)" >1 x 0.42 / 0.15</text>
<text fill="#000000"  xml:space="preserve" font-size="9.17937" transform="translate(1066.93, 222.779)" >nf=1</text>
<text fill="#000000"  xml:space="preserve" font-size="9.17937" transform="translate(1023.76, 106.934)" >M21</text>
<text fill="#000000"  xml:space="preserve" font-size="6.88453" transform="translate(1059.21, 146.775)" >D</text>
<text fill="#000000"  xml:space="preserve" font-size="6.88453" transform="translate(1059.21, 107.986)" >S</text>
<text fill="#000000"  xml:space="preserve" font-size="6.88453" transform="translate(1025.52, 122.503)" >G</text>
<text fill="#000000"  xml:space="preserve" font-size="9.17937" transform="translate(1065.83, 115.161)" >pfet_01v8</text>
<text fill="#000000"  xml:space="preserve" font-size="9.17937" transform="translate(1066.93, 145.549)" >1 x 0.42 / 0.15</text>
<text fill="#000000"  xml:space="preserve" font-size="9.17937" transform="translate(1066.93, 134.516)" >nf=1</text>
<text fill="#000000"  xml:space="preserve" font-size="9.17937" transform="translate(1023.76, 371.723)" >M22</text>
<text fill="#000000"  xml:space="preserve" font-size="6.88453" transform="translate(1059.21, 411.564)" >S</text>
<text fill="#000000"  xml:space="preserve" font-size="6.88453" transform="translate(1059.21, 372.776)" >D</text>
<text fill="#000000"  xml:space="preserve" font-size="6.88453" transform="translate(1025.52, 387.292)" >G</text>
<text fill="#000000"  xml:space="preserve" font-size="9.17937" transform="translate(1065.83, 379.95)" >nfet_01v8</text>
<text fill="#000000"  xml:space="preserve" font-size="9.17937" transform="translate(1066.93, 410.338)" >1 x 0.42 / 0.15</text>
<text fill="#000000"  xml:space="preserve" font-size="9.17937" transform="translate(1066.93, 399.305)" >nf=1</text>
<text fill="#000000"  xml:space="preserve" font-size="9.17937" transform="translate(1023.76, 459.986)" >M23</text>
<text fill="#000000"  xml:space="preserve" font-size="6.88453" transform="translate(1059.21, 499.828)" >S</text>
<text fill="#000000"  xml:space="preserve" font-size="6.88453" transform="translate(1059.21, 461.039)" >D</text>
<text fill="#000000"  xml:space="preserve" font-size="6.88453" transform="translate(1025.52, 475.555)" >G</text>
<text fill="#000000"  xml:space="preserve" font-size="9.17937" transform="translate(1065.83, 468.213)" >nfet_01v8</text>
<text fill="#000000"  xml:space="preserve" font-size="9.17937" transform="translate(1066.93, 498.601)" >1 x 0.42 / 0.15</text>
<text fill="#000000"  xml:space="preserve" font-size="9.17937" transform="translate(1066.93, 487.569)" >nf=1</text>
<text fill="#000000"  xml:space="preserve" font-size="9.17937" transform="translate(1023.76, 548.249)" >M24</text>
<text fill="#000000"  xml:space="preserve" font-size="6.88453" transform="translate(1059.21, 588.091)" >S</text>
<text fill="#000000"  xml:space="preserve" font-size="6.88453" transform="translate(1059.21, 549.302)" >D</text>
<text fill="#000000"  xml:space="preserve" font-size="6.88453" transform="translate(1025.52, 563.818)" >G</text>
<text fill="#000000"  xml:space="preserve" font-size="9.17937" transform="translate(1065.83, 556.477)" >nfet_01v8</text>
<text fill="#000000"  xml:space="preserve" font-size="9.17937" transform="translate(1066.93, 586.865)" >1 x 0.42 / 0.15</text>
<text fill="#000000"  xml:space="preserve" font-size="9.17937" transform="translate(1066.93, 575.832)" >nf=1</text>
<text fill="#000000"  xml:space="preserve" font-size="13.7691" transform="translate(623.19, 626.558)" >inv</text>
<text fill="#000000"  xml:space="preserve" font-size="9.17937" transform="translate(642.166, 575.17)" >x1</text>
<text fill="#000000"  xml:space="preserve" font-size="9.17937" transform="translate(642.786, 595.47)" >Z</text>
<text fill="#000000"  xml:space="preserve" font-size="9.17937" transform="translate(626.72, 595.47)" >A</text>
<text fill="#000000"  xml:space="preserve" font-size="13.7691" transform="translate(1152.77, 379.421)" >inv</text>
<text fill="#000000"  xml:space="preserve" font-size="9.17937" transform="translate(1171.75, 328.033)" >x2</text>
<text fill="#000000"  xml:space="preserve" font-size="9.17937" transform="translate(1172.37, 348.333)" >Z</text>
<text fill="#000000"  xml:space="preserve" font-size="9.17937" transform="translate(1156.3, 348.333)" >A</text>
<path class="l4" d="M269.255 370.008L269.255 409.726"/>
<path class="l4" d="M244.982 389.867L264.841 389.867"/>
<path class="l4" d="M280.288 363.388L280.288 374.421"/>
<path class="l4" d="M280.288 405.313L280.288 416.346"/>
<path class="l4" d="M264.841 376.628L264.841 403.107"/>
<path class="l4" d="M269.255 374.421L280.288 374.421"/>
<path class="l4" d="M269.255 405.313L275.874 405.313"/>
<path class="l4" d="M275.874 403.107L280.288 405.313L275.874 407.52L275.874 403.107"/>
<path class="l4" d="M269.255 281.745L269.255 321.463"/>
<path class="l4" d="M280.288 275.125L280.288 286.158"/>
<path class="l4" d="M280.288 317.05L280.288 328.083"/>
<path class="l4" d="M264.841 288.365L264.841 314.844"/>
<path class="l4" d="M269.255 317.05L280.288 317.05"/>
<path class="l4" d="M273.668 286.158L280.288 286.158"/>
<path class="l4" d="M244.982 301.604L256.015 301.604"/>
<path class="l4" d="M273.668 283.951L269.255 286.158L273.668 288.365L273.668 283.951"/>
<circle class="l4" cx="260.428" cy="301.604" r="4.41316" style="fill:none;"/>
<path class="l4" d="M198.644 193.482L198.644 233.2"/>
<path class="l4" d="M209.677 186.862L209.677 197.895"/>
<path class="l4" d="M209.677 228.787L209.677 239.82"/>
<path class="l4" d="M194.231 200.101L194.231 226.58"/>
<path class="l4" d="M198.644 228.787L209.677 228.787"/>
<path class="l4" d="M203.057 197.895L209.677 197.895"/>
<path class="l4" d="M174.372 213.341L185.405 213.341"/>
<path class="l4" d="M203.057 195.688L198.644 197.895L203.057 200.101L203.057 195.688"/>
<circle class="l4" cx="189.818" cy="213.341" r="4.41316" style="fill:none;"/>
<path class="l4" d="M339.865 193.482L339.865 233.2"/>
<path class="l4" d="M350.898 186.862L350.898 197.895"/>
<path class="l4" d="M350.898 228.787L350.898 239.82"/>
<path class="l4" d="M335.452 200.101L335.452 226.58"/>
<path class="l4" d="M339.865 228.787L350.898 228.787"/>
<path class="l4" d="M344.278 197.895L350.898 197.895"/>
<path class="l4" d="M315.593 213.341L326.626 213.341"/>
<path class="l4" d="M344.278 195.688L339.865 197.895L344.278 200.101L344.278 195.688"/>
<circle class="l4" cx="331.039" cy="213.341" r="4.41316" style="fill:none;"/>
<path class="l4" d="M198.644 458.271L198.644 497.99"/>
<path class="l4" d="M174.372 478.13L194.231 478.13"/>
<path class="l4" d="M209.677 451.651L209.677 462.684"/>
<path class="l4" d="M209.677 493.576L209.677 504.609"/>
<path class="l4" d="M194.231 464.891L194.231 491.37"/>
<path class="l4" d="M198.644 462.684L209.677 462.684"/>
<path class="l4" d="M198.644 493.576L205.264 493.576"/>
<path class="l4" d="M205.264 491.37L209.677 493.576L205.264 495.783L205.264 491.37"/>
<path class="l4" d="M339.865 458.271L339.865 497.99"/>
<path class="l4" d="M315.593 478.13L335.452 478.13"/>
<path class="l4" d="M350.898 451.651L350.898 462.684"/>
<path class="l4" d="M350.898 493.576L350.898 504.609"/>
<path class="l4" d="M335.452 464.891L335.452 491.37"/>
<path class="l4" d="M339.865 462.684L350.898 462.684"/>
<path class="l4" d="M339.865 493.576L346.485 493.576"/>
<path class="l4" d="M346.485 491.37L350.898 493.576L346.485 495.783L346.485 491.37"/>
<path class="l4" d="M280.288 133.904L280.288 151.557"/>
<path class="l4" d="M271.461 133.904L289.114 133.904"/>
<path class="l4" d="M280.288 539.915L280.288 550.947"/>
<path class="l4" d="M275.874 550.947L284.701 550.947"/>
<path class="l4" d="M280.288 555.361L284.701 550.947"/>
<path class="l4" d="M275.874 550.947L280.288 555.361"/>
<path class="l4" d="M481.086 281.745L481.086 321.463"/>
<path class="l4" d="M492.119 275.125L492.119 286.158"/>
<path class="l4" d="M492.119 317.05L492.119 328.083"/>
<path class="l4" d="M476.673 288.365L476.673 314.844"/>
<path class="l4" d="M481.086 317.05L492.119 317.05"/>
<path class="l4" d="M485.499 286.158L492.119 286.158"/>
<path class="l4" d="M456.814 301.604L467.847 301.604"/>
<path class="l4" d="M485.499 283.951L481.086 286.158L485.499 288.365L485.499 283.951"/>
<circle class="l4" cx="472.26" cy="301.604" r="4.41316" style="fill:none;"/>
<path class="l4" d="M481.086 193.482L481.086 233.2"/>
<path class="l4" d="M492.119 186.862L492.119 197.895"/>
<path class="l4" d="M492.119 228.787L492.119 239.82"/>
<path class="l4" d="M476.673 200.101L476.673 226.58"/>
<path class="l4" d="M481.086 228.787L492.119 228.787"/>
<path class="l4" d="M485.499 197.895L492.119 197.895"/>
<path class="l4" d="M456.814 213.341L467.847 213.341"/>
<path class="l4" d="M485.499 195.688L481.086 197.895L485.499 200.101L485.499 195.688"/>
<circle class="l4" cx="472.26" cy="213.341" r="4.41316" style="fill:none;"/>
<path class="l4" d="M492.119 133.904L492.119 151.557"/>
<path class="l4" d="M483.293 133.904L500.945 133.904"/>
<path class="l4" d="M481.086 370.008L481.086 409.726"/>
<path class="l4" d="M456.814 389.867L476.673 389.867"/>
<path class="l4" d="M492.119 363.388L492.119 374.421"/>
<path class="l4" d="M492.119 405.313L492.119 416.346"/>
<path class="l4" d="M476.673 376.628L476.673 403.107"/>
<path class="l4" d="M481.086 374.421L492.119 374.421"/>
<path class="l4" d="M481.086 405.313L487.706 405.313"/>
<path class="l4" d="M487.706 403.107L492.119 405.313L487.706 407.52L487.706 403.107"/>
<path class="l4" d="M481.086 458.271L481.086 497.99"/>
<path class="l4" d="M456.814 478.13L476.673 478.13"/>
<path class="l4" d="M492.119 451.651L492.119 462.684"/>
<path class="l4" d="M492.119 493.576L492.119 504.609"/>
<path class="l4" d="M476.673 464.891L476.673 491.37"/>
<path class="l4" d="M481.086 462.684L492.119 462.684"/>
<path class="l4" d="M481.086 493.576L487.706 493.576"/>
<path class="l4" d="M487.706 491.37L492.119 493.576L487.706 495.783L487.706 491.37"/>
<path class="l4" d="M492.119 539.915L492.119 550.947"/>
<path class="l4" d="M487.706 550.947L496.532 550.947"/>
<path class="l4" d="M492.119 555.361L496.532 550.947"/>
<path class="l4" d="M487.706 550.947L492.119 555.361"/>
<path class="l4" d="M622.307 193.482L622.307 233.2"/>
<path class="l4" d="M633.34 186.862L633.34 197.895"/>
<path class="l4" d="M633.34 228.787L633.34 239.82"/>
<path class="l4" d="M617.894 200.101L617.894 226.58"/>
<path class="l4" d="M622.307 228.787L633.34 228.787"/>
<path class="l4" d="M626.72 197.895L633.34 197.895"/>
<path class="l4" d="M598.035 213.341L609.068 213.341"/>
<path class="l4" d="M626.72 195.688L622.307 197.895L626.72 200.101L626.72 195.688"/>
<circle class="l4" cx="613.481" cy="213.341" r="4.41316" style="fill:none;"/>
<path class="l4" d="M763.528 193.482L763.528 233.2"/>
<path class="l4" d="M774.561 186.862L774.561 197.895"/>
<path class="l4" d="M774.561 228.787L774.561 239.82"/>
<path class="l4" d="M759.115 200.101L759.115 226.58"/>
<path class="l4" d="M763.528 228.787L774.561 228.787"/>
<path class="l4" d="M767.941 197.895L774.561 197.895"/>
<path class="l4" d="M739.256 213.341L750.289 213.341"/>
<path class="l4" d="M767.941 195.688L763.528 197.895L767.941 200.101L767.941 195.688"/>
<circle class="l4" cx="754.702" cy="213.341" r="4.41316" style="fill:none;"/>
<path class="l4" d="M904.749 193.482L904.749 233.2"/>
<path class="l4" d="M915.782 186.862L915.782 197.895"/>
<path class="l4" d="M915.782 228.787L915.782 239.82"/>
<path class="l4" d="M900.336 200.101L900.336 226.58"/>
<path class="l4" d="M904.749 228.787L915.782 228.787"/>
<path class="l4" d="M909.162 197.895L915.782 197.895"/>
<path class="l4" d="M880.477 213.341L891.51 213.341"/>
<path class="l4" d="M909.162 195.688L904.749 197.895L909.162 200.101L909.162 195.688"/>
<circle class="l4" cx="895.923" cy="213.341" r="4.41316" style="fill:none;"/>
<path class="l4" d="M763.528 281.745L763.528 321.463"/>
<path class="l4" d="M774.561 275.125L774.561 286.158"/>
<path class="l4" d="M774.561 317.05L774.561 328.083"/>
<path class="l4" d="M759.115 288.365L759.115 314.844"/>
<path class="l4" d="M763.528 317.05L774.561 317.05"/>
<path class="l4" d="M767.941 286.158L774.561 286.158"/>
<path class="l4" d="M739.256 301.604L750.289 301.604"/>
<path class="l4" d="M767.941 283.951L763.528 286.158L767.941 288.365L767.941 283.951"/>
<circle class="l4" cx="754.702" cy="301.604" r="4.41316" style="fill:none;"/>
<path class="l4" d="M774.561 133.904L774.561 151.557"/>
<path class="l4" d="M765.735 133.904L783.387 133.904"/>
<path class="l4" d="M763.528 370.008L763.528 409.726"/>
<path class="l4" d="M739.256 389.867L759.115 389.867"/>
<path class="l4" d="M774.561 363.388L774.561 374.421"/>
<path class="l4" d="M774.561 405.313L774.561 416.346"/>
<path class="l4" d="M759.115 376.628L759.115 403.107"/>
<path class="l4" d="M763.528 374.421L774.561 374.421"/>
<path class="l4" d="M763.528 405.313L770.148 405.313"/>
<path class="l4" d="M770.148 403.107L774.561 405.313L770.148 407.52L770.148 403.107"/>
<path class="l4" d="M622.307 458.271L622.307 497.99"/>
<path class="l4" d="M598.035 478.13L617.894 478.13"/>
<path class="l4" d="M633.34 451.651L633.34 462.684"/>
<path class="l4" d="M633.34 493.576L633.34 504.609"/>
<path class="l4" d="M617.894 464.891L617.894 491.37"/>
<path class="l4" d="M622.307 462.684L633.34 462.684"/>
<path class="l4" d="M622.307 493.576L628.927 493.576"/>
<path class="l4" d="M628.927 491.37L633.34 493.576L628.927 495.783L628.927 491.37"/>
<path class="l4" d="M763.528 458.271L763.528 497.99"/>
<path class="l4" d="M739.256 478.13L759.115 478.13"/>
<path class="l4" d="M774.561 451.651L774.561 462.684"/>
<path class="l4" d="M774.561 493.576L774.561 504.609"/>
<path class="l4" d="M759.115 464.891L759.115 491.37"/>
<path class="l4" d="M763.528 462.684L774.561 462.684"/>
<path class="l4" d="M763.528 493.576L770.148 493.576"/>
<path class="l4" d="M770.148 491.37L774.561 493.576L770.148 495.783L770.148 491.37"/>
<path class="l4" d="M904.749 458.271L904.749 497.99"/>
<path class="l4" d="M880.477 478.13L900.336 478.13"/>
<path class="l4" d="M915.782 451.651L915.782 462.684"/>
<path class="l4" d="M915.782 493.576L915.782 504.609"/>
<path class="l4" d="M900.336 464.891L900.336 491.37"/>
<path class="l4" d="M904.749 462.684L915.782 462.684"/>
<path class="l4" d="M904.749 493.576L911.369 493.576"/>
<path class="l4" d="M911.369 491.37L915.782 493.576L911.369 495.783L911.369 491.37"/>
<path class="l4" d="M774.561 539.915L774.561 550.947"/>
<path class="l4" d="M770.148 550.947L778.974 550.947"/>
<path class="l4" d="M774.561 555.361L778.974 550.947"/>
<path class="l4" d="M770.148 550.947L774.561 555.361"/>
<path class="l4" d="M1045.97 281.745L1045.97 321.463"/>
<path class="l4" d="M1057 275.125L1057 286.158"/>
<path class="l4" d="M1057 317.05L1057 328.083"/>
<path class="l4" d="M1041.56 288.365L1041.56 314.844"/>
<path class="l4" d="M1045.97 317.05L1057 317.05"/>
<path class="l4" d="M1050.38 286.158L1057 286.158"/>
<path class="l4" d="M1021.7 301.604L1032.73 301.604"/>
<path class="l4" d="M1050.38 283.951L1045.97 286.158L1050.38 288.365L1050.38 283.951"/>
<circle class="l4" cx="1037.14" cy="301.604" r="4.41316" style="fill:none;"/>
<path class="l4" d="M1045.97 193.482L1045.97 233.2"/>
<path class="l4" d="M1057 186.862L1057 197.895"/>
<path class="l4" d="M1057 228.787L1057 239.82"/>
<path class="l4" d="M1041.56 200.101L1041.56 226.58"/>
<path class="l4" d="M1045.97 228.787L1057 228.787"/>
<path class="l4" d="M1050.38 197.895L1057 197.895"/>
<path class="l4" d="M1021.7 213.341L1032.73 213.341"/>
<path class="l4" d="M1050.38 195.688L1045.97 197.895L1050.38 200.101L1050.38 195.688"/>
<circle class="l4" cx="1037.14" cy="213.341" r="4.41316" style="fill:none;"/>
<path class="l4" d="M1045.97 105.219L1045.97 144.937"/>
<path class="l4" d="M1057 98.5988L1057 109.632"/>
<path class="l4" d="M1057 140.524L1057 151.557"/>
<path class="l4" d="M1041.56 111.838L1041.56 138.317"/>
<path class="l4" d="M1045.97 140.524L1057 140.524"/>
<path class="l4" d="M1050.38 109.632L1057 109.632"/>
<path class="l4" d="M1021.7 125.078L1032.73 125.078"/>
<path class="l4" d="M1050.38 107.425L1045.97 109.632L1050.38 111.838L1050.38 107.425"/>
<circle class="l4" cx="1037.14" cy="125.078" r="4.41316" style="fill:none;"/>
<path class="l4" d="M1045.97 370.008L1045.97 409.726"/>
<path class="l4" d="M1021.7 389.867L1041.56 389.867"/>
<path class="l4" d="M1057 363.388L1057 374.421"/>
<path class="l4" d="M1057 405.313L1057 416.346"/>
<path class="l4" d="M1041.56 376.628L1041.56 403.107"/>
<path class="l4" d="M1045.97 374.421L1057 374.421"/>
<path class="l4" d="M1045.97 405.313L1052.59 405.313"/>
<path class="l4" d="M1052.59 403.107L1057 405.313L1052.59 407.52L1052.59 403.107"/>
<path class="l4" d="M1045.97 458.271L1045.97 497.99"/>
<path class="l4" d="M1021.7 478.13L1041.56 478.13"/>
<path class="l4" d="M1057 451.651L1057 462.684"/>
<path class="l4" d="M1057 493.576L1057 504.609"/>
<path class="l4" d="M1041.56 464.891L1041.56 491.37"/>
<path class="l4" d="M1045.97 462.684L1057 462.684"/>
<path class="l4" d="M1045.97 493.576L1052.59 493.576"/>
<path class="l4" d="M1052.59 491.37L1057 493.576L1052.59 495.783L1052.59 491.37"/>
<path class="l4" d="M1045.97 546.534L1045.97 586.253"/>
<path class="l4" d="M1021.7 566.394L1041.56 566.394"/>
<path class="l4" d="M1057 539.915L1057 550.947"/>
<path class="l4" d="M1057 581.84L1057 592.872"/>
<path class="l4" d="M1041.56 553.154L1041.56 579.633"/>
<path class="l4" d="M1045.97 550.947L1057 550.947"/>
<path class="l4" d="M1045.97 581.84L1052.59 581.84"/>
<path class="l4" d="M1052.59 579.633L1057 581.84L1052.59 584.046L1052.59 579.633"/>
<path class="l4" d="M1057 610.525L1057 621.558"/>
<path class="l4" d="M1052.59 621.558L1061.42 621.558"/>
<path class="l4" d="M1057 625.971L1061.42 621.558"/>
<path class="l4" d="M1052.59 621.558L1057 625.971"/>
<path class="l4" d="M1057 63.2935L1057 80.9462"/>
<path class="l4" d="M1048.18 63.2935L1065.83 63.2935"/>
<path class="l4" d="M673.059 592.872L686.298 592.872"/>
<path class="l4" d="M598.035 592.872L624.514 592.872"/>
<path class="l4" style="fill:none;" d="M624.514 610.525L624.514 575.22L659.819 592.872L624.514 610.525"/>
<circle class="l4" cx="666.439" cy="592.872" r="6.24115" style="fill:none;"/>
<path class="l4" d="M1202.64 345.736L1215.88 345.736"/>
<path class="l4" d="M1127.61 345.736L1154.09 345.736"/>
<path class="l4" style="fill:none;" d="M1154.09 363.388L1154.09 328.083L1189.4 345.736L1154.09 363.388"/>
<circle class="l4" cx="1196.02" cy="345.736" r="6.24115" style="fill:none;"/>
<path class="l5" d="M278.081 361.182L282.494 361.182L282.494 365.595L278.081 365.595L278.081 361.182z"/>
<path class="l5" d="M242.776 387.661L247.189 387.661L247.189 392.074L242.776 392.074L242.776 387.661z"/>
<path class="l5" d="M278.081 414.14L282.494 414.14L282.494 418.553L278.081 418.553L278.081 414.14z"/>
<path class="l5" d="M278.081 325.876L282.494 325.876L282.494 330.29L278.081 330.29L278.081 325.876z"/>
<path class="l5" d="M242.776 299.397L247.189 299.397L247.189 303.811L242.776 303.811L242.776 299.397z"/>
<path class="l5" d="M278.081 272.919L282.494 272.919L282.494 277.332L278.081 277.332L278.081 272.919z"/>
<path class="l5" d="M207.47 237.613L211.884 237.613L211.884 242.026L207.47 242.026L207.47 237.613z"/>
<path class="l5" d="M172.165 211.134L176.578 211.134L176.578 215.547L172.165 215.547L172.165 211.134z"/>
<path class="l5" d="M207.47 184.655L211.884 184.655L211.884 189.069L207.47 189.069L207.47 184.655z"/>
<path class="l5" d="M348.691 237.613L353.105 237.613L353.105 242.026L348.691 242.026L348.691 237.613z"/>
<path class="l5" d="M313.386 211.134L317.799 211.134L317.799 215.547L313.386 215.547L313.386 211.134z"/>
<path class="l5" d="M348.691 184.655L353.105 184.655L353.105 189.069L348.691 189.069L348.691 184.655z"/>
<path class="l5" d="M207.47 449.445L211.884 449.445L211.884 453.858L207.47 453.858L207.47 449.445z"/>
<path class="l5" d="M172.165 475.924L176.578 475.924L176.578 480.337L172.165 480.337L172.165 475.924z"/>
<path class="l5" d="M207.47 502.403L211.884 502.403L211.884 506.816L207.47 506.816L207.47 502.403z"/>
<path class="l5" d="M348.691 449.445L353.105 449.445L353.105 453.858L348.691 453.858L348.691 449.445z"/>
<path class="l5" d="M313.386 475.924L317.799 475.924L317.799 480.337L313.386 480.337L313.386 475.924z"/>
<path class="l5" d="M348.691 502.403L353.105 502.403L353.105 506.816L348.691 506.816L348.691 502.403z"/>
<path class="l5" d="M278.081 149.35L282.494 149.35L282.494 153.763L278.081 153.763L278.081 149.35z"/>
<path class="l5" d="M278.081 537.708L282.494 537.708L282.494 542.121L278.081 542.121L278.081 537.708z"/>
<path class="l5" d="M489.912 325.876L494.326 325.876L494.326 330.29L489.912 330.29L489.912 325.876z"/>
<path class="l5" d="M454.607 299.397L459.02 299.397L459.02 303.811L454.607 303.811L454.607 299.397z"/>
<path class="l5" d="M489.912 272.919L494.326 272.919L494.326 277.332L489.912 277.332L489.912 272.919z"/>
<path class="l5" d="M489.912 237.613L494.326 237.613L494.326 242.026L489.912 242.026L489.912 237.613z"/>
<path class="l5" d="M454.607 211.134L459.02 211.134L459.02 215.547L454.607 215.547L454.607 211.134z"/>
<path class="l5" d="M489.912 184.655L494.326 184.655L494.326 189.069L489.912 189.069L489.912 184.655z"/>
<path class="l5" d="M489.912 149.35L494.326 149.35L494.326 153.763L489.912 153.763L489.912 149.35z"/>
<path class="l5" d="M489.912 361.182L494.326 361.182L494.326 365.595L489.912 365.595L489.912 361.182z"/>
<path class="l5" d="M454.607 387.661L459.02 387.661L459.02 392.074L454.607 392.074L454.607 387.661z"/>
<path class="l5" d="M489.912 414.14L494.326 414.14L494.326 418.553L489.912 418.553L489.912 414.14z"/>
<path class="l5" d="M489.912 449.445L494.326 449.445L494.326 453.858L489.912 453.858L489.912 449.445z"/>
<path class="l5" d="M454.607 475.924L459.02 475.924L459.02 480.337L454.607 480.337L454.607 475.924z"/>
<path class="l5" d="M489.912 502.403L494.326 502.403L494.326 506.816L489.912 506.816L489.912 502.403z"/>
<path class="l5" d="M489.912 537.708L494.326 537.708L494.326 542.121L489.912 542.121L489.912 537.708z"/>
<path class="l5" d="M631.134 237.613L635.547 237.613L635.547 242.026L631.134 242.026L631.134 237.613z"/>
<path class="l5" d="M595.828 211.134L600.241 211.134L600.241 215.547L595.828 215.547L595.828 211.134z"/>
<path class="l5" d="M631.134 184.655L635.547 184.655L635.547 189.069L631.134 189.069L631.134 184.655z"/>
<path class="l5" d="M772.355 237.613L776.768 237.613L776.768 242.026L772.355 242.026L772.355 237.613z"/>
<path class="l5" d="M737.049 211.134L741.462 211.134L741.462 215.547L737.049 215.547L737.049 211.134z"/>
<path class="l5" d="M772.355 184.655L776.768 184.655L776.768 189.069L772.355 189.069L772.355 184.655z"/>
<path class="l5" d="M913.576 237.613L917.989 237.613L917.989 242.026L913.576 242.026L913.576 237.613z"/>
<path class="l5" d="M878.27 211.134L882.684 211.134L882.684 215.547L878.27 215.547L878.27 211.134z"/>
<path class="l5" d="M913.576 184.655L917.989 184.655L917.989 189.069L913.576 189.069L913.576 184.655z"/>
<path class="l5" d="M772.355 325.876L776.768 325.876L776.768 330.29L772.355 330.29L772.355 325.876z"/>
<path class="l5" d="M737.049 299.397L741.462 299.397L741.462 303.811L737.049 303.811L737.049 299.397z"/>
<path class="l5" d="M772.355 272.919L776.768 272.919L776.768 277.332L772.355 277.332L772.355 272.919z"/>
<path class="l5" d="M772.355 149.35L776.768 149.35L776.768 153.763L772.355 153.763L772.355 149.35z"/>
<path class="l5" d="M772.355 361.182L776.768 361.182L776.768 365.595L772.355 365.595L772.355 361.182z"/>
<path class="l5" d="M737.049 387.661L741.462 387.661L741.462 392.074L737.049 392.074L737.049 387.661z"/>
<path class="l5" d="M772.355 414.14L776.768 414.14L776.768 418.553L772.355 418.553L772.355 414.14z"/>
<path class="l5" d="M631.134 449.445L635.547 449.445L635.547 453.858L631.134 453.858L631.134 449.445z"/>
<path class="l5" d="M595.828 475.924L600.241 475.924L600.241 480.337L595.828 480.337L595.828 475.924z"/>
<path class="l5" d="M631.134 502.403L635.547 502.403L635.547 506.816L631.134 506.816L631.134 502.403z"/>
<path class="l5" d="M772.355 449.445L776.768 449.445L776.768 453.858L772.355 453.858L772.355 449.445z"/>
<path class="l5" d="M737.049 475.924L741.462 475.924L741.462 480.337L737.049 480.337L737.049 475.924z"/>
<path class="l5" d="M772.355 502.403L776.768 502.403L776.768 506.816L772.355 506.816L772.355 502.403z"/>
<path class="l5" d="M913.576 449.445L917.989 449.445L917.989 453.858L913.576 453.858L913.576 449.445z"/>
<path class="l5" d="M878.27 475.924L882.684 475.924L882.684 480.337L878.27 480.337L878.27 475.924z"/>
<path class="l5" d="M913.576 502.403L917.989 502.403L917.989 506.816L913.576 506.816L913.576 502.403z"/>
<path class="l5" d="M772.355 537.708L776.768 537.708L776.768 542.121L772.355 542.121L772.355 537.708z"/>
<path class="l5" d="M1054.8 325.876L1059.21 325.876L1059.21 330.29L1054.8 330.29L1054.8 325.876z"/>
<path class="l5" d="M1019.49 299.397L1023.9 299.397L1023.9 303.811L1019.49 303.811L1019.49 299.397z"/>
<path class="l5" d="M1054.8 272.919L1059.21 272.919L1059.21 277.332L1054.8 277.332L1054.8 272.919z"/>
<path class="l5" d="M1054.8 237.613L1059.21 237.613L1059.21 242.026L1054.8 242.026L1054.8 237.613z"/>
<path class="l5" d="M1019.49 211.134L1023.9 211.134L1023.9 215.547L1019.49 215.547L1019.49 211.134z"/>
<path class="l5" d="M1054.8 184.655L1059.21 184.655L1059.21 189.069L1054.8 189.069L1054.8 184.655z"/>
<path class="l5" d="M1054.8 149.35L1059.21 149.35L1059.21 153.763L1054.8 153.763L1054.8 149.35z"/>
<path class="l5" d="M1019.49 122.871L1023.9 122.871L1023.9 127.284L1019.49 127.284L1019.49 122.871z"/>
<path class="l5" d="M1054.8 96.3922L1059.21 96.3922L1059.21 100.805L1054.8 100.805L1054.8 96.3922z"/>
<path class="l5" d="M1054.8 361.182L1059.21 361.182L1059.21 365.595L1054.8 365.595L1054.8 361.182z"/>
<path class="l5" d="M1019.49 387.661L1023.9 387.661L1023.9 392.074L1019.49 392.074L1019.49 387.661z"/>
<path class="l5" d="M1054.8 414.14L1059.21 414.14L1059.21 418.553L1054.8 418.553L1054.8 414.14z"/>
<path class="l5" d="M1054.8 449.445L1059.21 449.445L1059.21 453.858L1054.8 453.858L1054.8 449.445z"/>
<path class="l5" d="M1019.49 475.924L1023.9 475.924L1023.9 480.337L1019.49 480.337L1019.49 475.924z"/>
<path class="l5" d="M1054.8 502.403L1059.21 502.403L1059.21 506.816L1054.8 506.816L1054.8 502.403z"/>
<path class="l5" d="M1054.8 537.708L1059.21 537.708L1059.21 542.121L1054.8 542.121L1054.8 537.708z"/>
<path class="l5" d="M1019.49 564.187L1023.9 564.187L1023.9 568.6L1019.49 568.6L1019.49 564.187z"/>
<path class="l5" d="M1054.8 590.666L1059.21 590.666L1059.21 595.079L1054.8 595.079L1054.8 590.666z"/>
<path class="l5" d="M1054.8 608.319L1059.21 608.319L1059.21 612.732L1054.8 612.732L1054.8 608.319z"/>
<path class="l5" d="M1054.8 78.7396L1059.21 78.7396L1059.21 83.1528L1054.8 83.1528L1054.8 78.7396z"/>
<path class="l5" d="M46.3902 275.125L50.8033 275.125"/>
<path class="l5" d="M46.3902 275.125L43.0803 270.712L35.3573 270.712L38.6671 275.125L35.3573 279.538L43.0803 279.538L46.3902 275.125"/>
<path class="l5" d="M49.7 274.022L51.9066 274.022L51.9066 276.228L49.7 276.228L49.7 274.022z"/>
<path class="l5" d="M46.3902 310.43L50.8033 310.43"/>
<path class="l5" d="M46.3902 310.43L43.0803 306.017L35.3573 306.017L38.6671 310.43L35.3573 314.844L43.0803 314.844L46.3902 310.43"/>
<path class="l5" d="M49.7 309.327L51.9066 309.327L51.9066 311.534L49.7 311.534L49.7 309.327z"/>
<path class="l5" d="M46.3902 345.736L50.8033 345.736"/>
<path class="l5" d="M46.3902 345.736L43.0803 341.322L35.3573 341.322L38.6671 345.736L35.3573 350.149L43.0803 350.149L46.3902 345.736"/>
<path class="l5" d="M49.7 344.632L51.9066 344.632L51.9066 346.839L49.7 346.839L49.7 344.632z"/>
<path class="l5" d="M1233.53 345.736L1241.25 345.736"/>
<path class="l5" d="M1248.98 345.736L1245.67 341.322L1237.94 341.322L1241.25 345.736L1237.94 350.149L1245.67 350.149L1248.98 345.736"/>
<path class="l5" d="M1232.43 344.632L1234.63 344.632L1234.63 346.839L1232.43 346.839L1232.43 344.632z"/>
<path class="l5" d="M703.951 592.872L711.674 592.872"/>
<path class="l5" d="M719.397 592.872L716.087 588.459L708.364 588.459L711.674 592.872L708.364 597.286L716.087 597.286L719.397 592.872"/>
<path class="l5" d="M702.847 591.769L705.054 591.769L705.054 593.976L702.847 593.976L702.847 591.769z"/>
<path class="l5" d="M67.3527 274.022L69.5592 274.022L69.5592 276.228L67.3527 276.228L67.3527 274.022z"/>
<path class="l5" d="M67.3527 309.327L69.5592 309.327L69.5592 311.534L67.3527 311.534L67.3527 309.327z"/>
<path class="l5" d="M67.3527 344.632L69.5592 344.632L69.5592 346.839L67.3527 346.839L67.3527 344.632z"/>
<path class="l5" d="M164.442 212.238L166.649 212.238L166.649 214.444L164.442 214.444L164.442 212.238z"/>
<path class="l5" d="M164.442 477.027L166.649 477.027L166.649 479.234L164.442 479.234L164.442 477.027z"/>
<path class="l5" d="M446.884 212.238L449.091 212.238L449.091 214.444L446.884 214.444L446.884 212.238z"/>
<path class="l5" d="M446.884 477.027L449.091 477.027L449.091 479.234L446.884 479.234L446.884 477.027z"/>
<path class="l5" d="M588.105 212.238L590.312 212.238L590.312 214.444L588.105 214.444L588.105 212.238z"/>
<path class="l5" d="M588.105 477.027L590.312 477.027L590.312 479.234L588.105 479.234L588.105 477.027z"/>
<path class="l5" d="M1011.77 123.974L1013.97 123.974L1013.97 126.181L1011.77 126.181L1011.77 123.974z"/>
<path class="l5" d="M1011.77 565.29L1013.97 565.29L1013.97 567.497L1011.77 567.497L1011.77 565.29z"/>
<path class="l5" d="M305.663 212.238L307.87 212.238L307.87 214.444L305.663 214.444L305.663 212.238z"/>
<path class="l5" d="M305.663 477.027L307.87 477.027L307.87 479.234L305.663 479.234L305.663 477.027z"/>
<path class="l5" d="M446.884 388.764L449.091 388.764L449.091 390.97L446.884 390.97L446.884 388.764z"/>
<path class="l5" d="M446.884 300.501L449.091 300.501L449.091 302.707L446.884 302.707L446.884 300.501z"/>
<path class="l5" d="M729.326 477.027L731.533 477.027L731.533 479.234L729.326 479.234L729.326 477.027z"/>
<path class="l5" d="M729.326 212.238L731.533 212.238L731.533 214.444L729.326 214.444L729.326 212.238z"/>
<path class="l5" d="M1011.77 212.238L1013.97 212.238L1013.97 214.444L1011.77 214.444L1011.77 212.238z"/>
<path class="l5" d="M1011.77 477.027L1013.97 477.027L1013.97 479.234L1011.77 479.234L1011.77 477.027z"/>
<path class="l5" d="M173.268 344.632L175.475 344.632L175.475 346.839L173.268 346.839L173.268 344.632z"/>
<path class="l5" d="M870.547 212.238L872.754 212.238L872.754 214.444L870.547 214.444L870.547 212.238z"/>
<path class="l5" d="M870.547 477.027L872.754 477.027L872.754 479.234L870.547 479.234L870.547 477.027z"/>
<path class="l5" d="M1011.77 388.764L1013.97 388.764L1013.97 390.97L1011.77 390.97L1011.77 388.764z"/>
<path class="l5" d="M1011.77 300.501L1013.97 300.501L1013.97 302.707L1011.77 302.707L1011.77 300.501z"/>
<path class="l5" d="M684.091 590.666L688.505 590.666L688.505 595.079L684.091 595.079L684.091 590.666z"/>
<path class="l5" d="M595.828 590.666L600.241 590.666L600.241 595.079L595.828 595.079L595.828 590.666z"/>
<path class="l5" d="M1213.67 343.529L1218.08 343.529L1218.08 347.942L1213.67 347.942L1213.67 343.529z"/>
<path class="l5" d="M1125.41 343.529L1129.82 343.529L1129.82 347.942L1125.41 347.942L1125.41 343.529z"/>
<path class="l1" d="M280.288 257.472L280.288 275.125"/>
<path class="l1" d="M350.898 239.82L350.898 257.472"/>
<path class="l1" d="M209.677 239.82L209.677 257.472"/>
<path class="l1" d="M209.677 257.472L280.288 257.472"/>
<path class="l1" d="M280.288 257.472L350.898 257.472"/>
<path class="l1" d="M280.288 328.083L280.288 363.388"/>
<path class="l1" d="M280.288 416.346L280.288 433.999"/>
<path class="l1" d="M280.288 433.999L350.898 433.999"/>
<path class="l1" d="M350.898 433.999L350.898 451.651"/>
<path class="l1" d="M209.677 433.999L280.288 433.999"/>
<path class="l1" d="M209.677 433.999L209.677 451.651"/>
<path class="l1" d="M227.33 301.604L244.982 301.604"/>
<path class="l1" d="M227.33 301.604L227.33 389.867"/>
<path class="l1" d="M227.33 389.867L244.982 389.867"/>
<path class="l1" d="M209.677 169.209L209.677 186.862"/>
<path class="l1" d="M209.677 169.209L350.898 169.209"/>
<path class="l1" d="M350.898 169.209L350.898 186.862"/>
<path class="l1" d="M350.898 504.609L350.898 522.262"/>
<path class="l1" d="M209.677 522.262L350.898 522.262"/>
<path class="l1" d="M209.677 504.609L209.677 522.262"/>
<path class="l1" d="M280.288 522.262L280.288 539.915"/>
<path class="l1" d="M280.288 151.557L280.288 169.209"/>
<path class="l1" d="M280.288 345.736L421.509 345.736"/>
<path class="l1" d="M421.509 345.736L456.814 345.736"/>
<path class="l1" d="M456.814 345.736L492.119 345.736"/>
<path class="l1" d="M492.119 328.083L492.119 345.736"/>
<path class="l1" d="M492.119 239.82L492.119 275.125"/>
<path class="l1" d="M492.119 151.557L492.119 186.862"/>
<path class="l1" d="M492.119 345.736L492.119 363.388"/>
<path class="l1" d="M492.119 416.346L492.119 451.651"/>
<path class="l1" d="M492.119 504.609L492.119 539.915"/>
<path class="l1" d="M774.561 239.82L774.561 275.125"/>
<path class="l1" d="M633.34 239.82L633.34 257.472"/>
<path class="l1" d="M633.34 257.472L774.561 257.472"/>
<path class="l1" d="M774.561 257.472L915.782 257.472"/>
<path class="l1" d="M915.782 239.82L915.782 257.472"/>
<path class="l1" d="M915.782 169.209L915.782 186.862"/>
<path class="l1" d="M633.34 169.209L915.782 169.209"/>
<path class="l1" d="M633.34 169.209L633.34 186.862"/>
<path class="l1" d="M774.561 169.209L774.561 186.862"/>
<path class="l1" d="M774.561 151.557L774.561 169.209"/>
<path class="l1" d="M774.561 328.083L774.561 345.736"/>
<path class="l1" d="M774.561 345.736L774.561 363.388"/>
<path class="l1" d="M721.603 389.867L739.256 389.867"/>
<path class="l1" d="M721.603 301.604L721.603 389.867"/>
<path class="l1" d="M721.603 301.604L739.256 301.604"/>
<path class="l1" d="M492.119 345.736L721.603 345.736"/>
<path class="l1" d="M633.34 433.999L633.34 451.651"/>
<path class="l1" d="M633.34 433.999L774.561 433.999"/>
<path class="l1" d="M774.561 416.346L774.561 433.999"/>
<path class="l1" d="M774.561 433.999L774.561 451.651"/>
<path class="l1" d="M915.782 433.999L915.782 451.651"/>
<path class="l1" d="M774.561 433.999L915.782 433.999"/>
<path class="l1" d="M633.34 504.609L633.34 522.262"/>
<path class="l1" d="M633.34 522.262L915.782 522.262"/>
<path class="l1" d="M915.782 504.609L915.782 522.262"/>
<path class="l1" d="M774.561 504.609L774.561 522.262"/>
<path class="l1" d="M774.561 522.262L774.561 539.915"/>
<path class="l1" d="M1057 151.557L1057 186.862"/>
<path class="l1" d="M1057 239.82L1057 275.125"/>
<path class="l1" d="M1057 328.083L1057 363.388"/>
<path class="l1" d="M1057 416.346L1057 451.651"/>
<path class="l1" d="M1057 513.436L1057 539.915"/>
<path class="l1" d="M1057 504.609L1057 513.436"/>
<path class="l1" d="M1057 592.872L1057 610.525"/>
<path class="l1" d="M1057 80.9462L1057 98.5988"/>
<path class="l1" d="M774.561 345.736L1057 345.736"/>
<path class="l1" d="M165.545 213.341L174.372 213.341"/>
<path class="l1" d="M447.988 213.341L456.814 213.341"/>
<path class="l1" d="M589.209 213.341L598.035 213.341"/>
<path class="l1" d="M1012.87 125.078L1021.7 125.078"/>
<path class="l1" d="M165.545 478.13L174.372 478.13"/>
<path class="l1" d="M447.988 478.13L456.814 478.13"/>
<path class="l1" d="M589.209 478.13L598.035 478.13"/>
<path class="l1" d="M1012.87 566.394L1021.7 566.394"/>
<path class="l1" d="M306.766 213.341L315.593 213.341"/>
<path class="l1" d="M447.988 301.604L456.814 301.604"/>
<path class="l1" d="M447.988 389.867L456.814 389.867"/>
<path class="l1" d="M306.766 478.13L315.593 478.13"/>
<path class="l1" d="M730.43 478.13L739.256 478.13"/>
<path class="l1" d="M730.43 213.341L739.256 213.341"/>
<path class="l1" d="M1012.87 213.341L1021.7 213.341"/>
<path class="l1" d="M1012.87 478.13L1021.7 478.13"/>
<path class="l1" d="M174.372 345.736L183.198 345.736"/>
<path class="l1" d="M183.198 345.736L227.33 345.736"/>
<path class="l1" d="M871.651 213.341L880.477 213.341"/>
<path class="l1" d="M871.651 478.13L880.477 478.13"/>
<path class="l1" d="M1012.87 389.867L1021.7 389.867"/>
<path class="l1" d="M1012.87 301.604L1021.7 301.604"/>
<path class="l1" d="M562.73 345.736L562.73 592.872"/>
<path class="l1" d="M562.73 592.872L598.035 592.872"/>
<path class="l1" d="M686.298 592.872L703.951 592.872"/>
<path class="l1" d="M1215.88 345.736L1233.53 345.736"/>
<path class="l1" d="M1057 345.736L1127.61 345.736"/>
<path class="l1" d="M50.8033 310.43L68.456 310.43"/>
<path class="l1" d="M50.8033 345.736L68.456 345.736"/>
<path class="l1" d="M50.8033 275.125L68.456 275.125"/>
<circle class="l1" cx="280.288" cy="257.472" r="3.53053"/>
<circle class="l1" cx="227.33" cy="345.736" r="3.53053"/>
<circle class="l1" cx="280.288" cy="433.999" r="3.53053"/>
<circle class="l1" cx="492.119" cy="345.736" r="3.53053"/>
<circle class="l1" cx="280.288" cy="169.209" r="3.53053"/>
<circle class="l1" cx="280.288" cy="257.472" r="3.53053"/>
<circle class="l1" cx="280.288" cy="257.472" r="3.53053"/>
<circle class="l1" cx="562.73" cy="345.736" r="3.53053"/>
<circle class="l1" cx="492.119" cy="345.736" r="3.53053"/>
<circle class="l1" cx="721.603" cy="345.736" r="3.53053"/>
<circle class="l1" cx="492.119" cy="345.736" r="3.53053"/>
<circle class="l1" cx="492.119" cy="345.736" r="3.53053"/>
<circle class="l1" cx="280.288" cy="345.736" r="3.53053"/>
<circle class="l1" cx="280.288" cy="522.262" r="3.53053"/>
<circle class="l1" cx="280.288" cy="433.999" r="3.53053"/>
<circle class="l1" cx="280.288" cy="433.999" r="3.53053"/>
<circle class="l1" cx="774.561" cy="345.736" r="3.53053"/>
<circle class="l1" cx="774.561" cy="169.209" r="3.53053"/>
<circle class="l1" cx="774.561" cy="169.209" r="3.53053"/>
<circle class="l1" cx="774.561" cy="257.472" r="3.53053"/>
<circle class="l1" cx="774.561" cy="257.472" r="3.53053"/>
<circle class="l1" cx="774.561" cy="345.736" r="3.53053"/>
<circle class="l1" cx="1057" cy="345.736" r="3.53053"/>
<circle class="l1" cx="774.561" cy="522.262" r="3.53053"/>
<circle class="l1" cx="774.561" cy="522.262" r="3.53053"/>
<circle class="l1" cx="774.561" cy="433.999" r="3.53053"/>
<circle class="l1" cx="774.561" cy="433.999" r="3.53053"/>
<circle class="l1" cx="774.561" cy="433.999" r="3.53053"/>
<circle class="l1" cx="774.561" cy="433.999" r="3.53053"/>
<circle class="l1" cx="774.561" cy="345.736" r="3.53053"/>
<circle class="l1" cx="1057" cy="345.736" r="3.53053"/>
</svg>
