<svg xmlns="http://www.w3.org/2000/svg" xmlns:xlink="http://www.w3.org/1999/xlink" width="1280" height="680" version="1.1">
<style type="text/css">
.l0{
 fill: #000000;
  stroke: #000000;
  stroke-linecap:round;
  stroke-linejoin:round;
  stroke-width: 0.922159;
}
.l1{
 fill: #00ccee;
  stroke: #00ccee;
  stroke-linecap:round;
  stroke-linejoin:round;
  stroke-width: 0.922159;
}
.l2{
  fill: none;
  stroke: #3f3f3f;
  stroke-linecap:round;
  stroke-linejoin:round;
  stroke-width: 0.922159;
}
.l3{
 fill: #cccccc; fill-opacity: 0.5;
  stroke: #cccccc;
  stroke-linecap:round;
  stroke-linejoin:round;
  stroke-width: 0.922159;
}
.l4{
 fill: #88dd00;
  stroke: #88dd00;
  stroke-linecap:round;
  stroke-linejoin:round;
  stroke-width: 0.922159;
}
.l5{
 fill: #bb2200;
  stroke: #bb2200;
  stroke-linecap:round;
  stroke-linejoin:round;
  stroke-width: 0.922159;
}
.l6{
 fill: #00ccee; fill-opacity: 0.5;
  stroke: #00ccee;
  stroke-linecap:round;
  stroke-linejoin:round;
  stroke-width: 0.922159;
}
.l7{
 fill: #ff0000; fill-opacity: 0.5;
  stroke: #ff0000;
  stroke-linecap:round;
  stroke-linejoin:round;
  stroke-width: 0.922159;
}
.l8{
 fill: #ffff00; fill-opacity: 0.5;
  stroke: #ffff00;
  stroke-linecap:round;
  stroke-linejoin:round;
  stroke-width: 0.922159;
}
.l9{
 fill: #ffffff; fill-opacity: 0.5;
  stroke: #ffffff;
  stroke-linecap:round;
  stroke-linejoin:round;
  stroke-width: 0.922159;
}
.l10{
 fill: #ff00ff;
  stroke: #ff00ff;
  stroke-linecap:round;
  stroke-linejoin:round;
  stroke-width: 0.922159;
}
.l11{
 fill: #00ff00; fill-opacity: 0.5;
  stroke: #00ff00;
  stroke-linecap:round;
  stroke-linejoin:round;
  stroke-width: 0.922159;
}
.l12{
 fill: #0044dd; fill-opacity: 0.5;
  stroke: #0044dd;
  stroke-linecap:round;
  stroke-linejoin:round;
  stroke-width: 0.922159;
}
.l13{
 fill: #aaaa00; fill-opacity: 0.5;
  stroke: #aaaa00;
  stroke-linecap:round;
  stroke-linejoin:round;
  stroke-width: 0.922159;
}
.l14{
  fill: none;
  stroke: #aaccaa;
  stroke-linecap:round;
  stroke-linejoin:round;
  stroke-width: 0.922159;
}
.l15{
 fill: #ff7777; fill-opacity: 0.5;
  stroke: #ff7777;
  stroke-linecap:round;
  stroke-linejoin:round;
  stroke-width: 0.922159;
}
.l16{
 fill: #bfff81; fill-opacity: 0.5;
  stroke: #bfff81;
  stroke-linecap:round;
  stroke-linejoin:round;
  stroke-width: 0.922159;
}
.l17{
  fill: none;
  stroke: #00ffcc;
  stroke-linecap:round;
  stroke-linejoin:round;
  stroke-width: 0.922159;
}
.l18{
 fill: #ce0097; fill-opacity: 0.5;
  stroke: #ce0097;
  stroke-linecap:round;
  stroke-linejoin:round;
  stroke-width: 0.922159;
}
.l19{
  fill: none;
  stroke: #d2d46b;
  stroke-linecap:round;
  stroke-linejoin:round;
  stroke-width: 0.922159;
}
.l20{
  fill: none;
  stroke: #ef6158;
  stroke-linecap:round;
  stroke-linejoin:round;
  stroke-width: 0.922159;
}
.l21{
  fill: none;
  stroke: #fdb200;
  stroke-linecap:round;
  stroke-linejoin:round;
  stroke-width: 0.922159;
}
text {font-family: Sans-Serif;}
</style>
<rect class="l0" x="0" y="0" width="1280" height="680"/>
<text fill="#00ccee"  xml:space="preserve" font-size="8.88005" transform="translate(282.45, 86.5712)" >VDD</text>
<text fill="#00ccee"  xml:space="preserve" font-size="8.88005" transform="translate(299.527, 496.42)" >GND</text>
<text fill="#00ccee"  xml:space="preserve" font-size="8.88005" transform="translate(487.374, 86.5712)" >VDD</text>
<text fill="#00ccee"  xml:space="preserve" font-size="8.88005" transform="translate(504.451, 496.42)" >GND</text>
<text fill="#00ccee"  xml:space="preserve" font-size="8.88005" transform="translate(760.606, 86.5712)" >VDD</text>
<text fill="#00ccee"  xml:space="preserve" font-size="8.88005" transform="translate(777.683, 496.42)" >GND</text>
<text fill="#00ccee"  xml:space="preserve" font-size="8.88005" transform="translate(1050.92, 564.728)" >GND</text>
<text fill="#00ccee"  xml:space="preserve" font-size="8.88005" transform="translate(1033.84, 18.2631)" >VDD</text>
<text fill="#00ccee"  xml:space="preserve" font-size="14.6521" transform="translate(45.112, 233.765)" >A</text>
<text fill="#00ccee"  xml:space="preserve" font-size="14.6521" transform="translate(45.112, 267.919)" >B</text>
<text fill="#00ccee"  xml:space="preserve" font-size="14.6521" transform="translate(41.112, 302.073)" >CI</text>
<text fill="#00ccee"  xml:space="preserve" font-size="14.6521" transform="translate(1215.28, 302.073)" >S</text>
<text fill="#00ccee"  xml:space="preserve" font-size="14.6521" transform="translate(685.894, 592.382)" >CO</text>
<text fill="#00ccee"  xml:space="preserve" font-size="14.6521" transform="translate(94.6026, 234.299)" >A</text>
<text fill="#00ccee"  xml:space="preserve" font-size="14.6521" transform="translate(94.6026, 268.453)" >B</text>
<text fill="#00ccee"  xml:space="preserve" font-size="14.6521" transform="translate(94.6026, 302.607)" >CI</text>
<text fill="#00ccee"  xml:space="preserve" font-size="14.6521" transform="translate(165.718, 174.529)" >A</text>
<text fill="#00ccee"  xml:space="preserve" font-size="14.6521" transform="translate(165.718, 430.684)" >A</text>
<text fill="#00ccee"  xml:space="preserve" font-size="14.6521" transform="translate(438.951, 174.529)" >A</text>
<text fill="#00ccee"  xml:space="preserve" font-size="14.6521" transform="translate(438.951, 430.684)" >A</text>
<text fill="#00ccee"  xml:space="preserve" font-size="14.6521" transform="translate(575.567, 174.529)" >A</text>
<text fill="#00ccee"  xml:space="preserve" font-size="14.6521" transform="translate(575.567, 430.684)" >A</text>
<text fill="#00ccee"  xml:space="preserve" font-size="14.6521" transform="translate(985.416, 89.1439)" >A</text>
<text fill="#00ccee"  xml:space="preserve" font-size="14.6521" transform="translate(985.416, 516.069)" >A</text>
<text fill="#00ccee"  xml:space="preserve" font-size="14.6521" transform="translate(302.335, 174.529)" >B</text>
<text fill="#00ccee"  xml:space="preserve" font-size="14.6521" transform="translate(302.335, 430.684)" >B</text>
<text fill="#00ccee"  xml:space="preserve" font-size="14.6521" transform="translate(438.951, 345.299)" >B</text>
<text fill="#00ccee"  xml:space="preserve" font-size="14.6521" transform="translate(438.951, 259.914)" >B</text>
<text fill="#00ccee"  xml:space="preserve" font-size="14.6521" transform="translate(712.183, 430.684)" >B</text>
<text fill="#00ccee"  xml:space="preserve" font-size="14.6521" transform="translate(712.183, 174.529)" >B</text>
<text fill="#00ccee"  xml:space="preserve" font-size="14.6521" transform="translate(981.416, 174.529)" >CI</text>
<text fill="#00ccee"  xml:space="preserve" font-size="14.6521" transform="translate(981.416, 430.684)" >CI</text>
<text fill="#00ccee"  xml:space="preserve" font-size="14.6521" transform="translate(170.257, 302.607)" >CI</text>
<text fill="#00ccee"  xml:space="preserve" font-size="14.6521" transform="translate(844.799, 174.529)" >CI</text>
<text fill="#00ccee"  xml:space="preserve" font-size="14.6521" transform="translate(844.799, 430.684)" >CI</text>
<text fill="#00ccee"  xml:space="preserve" font-size="14.6521" transform="translate(985.416, 345.299)" >B</text>
<text fill="#00ccee"  xml:space="preserve" font-size="14.6521" transform="translate(985.416, 259.914)" >B</text>
<text fill="#00ccee"  xml:space="preserve" font-size="8.88005" transform="translate(658.144, 667.19)" >GND</text>
<text fill="#00ccee"  xml:space="preserve" font-size="8.88005" transform="translate(641.067, 496.42)" >VDD</text>
<text fill="#00ccee"  xml:space="preserve" font-size="8.88005" transform="translate(1170.46, 376.881)" >GND</text>
<text fill="#00ccee"  xml:space="preserve" font-size="8.88005" transform="translate(1153.38, 206.11)" >VDD</text>
<text fill="#00ccee"  xml:space="preserve" font-size="11.9881" transform="translate(895.838, 292.308)" >COM</text>
<text fill="#00ccee"  xml:space="preserve" font-size="11.9881" transform="translate(1009.38, 121.537)" >alpha</text>
<text fill="#00ccee"  xml:space="preserve" font-size="11.9881" transform="translate(1015.38, 206.923)" >beta</text>
<text fill="#00ccee"  xml:space="preserve" font-size="11.9881" transform="translate(996.377, 377.693)" >gamma</text>
<text fill="#00ccee"  xml:space="preserve" font-size="11.9881" transform="translate(1012.38, 463.078)" >delta</text>
<text fill="#00ccee"  xml:space="preserve" font-size="11.9881" transform="translate(590.529, 206.923)" >epsilon</text>
<text fill="#00ccee"  xml:space="preserve" font-size="11.9881" transform="translate(607.529, 377.693)" >zeta</text>
<text fill="#00ccee"  xml:space="preserve" font-size="11.9881" transform="translate(626.144, 292.308)" >theta</text>
<text fill="#00ccee"  xml:space="preserve" font-size="11.9881" transform="translate(473.913, 206.923)" >iota</text>
<text fill="#00ccee"  xml:space="preserve" font-size="11.9881" transform="translate(458.913, 377.693)" >kappa</text>
<text fill="#00ccee"  xml:space="preserve" font-size="11.9881" transform="translate(177.68, 206.923)" >lambda</text>
<text fill="#00ccee"  xml:space="preserve" font-size="11.9881" transform="translate(202.68, 377.693)" >mu</text>
<text fill="#cccccc"  xml:space="preserve" font-size="8.88005" transform="translate(266.315, 321.38)" >M1</text>
<text fill="#ff0000"  xml:space="preserve" font-size="6.66004" transform="translate(295.258, 359.922)" >S</text>
<text fill="#ff0000"  xml:space="preserve" font-size="6.66004" transform="translate(295.258, 322.399)" >D</text>
<text fill="#ff0000"  xml:space="preserve" font-size="6.66004" transform="translate(262.507, 336.441)" >G</text>
<text fill="#cccccc"  xml:space="preserve" font-size="8.88005" transform="translate(301.661, 329.339)" >nfet_01v8</text>
<text fill="#aaaa00"  xml:space="preserve" font-size="8.88005" transform="translate(302.729, 358.736)" >1 x 0.42 / 0.15</text>
<text fill="#aaaa00"  xml:space="preserve" font-size="8.88005" transform="translate(302.729, 348.063)" >nf=1</text>
<text fill="#cccccc"  xml:space="preserve" font-size="8.88005" transform="translate(266.315, 235.995)" >M2</text>
<text fill="#ff0000"  xml:space="preserve" font-size="6.66004" transform="translate(295.258, 274.537)" >D</text>
<text fill="#ff0000"  xml:space="preserve" font-size="6.66004" transform="translate(295.258, 237.013)" >S</text>
<text fill="#ff0000"  xml:space="preserve" font-size="6.66004" transform="translate(262.507, 251.056)" >G</text>
<text fill="#cccccc"  xml:space="preserve" font-size="8.88005" transform="translate(301.661, 243.954)" >pfet_01v8</text>
<text fill="#aaaa00"  xml:space="preserve" font-size="8.88005" transform="translate(302.729, 273.351)" >1 x 0.42 / 0.15</text>
<text fill="#aaaa00"  xml:space="preserve" font-size="8.88005" transform="translate(302.729, 262.678)" >nf=1</text>
<text fill="#cccccc"  xml:space="preserve" font-size="8.88005" transform="translate(198.007, 150.61)" >M3</text>
<text fill="#ff0000"  xml:space="preserve" font-size="6.66004" transform="translate(226.95, 189.152)" >D</text>
<text fill="#ff0000"  xml:space="preserve" font-size="6.66004" transform="translate(226.95, 151.628)" >S</text>
<text fill="#ff0000"  xml:space="preserve" font-size="6.66004" transform="translate(194.199, 165.671)" >G</text>
<text fill="#cccccc"  xml:space="preserve" font-size="8.88005" transform="translate(233.353, 158.569)" >pfet_01v8</text>
<text fill="#aaaa00"  xml:space="preserve" font-size="8.88005" transform="translate(234.421, 187.966)" >1 x 0.42 / 0.15</text>
<text fill="#aaaa00"  xml:space="preserve" font-size="8.88005" transform="translate(234.421, 177.293)" >nf=1</text>
<text fill="#cccccc"  xml:space="preserve" font-size="8.88005" transform="translate(334.623, 150.61)" >M4</text>
<text fill="#ff0000"  xml:space="preserve" font-size="6.66004" transform="translate(363.566, 189.152)" >D</text>
<text fill="#ff0000"  xml:space="preserve" font-size="6.66004" transform="translate(363.566, 151.628)" >S</text>
<text fill="#ff0000"  xml:space="preserve" font-size="6.66004" transform="translate(330.816, 165.671)" >G</text>
<text fill="#cccccc"  xml:space="preserve" font-size="8.88005" transform="translate(369.97, 158.569)" >pfet_01v8</text>
<text fill="#aaaa00"  xml:space="preserve" font-size="8.88005" transform="translate(371.037, 187.966)" >1 x 0.42 / 0.15</text>
<text fill="#aaaa00"  xml:space="preserve" font-size="8.88005" transform="translate(371.037, 177.293)" >nf=1</text>
<text fill="#cccccc"  xml:space="preserve" font-size="8.88005" transform="translate(198.007, 406.765)" >M5</text>
<text fill="#ff0000"  xml:space="preserve" font-size="6.66004" transform="translate(226.95, 445.308)" >S</text>
<text fill="#ff0000"  xml:space="preserve" font-size="6.66004" transform="translate(226.95, 407.784)" >D</text>
<text fill="#ff0000"  xml:space="preserve" font-size="6.66004" transform="translate(194.199, 421.827)" >G</text>
<text fill="#cccccc"  xml:space="preserve" font-size="8.88005" transform="translate(233.353, 414.724)" >nfet_01v8</text>
<text fill="#aaaa00"  xml:space="preserve" font-size="8.88005" transform="translate(234.421, 444.121)" >1 x 0.42 / 0.15</text>
<text fill="#aaaa00"  xml:space="preserve" font-size="8.88005" transform="translate(234.421, 433.448)" >nf=1</text>
<text fill="#cccccc"  xml:space="preserve" font-size="8.88005" transform="translate(334.623, 406.765)" >M6</text>
<text fill="#ff0000"  xml:space="preserve" font-size="6.66004" transform="translate(363.566, 445.308)" >S</text>
<text fill="#ff0000"  xml:space="preserve" font-size="6.66004" transform="translate(363.566, 407.784)" >D</text>
<text fill="#ff0000"  xml:space="preserve" font-size="6.66004" transform="translate(330.816, 421.827)" >G</text>
<text fill="#cccccc"  xml:space="preserve" font-size="8.88005" transform="translate(369.97, 414.724)" >nfet_01v8</text>
<text fill="#aaaa00"  xml:space="preserve" font-size="8.88005" transform="translate(371.037, 444.121)" >1 x 0.42 / 0.15</text>
<text fill="#aaaa00"  xml:space="preserve" font-size="8.88005" transform="translate(371.037, 433.448)" >nf=1</text>
<text fill="#cccccc"  xml:space="preserve" font-size="8.88005" transform="translate(471.239, 235.995)" >M7</text>
<text fill="#ff0000"  xml:space="preserve" font-size="6.66004" transform="translate(500.182, 274.537)" >D</text>
<text fill="#ff0000"  xml:space="preserve" font-size="6.66004" transform="translate(500.182, 237.013)" >S</text>
<text fill="#ff0000"  xml:space="preserve" font-size="6.66004" transform="translate(467.432, 251.056)" >G</text>
<text fill="#cccccc"  xml:space="preserve" font-size="8.88005" transform="translate(506.586, 243.954)" >pfet_01v8</text>
<text fill="#aaaa00"  xml:space="preserve" font-size="8.88005" transform="translate(507.653, 273.351)" >1 x 0.42 / 0.15</text>
<text fill="#aaaa00"  xml:space="preserve" font-size="8.88005" transform="translate(507.653, 262.678)" >nf=1</text>
<text fill="#cccccc"  xml:space="preserve" font-size="8.88005" transform="translate(471.239, 150.61)" >M8</text>
<text fill="#ff0000"  xml:space="preserve" font-size="6.66004" transform="translate(500.182, 189.152)" >D</text>
<text fill="#ff0000"  xml:space="preserve" font-size="6.66004" transform="translate(500.182, 151.628)" >S</text>
<text fill="#ff0000"  xml:space="preserve" font-size="6.66004" transform="translate(467.432, 165.671)" >G</text>
<text fill="#cccccc"  xml:space="preserve" font-size="8.88005" transform="translate(506.586, 158.569)" >pfet_01v8</text>
<text fill="#aaaa00"  xml:space="preserve" font-size="8.88005" transform="translate(507.653, 187.966)" >1 x 0.42 / 0.15</text>
<text fill="#aaaa00"  xml:space="preserve" font-size="8.88005" transform="translate(507.653, 177.293)" >nf=1</text>
<text fill="#cccccc"  xml:space="preserve" font-size="8.88005" transform="translate(471.239, 321.38)" >M9</text>
<text fill="#ff0000"  xml:space="preserve" font-size="6.66004" transform="translate(500.182, 359.922)" >S</text>
<text fill="#ff0000"  xml:space="preserve" font-size="6.66004" transform="translate(500.182, 322.399)" >D</text>
<text fill="#ff0000"  xml:space="preserve" font-size="6.66004" transform="translate(467.432, 336.441)" >G</text>
<text fill="#cccccc"  xml:space="preserve" font-size="8.88005" transform="translate(506.586, 329.339)" >nfet_01v8</text>
<text fill="#aaaa00"  xml:space="preserve" font-size="8.88005" transform="translate(507.653, 358.736)" >1 x 0.42 / 0.15</text>
<text fill="#aaaa00"  xml:space="preserve" font-size="8.88005" transform="translate(507.653, 348.063)" >nf=1</text>
<text fill="#cccccc"  xml:space="preserve" font-size="8.88005" transform="translate(465.239, 406.765)" >M10</text>
<text fill="#ff0000"  xml:space="preserve" font-size="6.66004" transform="translate(500.182, 445.308)" >S</text>
<text fill="#ff0000"  xml:space="preserve" font-size="6.66004" transform="translate(500.182, 407.784)" >D</text>
<text fill="#ff0000"  xml:space="preserve" font-size="6.66004" transform="translate(467.432, 421.827)" >G</text>
<text fill="#cccccc"  xml:space="preserve" font-size="8.88005" transform="translate(506.586, 414.724)" >nfet_01v8</text>
<text fill="#aaaa00"  xml:space="preserve" font-size="8.88005" transform="translate(507.653, 444.121)" >1 x 0.42 / 0.15</text>
<text fill="#aaaa00"  xml:space="preserve" font-size="8.88005" transform="translate(507.653, 433.448)" >nf=1</text>
<text fill="#cccccc"  xml:space="preserve" font-size="8.88005" transform="translate(601.856, 150.61)" >M11</text>
<text fill="#ff0000"  xml:space="preserve" font-size="6.66004" transform="translate(636.798, 189.152)" >D</text>
<text fill="#ff0000"  xml:space="preserve" font-size="6.66004" transform="translate(636.798, 151.628)" >S</text>
<text fill="#ff0000"  xml:space="preserve" font-size="6.66004" transform="translate(604.048, 165.671)" >G</text>
<text fill="#cccccc"  xml:space="preserve" font-size="8.88005" transform="translate(643.202, 158.569)" >pfet_01v8</text>
<text fill="#aaaa00"  xml:space="preserve" font-size="8.88005" transform="translate(644.269, 187.966)" >1 x 0.42 / 0.15</text>
<text fill="#aaaa00"  xml:space="preserve" font-size="8.88005" transform="translate(644.269, 177.293)" >nf=1</text>
<text fill="#cccccc"  xml:space="preserve" font-size="8.88005" transform="translate(738.472, 150.61)" >M12</text>
<text fill="#ff0000"  xml:space="preserve" font-size="6.66004" transform="translate(773.414, 189.152)" >D</text>
<text fill="#ff0000"  xml:space="preserve" font-size="6.66004" transform="translate(773.414, 151.628)" >S</text>
<text fill="#ff0000"  xml:space="preserve" font-size="6.66004" transform="translate(740.664, 165.671)" >G</text>
<text fill="#cccccc"  xml:space="preserve" font-size="8.88005" transform="translate(779.818, 158.569)" >pfet_01v8</text>
<text fill="#aaaa00"  xml:space="preserve" font-size="8.88005" transform="translate(780.885, 187.966)" >1 x 0.42 / 0.15</text>
<text fill="#aaaa00"  xml:space="preserve" font-size="8.88005" transform="translate(780.885, 177.293)" >nf=1</text>
<text fill="#cccccc"  xml:space="preserve" font-size="8.88005" transform="translate(875.088, 150.61)" >M13</text>
<text fill="#ff0000"  xml:space="preserve" font-size="6.66004" transform="translate(910.03, 189.152)" >D</text>
<text fill="#ff0000"  xml:space="preserve" font-size="6.66004" transform="translate(910.03, 151.628)" >S</text>
<text fill="#ff0000"  xml:space="preserve" font-size="6.66004" transform="translate(877.28, 165.671)" >G</text>
<text fill="#cccccc"  xml:space="preserve" font-size="8.88005" transform="translate(916.434, 158.569)" >pfet_01v8</text>
<text fill="#aaaa00"  xml:space="preserve" font-size="8.88005" transform="translate(917.502, 187.966)" >1 x 0.42 / 0.15</text>
<text fill="#aaaa00"  xml:space="preserve" font-size="8.88005" transform="translate(917.502, 177.293)" >nf=1</text>
<text fill="#cccccc"  xml:space="preserve" font-size="8.88005" transform="translate(738.472, 235.995)" >M14</text>
<text fill="#ff0000"  xml:space="preserve" font-size="6.66004" transform="translate(773.414, 274.537)" >D</text>
<text fill="#ff0000"  xml:space="preserve" font-size="6.66004" transform="translate(773.414, 237.013)" >S</text>
<text fill="#ff0000"  xml:space="preserve" font-size="6.66004" transform="translate(740.664, 251.056)" >G</text>
<text fill="#cccccc"  xml:space="preserve" font-size="8.88005" transform="translate(779.818, 243.954)" >pfet_01v8</text>
<text fill="#aaaa00"  xml:space="preserve" font-size="8.88005" transform="translate(780.885, 273.351)" >1 x 0.42 / 0.15</text>
<text fill="#aaaa00"  xml:space="preserve" font-size="8.88005" transform="translate(780.885, 262.678)" >nf=1</text>
<text fill="#cccccc"  xml:space="preserve" font-size="8.88005" transform="translate(738.472, 321.38)" >M15</text>
<text fill="#ff0000"  xml:space="preserve" font-size="6.66004" transform="translate(773.414, 359.922)" >S</text>
<text fill="#ff0000"  xml:space="preserve" font-size="6.66004" transform="translate(773.414, 322.399)" >D</text>
<text fill="#ff0000"  xml:space="preserve" font-size="6.66004" transform="translate(740.664, 336.441)" >G</text>
<text fill="#cccccc"  xml:space="preserve" font-size="8.88005" transform="translate(779.818, 329.339)" >nfet_01v8</text>
<text fill="#aaaa00"  xml:space="preserve" font-size="8.88005" transform="translate(780.885, 358.736)" >1 x 0.42 / 0.15</text>
<text fill="#aaaa00"  xml:space="preserve" font-size="8.88005" transform="translate(780.885, 348.063)" >nf=1</text>
<text fill="#cccccc"  xml:space="preserve" font-size="8.88005" transform="translate(601.856, 406.765)" >M16</text>
<text fill="#ff0000"  xml:space="preserve" font-size="6.66004" transform="translate(636.798, 445.308)" >S</text>
<text fill="#ff0000"  xml:space="preserve" font-size="6.66004" transform="translate(636.798, 407.784)" >D</text>
<text fill="#ff0000"  xml:space="preserve" font-size="6.66004" transform="translate(604.048, 421.827)" >G</text>
<text fill="#cccccc"  xml:space="preserve" font-size="8.88005" transform="translate(643.202, 414.724)" >nfet_01v8</text>
<text fill="#aaaa00"  xml:space="preserve" font-size="8.88005" transform="translate(644.269, 444.121)" >1 x 0.42 / 0.15</text>
<text fill="#aaaa00"  xml:space="preserve" font-size="8.88005" transform="translate(644.269, 433.448)" >nf=1</text>
<text fill="#cccccc"  xml:space="preserve" font-size="8.88005" transform="translate(738.472, 406.765)" >M17</text>
<text fill="#ff0000"  xml:space="preserve" font-size="6.66004" transform="translate(773.414, 445.308)" >S</text>
<text fill="#ff0000"  xml:space="preserve" font-size="6.66004" transform="translate(773.414, 407.784)" >D</text>
<text fill="#ff0000"  xml:space="preserve" font-size="6.66004" transform="translate(740.664, 421.827)" >G</text>
<text fill="#cccccc"  xml:space="preserve" font-size="8.88005" transform="translate(779.818, 414.724)" >nfet_01v8</text>
<text fill="#aaaa00"  xml:space="preserve" font-size="8.88005" transform="translate(780.885, 444.121)" >1 x 0.42 / 0.15</text>
<text fill="#aaaa00"  xml:space="preserve" font-size="8.88005" transform="translate(780.885, 433.448)" >nf=1</text>
<text fill="#cccccc"  xml:space="preserve" font-size="8.88005" transform="translate(875.088, 406.765)" >M18</text>
<text fill="#ff0000"  xml:space="preserve" font-size="6.66004" transform="translate(910.03, 445.308)" >S</text>
<text fill="#ff0000"  xml:space="preserve" font-size="6.66004" transform="translate(910.03, 407.784)" >D</text>
<text fill="#ff0000"  xml:space="preserve" font-size="6.66004" transform="translate(877.28, 421.827)" >G</text>
<text fill="#cccccc"  xml:space="preserve" font-size="8.88005" transform="translate(916.434, 414.724)" >nfet_01v8</text>
<text fill="#aaaa00"  xml:space="preserve" font-size="8.88005" transform="translate(917.502, 444.121)" >1 x 0.42 / 0.15</text>
<text fill="#aaaa00"  xml:space="preserve" font-size="8.88005" transform="translate(917.502, 433.448)" >nf=1</text>
<text fill="#cccccc"  xml:space="preserve" font-size="8.88005" transform="translate(1011.7, 235.995)" >M19</text>
<text fill="#ff0000"  xml:space="preserve" font-size="6.66004" transform="translate(1046.65, 274.537)" >D</text>
<text fill="#ff0000"  xml:space="preserve" font-size="6.66004" transform="translate(1046.65, 237.013)" >S</text>
<text fill="#ff0000"  xml:space="preserve" font-size="6.66004" transform="translate(1013.9, 251.056)" >G</text>
<text fill="#cccccc"  xml:space="preserve" font-size="8.88005" transform="translate(1053.05, 243.954)" >pfet_01v8</text>
<text fill="#aaaa00"  xml:space="preserve" font-size="8.88005" transform="translate(1054.12, 273.351)" >1 x 0.42 / 0.15</text>
<text fill="#aaaa00"  xml:space="preserve" font-size="8.88005" transform="translate(1054.12, 262.678)" >nf=1</text>
<text fill="#cccccc"  xml:space="preserve" font-size="8.88005" transform="translate(1011.7, 150.61)" >M20</text>
<text fill="#ff0000"  xml:space="preserve" font-size="6.66004" transform="translate(1046.65, 189.152)" >D</text>
<text fill="#ff0000"  xml:space="preserve" font-size="6.66004" transform="translate(1046.65, 151.628)" >S</text>
<text fill="#ff0000"  xml:space="preserve" font-size="6.66004" transform="translate(1013.9, 165.671)" >G</text>
<text fill="#cccccc"  xml:space="preserve" font-size="8.88005" transform="translate(1053.05, 158.569)" >pfet_01v8</text>
<text fill="#aaaa00"  xml:space="preserve" font-size="8.88005" transform="translate(1054.12, 187.966)" >1 x 0.42 / 0.15</text>
<text fill="#aaaa00"  xml:space="preserve" font-size="8.88005" transform="translate(1054.12, 177.293)" >nf=1</text>
<text fill="#cccccc"  xml:space="preserve" font-size="8.88005" transform="translate(1011.7, 65.2249)" >M21</text>
<text fill="#ff0000"  xml:space="preserve" font-size="6.66004" transform="translate(1046.65, 103.767)" >D</text>
<text fill="#ff0000"  xml:space="preserve" font-size="6.66004" transform="translate(1046.65, 66.2432)" >S</text>
<text fill="#ff0000"  xml:space="preserve" font-size="6.66004" transform="translate(1013.9, 80.2862)" >G</text>
<text fill="#cccccc"  xml:space="preserve" font-size="8.88005" transform="translate(1053.05, 73.1838)" >pfet_01v8</text>
<text fill="#aaaa00"  xml:space="preserve" font-size="8.88005" transform="translate(1054.12, 102.581)" >1 x 0.42 / 0.15</text>
<text fill="#aaaa00"  xml:space="preserve" font-size="8.88005" transform="translate(1054.12, 91.9077)" >nf=1</text>
<text fill="#cccccc"  xml:space="preserve" font-size="8.88005" transform="translate(1011.7, 321.38)" >M22</text>
<text fill="#ff0000"  xml:space="preserve" font-size="6.66004" transform="translate(1046.65, 359.922)" >S</text>
<text fill="#ff0000"  xml:space="preserve" font-size="6.66004" transform="translate(1046.65, 322.399)" >D</text>
<text fill="#ff0000"  xml:space="preserve" font-size="6.66004" transform="translate(1013.9, 336.441)" >G</text>
<text fill="#cccccc"  xml:space="preserve" font-size="8.88005" transform="translate(1053.05, 329.339)" >nfet_01v8</text>
<text fill="#aaaa00"  xml:space="preserve" font-size="8.88005" transform="translate(1054.12, 358.736)" >1 x 0.42 / 0.15</text>
<text fill="#aaaa00"  xml:space="preserve" font-size="8.88005" transform="translate(1054.12, 348.063)" >nf=1</text>
<text fill="#cccccc"  xml:space="preserve" font-size="8.88005" transform="translate(1011.7, 406.765)" >M23</text>
<text fill="#ff0000"  xml:space="preserve" font-size="6.66004" transform="translate(1046.65, 445.308)" >S</text>
<text fill="#ff0000"  xml:space="preserve" font-size="6.66004" transform="translate(1046.65, 407.784)" >D</text>
<text fill="#ff0000"  xml:space="preserve" font-size="6.66004" transform="translate(1013.9, 421.827)" >G</text>
<text fill="#cccccc"  xml:space="preserve" font-size="8.88005" transform="translate(1053.05, 414.724)" >nfet_01v8</text>
<text fill="#aaaa00"  xml:space="preserve" font-size="8.88005" transform="translate(1054.12, 444.121)" >1 x 0.42 / 0.15</text>
<text fill="#aaaa00"  xml:space="preserve" font-size="8.88005" transform="translate(1054.12, 433.448)" >nf=1</text>
<text fill="#cccccc"  xml:space="preserve" font-size="8.88005" transform="translate(1011.7, 492.15)" >M24</text>
<text fill="#ff0000"  xml:space="preserve" font-size="6.66004" transform="translate(1046.65, 530.693)" >S</text>
<text fill="#ff0000"  xml:space="preserve" font-size="6.66004" transform="translate(1046.65, 493.169)" >D</text>
<text fill="#ff0000"  xml:space="preserve" font-size="6.66004" transform="translate(1013.9, 507.212)" >G</text>
<text fill="#cccccc"  xml:space="preserve" font-size="8.88005" transform="translate(1053.05, 500.109)" >nfet_01v8</text>
<text fill="#aaaa00"  xml:space="preserve" font-size="8.88005" transform="translate(1054.12, 529.506)" >1 x 0.42 / 0.15</text>
<text fill="#aaaa00"  xml:space="preserve" font-size="8.88005" transform="translate(1054.12, 518.833)" >nf=1</text>
<text fill="#cccccc"  xml:space="preserve" font-size="8.88005" transform="translate(618.933, 611.69)" >M25</text>
<text fill="#ff0000"  xml:space="preserve" font-size="6.66004" transform="translate(653.875, 650.232)" >S</text>
<text fill="#ff0000"  xml:space="preserve" font-size="6.66004" transform="translate(653.875, 612.708)" >D</text>
<text fill="#ff0000"  xml:space="preserve" font-size="6.66004" transform="translate(621.125, 626.751)" >G</text>
<text fill="#cccccc"  xml:space="preserve" font-size="8.88005" transform="translate(660.279, 619.649)" >nfet_01v8</text>
<text fill="#aaaa00"  xml:space="preserve" font-size="8.88005" transform="translate(661.346, 649.046)" >1 x 0.42 / 0.15</text>
<text fill="#aaaa00"  xml:space="preserve" font-size="8.88005" transform="translate(661.346, 638.372)" >nf=1</text>
<text fill="#cccccc"  xml:space="preserve" font-size="8.88005" transform="translate(618.933, 526.305)" >M26</text>
<text fill="#ff0000"  xml:space="preserve" font-size="6.66004" transform="translate(653.875, 564.847)" >D</text>
<text fill="#ff0000"  xml:space="preserve" font-size="6.66004" transform="translate(653.875, 527.323)" >S</text>
<text fill="#ff0000"  xml:space="preserve" font-size="6.66004" transform="translate(621.125, 541.366)" >G</text>
<text fill="#cccccc"  xml:space="preserve" font-size="8.88005" transform="translate(660.279, 534.263)" >pfet_01v8</text>
<text fill="#aaaa00"  xml:space="preserve" font-size="8.88005" transform="translate(661.346, 563.66)" >1 x 0.42 / 0.15</text>
<text fill="#aaaa00"  xml:space="preserve" font-size="8.88005" transform="translate(661.346, 552.987)" >nf=1</text>
<text fill="#cccccc"  xml:space="preserve" font-size="8.88005" transform="translate(1131.24, 321.38)" >M27</text>
<text fill="#ff0000"  xml:space="preserve" font-size="6.66004" transform="translate(1166.19, 359.922)" >S</text>
<text fill="#ff0000"  xml:space="preserve" font-size="6.66004" transform="translate(1166.19, 322.399)" >D</text>
<text fill="#ff0000"  xml:space="preserve" font-size="6.66004" transform="translate(1133.44, 336.441)" >G</text>
<text fill="#cccccc"  xml:space="preserve" font-size="8.88005" transform="translate(1172.59, 329.339)" >nfet_01v8</text>
<text fill="#aaaa00"  xml:space="preserve" font-size="8.88005" transform="translate(1173.66, 358.736)" >1 x 0.42 / 0.15</text>
<text fill="#aaaa00"  xml:space="preserve" font-size="8.88005" transform="translate(1173.66, 348.063)" >nf=1</text>
<text fill="#cccccc"  xml:space="preserve" font-size="8.88005" transform="translate(1131.24, 235.995)" >M28</text>
<text fill="#ff0000"  xml:space="preserve" font-size="6.66004" transform="translate(1166.19, 274.537)" >D</text>
<text fill="#ff0000"  xml:space="preserve" font-size="6.66004" transform="translate(1166.19, 237.013)" >S</text>
<text fill="#ff0000"  xml:space="preserve" font-size="6.66004" transform="translate(1133.44, 251.056)" >G</text>
<text fill="#cccccc"  xml:space="preserve" font-size="8.88005" transform="translate(1172.59, 243.954)" >pfet_01v8</text>
<text fill="#aaaa00"  xml:space="preserve" font-size="8.88005" transform="translate(1173.66, 273.351)" >1 x 0.42 / 0.15</text>
<text fill="#aaaa00"  xml:space="preserve" font-size="8.88005" transform="translate(1173.66, 262.678)" >nf=1</text>
<path class="l4" d="M282.45 319.721L282.45 358.144"/>
<path class="l4" d="M258.969 338.933L278.181 338.933"/>
<path class="l4" d="M293.123 313.317L293.123 323.99"/>
<path class="l4" d="M293.123 353.875L293.123 364.548"/>
<path class="l4" d="M278.181 326.125L278.181 351.74"/>
<path class="l4" d="M282.45 323.99L293.123 323.99"/>
<path class="l4" d="M282.45 353.875L288.854 353.875"/>
<path class="l4" d="M288.854 351.74L293.123 353.875L288.854 356.01L288.854 351.74"/>
<path class="l4" d="M282.45 234.336L282.45 272.759"/>
<path class="l4" d="M293.123 227.932L293.123 238.605"/>
<path class="l4" d="M293.123 268.49L293.123 279.163"/>
<path class="l4" d="M278.181 240.74L278.181 266.355"/>
<path class="l4" d="M282.45 268.49L293.123 268.49"/>
<path class="l4" d="M286.719 238.605L293.123 238.605"/>
<path class="l4" d="M258.969 253.548L269.642 253.548"/>
<path class="l4" d="M286.719 236.471L282.45 238.605L286.719 240.74L286.719 236.471"/>
<circle class="l4" cx="273.911" cy="253.548" r="4.26926" style="fill:none;"/>
<path class="l4" d="M214.142 148.951L214.142 187.374"/>
<path class="l4" d="M224.815 142.547L224.815 153.22"/>
<path class="l4" d="M224.815 183.105L224.815 193.778"/>
<path class="l4" d="M209.872 155.355L209.872 180.97"/>
<path class="l4" d="M214.142 183.105L224.815 183.105"/>
<path class="l4" d="M218.411 153.22L224.815 153.22"/>
<path class="l4" d="M190.661 168.162L201.334 168.162"/>
<path class="l4" d="M218.411 151.085L214.142 153.22L218.411 155.355L218.411 151.085"/>
<circle class="l4" cx="205.603" cy="168.162" r="4.26926" style="fill:none;"/>
<path class="l4" d="M350.758 148.951L350.758 187.374"/>
<path class="l4" d="M361.431 142.547L361.431 153.22"/>
<path class="l4" d="M361.431 183.105L361.431 193.778"/>
<path class="l4" d="M346.489 155.355L346.489 180.97"/>
<path class="l4" d="M350.758 183.105L361.431 183.105"/>
<path class="l4" d="M355.027 153.22L361.431 153.22"/>
<path class="l4" d="M327.277 168.162L337.95 168.162"/>
<path class="l4" d="M355.027 151.085L350.758 153.22L355.027 155.355L355.027 151.085"/>
<circle class="l4" cx="342.219" cy="168.162" r="4.26926" style="fill:none;"/>
<path class="l4" d="M214.142 405.106L214.142 443.529"/>
<path class="l4" d="M190.661 424.318L209.872 424.318"/>
<path class="l4" d="M224.815 398.702L224.815 409.375"/>
<path class="l4" d="M224.815 439.26L224.815 449.933"/>
<path class="l4" d="M209.872 411.51L209.872 437.126"/>
<path class="l4" d="M214.142 409.375L224.815 409.375"/>
<path class="l4" d="M214.142 439.26L220.546 439.26"/>
<path class="l4" d="M220.546 437.126L224.815 439.26L220.546 441.395L220.546 437.126"/>
<path class="l4" d="M350.758 405.106L350.758 443.529"/>
<path class="l4" d="M327.277 424.318L346.489 424.318"/>
<path class="l4" d="M361.431 398.702L361.431 409.375"/>
<path class="l4" d="M361.431 439.26L361.431 449.933"/>
<path class="l4" d="M346.489 411.51L346.489 437.126"/>
<path class="l4" d="M350.758 409.375L361.431 409.375"/>
<path class="l4" d="M350.758 439.26L357.162 439.26"/>
<path class="l4" d="M357.162 437.126L361.431 439.26L357.162 441.395L357.162 437.126"/>
<path class="l4" d="M293.123 91.3159L293.123 108.393"/>
<path class="l4" d="M284.584 91.3159L301.661 91.3159"/>
<path class="l4" d="M293.123 484.087L293.123 494.761"/>
<path class="l4" d="M288.854 494.761L297.392 494.761"/>
<path class="l4" d="M293.123 499.03L297.392 494.761"/>
<path class="l4" d="M288.854 494.761L293.123 499.03"/>
<path class="l4" d="M487.374 234.336L487.374 272.759"/>
<path class="l4" d="M498.047 227.932L498.047 238.605"/>
<path class="l4" d="M498.047 268.49L498.047 279.163"/>
<path class="l4" d="M483.105 240.74L483.105 266.355"/>
<path class="l4" d="M487.374 268.49L498.047 268.49"/>
<path class="l4" d="M491.643 238.605L498.047 238.605"/>
<path class="l4" d="M463.893 253.548L474.566 253.548"/>
<path class="l4" d="M491.643 236.471L487.374 238.605L491.643 240.74L491.643 236.471"/>
<circle class="l4" cx="478.836" cy="253.548" r="4.26926" style="fill:none;"/>
<path class="l4" d="M487.374 148.951L487.374 187.374"/>
<path class="l4" d="M498.047 142.547L498.047 153.22"/>
<path class="l4" d="M498.047 183.105L498.047 193.778"/>
<path class="l4" d="M483.105 155.355L483.105 180.97"/>
<path class="l4" d="M487.374 183.105L498.047 183.105"/>
<path class="l4" d="M491.643 153.22L498.047 153.22"/>
<path class="l4" d="M463.893 168.162L474.566 168.162"/>
<path class="l4" d="M491.643 151.085L487.374 153.22L491.643 155.355L491.643 151.085"/>
<circle class="l4" cx="478.836" cy="168.162" r="4.26926" style="fill:none;"/>
<path class="l4" d="M498.047 91.3159L498.047 108.393"/>
<path class="l4" d="M489.509 91.3159L506.586 91.3159"/>
<path class="l4" d="M487.374 319.721L487.374 358.144"/>
<path class="l4" d="M463.893 338.933L483.105 338.933"/>
<path class="l4" d="M498.047 313.317L498.047 323.99"/>
<path class="l4" d="M498.047 353.875L498.047 364.548"/>
<path class="l4" d="M483.105 326.125L483.105 351.74"/>
<path class="l4" d="M487.374 323.99L498.047 323.99"/>
<path class="l4" d="M487.374 353.875L493.778 353.875"/>
<path class="l4" d="M493.778 351.74L498.047 353.875L493.778 356.01L493.778 351.74"/>
<path class="l4" d="M487.374 405.106L487.374 443.529"/>
<path class="l4" d="M463.893 424.318L483.105 424.318"/>
<path class="l4" d="M498.047 398.702L498.047 409.375"/>
<path class="l4" d="M498.047 439.26L498.047 449.933"/>
<path class="l4" d="M483.105 411.51L483.105 437.126"/>
<path class="l4" d="M487.374 409.375L498.047 409.375"/>
<path class="l4" d="M487.374 439.26L493.778 439.26"/>
<path class="l4" d="M493.778 437.126L498.047 439.26L493.778 441.395L493.778 437.126"/>
<path class="l4" d="M498.047 484.087L498.047 494.761"/>
<path class="l4" d="M493.778 494.761L502.317 494.761"/>
<path class="l4" d="M498.047 499.03L502.317 494.761"/>
<path class="l4" d="M493.778 494.761L498.047 499.03"/>
<path class="l4" d="M623.99 148.951L623.99 187.374"/>
<path class="l4" d="M634.663 142.547L634.663 153.22"/>
<path class="l4" d="M634.663 183.105L634.663 193.778"/>
<path class="l4" d="M619.721 155.355L619.721 180.97"/>
<path class="l4" d="M623.99 183.105L634.663 183.105"/>
<path class="l4" d="M628.26 153.22L634.663 153.22"/>
<path class="l4" d="M600.509 168.162L611.183 168.162"/>
<path class="l4" d="M628.26 151.085L623.99 153.22L628.26 155.355L628.26 151.085"/>
<circle class="l4" cx="615.452" cy="168.162" r="4.26926" style="fill:none;"/>
<path class="l4" d="M760.606 148.951L760.606 187.374"/>
<path class="l4" d="M771.28 142.547L771.28 153.22"/>
<path class="l4" d="M771.28 183.105L771.28 193.778"/>
<path class="l4" d="M756.337 155.355L756.337 180.97"/>
<path class="l4" d="M760.606 183.105L771.28 183.105"/>
<path class="l4" d="M764.876 153.22L771.28 153.22"/>
<path class="l4" d="M737.126 168.162L747.799 168.162"/>
<path class="l4" d="M764.876 151.085L760.606 153.22L764.876 155.355L764.876 151.085"/>
<circle class="l4" cx="752.068" cy="168.162" r="4.26926" style="fill:none;"/>
<path class="l4" d="M897.223 148.951L897.223 187.374"/>
<path class="l4" d="M907.896 142.547L907.896 153.22"/>
<path class="l4" d="M907.896 183.105L907.896 193.778"/>
<path class="l4" d="M892.953 155.355L892.953 180.97"/>
<path class="l4" d="M897.223 183.105L907.896 183.105"/>
<path class="l4" d="M901.492 153.22L907.896 153.22"/>
<path class="l4" d="M873.742 168.162L884.415 168.162"/>
<path class="l4" d="M901.492 151.085L897.223 153.22L901.492 155.355L901.492 151.085"/>
<circle class="l4" cx="888.684" cy="168.162" r="4.26926" style="fill:none;"/>
<path class="l4" d="M760.606 234.336L760.606 272.759"/>
<path class="l4" d="M771.28 227.932L771.28 238.605"/>
<path class="l4" d="M771.28 268.49L771.28 279.163"/>
<path class="l4" d="M756.337 240.74L756.337 266.355"/>
<path class="l4" d="M760.606 268.49L771.28 268.49"/>
<path class="l4" d="M764.876 238.605L771.28 238.605"/>
<path class="l4" d="M737.126 253.548L747.799 253.548"/>
<path class="l4" d="M764.876 236.471L760.606 238.605L764.876 240.74L764.876 236.471"/>
<circle class="l4" cx="752.068" cy="253.548" r="4.26926" style="fill:none;"/>
<path class="l4" d="M771.28 91.3159L771.28 108.393"/>
<path class="l4" d="M762.741 91.3159L779.818 91.3159"/>
<path class="l4" d="M760.606 319.721L760.606 358.144"/>
<path class="l4" d="M737.126 338.933L756.337 338.933"/>
<path class="l4" d="M771.28 313.317L771.28 323.99"/>
<path class="l4" d="M771.28 353.875L771.28 364.548"/>
<path class="l4" d="M756.337 326.125L756.337 351.74"/>
<path class="l4" d="M760.606 323.99L771.28 323.99"/>
<path class="l4" d="M760.606 353.875L767.01 353.875"/>
<path class="l4" d="M767.01 351.74L771.28 353.875L767.01 356.01L767.01 351.74"/>
<path class="l4" d="M623.99 405.106L623.99 443.529"/>
<path class="l4" d="M600.509 424.318L619.721 424.318"/>
<path class="l4" d="M634.663 398.702L634.663 409.375"/>
<path class="l4" d="M634.663 439.26L634.663 449.933"/>
<path class="l4" d="M619.721 411.51L619.721 437.126"/>
<path class="l4" d="M623.99 409.375L634.663 409.375"/>
<path class="l4" d="M623.99 439.26L630.394 439.26"/>
<path class="l4" d="M630.394 437.126L634.663 439.26L630.394 441.395L630.394 437.126"/>
<path class="l4" d="M760.606 405.106L760.606 443.529"/>
<path class="l4" d="M737.126 424.318L756.337 424.318"/>
<path class="l4" d="M771.28 398.702L771.28 409.375"/>
<path class="l4" d="M771.28 439.26L771.28 449.933"/>
<path class="l4" d="M756.337 411.51L756.337 437.126"/>
<path class="l4" d="M760.606 409.375L771.28 409.375"/>
<path class="l4" d="M760.606 439.26L767.01 439.26"/>
<path class="l4" d="M767.01 437.126L771.28 439.26L767.01 441.395L767.01 437.126"/>
<path class="l4" d="M897.223 405.106L897.223 443.529"/>
<path class="l4" d="M873.742 424.318L892.953 424.318"/>
<path class="l4" d="M907.896 398.702L907.896 409.375"/>
<path class="l4" d="M907.896 439.26L907.896 449.933"/>
<path class="l4" d="M892.953 411.51L892.953 437.126"/>
<path class="l4" d="M897.223 409.375L907.896 409.375"/>
<path class="l4" d="M897.223 439.26L903.627 439.26"/>
<path class="l4" d="M903.627 437.126L907.896 439.26L903.627 441.395L903.627 437.126"/>
<path class="l4" d="M771.28 484.087L771.28 494.761"/>
<path class="l4" d="M767.01 494.761L775.549 494.761"/>
<path class="l4" d="M771.28 499.03L775.549 494.761"/>
<path class="l4" d="M767.01 494.761L771.28 499.03"/>
<path class="l4" d="M1033.84 234.336L1033.84 272.759"/>
<path class="l4" d="M1044.51 227.932L1044.51 238.605"/>
<path class="l4" d="M1044.51 268.49L1044.51 279.163"/>
<path class="l4" d="M1029.57 240.74L1029.57 266.355"/>
<path class="l4" d="M1033.84 268.49L1044.51 268.49"/>
<path class="l4" d="M1038.11 238.605L1044.51 238.605"/>
<path class="l4" d="M1010.36 253.548L1021.03 253.548"/>
<path class="l4" d="M1038.11 236.471L1033.84 238.605L1038.11 240.74L1038.11 236.471"/>
<circle class="l4" cx="1025.3" cy="253.548" r="4.26926" style="fill:none;"/>
<path class="l4" d="M1033.84 148.951L1033.84 187.374"/>
<path class="l4" d="M1044.51 142.547L1044.51 153.22"/>
<path class="l4" d="M1044.51 183.105L1044.51 193.778"/>
<path class="l4" d="M1029.57 155.355L1029.57 180.97"/>
<path class="l4" d="M1033.84 183.105L1044.51 183.105"/>
<path class="l4" d="M1038.11 153.22L1044.51 153.22"/>
<path class="l4" d="M1010.36 168.162L1021.03 168.162"/>
<path class="l4" d="M1038.11 151.085L1033.84 153.22L1038.11 155.355L1038.11 151.085"/>
<circle class="l4" cx="1025.3" cy="168.162" r="4.26926" style="fill:none;"/>
<path class="l4" d="M1033.84 63.5657L1033.84 101.989"/>
<path class="l4" d="M1044.51 57.1618L1044.51 67.835"/>
<path class="l4" d="M1044.51 97.7197L1044.51 108.393"/>
<path class="l4" d="M1029.57 69.9696L1029.57 95.5851"/>
<path class="l4" d="M1033.84 97.7197L1044.51 97.7197"/>
<path class="l4" d="M1038.11 67.835L1044.51 67.835"/>
<path class="l4" d="M1010.36 82.7773L1021.03 82.7773"/>
<path class="l4" d="M1038.11 65.7003L1033.84 67.835L1038.11 69.9696L1038.11 65.7003"/>
<circle class="l4" cx="1025.3" cy="82.7773" r="4.26926" style="fill:none;"/>
<path class="l4" d="M1033.84 319.721L1033.84 358.144"/>
<path class="l4" d="M1010.36 338.933L1029.57 338.933"/>
<path class="l4" d="M1044.51 313.317L1044.51 323.99"/>
<path class="l4" d="M1044.51 353.875L1044.51 364.548"/>
<path class="l4" d="M1029.57 326.125L1029.57 351.74"/>
<path class="l4" d="M1033.84 323.99L1044.51 323.99"/>
<path class="l4" d="M1033.84 353.875L1040.24 353.875"/>
<path class="l4" d="M1040.24 351.74L1044.51 353.875L1040.24 356.01L1040.24 351.74"/>
<path class="l4" d="M1033.84 405.106L1033.84 443.529"/>
<path class="l4" d="M1010.36 424.318L1029.57 424.318"/>
<path class="l4" d="M1044.51 398.702L1044.51 409.375"/>
<path class="l4" d="M1044.51 439.26L1044.51 449.933"/>
<path class="l4" d="M1029.57 411.51L1029.57 437.126"/>
<path class="l4" d="M1033.84 409.375L1044.51 409.375"/>
<path class="l4" d="M1033.84 439.26L1040.24 439.26"/>
<path class="l4" d="M1040.24 437.126L1044.51 439.26L1040.24 441.395L1040.24 437.126"/>
<path class="l4" d="M1033.84 490.491L1033.84 528.915"/>
<path class="l4" d="M1010.36 509.703L1029.57 509.703"/>
<path class="l4" d="M1044.51 484.087L1044.51 494.761"/>
<path class="l4" d="M1044.51 524.645L1044.51 535.318"/>
<path class="l4" d="M1029.57 496.895L1029.57 522.511"/>
<path class="l4" d="M1033.84 494.761L1044.51 494.761"/>
<path class="l4" d="M1033.84 524.645L1040.24 524.645"/>
<path class="l4" d="M1040.24 522.511L1044.51 524.645L1040.24 526.78L1040.24 522.511"/>
<path class="l4" d="M1044.51 552.395L1044.51 563.069"/>
<path class="l4" d="M1040.24 563.069L1048.78 563.069"/>
<path class="l4" d="M1044.51 567.338L1048.78 563.069"/>
<path class="l4" d="M1040.24 563.069L1044.51 567.338"/>
<path class="l4" d="M1044.51 23.0078L1044.51 40.0848"/>
<path class="l4" d="M1035.97 23.0078L1053.05 23.0078"/>
<path class="l4" d="M651.74 654.858L651.74 665.531"/>
<path class="l4" d="M647.471 665.531L656.01 665.531"/>
<path class="l4" d="M651.74 669.8L656.01 665.531"/>
<path class="l4" d="M647.471 665.531L651.74 669.8"/>
<path class="l4" d="M651.74 501.164L651.74 518.241"/>
<path class="l4" d="M643.202 501.164L660.279 501.164"/>
<path class="l4" d="M641.067 610.03L641.067 648.454"/>
<path class="l4" d="M617.586 629.242L636.798 629.242"/>
<path class="l4" d="M651.74 603.627L651.74 614.3"/>
<path class="l4" d="M651.74 644.184L651.74 654.858"/>
<path class="l4" d="M636.798 616.434L636.798 642.05"/>
<path class="l4" d="M641.067 614.3L651.74 614.3"/>
<path class="l4" d="M641.067 644.184L647.471 644.184"/>
<path class="l4" d="M647.471 642.05L651.74 644.184L647.471 646.319L647.471 642.05"/>
<path class="l4" d="M641.067 524.645L641.067 563.069"/>
<path class="l4" d="M651.74 518.241L651.74 528.915"/>
<path class="l4" d="M651.74 558.799L651.74 569.472"/>
<path class="l4" d="M636.798 531.049L636.798 556.665"/>
<path class="l4" d="M641.067 558.799L651.74 558.799"/>
<path class="l4" d="M645.337 528.915L651.74 528.915"/>
<path class="l4" d="M617.586 543.857L628.26 543.857"/>
<path class="l4" d="M645.337 526.78L641.067 528.915L645.337 531.049L645.337 526.78"/>
<circle class="l4" cx="632.529" cy="543.857" r="4.26926" style="fill:none;"/>
<path class="l4" d="M1164.05 364.548L1164.05 375.221"/>
<path class="l4" d="M1159.78 375.221L1168.32 375.221"/>
<path class="l4" d="M1164.05 379.491L1168.32 375.221"/>
<path class="l4" d="M1159.78 375.221L1164.05 379.491"/>
<path class="l4" d="M1164.05 210.855L1164.05 227.932"/>
<path class="l4" d="M1155.51 210.855L1172.59 210.855"/>
<path class="l4" d="M1153.38 319.721L1153.38 358.144"/>
<path class="l4" d="M1129.9 338.933L1149.11 338.933"/>
<path class="l4" d="M1164.05 313.317L1164.05 323.99"/>
<path class="l4" d="M1164.05 353.875L1164.05 364.548"/>
<path class="l4" d="M1149.11 326.125L1149.11 351.74"/>
<path class="l4" d="M1153.38 323.99L1164.05 323.99"/>
<path class="l4" d="M1153.38 353.875L1159.78 353.875"/>
<path class="l4" d="M1159.78 351.74L1164.05 353.875L1159.78 356.01L1159.78 351.74"/>
<path class="l4" d="M1153.38 234.336L1153.38 272.759"/>
<path class="l4" d="M1164.05 227.932L1164.05 238.605"/>
<path class="l4" d="M1164.05 268.49L1164.05 279.163"/>
<path class="l4" d="M1149.11 240.74L1149.11 266.355"/>
<path class="l4" d="M1153.38 268.49L1164.05 268.49"/>
<path class="l4" d="M1157.65 238.605L1164.05 238.605"/>
<path class="l4" d="M1129.9 253.548L1140.57 253.548"/>
<path class="l4" d="M1157.65 236.471L1153.38 238.605L1157.65 240.74L1157.65 236.471"/>
<circle class="l4" cx="1144.84" cy="253.548" r="4.26926" style="fill:none;"/>
<path class="l5" d="M290.988 311.183L295.258 311.183L295.258 315.452L290.988 315.452L290.988 311.183z"/>
<path class="l5" d="M256.834 336.798L261.104 336.798L261.104 341.067L256.834 341.067L256.834 336.798z"/>
<path class="l5" d="M290.988 362.414L295.258 362.414L295.258 366.683L290.988 366.683L290.988 362.414z"/>
<path class="l5" d="M290.988 277.028L295.258 277.028L295.258 281.298L290.988 281.298L290.988 277.028z"/>
<path class="l5" d="M256.834 251.413L261.104 251.413L261.104 255.682L256.834 255.682L256.834 251.413z"/>
<path class="l5" d="M290.988 225.797L295.258 225.797L295.258 230.067L290.988 230.067L290.988 225.797z"/>
<path class="l5" d="M222.68 191.643L226.95 191.643L226.95 195.913L222.68 195.913L222.68 191.643z"/>
<path class="l5" d="M188.526 166.028L192.795 166.028L192.795 170.297L188.526 170.297L188.526 166.028z"/>
<path class="l5" d="M222.68 140.412L226.95 140.412L226.95 144.682L222.68 144.682L222.68 140.412z"/>
<path class="l5" d="M359.296 191.643L363.566 191.643L363.566 195.913L359.296 195.913L359.296 191.643z"/>
<path class="l5" d="M325.142 166.028L329.412 166.028L329.412 170.297L325.142 170.297L325.142 166.028z"/>
<path class="l5" d="M359.296 140.412L363.566 140.412L363.566 144.682L359.296 144.682L359.296 140.412z"/>
<path class="l5" d="M222.68 396.568L226.95 396.568L226.95 400.837L222.68 400.837L222.68 396.568z"/>
<path class="l5" d="M188.526 422.183L192.795 422.183L192.795 426.452L188.526 426.452L188.526 422.183z"/>
<path class="l5" d="M222.68 447.799L226.95 447.799L226.95 452.068L222.68 452.068L222.68 447.799z"/>
<path class="l5" d="M359.296 396.568L363.566 396.568L363.566 400.837L359.296 400.837L359.296 396.568z"/>
<path class="l5" d="M325.142 422.183L329.412 422.183L329.412 426.452L325.142 426.452L325.142 422.183z"/>
<path class="l5" d="M359.296 447.799L363.566 447.799L363.566 452.068L359.296 452.068L359.296 447.799z"/>
<path class="l5" d="M290.988 106.258L295.258 106.258L295.258 110.528L290.988 110.528L290.988 106.258z"/>
<path class="l5" d="M290.988 481.953L295.258 481.953L295.258 486.222L290.988 486.222L290.988 481.953z"/>
<path class="l5" d="M495.913 277.028L500.182 277.028L500.182 281.298L495.913 281.298L495.913 277.028z"/>
<path class="l5" d="M461.759 251.413L466.028 251.413L466.028 255.682L461.759 255.682L461.759 251.413z"/>
<path class="l5" d="M495.913 225.797L500.182 225.797L500.182 230.067L495.913 230.067L495.913 225.797z"/>
<path class="l5" d="M495.913 191.643L500.182 191.643L500.182 195.913L495.913 195.913L495.913 191.643z"/>
<path class="l5" d="M461.759 166.028L466.028 166.028L466.028 170.297L461.759 170.297L461.759 166.028z"/>
<path class="l5" d="M495.913 140.412L500.182 140.412L500.182 144.682L495.913 144.682L495.913 140.412z"/>
<path class="l5" d="M495.913 106.258L500.182 106.258L500.182 110.528L495.913 110.528L495.913 106.258z"/>
<path class="l5" d="M495.913 311.183L500.182 311.183L500.182 315.452L495.913 315.452L495.913 311.183z"/>
<path class="l5" d="M461.759 336.798L466.028 336.798L466.028 341.067L461.759 341.067L461.759 336.798z"/>
<path class="l5" d="M495.913 362.414L500.182 362.414L500.182 366.683L495.913 366.683L495.913 362.414z"/>
<path class="l5" d="M495.913 396.568L500.182 396.568L500.182 400.837L495.913 400.837L495.913 396.568z"/>
<path class="l5" d="M461.759 422.183L466.028 422.183L466.028 426.452L461.759 426.452L461.759 422.183z"/>
<path class="l5" d="M495.913 447.799L500.182 447.799L500.182 452.068L495.913 452.068L495.913 447.799z"/>
<path class="l5" d="M495.913 481.953L500.182 481.953L500.182 486.222L495.913 486.222L495.913 481.953z"/>
<path class="l5" d="M632.529 191.643L636.798 191.643L636.798 195.913L632.529 195.913L632.529 191.643z"/>
<path class="l5" d="M598.375 166.028L602.644 166.028L602.644 170.297L598.375 170.297L598.375 166.028z"/>
<path class="l5" d="M632.529 140.412L636.798 140.412L636.798 144.682L632.529 144.682L632.529 140.412z"/>
<path class="l5" d="M769.145 191.643L773.414 191.643L773.414 195.913L769.145 195.913L769.145 191.643z"/>
<path class="l5" d="M734.991 166.028L739.26 166.028L739.26 170.297L734.991 170.297L734.991 166.028z"/>
<path class="l5" d="M769.145 140.412L773.414 140.412L773.414 144.682L769.145 144.682L769.145 140.412z"/>
<path class="l5" d="M905.761 191.643L910.03 191.643L910.03 195.913L905.761 195.913L905.761 191.643z"/>
<path class="l5" d="M871.607 166.028L875.876 166.028L875.876 170.297L871.607 170.297L871.607 166.028z"/>
<path class="l5" d="M905.761 140.412L910.03 140.412L910.03 144.682L905.761 144.682L905.761 140.412z"/>
<path class="l5" d="M769.145 277.028L773.414 277.028L773.414 281.298L769.145 281.298L769.145 277.028z"/>
<path class="l5" d="M734.991 251.413L739.26 251.413L739.26 255.682L734.991 255.682L734.991 251.413z"/>
<path class="l5" d="M769.145 225.797L773.414 225.797L773.414 230.067L769.145 230.067L769.145 225.797z"/>
<path class="l5" d="M769.145 106.258L773.414 106.258L773.414 110.528L769.145 110.528L769.145 106.258z"/>
<path class="l5" d="M769.145 311.183L773.414 311.183L773.414 315.452L769.145 315.452L769.145 311.183z"/>
<path class="l5" d="M734.991 336.798L739.26 336.798L739.26 341.067L734.991 341.067L734.991 336.798z"/>
<path class="l5" d="M769.145 362.414L773.414 362.414L773.414 366.683L769.145 366.683L769.145 362.414z"/>
<path class="l5" d="M632.529 396.568L636.798 396.568L636.798 400.837L632.529 400.837L632.529 396.568z"/>
<path class="l5" d="M598.375 422.183L602.644 422.183L602.644 426.452L598.375 426.452L598.375 422.183z"/>
<path class="l5" d="M632.529 447.799L636.798 447.799L636.798 452.068L632.529 452.068L632.529 447.799z"/>
<path class="l5" d="M769.145 396.568L773.414 396.568L773.414 400.837L769.145 400.837L769.145 396.568z"/>
<path class="l5" d="M734.991 422.183L739.26 422.183L739.26 426.452L734.991 426.452L734.991 422.183z"/>
<path class="l5" d="M769.145 447.799L773.414 447.799L773.414 452.068L769.145 452.068L769.145 447.799z"/>
<path class="l5" d="M905.761 396.568L910.03 396.568L910.03 400.837L905.761 400.837L905.761 396.568z"/>
<path class="l5" d="M871.607 422.183L875.876 422.183L875.876 426.452L871.607 426.452L871.607 422.183z"/>
<path class="l5" d="M905.761 447.799L910.03 447.799L910.03 452.068L905.761 452.068L905.761 447.799z"/>
<path class="l5" d="M769.145 481.953L773.414 481.953L773.414 486.222L769.145 486.222L769.145 481.953z"/>
<path class="l5" d="M1042.38 277.028L1046.65 277.028L1046.65 281.298L1042.38 281.298L1042.38 277.028z"/>
<path class="l5" d="M1008.22 251.413L1012.49 251.413L1012.49 255.682L1008.22 255.682L1008.22 251.413z"/>
<path class="l5" d="M1042.38 225.797L1046.65 225.797L1046.65 230.067L1042.38 230.067L1042.38 225.797z"/>
<path class="l5" d="M1042.38 191.643L1046.65 191.643L1046.65 195.913L1042.38 195.913L1042.38 191.643z"/>
<path class="l5" d="M1008.22 166.028L1012.49 166.028L1012.49 170.297L1008.22 170.297L1008.22 166.028z"/>
<path class="l5" d="M1042.38 140.412L1046.65 140.412L1046.65 144.682L1042.38 144.682L1042.38 140.412z"/>
<path class="l5" d="M1042.38 106.258L1046.65 106.258L1046.65 110.528L1042.38 110.528L1042.38 106.258z"/>
<path class="l5" d="M1008.22 80.6427L1012.49 80.6427L1012.49 84.912L1008.22 84.912L1008.22 80.6427z"/>
<path class="l5" d="M1042.38 55.0272L1046.65 55.0272L1046.65 59.2964L1042.38 59.2964L1042.38 55.0272z"/>
<path class="l5" d="M1042.38 311.183L1046.65 311.183L1046.65 315.452L1042.38 315.452L1042.38 311.183z"/>
<path class="l5" d="M1008.22 336.798L1012.49 336.798L1012.49 341.067L1008.22 341.067L1008.22 336.798z"/>
<path class="l5" d="M1042.38 362.414L1046.65 362.414L1046.65 366.683L1042.38 366.683L1042.38 362.414z"/>
<path class="l5" d="M1042.38 396.568L1046.65 396.568L1046.65 400.837L1042.38 400.837L1042.38 396.568z"/>
<path class="l5" d="M1008.22 422.183L1012.49 422.183L1012.49 426.452L1008.22 426.452L1008.22 422.183z"/>
<path class="l5" d="M1042.38 447.799L1046.65 447.799L1046.65 452.068L1042.38 452.068L1042.38 447.799z"/>
<path class="l5" d="M1042.38 481.953L1046.65 481.953L1046.65 486.222L1042.38 486.222L1042.38 481.953z"/>
<path class="l5" d="M1008.22 507.568L1012.49 507.568L1012.49 511.838L1008.22 511.838L1008.22 507.568z"/>
<path class="l5" d="M1042.38 533.184L1046.65 533.184L1046.65 537.453L1042.38 537.453L1042.38 533.184z"/>
<path class="l5" d="M1042.38 550.261L1046.65 550.261L1046.65 554.53L1042.38 554.53L1042.38 550.261z"/>
<path class="l5" d="M1042.38 37.9502L1046.65 37.9502L1046.65 42.2194L1042.38 42.2194L1042.38 37.9502z"/>
<path class="l5" d="M66.8524 227.932L71.1217 227.932"/>
<path class="l5" d="M66.8524 227.932L63.6505 223.663L56.1793 223.663L59.3812 227.932L56.1793 232.201L63.6505 232.201L66.8524 227.932"/>
<path class="l5" d="M70.0544 226.865L72.189 226.865L72.189 228.999L70.0544 228.999L70.0544 226.865z"/>
<path class="l5" d="M66.8524 262.086L71.1217 262.086"/>
<path class="l5" d="M66.8524 262.086L63.6505 257.817L56.1793 257.817L59.3812 262.086L56.1793 266.355L63.6505 266.355L66.8524 262.086"/>
<path class="l5" d="M70.0544 261.019L72.189 261.019L72.189 263.153L70.0544 263.153L70.0544 261.019z"/>
<path class="l5" d="M66.8524 296.24L71.1217 296.24"/>
<path class="l5" d="M66.8524 296.24L63.6505 291.971L56.1793 291.971L59.3812 296.24L56.1793 300.509L63.6505 300.509L66.8524 296.24"/>
<path class="l5" d="M70.0544 295.173L72.189 295.173L72.189 297.307L70.0544 297.307L70.0544 295.173z"/>
<path class="l5" d="M1198.21 296.24L1205.68 296.24"/>
<path class="l5" d="M1213.15 296.24L1209.95 291.971L1202.47 291.971L1205.68 296.24L1202.47 300.509L1209.95 300.509L1213.15 296.24"/>
<path class="l5" d="M1197.14 295.173L1199.27 295.173L1199.27 297.307L1197.14 297.307L1197.14 295.173z"/>
<path class="l5" d="M668.817 586.55L676.289 586.55"/>
<path class="l5" d="M683.76 586.55L680.558 582.28L673.087 582.28L676.289 586.55L673.087 590.819L680.558 590.819L683.76 586.55"/>
<path class="l5" d="M667.75 585.482L669.885 585.482L669.885 587.617L667.75 587.617L667.75 585.482z"/>
<path class="l5" d="M87.1314 226.865L89.266 226.865L89.266 228.999L87.1314 228.999L87.1314 226.865z"/>
<path class="l5" d="M87.1314 261.019L89.266 261.019L89.266 263.153L87.1314 263.153L87.1314 261.019z"/>
<path class="l5" d="M87.1314 295.173L89.266 295.173L89.266 297.307L87.1314 297.307L87.1314 295.173z"/>
<path class="l5" d="M181.055 167.095L183.19 167.095L183.19 169.23L181.055 169.23L181.055 167.095z"/>
<path class="l5" d="M181.055 423.25L183.19 423.25L183.19 425.385L181.055 425.385L181.055 423.25z"/>
<path class="l5" d="M454.287 167.095L456.422 167.095L456.422 169.23L454.287 169.23L454.287 167.095z"/>
<path class="l5" d="M454.287 423.25L456.422 423.25L456.422 425.385L454.287 425.385L454.287 423.25z"/>
<path class="l5" d="M590.904 167.095L593.038 167.095L593.038 169.23L590.904 169.23L590.904 167.095z"/>
<path class="l5" d="M590.904 423.25L593.038 423.25L593.038 425.385L590.904 425.385L590.904 423.25z"/>
<path class="l5" d="M1000.75 81.71L1002.89 81.71L1002.89 83.8447L1000.75 83.8447L1000.75 81.71z"/>
<path class="l5" d="M1000.75 508.636L1002.89 508.636L1002.89 510.77L1000.75 510.77L1000.75 508.636z"/>
<path class="l5" d="M317.671 167.095L319.806 167.095L319.806 169.23L317.671 169.23L317.671 167.095z"/>
<path class="l5" d="M317.671 423.25L319.806 423.25L319.806 425.385L317.671 425.385L317.671 423.25z"/>
<path class="l5" d="M454.287 337.865L456.422 337.865L456.422 340L454.287 340L454.287 337.865z"/>
<path class="l5" d="M454.287 252.48L456.422 252.48L456.422 254.615L454.287 254.615L454.287 252.48z"/>
<path class="l5" d="M727.52 423.25L729.654 423.25L729.654 425.385L727.52 425.385L727.52 423.25z"/>
<path class="l5" d="M727.52 167.095L729.654 167.095L729.654 169.23L727.52 169.23L727.52 167.095z"/>
<path class="l5" d="M1000.75 167.095L1002.89 167.095L1002.89 169.23L1000.75 169.23L1000.75 167.095z"/>
<path class="l5" d="M1000.75 423.25L1002.89 423.25L1002.89 425.385L1000.75 425.385L1000.75 423.25z"/>
<path class="l5" d="M189.594 295.173L191.728 295.173L191.728 297.307L189.594 297.307L189.594 295.173z"/>
<path class="l5" d="M864.136 167.095L866.271 167.095L866.271 169.23L864.136 169.23L864.136 167.095z"/>
<path class="l5" d="M864.136 423.25L866.271 423.25L866.271 425.385L864.136 425.385L864.136 423.25z"/>
<path class="l5" d="M1000.75 337.865L1002.89 337.865L1002.89 340L1000.75 340L1000.75 337.865z"/>
<path class="l5" d="M1000.75 252.48L1002.89 252.48L1002.89 254.615L1000.75 254.615L1000.75 252.48z"/>
<path class="l5" d="M649.606 652.723L653.875 652.723L653.875 656.992L649.606 656.992L649.606 652.723z"/>
<path class="l5" d="M649.606 516.107L653.875 516.107L653.875 520.376L649.606 520.376L649.606 516.107z"/>
<path class="l5" d="M649.606 601.492L653.875 601.492L653.875 605.761L649.606 605.761L649.606 601.492z"/>
<path class="l5" d="M615.452 627.107L619.721 627.107L619.721 631.377L615.452 631.377L615.452 627.107z"/>
<path class="l5" d="M649.606 652.723L653.875 652.723L653.875 656.992L649.606 656.992L649.606 652.723z"/>
<path class="l5" d="M649.606 567.338L653.875 567.338L653.875 571.607L649.606 571.607L649.606 567.338z"/>
<path class="l5" d="M615.452 541.722L619.721 541.722L619.721 545.992L615.452 545.992L615.452 541.722z"/>
<path class="l5" d="M649.606 516.107L653.875 516.107L653.875 520.376L649.606 520.376L649.606 516.107z"/>
<path class="l5" d="M1161.92 362.414L1166.19 362.414L1166.19 366.683L1161.92 366.683L1161.92 362.414z"/>
<path class="l5" d="M1161.92 225.797L1166.19 225.797L1166.19 230.067L1161.92 230.067L1161.92 225.797z"/>
<path class="l5" d="M1161.92 311.183L1166.19 311.183L1166.19 315.452L1161.92 315.452L1161.92 311.183z"/>
<path class="l5" d="M1127.76 336.798L1132.03 336.798L1132.03 341.067L1127.76 341.067L1127.76 336.798z"/>
<path class="l5" d="M1161.92 362.414L1166.19 362.414L1166.19 366.683L1161.92 366.683L1161.92 362.414z"/>
<path class="l5" d="M1161.92 277.028L1166.19 277.028L1166.19 281.298L1161.92 281.298L1161.92 277.028z"/>
<path class="l5" d="M1127.76 251.413L1132.03 251.413L1132.03 255.682L1127.76 255.682L1127.76 251.413z"/>
<path class="l5" d="M1161.92 225.797L1166.19 225.797L1166.19 230.067L1161.92 230.067L1161.92 225.797z"/>
<path class="l5" d="M923.906 295.173L926.04 295.173L926.04 297.307L923.906 297.307L923.906 295.173z"/>
<path class="l5" d="M1043.44 124.403L1045.58 124.403L1045.58 126.537L1043.44 126.537L1043.44 124.403z"/>
<path class="l5" d="M1043.44 209.788L1045.58 209.788L1045.58 211.922L1043.44 211.922L1043.44 209.788z"/>
<path class="l5" d="M1043.44 380.558L1045.58 380.558L1045.58 382.693L1043.44 382.693L1043.44 380.558z"/>
<path class="l5" d="M1043.44 465.943L1045.58 465.943L1045.58 468.078L1043.44 468.078L1043.44 465.943z"/>
<path class="l5" d="M633.596 209.788L635.731 209.788L635.731 211.922L633.596 211.922L633.596 209.788z"/>
<path class="l5" d="M633.596 380.558L635.731 380.558L635.731 382.693L633.596 382.693L633.596 380.558z"/>
<path class="l5" d="M659.212 295.173L661.346 295.173L661.346 297.307L659.212 297.307L659.212 295.173z"/>
<path class="l5" d="M496.98 209.788L499.115 209.788L499.115 211.922L496.98 211.922L496.98 209.788z"/>
<path class="l5" d="M496.98 380.558L499.115 380.558L499.115 382.693L496.98 382.693L496.98 380.558z"/>
<path class="l5" d="M223.748 209.788L225.882 209.788L225.882 211.922L223.748 211.922L223.748 209.788z"/>
<path class="l5" d="M223.748 380.558L225.882 380.558L225.882 382.693L223.748 382.693L223.748 380.558z"/>
<path class="l1" d="M293.123 210.855L293.123 227.932"/>
<path class="l1" d="M361.431 193.778L361.431 210.855"/>
<path class="l1" d="M224.815 193.778L224.815 210.855"/>
<path class="l1" d="M224.815 210.855L293.123 210.855"/>
<path class="l1" d="M293.123 210.855L361.431 210.855"/>
<path class="l1" d="M293.123 296.24L293.123 313.317"/>
<path class="l1" d="M293.123 364.548L293.123 381.625"/>
<path class="l1" d="M293.123 381.625L361.431 381.625"/>
<path class="l1" d="M361.431 381.625L361.431 398.702"/>
<path class="l1" d="M224.815 381.625L293.123 381.625"/>
<path class="l1" d="M224.815 381.625L224.815 398.702"/>
<path class="l1" d="M241.892 253.548L258.969 253.548"/>
<path class="l1" d="M241.892 296.24L241.892 338.933"/>
<path class="l1" d="M241.892 338.933L258.969 338.933"/>
<path class="l1" d="M224.815 125.47L224.815 142.547"/>
<path class="l1" d="M293.123 125.47L361.431 125.47"/>
<path class="l1" d="M361.431 125.47L361.431 142.547"/>
<path class="l1" d="M361.431 449.933L361.431 467.01"/>
<path class="l1" d="M293.123 467.01L361.431 467.01"/>
<path class="l1" d="M224.815 449.933L224.815 467.01"/>
<path class="l1" d="M293.123 467.01L293.123 484.087"/>
<path class="l1" d="M293.123 108.393L293.123 125.47"/>
<path class="l1" d="M293.123 296.24L498.047 296.24"/>
<path class="l1" d="M498.047 279.163L498.047 296.24"/>
<path class="l1" d="M498.047 193.778L498.047 227.932"/>
<path class="l1" d="M498.047 108.393L498.047 142.547"/>
<path class="l1" d="M498.047 296.24L498.047 313.317"/>
<path class="l1" d="M498.047 364.548L498.047 398.702"/>
<path class="l1" d="M498.047 449.933L498.047 484.087"/>
<path class="l1" d="M771.28 210.855L771.28 227.932"/>
<path class="l1" d="M634.663 193.778L634.663 210.855"/>
<path class="l1" d="M634.663 210.855L771.28 210.855"/>
<path class="l1" d="M771.28 210.855L907.896 210.855"/>
<path class="l1" d="M907.896 193.778L907.896 210.855"/>
<path class="l1" d="M907.896 125.47L907.896 142.547"/>
<path class="l1" d="M771.28 125.47L907.896 125.47"/>
<path class="l1" d="M634.663 125.47L634.663 142.547"/>
<path class="l1" d="M771.28 125.47L771.28 142.547"/>
<path class="l1" d="M771.28 108.393L771.28 125.47"/>
<path class="l1" d="M771.28 279.163L771.28 296.24"/>
<path class="l1" d="M771.28 296.24L771.28 313.317"/>
<path class="l1" d="M720.049 338.933L737.126 338.933"/>
<path class="l1" d="M720.049 296.24L720.049 338.933"/>
<path class="l1" d="M720.049 253.548L737.126 253.548"/>
<path class="l1" d="M634.663 381.625L634.663 398.702"/>
<path class="l1" d="M634.663 381.625L771.28 381.625"/>
<path class="l1" d="M771.28 364.548L771.28 381.625"/>
<path class="l1" d="M771.28 381.625L771.28 398.702"/>
<path class="l1" d="M907.896 381.625L907.896 398.702"/>
<path class="l1" d="M771.28 381.625L907.896 381.625"/>
<path class="l1" d="M634.663 449.933L634.663 467.01"/>
<path class="l1" d="M771.28 467.01L907.896 467.01"/>
<path class="l1" d="M907.896 449.933L907.896 467.01"/>
<path class="l1" d="M771.28 449.933L771.28 467.01"/>
<path class="l1" d="M771.28 467.01L771.28 484.087"/>
<path class="l1" d="M1044.51 108.393L1044.51 142.547"/>
<path class="l1" d="M1044.51 193.778L1044.51 227.932"/>
<path class="l1" d="M1044.51 296.24L1044.51 313.317"/>
<path class="l1" d="M1044.51 364.548L1044.51 398.702"/>
<path class="l1" d="M1044.51 449.933L1044.51 484.087"/>
<path class="l1" d="M1044.51 535.318L1044.51 552.395"/>
<path class="l1" d="M1044.51 40.0848L1044.51 57.1618"/>
<path class="l1" d="M771.28 296.24L1044.51 296.24"/>
<path class="l1" d="M182.122 168.162L190.661 168.162"/>
<path class="l1" d="M455.355 168.162L463.893 168.162"/>
<path class="l1" d="M591.971 168.162L600.509 168.162"/>
<path class="l1" d="M1001.82 82.7773L1010.36 82.7773"/>
<path class="l1" d="M182.122 424.318L190.661 424.318"/>
<path class="l1" d="M455.355 424.318L463.893 424.318"/>
<path class="l1" d="M591.971 424.318L600.509 424.318"/>
<path class="l1" d="M1001.82 509.703L1010.36 509.703"/>
<path class="l1" d="M318.739 168.162L327.277 168.162"/>
<path class="l1" d="M455.355 253.548L463.893 253.548"/>
<path class="l1" d="M455.355 338.933L463.893 338.933"/>
<path class="l1" d="M318.739 424.318L327.277 424.318"/>
<path class="l1" d="M728.587 424.318L737.126 424.318"/>
<path class="l1" d="M728.587 168.162L737.126 168.162"/>
<path class="l1" d="M1001.82 168.162L1010.36 168.162"/>
<path class="l1" d="M1001.82 424.318L1010.36 424.318"/>
<path class="l1" d="M190.661 296.24L241.892 296.24"/>
<path class="l1" d="M865.203 168.162L873.742 168.162"/>
<path class="l1" d="M865.203 424.318L873.742 424.318"/>
<path class="l1" d="M1001.82 338.933L1010.36 338.933"/>
<path class="l1" d="M1001.82 253.548L1010.36 253.548"/>
<path class="l1" d="M566.355 586.55L600.509 586.55"/>
<path class="l1" d="M1044.51 296.24L1112.82 296.24"/>
<path class="l1" d="M71.1217 262.086L88.1987 262.086"/>
<path class="l1" d="M71.1217 296.24L88.1987 296.24"/>
<path class="l1" d="M71.1217 227.932L88.1987 227.932"/>
<path class="l1" d="M224.815 467.01L293.123 467.01"/>
<path class="l1" d="M224.815 125.47L293.123 125.47"/>
<path class="l1" d="M293.123 279.163L293.123 296.24"/>
<path class="l1" d="M771.28 193.778L771.28 210.855"/>
<path class="l1" d="M634.663 125.47L771.28 125.47"/>
<path class="l1" d="M720.049 253.548L720.049 296.24"/>
<path class="l1" d="M634.663 467.01L771.28 467.01"/>
<path class="l1" d="M1044.51 279.163L1044.51 296.24"/>
<path class="l1" d="M241.892 253.548L241.892 296.24"/>
<path class="l1" d="M566.355 296.24L720.049 296.24"/>
<path class="l1" d="M600.509 543.857L617.586 543.857"/>
<path class="l1" d="M600.509 629.242L617.586 629.242"/>
<path class="l1" d="M651.74 586.55L651.74 603.627"/>
<path class="l1" d="M600.509 586.55L600.509 629.242"/>
<path class="l1" d="M651.74 586.55L668.817 586.55"/>
<path class="l1" d="M651.74 569.472L651.74 586.55"/>
<path class="l1" d="M600.509 543.857L600.509 586.55"/>
<path class="l1" d="M566.355 296.24L566.355 586.55"/>
<path class="l1" d="M498.047 296.24L566.355 296.24"/>
<path class="l1" d="M1112.82 253.548L1129.9 253.548"/>
<path class="l1" d="M1112.82 338.933L1129.9 338.933"/>
<path class="l1" d="M1112.82 296.24L1112.82 338.933"/>
<path class="l1" d="M1164.05 296.24L1164.05 313.317"/>
<path class="l1" d="M1112.82 253.548L1112.82 296.24"/>
<path class="l1" d="M1164.05 296.24L1198.21 296.24"/>
<path class="l1" d="M1164.05 279.163L1164.05 296.24"/>
<circle class="l1" cx="241.892" cy="296.24" r="3.4154"/>
<circle class="l1" cx="293.123" cy="125.47" r="3.4154"/>
<circle class="l1" cx="293.123" cy="210.855" r="3.4154"/>
<circle class="l1" cx="293.123" cy="467.01" r="3.4154"/>
<circle class="l1" cx="241.892" cy="296.24" r="3.4154"/>
<circle class="l1" cx="241.892" cy="296.24" r="3.4154"/>
<circle class="l1" cx="293.123" cy="381.625" r="3.4154"/>
<circle class="l1" cx="293.123" cy="296.24" r="3.4154"/>
<circle class="l1" cx="498.047" cy="296.24" r="3.4154"/>
<circle class="l1" cx="293.123" cy="125.47" r="3.4154"/>
<circle class="l1" cx="293.123" cy="125.47" r="3.4154"/>
<circle class="l1" cx="293.123" cy="210.855" r="3.4154"/>
<circle class="l1" cx="293.123" cy="210.855" r="3.4154"/>
<circle class="l1" cx="498.047" cy="296.24" r="3.4154"/>
<circle class="l1" cx="566.355" cy="296.24" r="3.4154"/>
<circle class="l1" cx="566.355" cy="296.24" r="3.4154"/>
<circle class="l1" cx="600.509" cy="586.55" r="3.4154"/>
<circle class="l1" cx="600.509" cy="586.55" r="3.4154"/>
<circle class="l1" cx="566.355" cy="296.24" r="3.4154"/>
<circle class="l1" cx="720.049" cy="296.24" r="3.4154"/>
<circle class="l1" cx="600.509" cy="586.55" r="3.4154"/>
<circle class="l1" cx="498.047" cy="296.24" r="3.4154"/>
<circle class="l1" cx="293.123" cy="296.24" r="3.4154"/>
<circle class="l1" cx="498.047" cy="296.24" r="3.4154"/>
<circle class="l1" cx="293.123" cy="467.01" r="3.4154"/>
<circle class="l1" cx="293.123" cy="467.01" r="3.4154"/>
<circle class="l1" cx="293.123" cy="381.625" r="3.4154"/>
<circle class="l1" cx="293.123" cy="381.625" r="3.4154"/>
<circle class="l1" cx="293.123" cy="296.24" r="3.4154"/>
<circle class="l1" cx="720.049" cy="296.24" r="3.4154"/>
<circle class="l1" cx="771.28" cy="125.47" r="3.4154"/>
<circle class="l1" cx="771.28" cy="210.855" r="3.4154"/>
<circle class="l1" cx="771.28" cy="296.24" r="3.4154"/>
<circle class="l1" cx="771.28" cy="125.47" r="3.4154"/>
<circle class="l1" cx="771.28" cy="125.47" r="3.4154"/>
<circle class="l1" cx="771.28" cy="125.47" r="3.4154"/>
<circle class="l1" cx="771.28" cy="210.855" r="3.4154"/>
<circle class="l1" cx="771.28" cy="210.855" r="3.4154"/>
<circle class="l1" cx="771.28" cy="210.855" r="3.4154"/>
<circle class="l1" cx="651.74" cy="586.55" r="3.4154"/>
<circle class="l1" cx="651.74" cy="586.55" r="3.4154"/>
<circle class="l1" cx="651.74" cy="586.55" r="3.4154"/>
<circle class="l1" cx="771.28" cy="467.01" r="3.4154"/>
<circle class="l1" cx="771.28" cy="296.24" r="3.4154"/>
<circle class="l1" cx="1044.51" cy="296.24" r="3.4154"/>
<circle class="l1" cx="771.28" cy="467.01" r="3.4154"/>
<circle class="l1" cx="771.28" cy="467.01" r="3.4154"/>
<circle class="l1" cx="771.28" cy="467.01" r="3.4154"/>
<circle class="l1" cx="771.28" cy="381.625" r="3.4154"/>
<circle class="l1" cx="771.28" cy="381.625" r="3.4154"/>
<circle class="l1" cx="771.28" cy="381.625" r="3.4154"/>
<circle class="l1" cx="771.28" cy="381.625" r="3.4154"/>
<circle class="l1" cx="720.049" cy="296.24" r="3.4154"/>
<circle class="l1" cx="771.28" cy="296.24" r="3.4154"/>
<circle class="l1" cx="1164.05" cy="296.24" r="3.4154"/>
<circle class="l1" cx="1112.82" cy="296.24" r="3.4154"/>
<circle class="l1" cx="1044.51" cy="296.24" r="3.4154"/>
<circle class="l1" cx="1164.05" cy="296.24" r="3.4154"/>
<circle class="l1" cx="1164.05" cy="296.24" r="3.4154"/>
<circle class="l1" cx="1112.82" cy="296.24" r="3.4154"/>
<circle class="l1" cx="1044.51" cy="296.24" r="3.4154"/>
<circle class="l1" cx="1112.82" cy="296.24" r="3.4154"/>
<circle class="l1" cx="1044.51" cy="296.24" r="3.4154"/>
</svg>
