<svg xmlns="http://www.w3.org/2000/svg" xmlns:xlink="http://www.w3.org/1999/xlink" width="1280" height="680" version="1.1">
<style type="text/css">
.l0{
 fill: #ffffff;
  stroke: #ffffff;
  stroke-linecap:round;
  stroke-linejoin:round;
  stroke-width: 2.12162;
  fill-opacity: 0;
  stroke-opacity: 0;
}
.l1{
 fill: #000000;
  stroke: #000000;
  stroke-linecap:round;
  stroke-linejoin:round;
  stroke-width: 2.12162;
}
.l2{
  fill: none;
  stroke: #000000;
  stroke-linecap:round;
  stroke-linejoin:round;
  stroke-width: 2.12162;
}
.l3{
 fill: #000000; fill-opacity: 0.5;
  stroke: #000000;
  stroke-linecap:round;
  stroke-linejoin:round;
  stroke-width: 2.12162;
}
.l4{
 fill: #000000;
  stroke: #000000;
  stroke-linecap:round;
  stroke-linejoin:round;
  stroke-width: 2.12162;
}
.l5{
 fill: #000000;
  stroke: #000000;
  stroke-linecap:round;
  stroke-linejoin:round;
  stroke-width: 2.12162;
}
.l6{
 fill: #000000; fill-opacity: 0.5;
  stroke: #000000;
  stroke-linecap:round;
  stroke-linejoin:round;
  stroke-width: 2.12162;
}
.l7{
 fill: #000000; fill-opacity: 0.5;
  stroke: #000000;
  stroke-linecap:round;
  stroke-linejoin:round;
  stroke-width: 2.12162;
}
.l8{
 fill: #000000; fill-opacity: 0.5;
  stroke: #000000;
  stroke-linecap:round;
  stroke-linejoin:round;
  stroke-width: 2.12162;
}
.l9{
 fill: #000000; fill-opacity: 0.5;
  stroke: #000000;
  stroke-linecap:round;
  stroke-linejoin:round;
  stroke-width: 2.12162;
}
.l10{
 fill: #000000;
  stroke: #000000;
  stroke-linecap:round;
  stroke-linejoin:round;
  stroke-width: 2.12162;
}
.l11{
 fill: #000000; fill-opacity: 0.5;
  stroke: #000000;
  stroke-linecap:round;
  stroke-linejoin:round;
  stroke-width: 2.12162;
}
.l12{
 fill: #000000; fill-opacity: 0.5;
  stroke: #000000;
  stroke-linecap:round;
  stroke-linejoin:round;
  stroke-width: 2.12162;
}
.l13{
 fill: #000000; fill-opacity: 0.5;
  stroke: #000000;
  stroke-linecap:round;
  stroke-linejoin:round;
  stroke-width: 2.12162;
}
.l14{
  fill: none;
  stroke: #000000;
  stroke-linecap:round;
  stroke-linejoin:round;
  stroke-width: 2.12162;
}
.l15{
 fill: #000000; fill-opacity: 0.5;
  stroke: #000000;
  stroke-linecap:round;
  stroke-linejoin:round;
  stroke-width: 2.12162;
}
.l16{
 fill: #000000; fill-opacity: 0.5;
  stroke: #000000;
  stroke-linecap:round;
  stroke-linejoin:round;
  stroke-width: 2.12162;
}
.l17{
  fill: none;
  stroke: #000000;
  stroke-linecap:round;
  stroke-linejoin:round;
  stroke-width: 2.12162;
}
.l18{
 fill: #000000; fill-opacity: 0.5;
  stroke: #000000;
  stroke-linecap:round;
  stroke-linejoin:round;
  stroke-width: 2.12162;
}
.l19{
  fill: none;
  stroke: #000000;
  stroke-linecap:round;
  stroke-linejoin:round;
  stroke-width: 2.12162;
}
.l20{
  fill: none;
  stroke: #000000;
  stroke-linecap:round;
  stroke-linejoin:round;
  stroke-width: 2.12162;
}
.l21{
  fill: none;
  stroke: #000000;
  stroke-linecap:round;
  stroke-linejoin:round;
  stroke-width: 2.12162;
}
text {font-family: Sans-Serif;}
</style>
<rect class="l0" x="0" y="0" width="1280" height="680"/>
<text fill="#000000"  xml:space="preserve" font-size="33.7101" transform="translate(44.206, 361.153)" >A</text>
<text fill="#000000"  xml:space="preserve" font-size="33.7101" transform="translate(44.206, 439.732)" >B</text>
<text fill="#000000"  xml:space="preserve" font-size="33.7101" transform="translate(706.797, 669.302) rotate(270)" >cin</text>
<text fill="#000000"  xml:space="preserve" font-size="33.7101" transform="translate(977.534, 153.743) rotate(270)" >clk</text>
<text fill="#000000"  xml:space="preserve" font-size="33.7101" transform="translate(859.666, 153.743) rotate(270)" >store</text>
<text fill="#000000"  xml:space="preserve" font-size="33.7101" transform="translate(706.797, 151.288) rotate(270)" >cout</text>
<text fill="#000000"  xml:space="preserve" font-size="33.7101" transform="translate(1164.85, 400.443)" >Q</text>
<text fill="#000000"  xml:space="preserve" font-size="33.7101" transform="translate(466.775, 153.743) rotate(270)" >subtract</text>
<text fill="#000000"  xml:space="preserve" font-size="30.6456" transform="translate(701.235, 501.285)" >addf</text>
<text fill="#000000"  xml:space="preserve" font-size="20.4304" transform="translate(703.2, 283.777)" >x1</text>
<text fill="#000000"  xml:space="preserve" font-size="20.4304" transform="translate(619.71, 353.515)" >A</text>
<text fill="#000000"  xml:space="preserve" font-size="20.4304" transform="translate(619.71, 432.094)" >B</text>
<text fill="#000000"  xml:space="preserve" font-size="20.4304" transform="translate(688.466, 456.65)" >CI</text>
<text fill="#000000"  xml:space="preserve" font-size="20.4304" transform="translate(754.045, 392.805)" >S</text>
<text fill="#000000"  xml:space="preserve" font-size="20.4304" transform="translate(687.933, 328.96)" >CO</text>
<text fill="#000000"  xml:space="preserve" font-size="30.6456" transform="translate(980.188, 501.285)" >register</text>
<text fill="#000000"  xml:space="preserve" font-size="20.4304" transform="translate(978.224, 283.777)" >x2</text>
<text fill="#000000"  xml:space="preserve" font-size="20.4304" transform="translate(976.288, 371) rotate(270)" >CLK</text>
<text fill="#000000"  xml:space="preserve" font-size="20.4304" transform="translate(976.288, 459.223) rotate(270)" >EN</text>
<text fill="#000000"  xml:space="preserve" font-size="20.4304" transform="translate(986.78, 392.805)" >Q</text>
<text fill="#000000"  xml:space="preserve" font-size="20.4304" transform="translate(934.024, 392.805)" >D</text>
<text fill="#000000"  xml:space="preserve" font-size="30.6456" transform="translate(437.015, 560.219)" >mux21</text>
<text fill="#000000"  xml:space="preserve" font-size="20.4304" transform="translate(467.465, 401.645)" >x3</text>
<text fill="#000000"  xml:space="preserve" font-size="20.4304" transform="translate(428.175, 437.005)" >A</text>
<text fill="#000000"  xml:space="preserve" font-size="20.4304" transform="translate(428.175, 515.583)" >B</text>
<text fill="#000000"  xml:space="preserve" font-size="30.6456" transform="translate(238.605, 579.864)" >inv</text>
<text fill="#000000"  xml:space="preserve" font-size="20.4304" transform="translate(280.841, 465.49)" >x4</text>
<text fill="#000000"  xml:space="preserve" font-size="20.4304" transform="translate(281.574, 510.672)" >Z</text>
<text fill="#000000"  xml:space="preserve" font-size="20.4304" transform="translate(246.463, 510.672)" >A</text>
<path class="l4" d="M575.51 347.734L614.799 347.734"/>
<path class="l4" d="M575.51 426.312L614.799 426.312"/>
<path class="l4" d="M693.377 465.601L693.377 504.89"/>
<path class="l4" d="M771.956 387.023L811.245 387.023"/>
<path class="l4" d="M693.377 269.155L693.377 308.444"/>
<path class="l4" d="M614.799 308.444L771.956 308.444"/>
<path class="l4" d="M614.799 465.601L771.956 465.601"/>
<path class="l4" d="M614.799 308.444L614.799 465.601"/>
<path class="l4" d="M771.956 308.444L771.956 465.601"/>
<path class="l4" d="M968.402 269.155L968.402 308.444"/>
<path class="l4" d="M968.402 465.601L968.402 504.89"/>
<path class="l4" d="M1007.69 387.023L1046.98 387.023"/>
<path class="l4" d="M889.823 387.023L929.112 387.023"/>
<path class="l4" d="M1007.69 308.444L1007.69 465.601"/>
<path class="l4" d="M929.112 308.444L929.112 465.601"/>
<path class="l4" d="M929.112 308.444L968.402 328.089"/>
<path class="l4" d="M968.402 328.089L1007.69 308.444"/>
<path class="l4" d="M929.112 465.601L1007.69 465.601"/>
<path class="l4" d="M929.112 308.444L1007.69 308.444"/>
<path class="l4" d="M457.642 367.378L457.642 406.667"/>
<path class="l4" d="M379.064 426.312L418.353 426.312"/>
<path class="l4" d="M496.931 465.601L536.221 465.601"/>
<path class="l4" d="M379.064 504.89L418.353 504.89"/>
<path class="l4" d="M418.353 387.023L418.353 544.18"/>
<path class="l4" d="M496.931 426.312L496.931 504.89"/>
<path class="l4" d="M418.353 387.023L496.931 426.312"/>
<path class="l4" d="M418.353 544.18L496.931 504.89"/>
<path class="l4" d="M349.597 504.89L379.064 504.89"/>
<path class="l4" d="M182.618 504.89L241.552 504.89"/>
<path class="l4" style="fill:none;" d="M241.552 544.18L241.552 465.601L320.13 504.89L241.552 544.18"/>
<circle class="l4" cx="334.864" cy="504.89" r="13.8908" style="fill:none;"/>
<path class="l5" d="M570.599 342.822L580.421 342.822L580.421 352.645L570.599 352.645L570.599 342.822z"/>
<path class="l5" d="M570.599 421.401L580.421 421.401L580.421 431.223L570.599 431.223L570.599 421.401z"/>
<path class="l5" d="M688.466 499.979L698.289 499.979L698.289 509.801L688.466 509.801L688.466 499.979z"/>
<path class="l5" d="M806.334 382.112L816.156 382.112L816.156 391.934L806.334 391.934L806.334 382.112z"/>
<path class="l5" d="M688.466 264.244L698.289 264.244L698.289 274.066L688.466 274.066L688.466 264.244z"/>
<path class="l5" d="M963.491 264.244L973.313 264.244L973.313 274.066L963.491 274.066L963.491 264.244z"/>
<path class="l5" d="M963.491 499.979L973.313 499.979L973.313 509.801L963.491 509.801L963.491 499.979z"/>
<path class="l5" d="M1042.07 382.112L1051.89 382.112L1051.89 391.934L1042.07 391.934L1042.07 382.112z"/>
<path class="l5" d="M884.912 382.112L894.734 382.112L894.734 391.934L884.912 391.934L884.912 382.112z"/>
<path class="l5" d="M94.2173 347.734L104.04 347.734"/>
<path class="l5" d="M94.2173 347.734L86.8506 337.911L69.6616 337.911L77.0283 347.734L69.6616 357.556L86.8506 357.556L94.2173 347.734"/>
<path class="l5" d="M101.584 345.278L106.495 345.278L106.495 350.189L101.584 350.189L101.584 345.278z"/>
<path class="l5" d="M94.2173 426.312L104.04 426.312"/>
<path class="l5" d="M94.2173 426.312L86.8506 416.49L69.6616 416.49L77.0283 426.312L69.6616 436.134L86.8506 436.134L94.2173 426.312"/>
<path class="l5" d="M101.584 423.856L106.495 423.856L106.495 428.768L101.584 428.768L101.584 423.856z"/>
<path class="l5" d="M693.377 583.469L693.377 593.291"/>
<path class="l5" d="M693.377 593.291L683.555 600.658L683.555 617.847L693.377 610.48L703.2 617.847L703.2 600.658L693.377 593.291"/>
<path class="l5" d="M690.922 581.013L695.833 581.013L695.833 585.924L690.922 585.924L690.922 581.013z"/>
<path class="l5" d="M968.402 180.755L968.402 190.577"/>
<path class="l5" d="M968.402 180.755L978.224 173.388L978.224 156.199L968.402 163.566L958.579 156.199L958.579 173.388L968.402 180.755"/>
<path class="l5" d="M965.946 188.121L970.857 188.121L970.857 193.032L965.946 193.032L965.946 188.121z"/>
<path class="l5" d="M850.534 180.755L850.534 190.577"/>
<path class="l5" d="M850.534 180.755L860.356 173.388L860.356 156.199L850.534 163.566L840.712 156.199L840.712 173.388L850.534 180.755"/>
<path class="l5" d="M848.079 188.121L852.99 188.121L852.99 193.032L848.079 193.032L848.079 188.121z"/>
<path class="l5" d="M693.377 173.388L693.377 190.577"/>
<path class="l5" d="M693.377 156.199L683.555 163.566L683.555 180.755L693.377 173.388L703.2 180.755L703.2 163.566L693.377 156.199"/>
<path class="l5" d="M690.922 188.121L695.833 188.121L695.833 193.032L690.922 193.032L690.922 188.121z"/>
<path class="l5" d="M1125.56 387.023L1142.75 387.023"/>
<path class="l5" d="M1159.94 387.023L1152.57 377.2L1135.38 377.2L1142.75 387.023L1135.38 396.845L1152.57 396.845L1159.94 387.023"/>
<path class="l5" d="M1123.1 384.567L1128.01 384.567L1128.01 389.478L1123.1 389.478L1123.1 384.567z"/>
<path class="l5" d="M452.731 362.467L462.553 362.467L462.553 372.289L452.731 372.289L452.731 362.467z"/>
<path class="l5" d="M374.153 421.401L383.975 421.401L383.975 431.223L374.153 431.223L374.153 421.401z"/>
<path class="l5" d="M531.309 460.69L541.132 460.69L541.132 470.512L531.309 470.512L531.309 460.69z"/>
<path class="l5" d="M374.153 499.979L383.975 499.979L383.975 509.801L374.153 509.801L374.153 499.979z"/>
<path class="l5" d="M374.153 499.979L383.975 499.979L383.975 509.801L374.153 509.801L374.153 499.979z"/>
<path class="l5" d="M177.707 499.979L187.529 499.979L187.529 509.801L177.707 509.801L177.707 499.979z"/>
<path class="l5" d="M457.642 180.755L457.642 190.577"/>
<path class="l5" d="M457.642 180.755L467.465 173.388L467.465 156.199L457.642 163.566L447.82 156.199L447.82 173.388L457.642 180.755"/>
<path class="l5" d="M455.187 188.121L460.098 188.121L460.098 193.032L455.187 193.032L455.187 188.121z"/>
<path class="l1" d="M811.245 387.023L889.823 387.023"/>
<path class="l1" d="M693.377 190.577L693.377 269.155"/>
<path class="l1" d="M693.377 504.89L693.377 583.469"/>
<path class="l1" d="M850.534 544.18L968.402 544.18"/>
<path class="l1" d="M850.534 190.577L850.534 544.18"/>
<path class="l1" d="M1046.98 387.023L1125.56 387.023"/>
<path class="l1" d="M968.402 190.577L968.402 269.155"/>
<path class="l1" d="M968.402 504.89L968.402 544.18"/>
<path class="l1" d="M104.04 426.312L143.329 426.312"/>
<path class="l1" d="M143.329 426.312L143.329 504.89"/>
<path class="l1" d="M143.329 504.89L182.618 504.89"/>
<path class="l1" d="M143.329 426.312L379.064 426.312"/>
<path class="l1" d="M457.642 190.577L457.642 367.378"/>
<path class="l1" d="M536.221 465.601L555.865 465.601"/>
<path class="l1" d="M555.865 426.312L555.865 465.601"/>
<path class="l1" d="M555.865 426.312L575.51 426.312"/>
<path class="l1" d="M104.04 347.734L575.51 347.734"/>
<circle class="l1" cx="143.329" cy="426.312" r="7.85784"/>
<circle class="l1" cx="143.329" cy="426.312" r="7.85784"/>
<circle class="l1" cx="143.329" cy="426.312" r="7.85784"/>
</svg>
