<svg xmlns="http://www.w3.org/2000/svg" xmlns:xlink="http://www.w3.org/1999/xlink" width="1280" height="680" version="1.1">
<style type="text/css">
.l0{
 fill: #000000;
  stroke: #000000;
  stroke-linecap:round;
  stroke-linejoin:round;
  stroke-width: 2.16855;
}
.l1{
 fill: #00ccee;
  stroke: #00ccee;
  stroke-linecap:round;
  stroke-linejoin:round;
  stroke-width: 2.16855;
}
.l2{
  fill: none;
  stroke: #3f3f3f;
  stroke-linecap:round;
  stroke-linejoin:round;
  stroke-width: 2.16855;
}
.l3{
 fill: #cccccc; fill-opacity: 0.5;
  stroke: #cccccc;
  stroke-linecap:round;
  stroke-linejoin:round;
  stroke-width: 2.16855;
}
.l4{
 fill: #88dd00;
  stroke: #88dd00;
  stroke-linecap:round;
  stroke-linejoin:round;
  stroke-width: 2.16855;
}
.l5{
 fill: #bb2200;
  stroke: #bb2200;
  stroke-linecap:round;
  stroke-linejoin:round;
  stroke-width: 2.16855;
}
.l6{
 fill: #00ccee; fill-opacity: 0.5;
  stroke: #00ccee;
  stroke-linecap:round;
  stroke-linejoin:round;
  stroke-width: 2.16855;
}
.l7{
 fill: #ff0000; fill-opacity: 0.5;
  stroke: #ff0000;
  stroke-linecap:round;
  stroke-linejoin:round;
  stroke-width: 2.16855;
}
.l8{
 fill: #ffff00; fill-opacity: 0.5;
  stroke: #ffff00;
  stroke-linecap:round;
  stroke-linejoin:round;
  stroke-width: 2.16855;
}
.l9{
 fill: #ffffff; fill-opacity: 0.5;
  stroke: #ffffff;
  stroke-linecap:round;
  stroke-linejoin:round;
  stroke-width: 2.16855;
}
.l10{
 fill: #ff00ff;
  stroke: #ff00ff;
  stroke-linecap:round;
  stroke-linejoin:round;
  stroke-width: 2.16855;
}
.l11{
 fill: #00ff00; fill-opacity: 0.5;
  stroke: #00ff00;
  stroke-linecap:round;
  stroke-linejoin:round;
  stroke-width: 2.16855;
}
.l12{
 fill: #0044dd; fill-opacity: 0.5;
  stroke: #0044dd;
  stroke-linecap:round;
  stroke-linejoin:round;
  stroke-width: 2.16855;
}
.l13{
 fill: #aaaa00; fill-opacity: 0.5;
  stroke: #aaaa00;
  stroke-linecap:round;
  stroke-linejoin:round;
  stroke-width: 2.16855;
}
.l14{
  fill: none;
  stroke: #aaccaa;
  stroke-linecap:round;
  stroke-linejoin:round;
  stroke-width: 2.16855;
}
.l15{
 fill: #ff7777; fill-opacity: 0.5;
  stroke: #ff7777;
  stroke-linecap:round;
  stroke-linejoin:round;
  stroke-width: 2.16855;
}
.l16{
 fill: #bfff81; fill-opacity: 0.5;
  stroke: #bfff81;
  stroke-linecap:round;
  stroke-linejoin:round;
  stroke-width: 2.16855;
}
.l17{
  fill: none;
  stroke: #00ffcc;
  stroke-linecap:round;
  stroke-linejoin:round;
  stroke-width: 2.16855;
}
.l18{
 fill: #ce0097; fill-opacity: 0.5;
  stroke: #ce0097;
  stroke-linecap:round;
  stroke-linejoin:round;
  stroke-width: 2.16855;
}
.l19{
  fill: none;
  stroke: #d2d46b;
  stroke-linecap:round;
  stroke-linejoin:round;
  stroke-width: 2.16855;
}
.l20{
  fill: none;
  stroke: #ef6158;
  stroke-linecap:round;
  stroke-linejoin:round;
  stroke-width: 2.16855;
}
.l21{
  fill: none;
  stroke: #fdb200;
  stroke-linecap:round;
  stroke-linejoin:round;
  stroke-width: 2.16855;
}
text {font-family: Sans-Serif;}
</style>
<rect class="l0" x="0" y="0" width="1280" height="680"/>
<text fill="#00ccee"  xml:space="preserve" font-size="34.4558" transform="translate(54.0349, 370.784)" >A</text>
<text fill="#00ccee"  xml:space="preserve" font-size="34.4558" transform="translate(54.0349, 451.1)" >B</text>
<text fill="#00ccee"  xml:space="preserve" font-size="34.4558" transform="translate(731.774, 669.665) rotate(270)" >CI</text>
<text fill="#00ccee"  xml:space="preserve" font-size="34.4558" transform="translate(1008.5, 78.4691) rotate(270)" >CLK</text>
<text fill="#00ccee"  xml:space="preserve" font-size="34.4558" transform="translate(888.025, 158.786) rotate(270)" >STORE</text>
<text fill="#00ccee"  xml:space="preserve" font-size="34.4558" transform="translate(731.774, 156.276) rotate(270)" >CO</text>
<text fill="#00ccee"  xml:space="preserve" font-size="34.4558" transform="translate(1199.96, 410.942)" >Q</text>
<text fill="#00ccee"  xml:space="preserve" font-size="34.4558" transform="translate(496.482, 158.786) rotate(270)" >SUB</text>
<text fill="#00ccee"  xml:space="preserve" font-size="34.4558" transform="translate(54.1932, 210.151)" >vdd</text>
<text fill="#00ccee"  xml:space="preserve" font-size="34.4558" transform="translate(231.138, 211.406)" >vdd</text>
<text fill="#00ccee"  xml:space="preserve" font-size="34.4558" transform="translate(52.1932, 169.992)" >gnd</text>
<text fill="#00ccee"  xml:space="preserve" font-size="34.4558" transform="translate(231.138, 171.247)" >gnd</text>
<text fill="#00ccee"  xml:space="preserve" font-size="34.4558" transform="translate(175.178, 592.909)" >gnd</text>
<text fill="#00ccee"  xml:space="preserve" font-size="34.4558" transform="translate(177.178, 472.435)" >vdd</text>
<text fill="#00ccee"  xml:space="preserve" font-size="34.4558" transform="translate(377.969, 392.118)" >vdd</text>
<text fill="#00ccee"  xml:space="preserve" font-size="34.4558" transform="translate(375.969, 592.909)" >gnd</text>
<text fill="#00ccee"  xml:space="preserve" font-size="34.4558" transform="translate(900.027, 311.801)" >vdd</text>
<text fill="#00ccee"  xml:space="preserve" font-size="34.4558" transform="translate(898.027, 512.593)" >gnd</text>
<text fill="#00ccee"  xml:space="preserve" font-size="34.4558" transform="translate(953.9, 161.296) rotate(270)" >gnd</text>
<text fill="#00ccee"  xml:space="preserve" font-size="34.4558" transform="translate(1067.48, 161.296) rotate(270)" >vdd</text>
<text fill="#00ccee"  xml:space="preserve" font-size="34.4558" transform="translate(598.84, 311.801)" >vdd</text>
<text fill="#00ccee"  xml:space="preserve" font-size="34.4558" transform="translate(596.84, 512.593)" >gnd</text>
<text fill="#cccccc"  xml:space="preserve" font-size="31.3235" transform="translate(726.089, 514.016)" >addf</text>
<text fill="#cccccc"  xml:space="preserve" font-size="20.8823" transform="translate(728.097, 291.696)" >x1</text>
<text fill="#cccccc"  xml:space="preserve" font-size="20.8823" transform="translate(642.761, 362.977)" >A</text>
<text fill="#cccccc"  xml:space="preserve" font-size="20.8823" transform="translate(642.761, 443.294)" >B</text>
<text fill="#cccccc"  xml:space="preserve" font-size="20.8823" transform="translate(713.038, 468.392)" >CI</text>
<text fill="#cccccc"  xml:space="preserve" font-size="20.8823" transform="translate(780.354, 403.135)" >S</text>
<text fill="#cccccc"  xml:space="preserve" font-size="20.8823" transform="translate(712.157, 337.878)" >CO</text>
<text fill="#cccccc"  xml:space="preserve" font-size="31.3235" transform="translate(1011.21, 514.016)" >register</text>
<text fill="#cccccc"  xml:space="preserve" font-size="20.8823" transform="translate(1009.21, 291.696)" >x2</text>
<text fill="#cccccc"  xml:space="preserve" font-size="20.8823" transform="translate(1007.23, 383.008) rotate(270)" >CLK</text>
<text fill="#cccccc"  xml:space="preserve" font-size="20.8823" transform="translate(1007.23, 471.404) rotate(270)" >EN</text>
<text fill="#cccccc"  xml:space="preserve" font-size="20.8823" transform="translate(1018.3, 403.135)" >Q</text>
<text fill="#cccccc"  xml:space="preserve" font-size="20.8823" transform="translate(964.027, 403.135)" >D</text>
<text fill="#cccccc"  xml:space="preserve" font-size="31.3235" transform="translate(476.104, 574.253)" >mux21</text>
<text fill="#cccccc"  xml:space="preserve" font-size="20.8823" transform="translate(527.306, 532.646)" >x3</text>
<text fill="#cccccc"  xml:space="preserve" font-size="20.8823" transform="translate(446.989, 458.353)" >A</text>
<text fill="#cccccc"  xml:space="preserve" font-size="20.8823" transform="translate(446.989, 518.59)" >B</text>
<text fill="#cccccc"  xml:space="preserve" font-size="20.8823" transform="translate(477.108, 448.313)" >S</text>
<text fill="#cccccc"  xml:space="preserve" font-size="31.3235" transform="translate(273.305, 574.253)" >inv</text>
<text fill="#cccccc"  xml:space="preserve" font-size="20.8823" transform="translate(276.316, 477.428)" >x4</text>
<text fill="#cccccc"  xml:space="preserve" font-size="20.8823" transform="translate(277.376, 523.61)" >Z</text>
<text fill="#cccccc"  xml:space="preserve" font-size="20.8823" transform="translate(241.178, 523.61)" >A</text>
<text fill="#cccccc"  xml:space="preserve" font-size="31.3235" transform="translate(1104.12, 370.489) rotate(270)" >buffer_fo4</text>
<text fill="#cccccc"  xml:space="preserve" font-size="20.8823" transform="translate(1058.43, 231.474) rotate(270)" >x5</text>
<text fill="#cccccc"  xml:space="preserve" font-size="20.8823" transform="translate(1002.21, 206.474) rotate(270)" >B</text>
<text fill="#cccccc"  xml:space="preserve" font-size="20.8823" transform="translate(1002.21, 181.315) rotate(270)" >A</text>
<path class="l4" d="M597.583 357.067L637.741 357.067"/>
<path class="l4" d="M597.583 437.384L637.741 437.384"/>
<path class="l4" d="M718.058 477.542L718.058 517.7"/>
<path class="l4" d="M798.374 397.226L838.533 397.226"/>
<path class="l4" d="M718.058 276.751L718.058 316.909"/>
<path class="l4" d="M637.741 316.909L798.374 316.909"/>
<path class="l4" d="M637.741 477.542L798.374 477.542"/>
<path class="l4" d="M637.741 316.909L637.741 477.542"/>
<path class="l4" d="M798.374 316.909L798.374 477.542"/>
<path class="l4" d="M597.583 357.067L637.741 357.067"/>
<path class="l4" d="M677.899 296.83L677.899 316.909"/>
<path class="l4" d="M677.899 477.542L677.899 497.621"/>
<path class="l4" d="M999.166 276.751L999.166 316.909"/>
<path class="l4" d="M999.166 477.542L999.166 517.7"/>
<path class="l4" d="M1039.32 397.226L1079.48 397.226"/>
<path class="l4" d="M918.849 397.226L959.007 397.226"/>
<path class="l4" d="M1039.32 316.909L1039.32 477.542"/>
<path class="l4" d="M959.007 316.909L959.007 477.542"/>
<path class="l4" d="M959.007 316.909L999.166 336.988"/>
<path class="l4" d="M999.166 336.988L1039.32 316.909"/>
<path class="l4" d="M959.007 477.542L1039.32 477.542"/>
<path class="l4" d="M959.007 316.909L1039.32 316.909"/>
<path class="l4" d="M979.087 477.542L979.087 497.621"/>
<path class="l4" d="M979.087 296.83L979.087 316.909"/>
<path class="l4" d="M396.791 437.384L436.95 437.384"/>
<path class="l4" d="M517.266 477.542L557.425 477.542"/>
<path class="l4" d="M396.791 517.7L436.95 517.7"/>
<path class="l4" d="M436.95 397.226L436.95 557.859"/>
<path class="l4" d="M517.266 437.384L517.266 517.7"/>
<path class="l4" d="M436.95 397.226L517.266 437.384"/>
<path class="l4" d="M436.95 557.859L517.266 517.7"/>
<path class="l4" d="M457.029 547.819L457.029 577.938"/>
<path class="l4" d="M457.029 377.146L457.029 407.265"/>
<path class="l4" d="M487.147 377.146L487.147 422.325"/>
<path class="l4" d="M346.593 517.7L376.712 517.7"/>
<path class="l4" d="M175.921 517.7L236.158 517.7"/>
<path class="l4" d="M256.237 457.463L256.237 487.582"/>
<path class="l4" d="M256.237 547.819L256.237 577.938"/>
<path class="l4" style="fill:none;" d="M236.158 557.859L236.158 477.542L316.475 517.7L236.158 557.859"/>
<circle class="l4" cx="331.534" cy="517.7" r="14.1981" style="fill:none;"/>
<path class="l4" d="M999.166 236.592L999.166 276.751"/>
<path class="l4" d="M999.166 116.118L999.166 156.276"/>
<path class="l4" d="M938.928 176.355L969.047 176.355"/>
<path class="l4" d="M1029.28 176.355L1059.4 176.355"/>
<path class="l4" style="fill:none;" d="M959.007 156.276L1039.32 156.276L999.166 236.592L959.007 156.276"/>
<path class="l5" d="M592.563 352.047L602.603 352.047L602.603 362.087L592.563 362.087L592.563 352.047z"/>
<path class="l5" d="M592.563 432.364L602.603 432.364L602.603 442.404L592.563 442.404L592.563 432.364z"/>
<path class="l5" d="M713.038 512.681L723.077 512.681L723.077 522.72L713.038 522.72L713.038 512.681z"/>
<path class="l5" d="M833.513 392.206L843.552 392.206L843.552 402.245L833.513 402.245L833.513 392.206z"/>
<path class="l5" d="M713.038 271.731L723.077 271.731L723.077 281.77L713.038 281.77L713.038 271.731z"/>
<path class="l5" d="M672.88 291.81L682.919 291.81L682.919 301.85L672.88 301.85L672.88 291.81z"/>
<path class="l5" d="M672.88 492.602L682.919 492.602L682.919 502.641L672.88 502.641L672.88 492.602z"/>
<path class="l5" d="M994.146 271.731L1004.19 271.731L1004.19 281.77L994.146 281.77L994.146 271.731z"/>
<path class="l5" d="M994.146 512.681L1004.19 512.681L1004.19 522.72L994.146 522.72L994.146 512.681z"/>
<path class="l5" d="M1074.46 392.206L1084.5 392.206L1084.5 402.245L1074.46 402.245L1074.46 392.206z"/>
<path class="l5" d="M913.829 392.206L923.869 392.206L923.869 402.245L913.829 402.245L913.829 392.206z"/>
<path class="l5" d="M974.067 291.81L984.106 291.81L984.106 301.85L974.067 301.85L974.067 291.81z"/>
<path class="l5" d="M974.067 492.602L984.106 492.602L984.106 502.641L974.067 502.641L974.067 492.602z"/>
<path class="l5" d="M105.644 357.067L115.683 357.067"/>
<path class="l5" d="M105.644 357.067L98.114 347.028L80.5447 347.028L88.0744 357.067L80.5447 367.107L98.114 367.107L105.644 357.067"/>
<path class="l5" d="M113.173 354.557L118.193 354.557L118.193 359.577L113.173 359.577L113.173 354.557z"/>
<path class="l5" d="M105.644 437.384L115.683 437.384"/>
<path class="l5" d="M105.644 437.384L98.114 427.344L80.5447 427.344L88.0744 437.384L80.5447 447.423L98.114 447.423L105.644 437.384"/>
<path class="l5" d="M113.173 434.874L118.193 434.874L118.193 439.894L113.173 439.894L113.173 434.874z"/>
<path class="l5" d="M718.058 598.017L718.058 608.057"/>
<path class="l5" d="M718.058 608.057L708.018 615.586L708.018 633.156L718.058 625.626L728.097 633.156L728.097 615.586L718.058 608.057"/>
<path class="l5" d="M715.548 595.507L720.568 595.507L720.568 600.527L715.548 600.527L715.548 595.507z"/>
<path class="l5" d="M999.166 106.078L999.166 116.118"/>
<path class="l5" d="M999.166 106.078L1009.21 98.5482L1009.21 80.979L999.166 88.5087L989.126 80.979L989.126 98.5482L999.166 106.078"/>
<path class="l5" d="M996.656 113.608L1001.68 113.608L1001.68 118.627L996.656 118.627L996.656 113.608z"/>
<path class="l5" d="M878.691 186.395L878.691 196.434"/>
<path class="l5" d="M878.691 186.395L888.73 178.865L888.73 161.296L878.691 168.825L868.651 161.296L868.651 178.865L878.691 186.395"/>
<path class="l5" d="M876.181 193.924L881.201 193.924L881.201 198.944L876.181 198.944L876.181 193.924z"/>
<path class="l5" d="M718.058 178.865L718.058 196.434"/>
<path class="l5" d="M718.058 161.296L708.018 168.825L708.018 186.395L718.058 178.865L728.097 186.395L728.097 168.825L718.058 161.296"/>
<path class="l5" d="M715.548 193.924L720.568 193.924L720.568 198.944L715.548 198.944L715.548 193.924z"/>
<path class="l5" d="M1159.8 397.226L1177.37 397.226"/>
<path class="l5" d="M1194.94 397.226L1187.41 387.186L1169.84 387.186L1177.37 397.226L1169.84 407.265L1187.41 407.265L1194.94 397.226"/>
<path class="l5" d="M1157.29 394.716L1162.31 394.716L1162.31 399.735L1157.29 399.735L1157.29 394.716z"/>
<path class="l5" d="M482.128 372.127L492.167 372.127L492.167 382.166L482.128 382.166L482.128 372.127z"/>
<path class="l5" d="M391.772 432.364L401.811 432.364L401.811 442.404L391.772 442.404L391.772 432.364z"/>
<path class="l5" d="M552.405 472.522L562.444 472.522L562.444 482.562L552.405 482.562L552.405 472.522z"/>
<path class="l5" d="M391.772 512.681L401.811 512.681L401.811 522.72L391.772 522.72L391.772 512.681z"/>
<path class="l5" d="M452.009 372.127L462.049 372.127L462.049 382.166L452.009 382.166L452.009 372.127z"/>
<path class="l5" d="M452.009 572.918L462.049 572.918L462.049 582.958L452.009 582.958L452.009 572.918z"/>
<path class="l5" d="M371.692 512.681L381.732 512.681L381.732 522.72L371.692 522.72L371.692 512.681z"/>
<path class="l5" d="M170.901 512.681L180.94 512.681L180.94 522.72L170.901 522.72L170.901 512.681z"/>
<path class="l5" d="M251.218 452.443L261.257 452.443L261.257 462.483L251.218 462.483L251.218 452.443z"/>
<path class="l5" d="M251.218 572.918L261.257 572.918L261.257 582.958L251.218 582.958L251.218 572.918z"/>
<path class="l5" d="M487.147 186.395L487.147 196.434"/>
<path class="l5" d="M487.147 186.395L497.187 178.865L497.187 161.296L487.147 168.825L477.108 161.296L477.108 178.865L487.147 186.395"/>
<path class="l5" d="M484.638 193.924L489.657 193.924L489.657 198.944L484.638 198.944L484.638 193.924z"/>
<path class="l5" d="M994.146 271.731L1004.19 271.731L1004.19 281.77L994.146 281.77L994.146 271.731z"/>
<path class="l5" d="M994.146 111.098L1004.19 111.098L1004.19 121.137L994.146 121.137L994.146 111.098z"/>
<path class="l5" d="M1054.38 171.335L1064.42 171.335L1064.42 181.375L1054.38 181.375L1054.38 171.335z"/>
<path class="l5" d="M933.909 171.335L943.948 171.335L943.948 181.375L933.909 181.375L933.909 171.335z"/>
<path class="l5" d="M145.802 196.434L155.842 196.434"/>
<path class="l5" d="M145.802 196.434L138.272 186.395L120.703 186.395L128.233 196.434L120.703 206.474L138.272 206.474L145.802 196.434"/>
<path class="l5" d="M153.332 193.924L158.351 193.924L158.351 198.944L153.332 198.944L153.332 193.924z"/>
<path class="l5" d="M213.569 193.924L218.589 193.924L218.589 198.944L213.569 198.944L213.569 193.924z"/>
<path class="l5" d="M145.802 156.276L155.842 156.276"/>
<path class="l5" d="M145.802 156.276L138.272 146.236L120.703 146.236L128.233 156.276L120.703 166.315L138.272 166.315L145.802 156.276"/>
<path class="l5" d="M153.332 153.766L158.351 153.766L158.351 158.786L153.332 158.786L153.332 153.766z"/>
<path class="l5" d="M213.569 153.766L218.589 153.766L218.589 158.786L213.569 158.786L213.569 153.766z"/>
<path class="l5" d="M253.727 575.428L258.747 575.428L258.747 580.448L253.727 580.448L253.727 575.428z"/>
<path class="l5" d="M253.727 454.953L258.747 454.953L258.747 459.973L253.727 459.973L253.727 454.953z"/>
<path class="l5" d="M454.519 374.637L459.539 374.637L459.539 379.656L454.519 379.656L454.519 374.637z"/>
<path class="l5" d="M454.519 575.428L459.539 575.428L459.539 580.448L454.519 580.448L454.519 575.428z"/>
<path class="l5" d="M976.577 294.32L981.596 294.32L981.596 299.34L976.577 299.34L976.577 294.32z"/>
<path class="l5" d="M976.577 495.111L981.596 495.111L981.596 500.131L976.577 500.131L976.577 495.111z"/>
<path class="l5" d="M936.418 173.845L941.438 173.845L941.438 178.865L936.418 178.865L936.418 173.845z"/>
<path class="l5" d="M1056.89 173.845L1061.91 173.845L1061.91 178.865L1056.89 178.865L1056.89 173.845z"/>
<path class="l5" d="M675.389 294.32L680.409 294.32L680.409 299.34L675.389 299.34L675.389 294.32z"/>
<path class="l5" d="M675.389 495.111L680.409 495.111L680.409 500.131L675.389 500.131L675.389 495.111z"/>
<path class="l1" d="M838.533 397.226L918.849 397.226"/>
<path class="l1" d="M718.058 196.434L718.058 276.751"/>
<path class="l1" d="M718.058 517.7L718.058 598.017"/>
<path class="l1" d="M878.691 557.859L999.166 557.859"/>
<path class="l1" d="M878.691 196.434L878.691 557.859"/>
<path class="l1" d="M1079.48 397.226L1159.8 397.226"/>
<path class="l1" d="M999.166 517.7L999.166 557.859"/>
<path class="l1" d="M115.683 437.384L155.842 437.384"/>
<path class="l1" d="M155.842 437.384L396.791 437.384"/>
<path class="l1" d="M487.147 196.434L487.147 377.146"/>
<path class="l1" d="M557.425 477.542L577.504 477.542"/>
<path class="l1" d="M577.504 437.384L577.504 477.542"/>
<path class="l1" d="M577.504 437.384L597.583 437.384"/>
<path class="l1" d="M115.683 357.067L597.583 357.067"/>
<path class="l1" d="M155.842 196.434L216.079 196.434"/>
<path class="l1" d="M155.842 156.276L216.079 156.276"/>
<path class="l1" d="M376.712 517.7L396.791 517.7"/>
<path class="l1" d="M155.842 517.7L175.921 517.7"/>
<path class="l1" d="M155.842 437.384L155.842 517.7"/>
<circle class="l1" cx="155.842" cy="437.384" r="8.03166"/>
<circle class="l1" cx="155.842" cy="437.384" r="8.03166"/>
<circle class="l1" cx="155.842" cy="437.384" r="8.03166"/>
</svg>
