<svg xmlns="http://www.w3.org/2000/svg" xmlns:xlink="http://www.w3.org/1999/xlink" width="1280" height="680" version="1.1">
<style type="text/css">
.l0{
 fill: #000000;
  stroke: #000000;
  stroke-linecap:round;
  stroke-linejoin:round;
  stroke-width: 3.0439;
}
.l1{
 fill: #00ccee;
  stroke: #00ccee;
  stroke-linecap:round;
  stroke-linejoin:round;
  stroke-width: 3.0439;
}
.l2{
  fill: none;
  stroke: #3f3f3f;
  stroke-linecap:round;
  stroke-linejoin:round;
  stroke-width: 3.0439;
}
.l3{
 fill: #cccccc; fill-opacity: 0.5;
  stroke: #cccccc;
  stroke-linecap:round;
  stroke-linejoin:round;
  stroke-width: 3.0439;
}
.l4{
 fill: #88dd00;
  stroke: #88dd00;
  stroke-linecap:round;
  stroke-linejoin:round;
  stroke-width: 3.0439;
}
.l5{
 fill: #bb2200;
  stroke: #bb2200;
  stroke-linecap:round;
  stroke-linejoin:round;
  stroke-width: 3.0439;
}
.l6{
 fill: #00ccee; fill-opacity: 0.5;
  stroke: #00ccee;
  stroke-linecap:round;
  stroke-linejoin:round;
  stroke-width: 3.0439;
}
.l7{
 fill: #ff0000; fill-opacity: 0.5;
  stroke: #ff0000;
  stroke-linecap:round;
  stroke-linejoin:round;
  stroke-width: 3.0439;
}
.l8{
 fill: #ffff00; fill-opacity: 0.5;
  stroke: #ffff00;
  stroke-linecap:round;
  stroke-linejoin:round;
  stroke-width: 3.0439;
}
.l9{
 fill: #ffffff; fill-opacity: 0.5;
  stroke: #ffffff;
  stroke-linecap:round;
  stroke-linejoin:round;
  stroke-width: 3.0439;
}
.l10{
 fill: #ff00ff;
  stroke: #ff00ff;
  stroke-linecap:round;
  stroke-linejoin:round;
  stroke-width: 3.0439;
}
.l11{
 fill: #00ff00; fill-opacity: 0.5;
  stroke: #00ff00;
  stroke-linecap:round;
  stroke-linejoin:round;
  stroke-width: 3.0439;
}
.l12{
 fill: #0044dd; fill-opacity: 0.5;
  stroke: #0044dd;
  stroke-linecap:round;
  stroke-linejoin:round;
  stroke-width: 3.0439;
}
.l13{
 fill: #aaaa00; fill-opacity: 0.5;
  stroke: #aaaa00;
  stroke-linecap:round;
  stroke-linejoin:round;
  stroke-width: 3.0439;
}
.l14{
  fill: none;
  stroke: #aaccaa;
  stroke-linecap:round;
  stroke-linejoin:round;
  stroke-width: 3.0439;
}
.l15{
 fill: #ff7777; fill-opacity: 0.5;
  stroke: #ff7777;
  stroke-linecap:round;
  stroke-linejoin:round;
  stroke-width: 3.0439;
}
.l16{
 fill: #bfff81; fill-opacity: 0.5;
  stroke: #bfff81;
  stroke-linecap:round;
  stroke-linejoin:round;
  stroke-width: 3.0439;
}
.l17{
  fill: none;
  stroke: #00ffcc;
  stroke-linecap:round;
  stroke-linejoin:round;
  stroke-width: 3.0439;
}
.l18{
 fill: #ce0097; fill-opacity: 0.5;
  stroke: #ce0097;
  stroke-linecap:round;
  stroke-linejoin:round;
  stroke-width: 3.0439;
}
.l19{
  fill: none;
  stroke: #d2d46b;
  stroke-linecap:round;
  stroke-linejoin:round;
  stroke-width: 3.0439;
}
.l20{
  fill: none;
  stroke: #ef6158;
  stroke-linecap:round;
  stroke-linejoin:round;
  stroke-width: 3.0439;
}
.l21{
  fill: none;
  stroke: #fdb200;
  stroke-linecap:round;
  stroke-linejoin:round;
  stroke-width: 3.0439;
}
text {font-family: Sans-Serif;}
</style>
<rect class="l0" x="0" y="0" width="1280" height="680"/>
<text fill="#00ccee"  xml:space="preserve" font-size="48.3642" transform="translate(164.507, 334.196)" >A</text>
<text fill="#00ccee"  xml:space="preserve" font-size="48.3642" transform="translate(1095.88, 334.196)" >B</text>
<text fill="#00ccee"  xml:space="preserve" font-size="48.3642" transform="translate(476.426, 54.1147)" >vdd</text>
<text fill="#00ccee"  xml:space="preserve" font-size="48.3642" transform="translate(814.637, 54.1147)" >vdd</text>
<text fill="#00ccee"  xml:space="preserve" font-size="48.3642" transform="translate(474.426, 617.8)" >gnd</text>
<text fill="#00ccee"  xml:space="preserve" font-size="48.3642" transform="translate(812.637, 617.8)" >gnd</text>
<text fill="#00ccee"  xml:space="preserve" font-size="48.3642" transform="translate(106.507, 644.223)" >vdd</text>
<text fill="#00ccee"  xml:space="preserve" font-size="48.3642" transform="translate(356.043, 645.984)" >vdd</text>
<text fill="#00ccee"  xml:space="preserve" font-size="48.3642" transform="translate(104.507, 587.854)" >gnd</text>
<text fill="#00ccee"  xml:space="preserve" font-size="48.3642" transform="translate(356.043, 589.616)" >gnd</text>
<text fill="#cccccc"  xml:space="preserve" font-size="29.3116" transform="translate(502.287, 397.926)" >M1</text>
<text fill="#ff0000"  xml:space="preserve" font-size="21.9837" transform="translate(595.61, 525.147)" >S</text>
<text fill="#ff0000"  xml:space="preserve" font-size="21.9837" transform="translate(595.61, 401.287)" >D</text>
<text fill="#ff0000"  xml:space="preserve" font-size="21.9837" transform="translate(487.011, 447.641)" >G</text>
<text fill="#cccccc"  xml:space="preserve" font-size="29.3116" transform="translate(616.748, 424.197)" >nfet_01v8</text>
<text fill="#aaaa00"  xml:space="preserve" font-size="29.3116" transform="translate(620.271, 521.232)" >1 x 0.42 / 0.15</text>
<text fill="#aaaa00"  xml:space="preserve" font-size="29.3116" transform="translate(620.271, 486.002)" >nf=1</text>
<text fill="#cccccc"  xml:space="preserve" font-size="29.3116" transform="translate(840.499, 397.926)" >M2</text>
<text fill="#ff0000"  xml:space="preserve" font-size="21.9837" transform="translate(933.821, 525.147)" >S</text>
<text fill="#ff0000"  xml:space="preserve" font-size="21.9837" transform="translate(933.821, 401.287)" >D</text>
<text fill="#ff0000"  xml:space="preserve" font-size="21.9837" transform="translate(825.222, 447.641)" >G</text>
<text fill="#cccccc"  xml:space="preserve" font-size="29.3116" transform="translate(954.959, 424.197)" >nfet_01v8</text>
<text fill="#aaaa00"  xml:space="preserve" font-size="29.3116" transform="translate(958.482, 521.232)" >1 x 1.68 / 0.15</text>
<text fill="#aaaa00"  xml:space="preserve" font-size="29.3116" transform="translate(958.482, 486.002)" >nf=1</text>
<text fill="#cccccc"  xml:space="preserve" font-size="29.3116" transform="translate(502.287, 116.083)" >M3</text>
<text fill="#ff0000"  xml:space="preserve" font-size="21.9837" transform="translate(595.61, 243.305)" >D</text>
<text fill="#ff0000"  xml:space="preserve" font-size="21.9837" transform="translate(595.61, 119.444)" >S</text>
<text fill="#ff0000"  xml:space="preserve" font-size="21.9837" transform="translate(487.011, 165.798)" >G</text>
<text fill="#cccccc"  xml:space="preserve" font-size="29.3116" transform="translate(616.748, 142.354)" >pfet_01v8</text>
<text fill="#aaaa00"  xml:space="preserve" font-size="29.3116" transform="translate(620.271, 239.389)" >1 x 0.84 / 0.15</text>
<text fill="#aaaa00"  xml:space="preserve" font-size="29.3116" transform="translate(620.271, 204.159)" >nf=1</text>
<text fill="#cccccc"  xml:space="preserve" font-size="29.3116" transform="translate(840.499, 116.083)" >M4</text>
<text fill="#ff0000"  xml:space="preserve" font-size="21.9837" transform="translate(933.821, 243.305)" >D</text>
<text fill="#ff0000"  xml:space="preserve" font-size="21.9837" transform="translate(933.821, 119.444)" >S</text>
<text fill="#ff0000"  xml:space="preserve" font-size="21.9837" transform="translate(825.222, 165.798)" >G</text>
<text fill="#cccccc"  xml:space="preserve" font-size="29.3116" transform="translate(954.959, 142.354)" >pfet_01v8</text>
<text fill="#aaaa00"  xml:space="preserve" font-size="29.3116" transform="translate(958.482, 239.389)" >1 x 3.36 / 0.15</text>
<text fill="#aaaa00"  xml:space="preserve" font-size="29.3116" transform="translate(958.482, 204.159)" >nf=1</text>
<path class="l4" d="M553.333 392.449L553.333 519.278"/>
<path class="l4" d="M475.827 455.864L539.241 455.864"/>
<path class="l4" d="M588.564 371.311L588.564 406.541"/>
<path class="l4" d="M588.564 505.186L588.564 540.417"/>
<path class="l4" d="M539.241 413.587L539.241 498.14"/>
<path class="l4" d="M553.333 406.541L588.564 406.541"/>
<path class="l4" d="M553.333 505.186L574.472 505.186"/>
<path class="l4" d="M574.472 498.14L588.564 505.186L574.472 512.232L574.472 498.14"/>
<path class="l4" d="M891.545 392.449L891.545 519.278"/>
<path class="l4" d="M814.038 455.864L877.452 455.864"/>
<path class="l4" d="M926.775 371.311L926.775 406.541"/>
<path class="l4" d="M926.775 505.186L926.775 540.417"/>
<path class="l4" d="M877.452 413.587L877.452 498.14"/>
<path class="l4" d="M891.545 406.541L926.775 406.541"/>
<path class="l4" d="M891.545 505.186L912.683 505.186"/>
<path class="l4" d="M912.683 498.14L926.775 505.186L912.683 512.232L912.683 498.14"/>
<path class="l4" d="M553.333 110.606L553.333 237.436"/>
<path class="l4" d="M588.564 89.4683L588.564 124.699"/>
<path class="l4" d="M588.564 223.344L588.564 258.574"/>
<path class="l4" d="M539.241 131.745L539.241 216.297"/>
<path class="l4" d="M553.333 223.344L588.564 223.344"/>
<path class="l4" d="M567.426 124.699L588.564 124.699"/>
<path class="l4" d="M475.827 174.021L511.057 174.021"/>
<path class="l4" d="M567.426 117.653L553.333 124.699L567.426 131.745L567.426 117.653"/>
<circle class="l4" cx="525.149" cy="174.021" r="14.0921" style="fill:none;"/>
<path class="l4" d="M891.545 110.606L891.545 237.436"/>
<path class="l4" d="M926.775 89.4683L926.775 124.699"/>
<path class="l4" d="M926.775 223.344L926.775 258.574"/>
<path class="l4" d="M877.452 131.745L877.452 216.297"/>
<path class="l4" d="M891.545 223.344L926.775 223.344"/>
<path class="l4" d="M905.637 124.699L926.775 124.699"/>
<path class="l4" d="M814.038 174.021L849.268 174.021"/>
<path class="l4" d="M905.637 117.653L891.545 124.699L905.637 131.745L905.637 117.653"/>
<circle class="l4" cx="863.36" cy="174.021" r="14.0921" style="fill:none;"/>
<path class="l5" d="M581.518 364.265L595.61 364.265L595.61 378.357L581.518 378.357L581.518 364.265z"/>
<path class="l5" d="M468.781 448.818L482.873 448.818L482.873 462.91L468.781 462.91L468.781 448.818z"/>
<path class="l5" d="M581.518 533.371L595.61 533.371L595.61 547.463L581.518 547.463L581.518 533.371z"/>
<path class="l5" d="M919.729 364.265L933.821 364.265L933.821 378.357L919.729 378.357L919.729 364.265z"/>
<path class="l5" d="M806.992 448.818L821.084 448.818L821.084 462.91L806.992 462.91L806.992 448.818z"/>
<path class="l5" d="M919.729 533.371L933.821 533.371L933.821 547.463L919.729 547.463L919.729 533.371z"/>
<path class="l5" d="M581.518 251.528L595.61 251.528L595.61 265.62L581.518 265.62L581.518 251.528z"/>
<path class="l5" d="M468.781 166.975L482.873 166.975L482.873 181.067L468.781 181.067L468.781 166.975z"/>
<path class="l5" d="M581.518 82.4222L595.61 82.4222L595.61 96.5143L581.518 96.5143L581.518 82.4222z"/>
<path class="l5" d="M919.729 251.528L933.821 251.528L933.821 265.62L919.729 265.62L919.729 251.528z"/>
<path class="l5" d="M806.992 166.975L821.084 166.975L821.084 181.067L806.992 181.067L806.992 166.975z"/>
<path class="l5" d="M919.729 82.4222L933.821 82.4222L933.821 96.5143L919.729 96.5143L919.729 82.4222z"/>
<path class="l5" d="M236.26 314.942L250.352 314.942"/>
<path class="l5" d="M236.26 314.942L225.691 300.85L201.03 300.85L211.599 314.942L201.03 329.035L225.691 329.035L236.26 314.942"/>
<path class="l5" d="M246.829 311.419L253.875 311.419L253.875 318.465L246.829 318.465L246.829 311.419z"/>
<path class="l5" d="M1039.51 314.942L1064.17 314.942"/>
<path class="l5" d="M1088.83 314.942L1078.27 300.85L1053.6 300.85L1064.17 314.942L1053.6 329.035L1078.27 329.035L1088.83 314.942"/>
<path class="l5" d="M1035.99 311.419L1043.04 311.419L1043.04 318.465L1035.99 318.465L1035.99 311.419z"/>
<path class="l5" d="M585.041 29.5767L592.087 29.5767L592.087 36.6228L585.041 36.6228L585.041 29.5767z"/>
<path class="l5" d="M923.252 29.5767L930.298 29.5767L930.298 36.6228L923.252 36.6228L923.252 29.5767z"/>
<path class="l5" d="M585.041 593.262L592.087 593.262L592.087 600.308L585.041 600.308L585.041 593.262z"/>
<path class="l5" d="M923.252 593.262L930.298 593.262L930.298 600.308L923.252 600.308L923.252 593.262z"/>
<path class="l5" d="M236.26 624.969L250.352 624.969"/>
<path class="l5" d="M236.26 624.969L225.691 610.877L201.03 610.877L211.599 624.969L201.03 639.062L225.691 639.062L236.26 624.969"/>
<path class="l5" d="M246.829 621.446L253.875 621.446L253.875 628.492L246.829 628.492L246.829 621.446z"/>
<path class="l5" d="M331.382 621.446L338.428 621.446L338.428 628.492L331.382 628.492L331.382 621.446z"/>
<path class="l5" d="M236.26 568.601L250.352 568.601"/>
<path class="l5" d="M236.26 568.601L225.691 554.509L201.03 554.509L211.599 568.601L201.03 582.693L225.691 582.693L236.26 568.601"/>
<path class="l5" d="M246.829 565.078L253.875 565.078L253.875 572.124L246.829 572.124L246.829 565.078z"/>
<path class="l5" d="M331.382 565.078L338.428 565.078L338.428 572.124L331.382 572.124L331.382 565.078z"/>
<path class="l1" d="M701.301 174.021L814.038 174.021"/>
<path class="l1" d="M701.301 174.021L701.301 314.942"/>
<path class="l1" d="M701.301 455.864L814.038 455.864"/>
<path class="l1" d="M701.301 314.942L701.301 455.864"/>
<path class="l1" d="M588.564 314.942L701.301 314.942"/>
<path class="l1" d="M588.564 258.574L588.564 314.942"/>
<path class="l1" d="M588.564 314.942L588.564 371.311"/>
<path class="l1" d="M926.775 258.574L926.775 371.311"/>
<path class="l1" d="M926.775 314.942L1039.51 314.942"/>
<path class="l1" d="M363.09 455.864L475.827 455.864"/>
<path class="l1" d="M363.09 174.021L363.09 455.864"/>
<path class="l1" d="M363.09 174.021L475.827 174.021"/>
<path class="l1" d="M250.352 314.942L363.09 314.942"/>
<path class="l1" d="M588.564 33.0997L588.564 89.4683"/>
<path class="l1" d="M926.775 33.0997L926.775 89.4683"/>
<path class="l1" d="M588.564 540.417L588.564 596.785"/>
<path class="l1" d="M926.775 540.417L926.775 596.785"/>
<path class="l1" d="M250.352 624.969L334.905 624.969"/>
<path class="l1" d="M250.352 568.601L334.905 568.601"/>
<circle class="l1" cx="588.564" cy="314.942" r="11.2737"/>
<circle class="l1" cx="363.09" cy="314.942" r="11.2737"/>
<circle class="l1" cx="588.564" cy="314.942" r="11.2737"/>
<circle class="l1" cx="588.564" cy="314.942" r="11.2737"/>
<circle class="l1" cx="701.301" cy="314.942" r="11.2737"/>
<circle class="l1" cx="701.301" cy="314.942" r="11.2737"/>
<circle class="l1" cx="926.775" cy="314.942" r="11.2737"/>
<circle class="l1" cx="701.301" cy="314.942" r="11.2737"/>
</svg>
