<svg xmlns="http://www.w3.org/2000/svg" xmlns:xlink="http://www.w3.org/1999/xlink" width="1280" height="680" version="1.1">
<style type="text/css">
.l0{
 fill: #000000;
  stroke: #000000;
  stroke-linecap:round;
  stroke-linejoin:round;
  stroke-width: 3.35232;
}
.l1{
 fill: #00ccee;
  stroke: #00ccee;
  stroke-linecap:round;
  stroke-linejoin:round;
  stroke-width: 3.35232;
}
.l2{
  fill: none;
  stroke: #3f3f3f;
  stroke-linecap:round;
  stroke-linejoin:round;
  stroke-width: 3.35232;
}
.l3{
 fill: #cccccc; fill-opacity: 0.5;
  stroke: #cccccc;
  stroke-linecap:round;
  stroke-linejoin:round;
  stroke-width: 3.35232;
}
.l4{
 fill: #88dd00;
  stroke: #88dd00;
  stroke-linecap:round;
  stroke-linejoin:round;
  stroke-width: 3.35232;
}
.l5{
 fill: #bb2200;
  stroke: #bb2200;
  stroke-linecap:round;
  stroke-linejoin:round;
  stroke-width: 3.35232;
}
.l6{
 fill: #00ccee; fill-opacity: 0.5;
  stroke: #00ccee;
  stroke-linecap:round;
  stroke-linejoin:round;
  stroke-width: 3.35232;
}
.l7{
 fill: #ff0000; fill-opacity: 0.5;
  stroke: #ff0000;
  stroke-linecap:round;
  stroke-linejoin:round;
  stroke-width: 3.35232;
}
.l8{
 fill: #ffff00; fill-opacity: 0.5;
  stroke: #ffff00;
  stroke-linecap:round;
  stroke-linejoin:round;
  stroke-width: 3.35232;
}
.l9{
 fill: #ffffff; fill-opacity: 0.5;
  stroke: #ffffff;
  stroke-linecap:round;
  stroke-linejoin:round;
  stroke-width: 3.35232;
}
.l10{
 fill: #ff00ff;
  stroke: #ff00ff;
  stroke-linecap:round;
  stroke-linejoin:round;
  stroke-width: 3.35232;
}
.l11{
 fill: #00ff00; fill-opacity: 0.5;
  stroke: #00ff00;
  stroke-linecap:round;
  stroke-linejoin:round;
  stroke-width: 3.35232;
}
.l12{
 fill: #0044dd; fill-opacity: 0.5;
  stroke: #0044dd;
  stroke-linecap:round;
  stroke-linejoin:round;
  stroke-width: 3.35232;
}
.l13{
 fill: #aaaa00; fill-opacity: 0.5;
  stroke: #aaaa00;
  stroke-linecap:round;
  stroke-linejoin:round;
  stroke-width: 3.35232;
}
.l14{
  fill: none;
  stroke: #aaccaa;
  stroke-linecap:round;
  stroke-linejoin:round;
  stroke-width: 3.35232;
}
.l15{
 fill: #ff7777; fill-opacity: 0.5;
  stroke: #ff7777;
  stroke-linecap:round;
  stroke-linejoin:round;
  stroke-width: 3.35232;
}
.l16{
 fill: #bfff81; fill-opacity: 0.5;
  stroke: #bfff81;
  stroke-linecap:round;
  stroke-linejoin:round;
  stroke-width: 3.35232;
}
.l17{
  fill: none;
  stroke: #00ffcc;
  stroke-linecap:round;
  stroke-linejoin:round;
  stroke-width: 3.35232;
}
.l18{
 fill: #ce0097; fill-opacity: 0.5;
  stroke: #ce0097;
  stroke-linecap:round;
  stroke-linejoin:round;
  stroke-width: 3.35232;
}
.l19{
  fill: none;
  stroke: #d2d46b;
  stroke-linecap:round;
  stroke-linejoin:round;
  stroke-width: 3.35232;
}
.l20{
  fill: none;
  stroke: #ef6158;
  stroke-linecap:round;
  stroke-linejoin:round;
  stroke-width: 3.35232;
}
.l21{
  fill: none;
  stroke: #fdb200;
  stroke-linecap:round;
  stroke-linejoin:round;
  stroke-width: 3.35232;
}
text {font-family: Sans-Serif;}
</style>
<rect class="l0" x="0" y="0" width="1280" height="680"/>
<text fill="#00ccee"  xml:space="preserve" font-size="32.2816" transform="translate(511.96, 39.5117)" >VDD</text>
<text fill="#00ccee"  xml:space="preserve" font-size="32.2816" transform="translate(884.44, 39.5117)" >VDD</text>
<text fill="#00ccee"  xml:space="preserve" font-size="32.2816" transform="translate(574.04, 660.312)" >GND</text>
<text fill="#00ccee"  xml:space="preserve" font-size="32.2816" transform="translate(946.52, 660.312)" >GND</text>
<text fill="#00ccee"  xml:space="preserve" font-size="53.2646" transform="translate(84.08, 388.364)" >A</text>
<text fill="#00ccee"  xml:space="preserve" font-size="53.2646" transform="translate(1109.48, 388.364)" >B</text>
<text fill="#cccccc"  xml:space="preserve" font-size="32.2816" transform="translate(455.2, 458.552)" >M1</text>
<text fill="#ff0000"  xml:space="preserve" font-size="24.2112" transform="translate(558.52, 598.664)" >S</text>
<text fill="#ff0000"  xml:space="preserve" font-size="24.2112" transform="translate(558.52, 462.254)" >D</text>
<text fill="#ff0000"  xml:space="preserve" font-size="24.2112" transform="translate(438.64, 513.304)" >G</text>
<text fill="#cccccc"  xml:space="preserve" font-size="32.2816" transform="translate(581.8, 487.485)" >nfet_01v8</text>
<text fill="#aaaa00"  xml:space="preserve" font-size="32.2816" transform="translate(585.68, 594.352)" >1 x 0.42 / 0.15</text>
<text fill="#aaaa00"  xml:space="preserve" font-size="32.2816" transform="translate(585.68, 555.552)" >nf=1</text>
<text fill="#cccccc"  xml:space="preserve" font-size="32.2816" transform="translate(827.68, 458.552)" >M2</text>
<text fill="#ff0000"  xml:space="preserve" font-size="24.2112" transform="translate(931, 598.664)" >S</text>
<text fill="#ff0000"  xml:space="preserve" font-size="24.2112" transform="translate(931, 462.254)" >D</text>
<text fill="#ff0000"  xml:space="preserve" font-size="24.2112" transform="translate(811.12, 513.304)" >G</text>
<text fill="#cccccc"  xml:space="preserve" font-size="32.2816" transform="translate(954.28, 487.485)" >nfet_01v8</text>
<text fill="#aaaa00"  xml:space="preserve" font-size="32.2816" transform="translate(958.16, 594.352)" >1 x 1.68 / 0.15</text>
<text fill="#aaaa00"  xml:space="preserve" font-size="32.2816" transform="translate(958.16, 555.552)" >nf=1</text>
<text fill="#cccccc"  xml:space="preserve" font-size="32.2816" transform="translate(455.2, 148.152)" >M3</text>
<text fill="#ff0000"  xml:space="preserve" font-size="24.2112" transform="translate(558.52, 288.264)" >D</text>
<text fill="#ff0000"  xml:space="preserve" font-size="24.2112" transform="translate(558.52, 151.854)" >S</text>
<text fill="#ff0000"  xml:space="preserve" font-size="24.2112" transform="translate(438.64, 202.904)" >G</text>
<text fill="#cccccc"  xml:space="preserve" font-size="32.2816" transform="translate(581.8, 177.085)" >pfet_01v8</text>
<text fill="#aaaa00"  xml:space="preserve" font-size="32.2816" transform="translate(585.68, 283.952)" >1 x 0.84 / 0.15</text>
<text fill="#aaaa00"  xml:space="preserve" font-size="32.2816" transform="translate(585.68, 245.152)" >nf=1</text>
<text fill="#cccccc"  xml:space="preserve" font-size="32.2816" transform="translate(827.68, 148.152)" >M4</text>
<text fill="#ff0000"  xml:space="preserve" font-size="24.2112" transform="translate(931, 288.264)" >D</text>
<text fill="#ff0000"  xml:space="preserve" font-size="24.2112" transform="translate(931, 151.854)" >S</text>
<text fill="#ff0000"  xml:space="preserve" font-size="24.2112" transform="translate(811.12, 202.904)" >G</text>
<text fill="#cccccc"  xml:space="preserve" font-size="32.2816" transform="translate(954.28, 177.085)" >pfet_01v8</text>
<text fill="#aaaa00"  xml:space="preserve" font-size="32.2816" transform="translate(958.16, 283.952)" >1 x 3.36 / 0.15</text>
<text fill="#aaaa00"  xml:space="preserve" font-size="32.2816" transform="translate(958.16, 245.152)" >nf=1</text>
<path class="l4" d="M511.96 452.52L511.96 592.2"/>
<path class="l4" d="M426.6 522.36L496.44 522.36"/>
<path class="l4" d="M550.76 429.24L550.76 468.04"/>
<path class="l4" d="M550.76 576.68L550.76 615.48"/>
<path class="l4" d="M496.44 475.8L496.44 568.92"/>
<path class="l4" d="M511.96 468.04L550.76 468.04"/>
<path class="l4" d="M511.96 576.68L535.24 576.68"/>
<path class="l4" d="M535.24 568.92L550.76 576.68L535.24 584.44L535.24 568.92"/>
<path class="l4" d="M884.44 452.52L884.44 592.2"/>
<path class="l4" d="M799.08 522.36L868.92 522.36"/>
<path class="l4" d="M923.24 429.24L923.24 468.04"/>
<path class="l4" d="M923.24 576.68L923.24 615.48"/>
<path class="l4" d="M868.92 475.8L868.92 568.92"/>
<path class="l4" d="M884.44 468.04L923.24 468.04"/>
<path class="l4" d="M884.44 576.68L907.72 576.68"/>
<path class="l4" d="M907.72 568.92L923.24 576.68L907.72 584.44L907.72 568.92"/>
<path class="l4" d="M511.96 142.12L511.96 281.8"/>
<path class="l4" d="M550.76 118.84L550.76 157.64"/>
<path class="l4" d="M550.76 266.28L550.76 305.08"/>
<path class="l4" d="M496.44 165.4L496.44 258.52"/>
<path class="l4" d="M511.96 266.28L550.76 266.28"/>
<path class="l4" d="M527.48 157.64L550.76 157.64"/>
<path class="l4" d="M426.6 211.96L465.4 211.96"/>
<path class="l4" d="M527.48 149.88L511.96 157.64L527.48 165.4L527.48 149.88"/>
<circle class="l4" cx="480.92" cy="211.96" r="15.52" style="fill:none;"/>
<path class="l4" d="M884.44 142.12L884.44 281.8"/>
<path class="l4" d="M923.24 118.84L923.24 157.64"/>
<path class="l4" d="M923.24 266.28L923.24 305.08"/>
<path class="l4" d="M868.92 165.4L868.92 258.52"/>
<path class="l4" d="M884.44 266.28L923.24 266.28"/>
<path class="l4" d="M899.96 157.64L923.24 157.64"/>
<path class="l4" d="M799.08 211.96L837.88 211.96"/>
<path class="l4" d="M899.96 149.88L884.44 157.64L899.96 165.4L899.96 149.88"/>
<circle class="l4" cx="853.4" cy="211.96" r="15.52" style="fill:none;"/>
<path class="l4" d="M550.76 56.76L550.76 118.84"/>
<path class="l4" d="M519.72 56.76L581.8 56.76"/>
<path class="l4" d="M923.24 56.76L923.24 118.84"/>
<path class="l4" d="M892.2 56.76L954.28 56.76"/>
<path class="l4" d="M550.76 615.48L550.76 654.28"/>
<path class="l4" d="M535.24 654.28L566.28 654.28"/>
<path class="l4" d="M550.76 669.8L566.28 654.28"/>
<path class="l4" d="M535.24 654.28L550.76 669.8"/>
<path class="l4" d="M923.24 615.48L923.24 654.28"/>
<path class="l4" d="M907.72 654.28L938.76 654.28"/>
<path class="l4" d="M923.24 669.8L938.76 654.28"/>
<path class="l4" d="M907.72 654.28L923.24 669.8"/>
<path class="l5" d="M543 421.48L558.52 421.48L558.52 437L543 437L543 421.48z"/>
<path class="l5" d="M418.84 514.6L434.36 514.6L434.36 530.12L418.84 530.12L418.84 514.6z"/>
<path class="l5" d="M543 607.72L558.52 607.72L558.52 623.24L543 623.24L543 607.72z"/>
<path class="l5" d="M915.48 421.48L931 421.48L931 437L915.48 437L915.48 421.48z"/>
<path class="l5" d="M791.32 514.6L806.84 514.6L806.84 530.12L791.32 530.12L791.32 514.6z"/>
<path class="l5" d="M915.48 607.72L931 607.72L931 623.24L915.48 623.24L915.48 607.72z"/>
<path class="l5" d="M543 297.32L558.52 297.32L558.52 312.84L543 312.84L543 297.32z"/>
<path class="l5" d="M418.84 204.2L434.36 204.2L434.36 219.72L418.84 219.72L418.84 204.2z"/>
<path class="l5" d="M543 111.08L558.52 111.08L558.52 126.6L543 126.6L543 111.08z"/>
<path class="l5" d="M915.48 297.32L931 297.32L931 312.84L915.48 312.84L915.48 297.32z"/>
<path class="l5" d="M791.32 204.2L806.84 204.2L806.84 219.72L791.32 219.72L791.32 204.2z"/>
<path class="l5" d="M915.48 111.08L931 111.08L931 126.6L915.48 126.6L915.48 111.08z"/>
<path class="l5" d="M543 111.08L558.52 111.08L558.52 126.6L543 126.6L543 111.08z"/>
<path class="l5" d="M915.48 111.08L931 111.08L931 126.6L915.48 126.6L915.48 111.08z"/>
<path class="l5" d="M543 607.72L558.52 607.72L558.52 623.24L543 623.24L543 607.72z"/>
<path class="l5" d="M915.48 607.72L931 607.72L931 623.24L915.48 623.24L915.48 607.72z"/>
<path class="l5" d="M162.76 367.16L178.28 367.16"/>
<path class="l5" d="M162.76 367.16L151.12 351.64L123.96 351.64L135.6 367.16L123.96 382.68L151.12 382.68L162.76 367.16"/>
<path class="l5" d="M174.4 363.28L182.16 363.28L182.16 371.04L174.4 371.04L174.4 363.28z"/>
<path class="l5" d="M1047.4 367.16L1074.56 367.16"/>
<path class="l5" d="M1101.72 367.16L1090.08 351.64L1062.92 351.64L1074.56 367.16L1062.92 382.68L1090.08 382.68L1101.72 367.16"/>
<path class="l5" d="M1043.52 363.28L1051.28 363.28L1051.28 371.04L1043.52 371.04L1043.52 363.28z"/>
<path class="l1" d="M674.92 211.96L799.08 211.96"/>
<path class="l1" d="M674.92 211.96L674.92 367.16"/>
<path class="l1" d="M674.92 522.36L799.08 522.36"/>
<path class="l1" d="M674.92 367.16L674.92 522.36"/>
<path class="l1" d="M550.76 367.16L674.92 367.16"/>
<path class="l1" d="M550.76 305.08L550.76 367.16"/>
<path class="l1" d="M550.76 367.16L550.76 429.24"/>
<path class="l1" d="M923.24 305.08L923.24 429.24"/>
<path class="l1" d="M923.24 367.16L1047.4 367.16"/>
<path class="l1" d="M302.44 522.36L426.6 522.36"/>
<path class="l1" d="M302.44 211.96L302.44 522.36"/>
<path class="l1" d="M302.44 211.96L426.6 211.96"/>
<path class="l1" d="M178.28 367.16L302.44 367.16"/>
<circle class="l1" cx="550.76" cy="367.16" r="12.416"/>
<circle class="l1" cx="302.44" cy="367.16" r="12.416"/>
<circle class="l1" cx="550.76" cy="367.16" r="12.416"/>
<circle class="l1" cx="550.76" cy="367.16" r="12.416"/>
<circle class="l1" cx="674.92" cy="367.16" r="12.416"/>
<circle class="l1" cx="674.92" cy="367.16" r="12.416"/>
<circle class="l1" cx="923.24" cy="367.16" r="12.416"/>
<circle class="l1" cx="674.92" cy="367.16" r="12.416"/>
</svg>
