<svg xmlns="http://www.w3.org/2000/svg" xmlns:xlink="http://www.w3.org/1999/xlink" width="1280" height="680" version="1.1">
<style type="text/css">
.l0{
 fill: #000000;
  stroke: #000000;
  stroke-linecap:round;
  stroke-linejoin:round;
  stroke-width: 0.874138;
}
.l1{
 fill: #00ccee;
  stroke: #00ccee;
  stroke-linecap:round;
  stroke-linejoin:round;
  stroke-width: 0.874138;
}
.l2{
  fill: none;
  stroke: #3f3f3f;
  stroke-linecap:round;
  stroke-linejoin:round;
  stroke-width: 0.874138;
}
.l3{
 fill: #cccccc; fill-opacity: 0.5;
  stroke: #cccccc;
  stroke-linecap:round;
  stroke-linejoin:round;
  stroke-width: 0.874138;
}
.l4{
 fill: #88dd00;
  stroke: #88dd00;
  stroke-linecap:round;
  stroke-linejoin:round;
  stroke-width: 0.874138;
}
.l5{
 fill: #bb2200;
  stroke: #bb2200;
  stroke-linecap:round;
  stroke-linejoin:round;
  stroke-width: 0.874138;
}
.l6{
 fill: #00ccee; fill-opacity: 0.5;
  stroke: #00ccee;
  stroke-linecap:round;
  stroke-linejoin:round;
  stroke-width: 0.874138;
}
.l7{
 fill: #ff0000; fill-opacity: 0.5;
  stroke: #ff0000;
  stroke-linecap:round;
  stroke-linejoin:round;
  stroke-width: 0.874138;
}
.l8{
 fill: #ffff00; fill-opacity: 0.5;
  stroke: #ffff00;
  stroke-linecap:round;
  stroke-linejoin:round;
  stroke-width: 0.874138;
}
.l9{
 fill: #ffffff; fill-opacity: 0.5;
  stroke: #ffffff;
  stroke-linecap:round;
  stroke-linejoin:round;
  stroke-width: 0.874138;
}
.l10{
 fill: #ff00ff;
  stroke: #ff00ff;
  stroke-linecap:round;
  stroke-linejoin:round;
  stroke-width: 0.874138;
}
.l11{
 fill: #00ff00; fill-opacity: 0.5;
  stroke: #00ff00;
  stroke-linecap:round;
  stroke-linejoin:round;
  stroke-width: 0.874138;
}
.l12{
 fill: #0044dd; fill-opacity: 0.5;
  stroke: #0044dd;
  stroke-linecap:round;
  stroke-linejoin:round;
  stroke-width: 0.874138;
}
.l13{
 fill: #aaaa00; fill-opacity: 0.5;
  stroke: #aaaa00;
  stroke-linecap:round;
  stroke-linejoin:round;
  stroke-width: 0.874138;
}
.l14{
  fill: none;
  stroke: #aaccaa;
  stroke-linecap:round;
  stroke-linejoin:round;
  stroke-width: 0.874138;
}
.l15{
 fill: #ff7777; fill-opacity: 0.5;
  stroke: #ff7777;
  stroke-linecap:round;
  stroke-linejoin:round;
  stroke-width: 0.874138;
}
.l16{
 fill: #bfff81; fill-opacity: 0.5;
  stroke: #bfff81;
  stroke-linecap:round;
  stroke-linejoin:round;
  stroke-width: 0.874138;
}
.l17{
  fill: none;
  stroke: #00ffcc;
  stroke-linecap:round;
  stroke-linejoin:round;
  stroke-width: 0.874138;
}
.l18{
 fill: #ce0097; fill-opacity: 0.5;
  stroke: #ce0097;
  stroke-linecap:round;
  stroke-linejoin:round;
  stroke-width: 0.874138;
}
.l19{
  fill: none;
  stroke: #d2d46b;
  stroke-linecap:round;
  stroke-linejoin:round;
  stroke-width: 0.874138;
}
.l20{
  fill: none;
  stroke: #ef6158;
  stroke-linecap:round;
  stroke-linejoin:round;
  stroke-width: 0.874138;
}
.l21{
  fill: none;
  stroke: #fdb200;
  stroke-linecap:round;
  stroke-linejoin:round;
  stroke-width: 0.874138;
}
text {font-family: Sans-Serif;}
</style>
<rect class="l0" x="0" y="0" width="1280" height="680"/>
<text fill="#00ccee"  xml:space="preserve" font-size="13.8891" transform="translate(24.4934, 142.171)" >clk</text>
<text fill="#00ccee"  xml:space="preserve" font-size="13.8891" transform="translate(170.96, 239.803)" >clk_b</text>
<text fill="#00ccee"  xml:space="preserve" font-size="13.8891" transform="translate(90.0214, 142.676)" >clk</text>
<text fill="#00ccee"  xml:space="preserve" font-size="13.8891" transform="translate(25.5051, 239.803)" >clk</text>
<text fill="#00ccee"  xml:space="preserve" font-size="8.41763" transform="translate(122.397, 132.144)" >VDD</text>
<text fill="#00ccee"  xml:space="preserve" font-size="8.41763" transform="translate(138.585, 326.397)" >GND</text>
<text fill="#00ccee"  xml:space="preserve" font-size="8.41763" transform="translate(365.213, 633.964)" >GND</text>
<text fill="#00ccee"  xml:space="preserve" font-size="8.41763" transform="translate(349.025, 310.209)" >VDD</text>
<text fill="#00ccee"  xml:space="preserve" font-size="13.8891" transform="translate(284.509, 442.15)" >clk</text>
<text fill="#00ccee"  xml:space="preserve" font-size="13.8891" transform="translate(268.509, 523.088)" >clk_b</text>
<text fill="#00ccee"  xml:space="preserve" font-size="13.8891" transform="translate(203.465, 482.113)" >D</text>
<text fill="#00ccee"  xml:space="preserve" font-size="8.41763" transform="translate(608.029, 569.213)" >GND</text>
<text fill="#00ccee"  xml:space="preserve" font-size="8.41763" transform="translate(591.841, 374.96)" >VDD</text>
<text fill="#00ccee"  xml:space="preserve" font-size="8.41763" transform="translate(510.903, 51.2051)" >VDD</text>
<text fill="#00ccee"  xml:space="preserve" font-size="8.41763" transform="translate(527.09, 374.96)" >GND</text>
<text fill="#00ccee"  xml:space="preserve" font-size="13.8891" transform="translate(575.654, 261.306)" >clk</text>
<text fill="#00ccee"  xml:space="preserve" font-size="13.8891" transform="translate(575.654, 180.368)" >clk_b</text>
<text fill="#00ccee"  xml:space="preserve" font-size="8.41763" transform="translate(836.892, 310.209)" >VDD</text>
<text fill="#00ccee"  xml:space="preserve" font-size="8.41763" transform="translate(819.705, 633.964)" >GND</text>
<text fill="#00ccee"  xml:space="preserve" font-size="13.8891" transform="translate(770.141, 520.31)" >clk</text>
<text fill="#00ccee"  xml:space="preserve" font-size="13.8891" transform="translate(754.141, 439.372)" >clk_b</text>
<text fill="#00ccee"  xml:space="preserve" font-size="8.41763" transform="translate(1093.66, 569.213)" >GND</text>
<text fill="#00ccee"  xml:space="preserve" font-size="8.41763" transform="translate(1077.47, 374.96)" >VDD</text>
<text fill="#00ccee"  xml:space="preserve" font-size="8.41763" transform="translate(981.582, 374.96)" >GND</text>
<text fill="#00ccee"  xml:space="preserve" font-size="8.41763" transform="translate(998.77, 51.2051)" >VDD</text>
<text fill="#00ccee"  xml:space="preserve" font-size="13.8891" transform="translate(1061.29, 183.146)" >clk</text>
<text fill="#00ccee"  xml:space="preserve" font-size="13.8891" transform="translate(1061.29, 264.085)" >clk_b</text>
<text fill="#00ccee"  xml:space="preserve" font-size="13.8891" transform="translate(1249.47, 482.113)" >Q</text>
<text fill="#cccccc"  xml:space="preserve" font-size="8.41763" transform="translate(108.373, 257.599)" >M1</text>
<text fill="#ff0000"  xml:space="preserve" font-size="6.31322" transform="translate(134.538, 294.134)" >S</text>
<text fill="#ff0000"  xml:space="preserve" font-size="6.31322" transform="translate(134.538, 258.564)" >D</text>
<text fill="#ff0000"  xml:space="preserve" font-size="6.31322" transform="translate(103.233, 271.876)" >G</text>
<text fill="#cccccc"  xml:space="preserve" font-size="8.41763" transform="translate(140.608, 265.143)" >nfet_01v8</text>
<text fill="#aaaa00"  xml:space="preserve" font-size="8.41763" transform="translate(141.62, 293.01)" >1 x 0.84 / 0.15</text>
<text fill="#aaaa00"  xml:space="preserve" font-size="8.41763" transform="translate(141.62, 282.892)" >nf=1</text>
<text fill="#cccccc"  xml:space="preserve" font-size="8.41763" transform="translate(108.373, 176.66)" >M2</text>
<text fill="#ff0000"  xml:space="preserve" font-size="6.31322" transform="translate(134.538, 213.195)" >D</text>
<text fill="#ff0000"  xml:space="preserve" font-size="6.31322" transform="translate(134.538, 177.625)" >S</text>
<text fill="#ff0000"  xml:space="preserve" font-size="6.31322" transform="translate(103.233, 190.937)" >G</text>
<text fill="#cccccc"  xml:space="preserve" font-size="8.41763" transform="translate(140.608, 184.205)" >pfet_01v8</text>
<text fill="#aaaa00"  xml:space="preserve" font-size="8.41763" transform="translate(141.62, 212.071)" >1 x 1.68 / 0.15</text>
<text fill="#aaaa00"  xml:space="preserve" font-size="8.41763" transform="translate(141.62, 201.954)" >nf=1</text>
<text fill="#cccccc"  xml:space="preserve" font-size="8.41763" transform="translate(335.002, 419.476)" >M3</text>
<text fill="#ff0000"  xml:space="preserve" font-size="6.31322" transform="translate(361.166, 456.011)" >D</text>
<text fill="#ff0000"  xml:space="preserve" font-size="6.31322" transform="translate(361.166, 420.442)" >S</text>
<text fill="#ff0000"  xml:space="preserve" font-size="6.31322" transform="translate(329.861, 433.753)" >G</text>
<text fill="#cccccc"  xml:space="preserve" font-size="8.41763" transform="translate(367.237, 427.021)" >pfet_01v8</text>
<text fill="#aaaa00"  xml:space="preserve" font-size="8.41763" transform="translate(368.248, 454.887)" >1 x 0.42 / 0.15</text>
<text fill="#aaaa00"  xml:space="preserve" font-size="8.41763" transform="translate(368.248, 444.77)" >nf=1</text>
<text fill="#cccccc"  xml:space="preserve" font-size="8.41763" transform="translate(335.002, 354.725)" >M4</text>
<text fill="#ff0000"  xml:space="preserve" font-size="6.31322" transform="translate(361.166, 391.26)" >D</text>
<text fill="#ff0000"  xml:space="preserve" font-size="6.31322" transform="translate(361.166, 355.691)" >S</text>
<text fill="#ff0000"  xml:space="preserve" font-size="6.31322" transform="translate(329.861, 369.002)" >G</text>
<text fill="#cccccc"  xml:space="preserve" font-size="8.41763" transform="translate(367.237, 362.27)" >pfet_01v8</text>
<text fill="#aaaa00"  xml:space="preserve" font-size="8.41763" transform="translate(368.248, 390.136)" >1 x 0.42 / 0.15</text>
<text fill="#aaaa00"  xml:space="preserve" font-size="8.41763" transform="translate(368.248, 380.019)" >nf=1</text>
<text fill="#cccccc"  xml:space="preserve" font-size="8.41763" transform="translate(335.002, 500.415)" >M5</text>
<text fill="#ff0000"  xml:space="preserve" font-size="6.31322" transform="translate(361.166, 536.95)" >S</text>
<text fill="#ff0000"  xml:space="preserve" font-size="6.31322" transform="translate(361.166, 501.38)" >D</text>
<text fill="#ff0000"  xml:space="preserve" font-size="6.31322" transform="translate(329.861, 514.692)" >G</text>
<text fill="#cccccc"  xml:space="preserve" font-size="8.41763" transform="translate(367.237, 507.96)" >nfet_01v8</text>
<text fill="#aaaa00"  xml:space="preserve" font-size="8.41763" transform="translate(368.248, 535.826)" >1 x 0.42 / 0.15</text>
<text fill="#aaaa00"  xml:space="preserve" font-size="8.41763" transform="translate(368.248, 525.708)" >nf=1</text>
<text fill="#cccccc"  xml:space="preserve" font-size="8.41763" transform="translate(335.002, 565.166)" >M6</text>
<text fill="#ff0000"  xml:space="preserve" font-size="6.31322" transform="translate(361.166, 601.701)" >S</text>
<text fill="#ff0000"  xml:space="preserve" font-size="6.31322" transform="translate(361.166, 566.131)" >D</text>
<text fill="#ff0000"  xml:space="preserve" font-size="6.31322" transform="translate(329.861, 579.443)" >G</text>
<text fill="#cccccc"  xml:space="preserve" font-size="8.41763" transform="translate(367.237, 572.71)" >nfet_01v8</text>
<text fill="#aaaa00"  xml:space="preserve" font-size="8.41763" transform="translate(368.248, 600.577)" >1 x 0.42 / 0.15</text>
<text fill="#aaaa00"  xml:space="preserve" font-size="8.41763" transform="translate(368.248, 590.459)" >nf=1</text>
<text fill="#cccccc"  xml:space="preserve" font-size="8.41763" transform="translate(577.818, 419.476)" >M7</text>
<text fill="#ff0000"  xml:space="preserve" font-size="6.31322" transform="translate(603.982, 456.011)" >D</text>
<text fill="#ff0000"  xml:space="preserve" font-size="6.31322" transform="translate(603.982, 420.442)" >S</text>
<text fill="#ff0000"  xml:space="preserve" font-size="6.31322" transform="translate(572.677, 433.753)" >G</text>
<text fill="#cccccc"  xml:space="preserve" font-size="8.41763" transform="translate(610.053, 427.021)" >pfet_01v8</text>
<text fill="#aaaa00"  xml:space="preserve" font-size="8.41763" transform="translate(611.064, 454.887)" >1 x 0.42 / 0.15</text>
<text fill="#aaaa00"  xml:space="preserve" font-size="8.41763" transform="translate(611.064, 444.77)" >nf=1</text>
<text fill="#cccccc"  xml:space="preserve" font-size="8.41763" transform="translate(577.818, 500.415)" >M8</text>
<text fill="#ff0000"  xml:space="preserve" font-size="6.31322" transform="translate(603.982, 536.95)" >S</text>
<text fill="#ff0000"  xml:space="preserve" font-size="6.31322" transform="translate(603.982, 501.38)" >D</text>
<text fill="#ff0000"  xml:space="preserve" font-size="6.31322" transform="translate(572.677, 514.692)" >G</text>
<text fill="#cccccc"  xml:space="preserve" font-size="8.41763" transform="translate(610.053, 507.96)" >nfet_01v8</text>
<text fill="#aaaa00"  xml:space="preserve" font-size="8.41763" transform="translate(611.064, 535.826)" >1 x 0.42 / 0.15</text>
<text fill="#aaaa00"  xml:space="preserve" font-size="8.41763" transform="translate(611.064, 525.708)" >nf=1</text>
<text fill="#cccccc"  xml:space="preserve" font-size="8.41763" transform="translate(533.161, 160.472)" >M9</text>
<text fill="#ff0000"  xml:space="preserve" font-size="6.31322" transform="translate(513.997, 197.008)" >D</text>
<text fill="#ff0000"  xml:space="preserve" font-size="6.31322" transform="translate(514.997, 161.438)" >S</text>
<text fill="#ff0000"  xml:space="preserve" font-size="6.31322" transform="translate(545.302, 174.749)" >G</text>
<text fill="#cccccc"  xml:space="preserve" font-size="8.41763" transform="translate(472.926, 168.017)" >pfet_01v8</text>
<text fill="#aaaa00"  xml:space="preserve" font-size="8.41763" transform="translate(450.914, 195.883)" >1 x 0.42 / 0.15</text>
<text fill="#aaaa00"  xml:space="preserve" font-size="8.41763" transform="translate(491.914, 185.766)" >nf=1</text>
<text fill="#cccccc"  xml:space="preserve" font-size="8.41763" transform="translate(533.161, 95.7214)" >M10</text>
<text fill="#ff0000"  xml:space="preserve" font-size="6.31322" transform="translate(513.997, 132.257)" >D</text>
<text fill="#ff0000"  xml:space="preserve" font-size="6.31322" transform="translate(514.997, 96.6867)" >S</text>
<text fill="#ff0000"  xml:space="preserve" font-size="6.31322" transform="translate(545.302, 109.998)" >G</text>
<text fill="#cccccc"  xml:space="preserve" font-size="8.41763" transform="translate(472.926, 103.266)" >pfet_01v8</text>
<text fill="#aaaa00"  xml:space="preserve" font-size="8.41763" transform="translate(450.914, 131.132)" >1 x 0.42 / 0.15</text>
<text fill="#aaaa00"  xml:space="preserve" font-size="8.41763" transform="translate(491.914, 121.015)" >nf=1</text>
<text fill="#cccccc"  xml:space="preserve" font-size="8.41763" transform="translate(533.161, 241.411)" >M11</text>
<text fill="#ff0000"  xml:space="preserve" font-size="6.31322" transform="translate(514.997, 277.946)" >S</text>
<text fill="#ff0000"  xml:space="preserve" font-size="6.31322" transform="translate(513.997, 242.376)" >D</text>
<text fill="#ff0000"  xml:space="preserve" font-size="6.31322" transform="translate(545.302, 255.688)" >G</text>
<text fill="#cccccc"  xml:space="preserve" font-size="8.41763" transform="translate(472.926, 248.956)" >nfet_01v8</text>
<text fill="#aaaa00"  xml:space="preserve" font-size="8.41763" transform="translate(450.914, 276.822)" >1 x 0.42 / 0.15</text>
<text fill="#aaaa00"  xml:space="preserve" font-size="8.41763" transform="translate(491.914, 266.704)" >nf=1</text>
<text fill="#cccccc"  xml:space="preserve" font-size="8.41763" transform="translate(533.161, 306.162)" >M12</text>
<text fill="#ff0000"  xml:space="preserve" font-size="6.31322" transform="translate(514.997, 342.697)" >S</text>
<text fill="#ff0000"  xml:space="preserve" font-size="6.31322" transform="translate(513.997, 307.127)" >D</text>
<text fill="#ff0000"  xml:space="preserve" font-size="6.31322" transform="translate(545.302, 320.439)" >G</text>
<text fill="#cccccc"  xml:space="preserve" font-size="8.41763" transform="translate(472.926, 313.707)" >nfet_01v8</text>
<text fill="#aaaa00"  xml:space="preserve" font-size="8.41763" transform="translate(450.914, 341.573)" >1 x 0.42 / 0.15</text>
<text fill="#aaaa00"  xml:space="preserve" font-size="8.41763" transform="translate(491.914, 331.455)" >nf=1</text>
<text fill="#cccccc"  xml:space="preserve" font-size="8.41763" transform="translate(815.634, 419.476)" >M13</text>
<text fill="#ff0000"  xml:space="preserve" font-size="6.31322" transform="translate(846.798, 456.011)" >D</text>
<text fill="#ff0000"  xml:space="preserve" font-size="6.31322" transform="translate(846.798, 420.442)" >S</text>
<text fill="#ff0000"  xml:space="preserve" font-size="6.31322" transform="translate(815.493, 433.753)" >G</text>
<text fill="#cccccc"  xml:space="preserve" font-size="8.41763" transform="translate(852.869, 427.021)" >pfet_01v8</text>
<text fill="#aaaa00"  xml:space="preserve" font-size="8.41763" transform="translate(853.881, 454.887)" >1 x 0.42 / 0.15</text>
<text fill="#aaaa00"  xml:space="preserve" font-size="8.41763" transform="translate(853.881, 444.77)" >nf=1</text>
<text fill="#cccccc"  xml:space="preserve" font-size="8.41763" transform="translate(815.634, 354.725)" >M14</text>
<text fill="#ff0000"  xml:space="preserve" font-size="6.31322" transform="translate(846.798, 391.26)" >D</text>
<text fill="#ff0000"  xml:space="preserve" font-size="6.31322" transform="translate(846.798, 355.691)" >S</text>
<text fill="#ff0000"  xml:space="preserve" font-size="6.31322" transform="translate(815.493, 369.002)" >G</text>
<text fill="#cccccc"  xml:space="preserve" font-size="8.41763" transform="translate(852.869, 362.27)" >pfet_01v8</text>
<text fill="#aaaa00"  xml:space="preserve" font-size="8.41763" transform="translate(853.881, 390.136)" >1 x 0.42 / 0.15</text>
<text fill="#aaaa00"  xml:space="preserve" font-size="8.41763" transform="translate(853.881, 380.019)" >nf=1</text>
<text fill="#cccccc"  xml:space="preserve" font-size="8.41763" transform="translate(815.634, 500.415)" >M15</text>
<text fill="#ff0000"  xml:space="preserve" font-size="6.31322" transform="translate(846.798, 536.95)" >S</text>
<text fill="#ff0000"  xml:space="preserve" font-size="6.31322" transform="translate(846.798, 501.38)" >D</text>
<text fill="#ff0000"  xml:space="preserve" font-size="6.31322" transform="translate(815.493, 514.692)" >G</text>
<text fill="#cccccc"  xml:space="preserve" font-size="8.41763" transform="translate(852.869, 507.96)" >nfet_01v8</text>
<text fill="#aaaa00"  xml:space="preserve" font-size="8.41763" transform="translate(853.881, 535.826)" >1 x 0.42 / 0.15</text>
<text fill="#aaaa00"  xml:space="preserve" font-size="8.41763" transform="translate(853.881, 525.708)" >nf=1</text>
<text fill="#cccccc"  xml:space="preserve" font-size="8.41763" transform="translate(815.634, 565.166)" >M16</text>
<text fill="#ff0000"  xml:space="preserve" font-size="6.31322" transform="translate(846.798, 601.701)" >S</text>
<text fill="#ff0000"  xml:space="preserve" font-size="6.31322" transform="translate(846.798, 566.131)" >D</text>
<text fill="#ff0000"  xml:space="preserve" font-size="6.31322" transform="translate(815.493, 579.443)" >G</text>
<text fill="#cccccc"  xml:space="preserve" font-size="8.41763" transform="translate(852.869, 572.71)" >nfet_01v8</text>
<text fill="#aaaa00"  xml:space="preserve" font-size="8.41763" transform="translate(853.881, 600.577)" >1 x 0.42 / 0.15</text>
<text fill="#aaaa00"  xml:space="preserve" font-size="8.41763" transform="translate(853.881, 590.459)" >nf=1</text>
<text fill="#cccccc"  xml:space="preserve" font-size="8.41763" transform="translate(1058.45, 419.476)" >M17</text>
<text fill="#ff0000"  xml:space="preserve" font-size="6.31322" transform="translate(1089.61, 456.011)" >D</text>
<text fill="#ff0000"  xml:space="preserve" font-size="6.31322" transform="translate(1089.61, 420.442)" >S</text>
<text fill="#ff0000"  xml:space="preserve" font-size="6.31322" transform="translate(1058.31, 433.753)" >G</text>
<text fill="#cccccc"  xml:space="preserve" font-size="8.41763" transform="translate(1095.69, 427.021)" >pfet_01v8</text>
<text fill="#aaaa00"  xml:space="preserve" font-size="8.41763" transform="translate(1096.7, 454.887)" >1 x 0.84 / 0.15</text>
<text fill="#aaaa00"  xml:space="preserve" font-size="8.41763" transform="translate(1096.7, 444.77)" >nf=1</text>
<text fill="#cccccc"  xml:space="preserve" font-size="8.41763" transform="translate(1058.45, 500.415)" >M18</text>
<text fill="#ff0000"  xml:space="preserve" font-size="6.31322" transform="translate(1089.61, 536.95)" >S</text>
<text fill="#ff0000"  xml:space="preserve" font-size="6.31322" transform="translate(1089.61, 501.38)" >D</text>
<text fill="#ff0000"  xml:space="preserve" font-size="6.31322" transform="translate(1058.31, 514.692)" >G</text>
<text fill="#cccccc"  xml:space="preserve" font-size="8.41763" transform="translate(1095.69, 507.96)" >nfet_01v8</text>
<text fill="#aaaa00"  xml:space="preserve" font-size="8.41763" transform="translate(1096.7, 535.826)" >1 x 0.42 / 0.15</text>
<text fill="#aaaa00"  xml:space="preserve" font-size="8.41763" transform="translate(1096.7, 525.708)" >nf=1</text>
<text fill="#cccccc"  xml:space="preserve" font-size="8.41763" transform="translate(1018.79, 160.472)" >M19</text>
<text fill="#ff0000"  xml:space="preserve" font-size="6.31322" transform="translate(999.629, 197.008)" >D</text>
<text fill="#ff0000"  xml:space="preserve" font-size="6.31322" transform="translate(1000.63, 161.438)" >S</text>
<text fill="#ff0000"  xml:space="preserve" font-size="6.31322" transform="translate(1030.93, 174.749)" >G</text>
<text fill="#cccccc"  xml:space="preserve" font-size="8.41763" transform="translate(958.559, 168.017)" >pfet_01v8</text>
<text fill="#aaaa00"  xml:space="preserve" font-size="8.41763" transform="translate(936.547, 195.883)" >1 x 0.42 / 0.15</text>
<text fill="#aaaa00"  xml:space="preserve" font-size="8.41763" transform="translate(977.547, 185.766)" >nf=1</text>
<text fill="#cccccc"  xml:space="preserve" font-size="8.41763" transform="translate(1018.79, 95.7214)" >M20</text>
<text fill="#ff0000"  xml:space="preserve" font-size="6.31322" transform="translate(999.629, 132.257)" >D</text>
<text fill="#ff0000"  xml:space="preserve" font-size="6.31322" transform="translate(1000.63, 96.6867)" >S</text>
<text fill="#ff0000"  xml:space="preserve" font-size="6.31322" transform="translate(1030.93, 109.998)" >G</text>
<text fill="#cccccc"  xml:space="preserve" font-size="8.41763" transform="translate(958.559, 103.266)" >pfet_01v8</text>
<text fill="#aaaa00"  xml:space="preserve" font-size="8.41763" transform="translate(936.547, 131.132)" >1 x 0.42 / 0.15</text>
<text fill="#aaaa00"  xml:space="preserve" font-size="8.41763" transform="translate(977.547, 121.015)" >nf=1</text>
<text fill="#cccccc"  xml:space="preserve" font-size="8.41763" transform="translate(1018.79, 241.411)" >M21</text>
<text fill="#ff0000"  xml:space="preserve" font-size="6.31322" transform="translate(1000.63, 277.946)" >S</text>
<text fill="#ff0000"  xml:space="preserve" font-size="6.31322" transform="translate(999.629, 242.376)" >D</text>
<text fill="#ff0000"  xml:space="preserve" font-size="6.31322" transform="translate(1030.93, 255.688)" >G</text>
<text fill="#cccccc"  xml:space="preserve" font-size="8.41763" transform="translate(958.559, 248.956)" >nfet_01v8</text>
<text fill="#aaaa00"  xml:space="preserve" font-size="8.41763" transform="translate(936.547, 276.822)" >1 x 0.42 / 0.15</text>
<text fill="#aaaa00"  xml:space="preserve" font-size="8.41763" transform="translate(977.547, 266.704)" >nf=1</text>
<text fill="#cccccc"  xml:space="preserve" font-size="8.41763" transform="translate(1018.79, 306.162)" >M22</text>
<text fill="#ff0000"  xml:space="preserve" font-size="6.31322" transform="translate(1000.63, 342.697)" >S</text>
<text fill="#ff0000"  xml:space="preserve" font-size="6.31322" transform="translate(999.629, 307.127)" >D</text>
<text fill="#ff0000"  xml:space="preserve" font-size="6.31322" transform="translate(1030.93, 320.439)" >G</text>
<text fill="#cccccc"  xml:space="preserve" font-size="8.41763" transform="translate(958.559, 313.707)" >nfet_01v8</text>
<text fill="#aaaa00"  xml:space="preserve" font-size="8.41763" transform="translate(936.547, 341.573)" >1 x 0.42 / 0.15</text>
<text fill="#aaaa00"  xml:space="preserve" font-size="8.41763" transform="translate(977.547, 331.455)" >nf=1</text>
<path class="l4" d="M19.2 347.082L221.547 347.082"/>
<path class="l4" d="M221.547 104.266L221.547 347.082"/>
<path class="l4" d="M19.2 104.266L221.547 104.266"/>
<path class="l4" d="M19.2 104.266L19.2 347.082"/>
<path class="l4" d="M122.397 256.026L122.397 292.449"/>
<path class="l4" d="M100.139 274.237L118.35 274.237"/>
<path class="l4" d="M132.514 249.956L132.514 260.073"/>
<path class="l4" d="M132.514 288.402L132.514 298.519"/>
<path class="l4" d="M118.35 262.096L118.35 286.378"/>
<path class="l4" d="M122.397 260.073L132.514 260.073"/>
<path class="l4" d="M122.397 288.402L128.467 288.402"/>
<path class="l4" d="M128.467 286.378L132.514 288.402L128.467 290.425L128.467 286.378"/>
<path class="l4" d="M122.397 175.087L122.397 211.51"/>
<path class="l4" d="M132.514 169.017L132.514 179.134"/>
<path class="l4" d="M132.514 207.463L132.514 217.58"/>
<path class="l4" d="M118.35 181.158L118.35 205.439"/>
<path class="l4" d="M122.397 207.463L132.514 207.463"/>
<path class="l4" d="M126.444 179.134L132.514 179.134"/>
<path class="l4" d="M100.139 193.299L110.256 193.299"/>
<path class="l4" d="M126.444 177.111L122.397 179.134L126.444 181.158L126.444 177.111"/>
<circle class="l4" cx="114.303" cy="193.299" r="4.04694" style="fill:none;"/>
<path class="l4" d="M132.514 136.641L132.514 152.829"/>
<path class="l4" d="M124.42 136.641L140.608 136.641"/>
<path class="l4" d="M132.514 314.707L132.514 324.824"/>
<path class="l4" d="M128.467 324.824L136.561 324.824"/>
<path class="l4" d="M132.514 328.871L136.561 324.824"/>
<path class="l4" d="M128.467 324.824L132.514 328.871"/>
<path class="l4" d="M349.025 417.904L349.025 454.326"/>
<path class="l4" d="M359.143 411.833L359.143 421.95"/>
<path class="l4" d="M359.143 450.279L359.143 460.396"/>
<path class="l4" d="M344.978 423.974L344.978 448.256"/>
<path class="l4" d="M349.025 450.279L359.143 450.279"/>
<path class="l4" d="M353.072 421.95L359.143 421.95"/>
<path class="l4" d="M326.767 436.115L336.884 436.115"/>
<path class="l4" d="M353.072 419.927L349.025 421.95L353.072 423.974L353.072 419.927"/>
<circle class="l4" cx="340.931" cy="436.115" r="4.04694" style="fill:none;"/>
<path class="l4" d="M349.025 353.153L349.025 389.575"/>
<path class="l4" d="M359.143 347.082L359.143 357.199"/>
<path class="l4" d="M359.143 385.528L359.143 395.645"/>
<path class="l4" d="M344.978 359.223L344.978 383.505"/>
<path class="l4" d="M349.025 385.528L359.143 385.528"/>
<path class="l4" d="M353.072 357.199L359.143 357.199"/>
<path class="l4" d="M326.767 371.364L336.884 371.364"/>
<path class="l4" d="M353.072 355.176L349.025 357.199L353.072 359.223L353.072 355.176"/>
<circle class="l4" cx="340.931" cy="371.364" r="4.04694" style="fill:none;"/>
<path class="l4" d="M349.025 498.842L349.025 535.265"/>
<path class="l4" d="M326.767 517.053L344.978 517.053"/>
<path class="l4" d="M359.143 492.772L359.143 502.889"/>
<path class="l4" d="M359.143 531.218L359.143 541.335"/>
<path class="l4" d="M344.978 504.913L344.978 529.194"/>
<path class="l4" d="M349.025 502.889L359.143 502.889"/>
<path class="l4" d="M349.025 531.218L355.096 531.218"/>
<path class="l4" d="M355.096 529.194L359.143 531.218L355.096 533.241L355.096 529.194"/>
<path class="l4" d="M349.025 563.593L349.025 600.016"/>
<path class="l4" d="M326.767 581.804L344.978 581.804"/>
<path class="l4" d="M359.143 557.523L359.143 567.64"/>
<path class="l4" d="M359.143 595.969L359.143 606.086"/>
<path class="l4" d="M344.978 569.664L344.978 593.945"/>
<path class="l4" d="M349.025 567.64L359.143 567.64"/>
<path class="l4" d="M349.025 595.969L355.096 595.969"/>
<path class="l4" d="M355.096 593.945L359.143 595.969L355.096 597.992L355.096 593.945"/>
<path class="l4" d="M359.143 622.274L359.143 632.391"/>
<path class="l4" d="M355.096 632.391L363.19 632.391"/>
<path class="l4" d="M359.143 636.438L363.19 632.391"/>
<path class="l4" d="M355.096 632.391L359.143 636.438"/>
<path class="l4" d="M359.143 314.707L359.143 330.894"/>
<path class="l4" d="M351.049 314.707L367.237 314.707"/>
<path class="l4" d="M591.841 417.904L591.841 454.326"/>
<path class="l4" d="M601.959 411.833L601.959 421.95"/>
<path class="l4" d="M601.959 450.279L601.959 460.396"/>
<path class="l4" d="M587.795 423.974L587.795 448.256"/>
<path class="l4" d="M591.841 450.279L601.959 450.279"/>
<path class="l4" d="M595.888 421.95L601.959 421.95"/>
<path class="l4" d="M569.583 436.115L579.701 436.115"/>
<path class="l4" d="M595.888 419.927L591.841 421.95L595.888 423.974L595.888 419.927"/>
<circle class="l4" cx="583.748" cy="436.115" r="4.04694" style="fill:none;"/>
<path class="l4" d="M591.841 498.842L591.841 535.265"/>
<path class="l4" d="M569.583 517.053L587.795 517.053"/>
<path class="l4" d="M601.959 492.772L601.959 502.889"/>
<path class="l4" d="M601.959 531.218L601.959 541.335"/>
<path class="l4" d="M587.795 504.913L587.795 529.194"/>
<path class="l4" d="M591.841 502.889L601.959 502.889"/>
<path class="l4" d="M591.841 531.218L597.912 531.218"/>
<path class="l4" d="M597.912 529.194L601.959 531.218L597.912 533.241L597.912 529.194"/>
<path class="l4" d="M601.959 557.523L601.959 567.64"/>
<path class="l4" d="M597.912 567.64L606.006 567.64"/>
<path class="l4" d="M601.959 571.687L606.006 567.64"/>
<path class="l4" d="M597.912 567.64L601.959 571.687"/>
<path class="l4" d="M601.959 379.458L601.959 395.645"/>
<path class="l4" d="M593.865 379.458L610.053 379.458"/>
<path class="l4" d="M531.137 158.9L531.137 195.322"/>
<path class="l4" d="M521.02 152.829L521.02 162.947"/>
<path class="l4" d="M521.02 191.275L521.02 201.392"/>
<path class="l4" d="M535.184 164.97L535.184 189.252"/>
<path class="l4" d="M521.02 191.275L531.137 191.275"/>
<path class="l4" d="M521.02 162.947L527.09 162.947"/>
<path class="l4" d="M543.278 177.111L553.396 177.111"/>
<path class="l4" d="M527.09 160.923L531.137 162.947L527.09 164.97L527.09 160.923"/>
<circle class="l4" cx="539.231" cy="177.111" r="4.04694" style="fill:none;"/>
<path class="l4" d="M531.137 94.1486L531.137 130.571"/>
<path class="l4" d="M521.02 88.0782L521.02 98.1956"/>
<path class="l4" d="M521.02 126.524L521.02 136.641"/>
<path class="l4" d="M535.184 100.219L535.184 124.501"/>
<path class="l4" d="M521.02 126.524L531.137 126.524"/>
<path class="l4" d="M521.02 98.1956L527.09 98.1956"/>
<path class="l4" d="M543.278 112.36L553.396 112.36"/>
<path class="l4" d="M527.09 96.1721L531.137 98.1956L527.09 100.219L527.09 96.1721"/>
<circle class="l4" cx="539.231" cy="112.36" r="4.04694" style="fill:none;"/>
<path class="l4" d="M531.137 239.838L531.137 276.261"/>
<path class="l4" d="M535.184 258.05L553.396 258.05"/>
<path class="l4" d="M521.02 233.768L521.02 243.885"/>
<path class="l4" d="M521.02 272.214L521.02 282.331"/>
<path class="l4" d="M535.184 245.909L535.184 270.19"/>
<path class="l4" d="M521.02 243.885L531.137 243.885"/>
<path class="l4" d="M525.067 272.214L531.137 272.214"/>
<path class="l4" d="M525.067 270.19L521.02 272.214L525.067 274.237L525.067 270.19"/>
<path class="l4" d="M531.137 304.589L531.137 341.012"/>
<path class="l4" d="M535.184 322.801L553.396 322.801"/>
<path class="l4" d="M521.02 298.519L521.02 308.636"/>
<path class="l4" d="M521.02 336.965L521.02 347.082"/>
<path class="l4" d="M535.184 310.66L535.184 334.941"/>
<path class="l4" d="M521.02 308.636L531.137 308.636"/>
<path class="l4" d="M525.067 336.965L531.137 336.965"/>
<path class="l4" d="M525.067 334.941L521.02 336.965L525.067 338.988L525.067 334.941"/>
<path class="l4" d="M521.02 55.7027L521.02 71.8905"/>
<path class="l4" d="M512.926 55.7027L529.114 55.7027"/>
<path class="l4" d="M521.02 363.27L521.02 373.387"/>
<path class="l4" d="M516.973 373.387L525.067 373.387"/>
<path class="l4" d="M521.02 377.434L525.067 373.387"/>
<path class="l4" d="M516.973 373.387L521.02 377.434"/>
<path class="l4" d="M834.658 417.904L834.658 454.326"/>
<path class="l4" d="M844.775 411.833L844.775 421.95"/>
<path class="l4" d="M844.775 450.279L844.775 460.396"/>
<path class="l4" d="M830.611 423.974L830.611 448.256"/>
<path class="l4" d="M834.658 450.279L844.775 450.279"/>
<path class="l4" d="M838.705 421.95L844.775 421.95"/>
<path class="l4" d="M812.399 436.115L822.517 436.115"/>
<path class="l4" d="M838.705 419.927L834.658 421.95L838.705 423.974L838.705 419.927"/>
<circle class="l4" cx="826.564" cy="436.115" r="4.04694" style="fill:none;"/>
<path class="l4" d="M834.658 353.153L834.658 389.575"/>
<path class="l4" d="M844.775 347.082L844.775 357.199"/>
<path class="l4" d="M844.775 385.528L844.775 395.645"/>
<path class="l4" d="M830.611 359.223L830.611 383.505"/>
<path class="l4" d="M834.658 385.528L844.775 385.528"/>
<path class="l4" d="M838.705 357.199L844.775 357.199"/>
<path class="l4" d="M812.399 371.364L822.517 371.364"/>
<path class="l4" d="M838.705 355.176L834.658 357.199L838.705 359.223L838.705 355.176"/>
<circle class="l4" cx="826.564" cy="371.364" r="4.04694" style="fill:none;"/>
<path class="l4" d="M834.658 498.842L834.658 535.265"/>
<path class="l4" d="M812.399 517.053L830.611 517.053"/>
<path class="l4" d="M844.775 492.772L844.775 502.889"/>
<path class="l4" d="M844.775 531.218L844.775 541.335"/>
<path class="l4" d="M830.611 504.913L830.611 529.194"/>
<path class="l4" d="M834.658 502.889L844.775 502.889"/>
<path class="l4" d="M834.658 531.218L840.728 531.218"/>
<path class="l4" d="M840.728 529.194L844.775 531.218L840.728 533.241L840.728 529.194"/>
<path class="l4" d="M834.658 563.593L834.658 600.016"/>
<path class="l4" d="M812.399 581.804L830.611 581.804"/>
<path class="l4" d="M844.775 557.523L844.775 567.64"/>
<path class="l4" d="M844.775 595.969L844.775 606.086"/>
<path class="l4" d="M830.611 569.664L830.611 593.945"/>
<path class="l4" d="M834.658 567.64L844.775 567.64"/>
<path class="l4" d="M834.658 595.969L840.728 595.969"/>
<path class="l4" d="M840.728 593.945L844.775 595.969L840.728 597.992L840.728 593.945"/>
<path class="l4" d="M844.775 314.707L844.775 330.894"/>
<path class="l4" d="M836.681 314.707L852.869 314.707"/>
<path class="l4" d="M844.775 622.274L844.775 632.391"/>
<path class="l4" d="M840.728 632.391L848.822 632.391"/>
<path class="l4" d="M840.728 632.391L844.775 636.438"/>
<path class="l4" d="M844.775 636.438L848.822 632.391"/>
<path class="l4" d="M1077.47 417.904L1077.47 454.326"/>
<path class="l4" d="M1087.59 411.833L1087.59 421.95"/>
<path class="l4" d="M1087.59 450.279L1087.59 460.396"/>
<path class="l4" d="M1073.43 423.974L1073.43 448.256"/>
<path class="l4" d="M1077.47 450.279L1087.59 450.279"/>
<path class="l4" d="M1081.52 421.95L1087.59 421.95"/>
<path class="l4" d="M1055.22 436.115L1065.33 436.115"/>
<path class="l4" d="M1081.52 419.927L1077.47 421.95L1081.52 423.974L1081.52 419.927"/>
<circle class="l4" cx="1069.38" cy="436.115" r="4.04694" style="fill:none;"/>
<path class="l4" d="M1077.47 498.842L1077.47 535.265"/>
<path class="l4" d="M1055.22 517.053L1073.43 517.053"/>
<path class="l4" d="M1087.59 492.772L1087.59 502.889"/>
<path class="l4" d="M1087.59 531.218L1087.59 541.335"/>
<path class="l4" d="M1073.43 504.913L1073.43 529.194"/>
<path class="l4" d="M1077.47 502.889L1087.59 502.889"/>
<path class="l4" d="M1077.47 531.218L1083.54 531.218"/>
<path class="l4" d="M1083.54 529.194L1087.59 531.218L1083.54 533.241L1083.54 529.194"/>
<path class="l4" d="M1087.59 557.523L1087.59 567.64"/>
<path class="l4" d="M1083.54 567.64L1091.64 567.64"/>
<path class="l4" d="M1087.59 571.687L1091.64 567.64"/>
<path class="l4" d="M1083.54 567.64L1087.59 571.687"/>
<path class="l4" d="M1087.59 379.458L1087.59 395.645"/>
<path class="l4" d="M1079.5 379.458L1095.69 379.458"/>
<path class="l4" d="M1016.77 158.9L1016.77 195.322"/>
<path class="l4" d="M1006.65 152.829L1006.65 162.947"/>
<path class="l4" d="M1006.65 191.275L1006.65 201.392"/>
<path class="l4" d="M1020.82 164.97L1020.82 189.252"/>
<path class="l4" d="M1006.65 191.275L1016.77 191.275"/>
<path class="l4" d="M1006.65 162.947L1012.72 162.947"/>
<path class="l4" d="M1028.91 177.111L1039.03 177.111"/>
<path class="l4" d="M1012.72 160.923L1016.77 162.947L1012.72 164.97L1012.72 160.923"/>
<circle class="l4" cx="1024.86" cy="177.111" r="4.04694" style="fill:none;"/>
<path class="l4" d="M1016.77 94.1486L1016.77 130.571"/>
<path class="l4" d="M1006.65 88.0782L1006.65 98.1956"/>
<path class="l4" d="M1006.65 126.524L1006.65 136.641"/>
<path class="l4" d="M1020.82 100.219L1020.82 124.501"/>
<path class="l4" d="M1006.65 126.524L1016.77 126.524"/>
<path class="l4" d="M1006.65 98.1956L1012.72 98.1956"/>
<path class="l4" d="M1028.91 112.36L1039.03 112.36"/>
<path class="l4" d="M1012.72 96.1721L1016.77 98.1956L1012.72 100.219L1012.72 96.1721"/>
<circle class="l4" cx="1024.86" cy="112.36" r="4.04694" style="fill:none;"/>
<path class="l4" d="M1016.77 239.838L1016.77 276.261"/>
<path class="l4" d="M1020.82 258.05L1039.03 258.05"/>
<path class="l4" d="M1006.65 233.768L1006.65 243.885"/>
<path class="l4" d="M1006.65 272.214L1006.65 282.331"/>
<path class="l4" d="M1020.82 245.909L1020.82 270.19"/>
<path class="l4" d="M1006.65 243.885L1016.77 243.885"/>
<path class="l4" d="M1010.7 272.214L1016.77 272.214"/>
<path class="l4" d="M1010.7 270.19L1006.65 272.214L1010.7 274.237L1010.7 270.19"/>
<path class="l4" d="M1016.77 304.589L1016.77 341.012"/>
<path class="l4" d="M1020.82 322.801L1039.03 322.801"/>
<path class="l4" d="M1006.65 298.519L1006.65 308.636"/>
<path class="l4" d="M1006.65 336.965L1006.65 347.082"/>
<path class="l4" d="M1020.82 310.66L1020.82 334.941"/>
<path class="l4" d="M1006.65 308.636L1016.77 308.636"/>
<path class="l4" d="M1010.7 336.965L1016.77 336.965"/>
<path class="l4" d="M1010.7 334.941L1006.65 336.965L1010.7 338.988L1010.7 334.941"/>
<path class="l4" d="M1006.65 363.27L1006.65 373.387"/>
<path class="l4" d="M1002.61 373.387L1010.7 373.387"/>
<path class="l4" d="M1002.61 373.387L1006.65 377.434"/>
<path class="l4" d="M1006.65 377.434L1010.7 373.387"/>
<path class="l4" d="M1006.65 55.7027L1006.65 71.8905"/>
<path class="l4" d="M998.559 55.7027L1014.75 55.7027"/>
<path class="l5" d="M130.491 247.932L134.538 247.932L134.538 251.979L130.491 251.979L130.491 247.932z"/>
<path class="l5" d="M98.1153 272.214L102.162 272.214L102.162 276.261L98.1153 276.261L98.1153 272.214z"/>
<path class="l5" d="M130.491 296.495L134.538 296.495L134.538 300.542L130.491 300.542L130.491 296.495z"/>
<path class="l5" d="M130.491 215.557L134.538 215.557L134.538 219.604L130.491 219.604L130.491 215.557z"/>
<path class="l5" d="M98.1153 191.275L102.162 191.275L102.162 195.322L98.1153 195.322L98.1153 191.275z"/>
<path class="l5" d="M130.491 166.993L134.538 166.993L134.538 171.04L130.491 171.04L130.491 166.993z"/>
<path class="l5" d="M55.6224 136.641L59.6694 136.641"/>
<path class="l5" d="M55.6224 136.641L52.5872 132.595L45.5051 132.595L48.5403 136.641L45.5051 140.688L52.5872 140.688L55.6224 136.641"/>
<path class="l5" d="M58.6576 135.63L60.6811 135.63L60.6811 137.653L58.6576 137.653L58.6576 135.63z"/>
<path class="l5" d="M163.878 232.756L165.901 232.756L165.901 234.78L163.878 234.78L163.878 232.756z"/>
<path class="l5" d="M82.9392 135.63L84.9627 135.63L84.9627 137.653L82.9392 137.653L82.9392 135.63z"/>
<path class="l5" d="M50.5638 232.756L52.5872 232.756L52.5872 234.78L50.5638 234.78L50.5638 232.756z"/>
<path class="l5" d="M130.491 150.806L134.538 150.806L134.538 154.853L130.491 154.853L130.491 150.806z"/>
<path class="l5" d="M130.491 312.683L134.538 312.683L134.538 316.73L130.491 316.73L130.491 312.683z"/>
<path class="l5" d="M357.119 458.373L361.166 458.373L361.166 462.42L357.119 462.42L357.119 458.373z"/>
<path class="l5" d="M324.744 434.091L328.791 434.091L328.791 438.138L324.744 438.138L324.744 434.091z"/>
<path class="l5" d="M357.119 409.81L361.166 409.81L361.166 413.857L357.119 413.857L357.119 409.81z"/>
<path class="l5" d="M357.119 393.622L361.166 393.622L361.166 397.669L357.119 397.669L357.119 393.622z"/>
<path class="l5" d="M324.744 369.34L328.791 369.34L328.791 373.387L324.744 373.387L324.744 369.34z"/>
<path class="l5" d="M357.119 345.059L361.166 345.059L361.166 349.106L357.119 349.106L357.119 345.059z"/>
<path class="l5" d="M357.119 490.748L361.166 490.748L361.166 494.795L357.119 494.795L357.119 490.748z"/>
<path class="l5" d="M324.744 515.03L328.791 515.03L328.791 519.077L324.744 519.077L324.744 515.03z"/>
<path class="l5" d="M357.119 539.312L361.166 539.312L361.166 543.359L357.119 543.359L357.119 539.312z"/>
<path class="l5" d="M357.119 555.499L361.166 555.499L361.166 559.546L357.119 559.546L357.119 555.499z"/>
<path class="l5" d="M324.744 579.781L328.791 579.781L328.791 583.828L324.744 583.828L324.744 579.781z"/>
<path class="l5" d="M357.119 604.063L361.166 604.063L361.166 608.11L357.119 608.11L357.119 604.063z"/>
<path class="l5" d="M357.119 620.25L361.166 620.25L361.166 624.297L357.119 624.297L357.119 620.25z"/>
<path class="l5" d="M357.119 328.871L361.166 328.871L361.166 332.918L357.119 332.918L357.119 328.871z"/>
<path class="l5" d="M309.568 435.103L311.591 435.103L311.591 437.126L309.568 437.126L309.568 435.103z"/>
<path class="l5" d="M309.568 516.042L311.591 516.042L311.591 518.065L309.568 518.065L309.568 516.042z"/>
<path class="l5" d="M225.594 476.584L229.641 476.584"/>
<path class="l5" d="M225.594 476.584L222.559 472.537L215.476 472.537L218.512 476.584L215.476 480.631L222.559 480.631L225.594 476.584"/>
<path class="l5" d="M228.629 475.572L230.652 475.572L230.652 477.596L228.629 477.596L228.629 475.572z"/>
<path class="l5" d="M599.935 458.373L603.982 458.373L603.982 462.42L599.935 462.42L599.935 458.373z"/>
<path class="l5" d="M567.56 434.091L571.607 434.091L571.607 438.138L567.56 438.138L567.56 434.091z"/>
<path class="l5" d="M599.935 409.81L603.982 409.81L603.982 413.857L599.935 413.857L599.935 409.81z"/>
<path class="l5" d="M599.935 490.748L603.982 490.748L603.982 494.795L599.935 494.795L599.935 490.748z"/>
<path class="l5" d="M567.56 515.03L571.607 515.03L571.607 519.077L567.56 519.077L567.56 515.03z"/>
<path class="l5" d="M599.935 539.312L603.982 539.312L603.982 543.359L599.935 543.359L599.935 539.312z"/>
<path class="l5" d="M599.935 555.499L603.982 555.499L603.982 559.546L599.935 559.546L599.935 555.499z"/>
<path class="l5" d="M599.935 393.622L603.982 393.622L603.982 397.669L599.935 397.669L599.935 393.622z"/>
<path class="l5" d="M518.997 199.369L523.044 199.369L523.044 203.416L518.997 203.416L518.997 199.369z"/>
<path class="l5" d="M551.372 175.087L555.419 175.087L555.419 179.134L551.372 179.134L551.372 175.087z"/>
<path class="l5" d="M518.997 150.806L523.044 150.806L523.044 154.853L518.997 154.853L518.997 150.806z"/>
<path class="l5" d="M518.997 134.618L523.044 134.618L523.044 138.665L518.997 138.665L518.997 134.618z"/>
<path class="l5" d="M551.372 110.336L555.419 110.336L555.419 114.383L551.372 114.383L551.372 110.336z"/>
<path class="l5" d="M518.997 86.0548L523.044 86.0548L523.044 90.1017L518.997 90.1017L518.997 86.0548z"/>
<path class="l5" d="M518.997 231.744L523.044 231.744L523.044 235.791L518.997 235.791L518.997 231.744z"/>
<path class="l5" d="M551.372 256.026L555.419 256.026L555.419 260.073L551.372 260.073L551.372 256.026z"/>
<path class="l5" d="M518.997 280.308L523.044 280.308L523.044 284.355L518.997 284.355L518.997 280.308z"/>
<path class="l5" d="M518.997 296.495L523.044 296.495L523.044 300.542L518.997 300.542L518.997 296.495z"/>
<path class="l5" d="M551.372 320.777L555.419 320.777L555.419 324.824L551.372 324.824L551.372 320.777z"/>
<path class="l5" d="M518.997 345.059L523.044 345.059L523.044 349.106L518.997 349.106L518.997 345.059z"/>
<path class="l5" d="M518.997 69.867L523.044 69.867L523.044 73.914L518.997 73.914L518.997 69.867z"/>
<path class="l5" d="M518.997 361.246L523.044 361.246L523.044 365.293L518.997 365.293L518.997 361.246z"/>
<path class="l5" d="M568.572 257.038L570.595 257.038L570.595 259.061L568.572 259.061L568.572 257.038z"/>
<path class="l5" d="M568.572 176.099L570.595 176.099L570.595 178.123L568.572 178.123L568.572 176.099z"/>
<path class="l5" d="M842.751 458.373L846.798 458.373L846.798 462.42L842.751 462.42L842.751 458.373z"/>
<path class="l5" d="M810.376 434.091L814.423 434.091L814.423 438.138L810.376 438.138L810.376 434.091z"/>
<path class="l5" d="M842.751 409.81L846.798 409.81L846.798 413.857L842.751 413.857L842.751 409.81z"/>
<path class="l5" d="M842.751 393.622L846.798 393.622L846.798 397.669L842.751 397.669L842.751 393.622z"/>
<path class="l5" d="M810.376 369.34L814.423 369.34L814.423 373.387L810.376 373.387L810.376 369.34z"/>
<path class="l5" d="M842.751 345.059L846.798 345.059L846.798 349.106L842.751 349.106L842.751 345.059z"/>
<path class="l5" d="M842.751 490.748L846.798 490.748L846.798 494.795L842.751 494.795L842.751 490.748z"/>
<path class="l5" d="M810.376 515.03L814.423 515.03L814.423 519.077L810.376 519.077L810.376 515.03z"/>
<path class="l5" d="M842.751 539.312L846.798 539.312L846.798 543.359L842.751 543.359L842.751 539.312z"/>
<path class="l5" d="M842.751 555.499L846.798 555.499L846.798 559.546L842.751 559.546L842.751 555.499z"/>
<path class="l5" d="M810.376 579.781L814.423 579.781L814.423 583.828L810.376 583.828L810.376 579.781z"/>
<path class="l5" d="M842.751 604.063L846.798 604.063L846.798 608.11L842.751 608.11L842.751 604.063z"/>
<path class="l5" d="M842.751 328.871L846.798 328.871L846.798 332.918L842.751 332.918L842.751 328.871z"/>
<path class="l5" d="M842.751 620.25L846.798 620.25L846.798 624.297L842.751 624.297L842.751 620.25z"/>
<path class="l5" d="M795.2 516.042L797.223 516.042L797.223 518.065L795.2 518.065L795.2 516.042z"/>
<path class="l5" d="M795.2 435.103L797.223 435.103L797.223 437.126L795.2 437.126L795.2 435.103z"/>
<path class="l5" d="M1085.57 458.373L1089.61 458.373L1089.61 462.42L1085.57 462.42L1085.57 458.373z"/>
<path class="l5" d="M1053.19 434.091L1057.24 434.091L1057.24 438.138L1053.19 438.138L1053.19 434.091z"/>
<path class="l5" d="M1085.57 409.81L1089.61 409.81L1089.61 413.857L1085.57 413.857L1085.57 409.81z"/>
<path class="l5" d="M1085.57 490.748L1089.61 490.748L1089.61 494.795L1085.57 494.795L1085.57 490.748z"/>
<path class="l5" d="M1053.19 515.03L1057.24 515.03L1057.24 519.077L1053.19 519.077L1053.19 515.03z"/>
<path class="l5" d="M1085.57 539.312L1089.61 539.312L1089.61 543.359L1085.57 543.359L1085.57 539.312z"/>
<path class="l5" d="M1085.57 555.499L1089.61 555.499L1089.61 559.546L1085.57 559.546L1085.57 555.499z"/>
<path class="l5" d="M1085.57 393.622L1089.61 393.622L1089.61 397.669L1085.57 397.669L1085.57 393.622z"/>
<path class="l5" d="M1004.63 199.369L1008.68 199.369L1008.68 203.416L1004.63 203.416L1004.63 199.369z"/>
<path class="l5" d="M1037 175.087L1041.05 175.087L1041.05 179.134L1037 179.134L1037 175.087z"/>
<path class="l5" d="M1004.63 150.806L1008.68 150.806L1008.68 154.853L1004.63 154.853L1004.63 150.806z"/>
<path class="l5" d="M1004.63 134.618L1008.68 134.618L1008.68 138.665L1004.63 138.665L1004.63 134.618z"/>
<path class="l5" d="M1037 110.336L1041.05 110.336L1041.05 114.383L1037 114.383L1037 110.336z"/>
<path class="l5" d="M1004.63 86.0548L1008.68 86.0548L1008.68 90.1017L1004.63 90.1017L1004.63 86.0548z"/>
<path class="l5" d="M1004.63 231.744L1008.68 231.744L1008.68 235.791L1004.63 235.791L1004.63 231.744z"/>
<path class="l5" d="M1037 256.026L1041.05 256.026L1041.05 260.073L1037 260.073L1037 256.026z"/>
<path class="l5" d="M1004.63 280.308L1008.68 280.308L1008.68 284.355L1004.63 284.355L1004.63 280.308z"/>
<path class="l5" d="M1004.63 296.495L1008.68 296.495L1008.68 300.542L1004.63 300.542L1004.63 296.495z"/>
<path class="l5" d="M1037 320.777L1041.05 320.777L1041.05 324.824L1037 324.824L1037 320.777z"/>
<path class="l5" d="M1004.63 345.059L1008.68 345.059L1008.68 349.106L1004.63 349.106L1004.63 345.059z"/>
<path class="l5" d="M1004.63 361.246L1008.68 361.246L1008.68 365.293L1004.63 365.293L1004.63 361.246z"/>
<path class="l5" d="M1004.63 69.867L1008.68 69.867L1008.68 73.914L1004.63 73.914L1004.63 69.867z"/>
<path class="l5" d="M1054.2 176.099L1056.23 176.099L1056.23 178.123L1054.2 178.123L1054.2 176.099z"/>
<path class="l5" d="M1054.2 257.038L1056.23 257.038L1056.23 259.061L1054.2 259.061L1054.2 257.038z"/>
<path class="l5" d="M1233.28 476.584L1240.36 476.584"/>
<path class="l5" d="M1247.45 476.584L1244.41 472.537L1237.33 472.537L1240.36 476.584L1237.33 480.631L1244.41 480.631L1247.45 476.584"/>
<path class="l5" d="M1232.27 475.572L1234.29 475.572L1234.29 477.596L1232.27 477.596L1232.27 475.572z"/>
<path class="l1" d="M132.514 217.58L132.514 249.956"/>
<path class="l1" d="M83.951 193.299L100.139 193.299"/>
<path class="l1" d="M83.951 193.299L83.951 274.237"/>
<path class="l1" d="M83.951 274.237L100.139 274.237"/>
<path class="l1" d="M132.514 298.519L132.514 314.707"/>
<path class="l1" d="M132.514 152.829L132.514 169.017"/>
<path class="l1" d="M132.514 233.768L164.89 233.768"/>
<path class="l1" d="M51.5755 233.768L83.951 233.768"/>
<path class="l1" d="M59.6694 136.641L83.951 136.641"/>
<path class="l1" d="M359.143 460.396L359.143 492.772"/>
<path class="l1" d="M359.143 606.086L359.143 622.274"/>
<path class="l1" d="M359.143 330.894L359.143 347.082"/>
<path class="l1" d="M229.641 476.584L262.016 476.584"/>
<path class="l1" d="M310.579 436.115L326.767 436.115"/>
<path class="l1" d="M310.579 517.053L326.767 517.053"/>
<path class="l1" d="M553.396 436.115L553.396 476.584"/>
<path class="l1" d="M553.396 436.115L569.583 436.115"/>
<path class="l1" d="M553.396 476.584L553.396 517.053"/>
<path class="l1" d="M553.396 517.053L569.583 517.053"/>
<path class="l1" d="M601.959 460.396L601.959 492.772"/>
<path class="l1" d="M601.959 541.335L601.959 557.523"/>
<path class="l1" d="M601.959 395.645L601.959 411.833"/>
<path class="l1" d="M359.143 476.584L553.396 476.584"/>
<path class="l1" d="M521.02 71.8905L521.02 88.0782"/>
<path class="l1" d="M521.02 347.082L521.02 363.27"/>
<path class="l1" d="M553.396 258.05L569.583 258.05"/>
<path class="l1" d="M553.396 177.111L569.583 177.111"/>
<path class="l1" d="M521.02 201.392L521.02 233.768"/>
<path class="l1" d="M521.02 282.331L521.02 298.519"/>
<path class="l1" d="M521.02 136.641L521.02 152.829"/>
<path class="l1" d="M682.898 217.58L682.898 476.584"/>
<path class="l1" d="M601.959 476.584L682.898 476.584"/>
<path class="l1" d="M553.396 322.801L618.147 322.801"/>
<path class="l1" d="M618.147 112.36L618.147 322.801"/>
<path class="l1" d="M553.396 112.36L618.147 112.36"/>
<path class="l1" d="M618.147 217.58L682.898 217.58"/>
<path class="l1" d="M456.269 217.58L521.02 217.58"/>
<path class="l1" d="M456.269 217.58L456.269 476.584"/>
<path class="l1" d="M359.143 541.335L359.143 557.523"/>
<path class="l1" d="M359.143 395.645L359.143 411.833"/>
<path class="l1" d="M262.016 371.364L326.767 371.364"/>
<path class="l1" d="M262.016 371.364L262.016 476.584"/>
<path class="l1" d="M262.016 581.804L326.767 581.804"/>
<path class="l1" d="M262.016 476.584L262.016 581.804"/>
<path class="l1" d="M844.775 330.894L844.775 347.082"/>
<path class="l1" d="M844.775 606.086L844.775 622.274"/>
<path class="l1" d="M844.775 460.396L844.775 492.772"/>
<path class="l1" d="M844.775 541.335L844.775 557.523"/>
<path class="l1" d="M844.775 395.645L844.775 411.833"/>
<path class="l1" d="M796.212 517.053L812.399 517.053"/>
<path class="l1" d="M796.212 436.115L812.399 436.115"/>
<path class="l1" d="M747.649 371.364L812.399 371.364"/>
<path class="l1" d="M747.649 371.364L747.649 581.804"/>
<path class="l1" d="M747.649 581.804L812.399 581.804"/>
<path class="l1" d="M682.898 476.584L747.649 476.584"/>
<path class="l1" d="M844.775 476.584L1039.03 476.584"/>
<path class="l1" d="M1039.03 436.115L1039.03 476.584"/>
<path class="l1" d="M1039.03 436.115L1055.22 436.115"/>
<path class="l1" d="M1039.03 476.584L1039.03 517.053"/>
<path class="l1" d="M1039.03 517.053L1055.22 517.053"/>
<path class="l1" d="M1087.59 460.396L1087.59 492.772"/>
<path class="l1" d="M1087.59 541.335L1087.59 557.523"/>
<path class="l1" d="M1087.59 395.645L1087.59 411.833"/>
<path class="l1" d="M1006.65 201.392L1006.65 233.768"/>
<path class="l1" d="M1006.65 347.082L1006.65 363.27"/>
<path class="l1" d="M1006.65 71.8905L1006.65 88.0782"/>
<path class="l1" d="M1039.03 177.111L1055.22 177.111"/>
<path class="l1" d="M1039.03 258.05L1055.22 258.05"/>
<path class="l1" d="M1006.65 282.331L1006.65 298.519"/>
<path class="l1" d="M1006.65 136.641L1006.65 152.829"/>
<path class="l1" d="M1039.03 112.36L1103.78 112.36"/>
<path class="l1" d="M1103.78 112.36L1103.78 217.58"/>
<path class="l1" d="M1039.03 322.801L1103.78 322.801"/>
<path class="l1" d="M1103.78 217.58L1103.78 322.801"/>
<path class="l1" d="M941.901 217.58L1006.65 217.58"/>
<path class="l1" d="M941.901 217.58L941.901 476.584"/>
<path class="l1" d="M1168.53 217.58L1168.53 476.584"/>
<path class="l1" d="M1103.78 217.58L1168.53 217.58"/>
<path class="l1" d="M1087.59 476.584L1168.53 476.584"/>
<path class="l1" d="M1168.53 476.584L1233.28 476.584"/>
<circle class="l1" cx="262.016" cy="476.584" r="3.23755"/>
<circle class="l1" cx="83.951" cy="233.768" r="3.23755"/>
<circle class="l1" cx="132.514" cy="233.768" r="3.23755"/>
<circle class="l1" cx="262.016" cy="476.584" r="3.23755"/>
<circle class="l1" cx="262.016" cy="476.584" r="3.23755"/>
<circle class="l1" cx="456.269" cy="476.584" r="3.23755"/>
<circle class="l1" cx="521.02" cy="217.58" r="3.23755"/>
<circle class="l1" cx="618.147" cy="217.58" r="3.23755"/>
<circle class="l1" cx="553.396" cy="476.584" r="3.23755"/>
<circle class="l1" cx="601.959" cy="476.584" r="3.23755"/>
<circle class="l1" cx="682.898" cy="476.584" r="3.23755"/>
<circle class="l1" cx="359.143" cy="476.584" r="3.23755"/>
<circle class="l1" cx="553.396" cy="476.584" r="3.23755"/>
<circle class="l1" cx="553.396" cy="476.584" r="3.23755"/>
<circle class="l1" cx="941.901" cy="476.584" r="3.23755"/>
<circle class="l1" cx="1006.65" cy="217.58" r="3.23755"/>
<circle class="l1" cx="682.898" cy="476.584" r="3.23755"/>
<circle class="l1" cx="844.775" cy="476.584" r="3.23755"/>
<circle class="l1" cx="1039.03" cy="476.584" r="3.23755"/>
<circle class="l1" cx="682.898" cy="476.584" r="3.23755"/>
<circle class="l1" cx="747.649" cy="476.584" r="3.23755"/>
<circle class="l1" cx="1103.78" cy="217.58" r="3.23755"/>
<circle class="l1" cx="1103.78" cy="217.58" r="3.23755"/>
<circle class="l1" cx="1168.53" cy="476.584" r="3.23755"/>
<circle class="l1" cx="1103.78" cy="217.58" r="3.23755"/>
<circle class="l1" cx="1039.03" cy="476.584" r="3.23755"/>
<circle class="l1" cx="1168.53" cy="476.584" r="3.23755"/>
<circle class="l1" cx="1087.59" cy="476.584" r="3.23755"/>
<circle class="l1" cx="1168.53" cy="476.584" r="3.23755"/>
<circle class="l1" cx="1039.03" cy="476.584" r="3.23755"/>
</svg>
