<svg xmlns="http://www.w3.org/2000/svg" xmlns:xlink="http://www.w3.org/1999/xlink" width="1280" height="680" version="1.1">
<style type="text/css">
.l0{
 fill: #ffffff;
  stroke: #ffffff;
  stroke-linecap:round;
  stroke-linejoin:round;
  stroke-width: 0.874338;
  fill-opacity: 0;
  stroke-opacity: 0;
}
.l1{
 fill: #000000;
  stroke: #000000;
  stroke-linecap:round;
  stroke-linejoin:round;
  stroke-width: 0.874338;
}
.l2{
  fill: none;
  stroke: #000000;
  stroke-linecap:round;
  stroke-linejoin:round;
  stroke-width: 0.874338;
}
.l3{
 fill: #000000; fill-opacity: 0.5;
  stroke: #000000;
  stroke-linecap:round;
  stroke-linejoin:round;
  stroke-width: 0.874338;
}
.l4{
 fill: #000000;
  stroke: #000000;
  stroke-linecap:round;
  stroke-linejoin:round;
  stroke-width: 0.874338;
}
.l5{
 fill: #000000;
  stroke: #000000;
  stroke-linecap:round;
  stroke-linejoin:round;
  stroke-width: 0.874338;
}
.l6{
 fill: #000000; fill-opacity: 0.5;
  stroke: #000000;
  stroke-linecap:round;
  stroke-linejoin:round;
  stroke-width: 0.874338;
}
.l7{
 fill: #000000; fill-opacity: 0.5;
  stroke: #000000;
  stroke-linecap:round;
  stroke-linejoin:round;
  stroke-width: 0.874338;
}
.l8{
 fill: #000000; fill-opacity: 0.5;
  stroke: #000000;
  stroke-linecap:round;
  stroke-linejoin:round;
  stroke-width: 0.874338;
}
.l9{
 fill: #000000; fill-opacity: 0.5;
  stroke: #000000;
  stroke-linecap:round;
  stroke-linejoin:round;
  stroke-width: 0.874338;
}
.l10{
 fill: #000000;
  stroke: #000000;
  stroke-linecap:round;
  stroke-linejoin:round;
  stroke-width: 0.874338;
}
.l11{
 fill: #000000; fill-opacity: 0.5;
  stroke: #000000;
  stroke-linecap:round;
  stroke-linejoin:round;
  stroke-width: 0.874338;
}
.l12{
 fill: #000000; fill-opacity: 0.5;
  stroke: #000000;
  stroke-linecap:round;
  stroke-linejoin:round;
  stroke-width: 0.874338;
}
.l13{
 fill: #000000; fill-opacity: 0.5;
  stroke: #000000;
  stroke-linecap:round;
  stroke-linejoin:round;
  stroke-width: 0.874338;
}
.l14{
  fill: none;
  stroke: #000000;
  stroke-linecap:round;
  stroke-linejoin:round;
  stroke-width: 0.874338;
}
.l15{
 fill: #000000; fill-opacity: 0.5;
  stroke: #000000;
  stroke-linecap:round;
  stroke-linejoin:round;
  stroke-width: 0.874338;
}
.l16{
 fill: #000000; fill-opacity: 0.5;
  stroke: #000000;
  stroke-linecap:round;
  stroke-linejoin:round;
  stroke-width: 0.874338;
}
.l17{
  fill: none;
  stroke: #000000;
  stroke-linecap:round;
  stroke-linejoin:round;
  stroke-width: 0.874338;
}
.l18{
 fill: #000000; fill-opacity: 0.5;
  stroke: #000000;
  stroke-linecap:round;
  stroke-linejoin:round;
  stroke-width: 0.874338;
}
.l19{
  fill: none;
  stroke: #000000;
  stroke-linecap:round;
  stroke-linejoin:round;
  stroke-width: 0.874338;
}
.l20{
  fill: none;
  stroke: #000000;
  stroke-linecap:round;
  stroke-linejoin:round;
  stroke-width: 0.874338;
}
.l21{
  fill: none;
  stroke: #000000;
  stroke-linecap:round;
  stroke-linejoin:round;
  stroke-width: 0.874338;
}
text {font-family: Sans-Serif;}
</style>
<rect class="l0" x="0" y="0" width="1280" height="680"/>
<text fill="#000000"  xml:space="preserve" font-size="13.8923" transform="translate(24.4991, 142.125)" >clk</text>
<text fill="#000000"  xml:space="preserve" font-size="13.8923" transform="translate(170.995, 239.78)" >clk_b</text>
<text fill="#000000"  xml:space="preserve" font-size="13.8923" transform="translate(90.0375, 142.631)" >clk</text>
<text fill="#000000"  xml:space="preserve" font-size="13.8923" transform="translate(25.5111, 239.78)" >clk</text>
<text fill="#000000"  xml:space="preserve" font-size="8.41955" transform="translate(122.42, 132.096)" >VDD</text>
<text fill="#000000"  xml:space="preserve" font-size="8.41955" transform="translate(138.612, 326.394)" >GND</text>
<text fill="#000000"  xml:space="preserve" font-size="8.41955" transform="translate(365.292, 634.031)" >GND</text>
<text fill="#000000"  xml:space="preserve" font-size="8.41955" transform="translate(349.101, 310.202)" >VDD</text>
<text fill="#000000"  xml:space="preserve" font-size="13.8923" transform="translate(284.574, 442.173)" >clk</text>
<text fill="#000000"  xml:space="preserve" font-size="13.8923" transform="translate(268.574, 523.13)" >clk_b</text>
<text fill="#000000"  xml:space="preserve" font-size="13.8923" transform="translate(203.509, 482.146)" >D</text>
<text fill="#000000"  xml:space="preserve" font-size="8.41955" transform="translate(608.164, 569.265)" >GND</text>
<text fill="#000000"  xml:space="preserve" font-size="8.41955" transform="translate(591.972, 374.968)" >VDD</text>
<text fill="#000000"  xml:space="preserve" font-size="8.41955" transform="translate(511.015, 51.1392)" >VDD</text>
<text fill="#000000"  xml:space="preserve" font-size="8.41955" transform="translate(527.206, 374.968)" >GND</text>
<text fill="#000000"  xml:space="preserve" font-size="13.8923" transform="translate(575.781, 261.288)" >clk</text>
<text fill="#000000"  xml:space="preserve" font-size="13.8923" transform="translate(575.781, 180.331)" >clk_b</text>
<text fill="#000000"  xml:space="preserve" font-size="8.41955" transform="translate(837.083, 310.202)" >VDD</text>
<text fill="#000000"  xml:space="preserve" font-size="8.41955" transform="translate(819.892, 634.031)" >GND</text>
<text fill="#000000"  xml:space="preserve" font-size="13.8923" transform="translate(770.317, 520.351)" >clk</text>
<text fill="#000000"  xml:space="preserve" font-size="13.8923" transform="translate(754.317, 439.394)" >clk_b</text>
<text fill="#000000"  xml:space="preserve" font-size="8.41955" transform="translate(1093.91, 569.265)" >GND</text>
<text fill="#000000"  xml:space="preserve" font-size="8.41955" transform="translate(1077.72, 374.968)" >VDD</text>
<text fill="#000000"  xml:space="preserve" font-size="8.41955" transform="translate(981.806, 374.968)" >GND</text>
<text fill="#000000"  xml:space="preserve" font-size="8.41955" transform="translate(998.997, 51.1392)" >VDD</text>
<text fill="#000000"  xml:space="preserve" font-size="13.8923" transform="translate(1061.52, 183.11)" >clk</text>
<text fill="#000000"  xml:space="preserve" font-size="13.8923" transform="translate(1061.52, 264.067)" >clk_b</text>
<text fill="#000000"  xml:space="preserve" font-size="13.8923" transform="translate(1249.75, 482.146)" >Q</text>
<text fill="#000000"  xml:space="preserve" font-size="8.41955" transform="translate(108.396, 257.58)" >M1</text>
<text fill="#000000"  xml:space="preserve" font-size="6.31466" transform="translate(134.564, 294.124)" >S</text>
<text fill="#000000"  xml:space="preserve" font-size="6.31466" transform="translate(134.564, 258.546)" >D</text>
<text fill="#000000"  xml:space="preserve" font-size="6.31466" transform="translate(103.253, 271.86)" >G</text>
<text fill="#000000"  xml:space="preserve" font-size="8.41955" transform="translate(140.636, 265.126)" >nfet_01v8</text>
<text fill="#000000"  xml:space="preserve" font-size="8.41955" transform="translate(141.648, 292.999)" >1 x 0.84 / 0.15</text>
<text fill="#000000"  xml:space="preserve" font-size="8.41955" transform="translate(141.648, 282.879)" >nf=1</text>
<text fill="#000000"  xml:space="preserve" font-size="8.41955" transform="translate(108.396, 176.623)" >M2</text>
<text fill="#000000"  xml:space="preserve" font-size="6.31466" transform="translate(134.564, 213.166)" >D</text>
<text fill="#000000"  xml:space="preserve" font-size="6.31466" transform="translate(134.564, 177.588)" >S</text>
<text fill="#000000"  xml:space="preserve" font-size="6.31466" transform="translate(103.253, 190.903)" >G</text>
<text fill="#000000"  xml:space="preserve" font-size="8.41955" transform="translate(140.636, 184.169)" >pfet_01v8</text>
<text fill="#000000"  xml:space="preserve" font-size="8.41955" transform="translate(141.648, 212.042)" >1 x 1.68 / 0.15</text>
<text fill="#000000"  xml:space="preserve" font-size="8.41955" transform="translate(141.648, 201.922)" >nf=1</text>
<text fill="#000000"  xml:space="preserve" font-size="8.41955" transform="translate(335.077, 419.494)" >M3</text>
<text fill="#000000"  xml:space="preserve" font-size="6.31466" transform="translate(361.244, 456.038)" >D</text>
<text fill="#000000"  xml:space="preserve" font-size="6.31466" transform="translate(361.244, 420.46)" >S</text>
<text fill="#000000"  xml:space="preserve" font-size="6.31466" transform="translate(329.933, 433.775)" >G</text>
<text fill="#000000"  xml:space="preserve" font-size="8.41955" transform="translate(367.316, 427.041)" >pfet_01v8</text>
<text fill="#000000"  xml:space="preserve" font-size="8.41955" transform="translate(368.328, 454.913)" >1 x 0.42 / 0.15</text>
<text fill="#000000"  xml:space="preserve" font-size="8.41955" transform="translate(368.328, 444.794)" >nf=1</text>
<text fill="#000000"  xml:space="preserve" font-size="8.41955" transform="translate(335.077, 354.729)" >M4</text>
<text fill="#000000"  xml:space="preserve" font-size="6.31466" transform="translate(361.244, 391.272)" >D</text>
<text fill="#000000"  xml:space="preserve" font-size="6.31466" transform="translate(361.244, 355.694)" >S</text>
<text fill="#000000"  xml:space="preserve" font-size="6.31466" transform="translate(329.933, 369.009)" >G</text>
<text fill="#000000"  xml:space="preserve" font-size="8.41955" transform="translate(367.316, 362.275)" >pfet_01v8</text>
<text fill="#000000"  xml:space="preserve" font-size="8.41955" transform="translate(368.328, 390.147)" >1 x 0.42 / 0.15</text>
<text fill="#000000"  xml:space="preserve" font-size="8.41955" transform="translate(368.328, 380.028)" >nf=1</text>
<text fill="#000000"  xml:space="preserve" font-size="8.41955" transform="translate(335.077, 500.452)" >M5</text>
<text fill="#000000"  xml:space="preserve" font-size="6.31466" transform="translate(361.244, 536.995)" >S</text>
<text fill="#000000"  xml:space="preserve" font-size="6.31466" transform="translate(361.244, 501.417)" >D</text>
<text fill="#000000"  xml:space="preserve" font-size="6.31466" transform="translate(329.933, 514.732)" >G</text>
<text fill="#000000"  xml:space="preserve" font-size="8.41955" transform="translate(367.316, 507.998)" >nfet_01v8</text>
<text fill="#000000"  xml:space="preserve" font-size="8.41955" transform="translate(368.328, 535.87)" >1 x 0.42 / 0.15</text>
<text fill="#000000"  xml:space="preserve" font-size="8.41955" transform="translate(368.328, 525.751)" >nf=1</text>
<text fill="#000000"  xml:space="preserve" font-size="8.41955" transform="translate(335.077, 565.217)" >M6</text>
<text fill="#000000"  xml:space="preserve" font-size="6.31466" transform="translate(361.244, 601.761)" >S</text>
<text fill="#000000"  xml:space="preserve" font-size="6.31466" transform="translate(361.244, 566.183)" >D</text>
<text fill="#000000"  xml:space="preserve" font-size="6.31466" transform="translate(329.933, 579.498)" >G</text>
<text fill="#000000"  xml:space="preserve" font-size="8.41955" transform="translate(367.316, 572.764)" >nfet_01v8</text>
<text fill="#000000"  xml:space="preserve" font-size="8.41955" transform="translate(368.328, 600.636)" >1 x 0.42 / 0.15</text>
<text fill="#000000"  xml:space="preserve" font-size="8.41955" transform="translate(368.328, 590.517)" >nf=1</text>
<text fill="#000000"  xml:space="preserve" font-size="8.41955" transform="translate(577.948, 419.494)" >M7</text>
<text fill="#000000"  xml:space="preserve" font-size="6.31466" transform="translate(604.116, 456.038)" >D</text>
<text fill="#000000"  xml:space="preserve" font-size="6.31466" transform="translate(604.116, 420.46)" >S</text>
<text fill="#000000"  xml:space="preserve" font-size="6.31466" transform="translate(572.805, 433.775)" >G</text>
<text fill="#000000"  xml:space="preserve" font-size="8.41955" transform="translate(610.187, 427.041)" >pfet_01v8</text>
<text fill="#000000"  xml:space="preserve" font-size="8.41955" transform="translate(611.199, 454.913)" >1 x 0.42 / 0.15</text>
<text fill="#000000"  xml:space="preserve" font-size="8.41955" transform="translate(611.199, 444.794)" >nf=1</text>
<text fill="#000000"  xml:space="preserve" font-size="8.41955" transform="translate(577.948, 500.452)" >M8</text>
<text fill="#000000"  xml:space="preserve" font-size="6.31466" transform="translate(604.116, 536.995)" >S</text>
<text fill="#000000"  xml:space="preserve" font-size="6.31466" transform="translate(604.116, 501.417)" >D</text>
<text fill="#000000"  xml:space="preserve" font-size="6.31466" transform="translate(572.805, 514.732)" >G</text>
<text fill="#000000"  xml:space="preserve" font-size="8.41955" transform="translate(610.187, 507.998)" >nfet_01v8</text>
<text fill="#000000"  xml:space="preserve" font-size="8.41955" transform="translate(611.199, 535.87)" >1 x 0.42 / 0.15</text>
<text fill="#000000"  xml:space="preserve" font-size="8.41955" transform="translate(611.199, 525.751)" >nf=1</text>
<text fill="#000000"  xml:space="preserve" font-size="8.41955" transform="translate(533.278, 160.431)" >M9</text>
<text fill="#000000"  xml:space="preserve" font-size="6.31466" transform="translate(514.111, 196.975)" >D</text>
<text fill="#000000"  xml:space="preserve" font-size="6.31466" transform="translate(515.111, 161.397)" >S</text>
<text fill="#000000"  xml:space="preserve" font-size="6.31466" transform="translate(545.422, 174.712)" >G</text>
<text fill="#000000"  xml:space="preserve" font-size="8.41955" transform="translate(473.039, 167.978)" >pfet_01v8</text>
<text fill="#000000"  xml:space="preserve" font-size="8.41955" transform="translate(451.027, 195.85)" >1 x 0.42 / 0.15</text>
<text fill="#000000"  xml:space="preserve" font-size="8.41955" transform="translate(492.027, 185.731)" >nf=1</text>
<text fill="#000000"  xml:space="preserve" font-size="8.41955" transform="translate(533.278, 95.6657)" >M10</text>
<text fill="#000000"  xml:space="preserve" font-size="6.31466" transform="translate(514.111, 132.209)" >D</text>
<text fill="#000000"  xml:space="preserve" font-size="6.31466" transform="translate(515.111, 96.6312)" >S</text>
<text fill="#000000"  xml:space="preserve" font-size="6.31466" transform="translate(545.422, 109.946)" >G</text>
<text fill="#000000"  xml:space="preserve" font-size="8.41955" transform="translate(473.039, 103.212)" >pfet_01v8</text>
<text fill="#000000"  xml:space="preserve" font-size="8.41955" transform="translate(451.027, 131.084)" >1 x 0.42 / 0.15</text>
<text fill="#000000"  xml:space="preserve" font-size="8.41955" transform="translate(492.027, 120.965)" >nf=1</text>
<text fill="#000000"  xml:space="preserve" font-size="8.41955" transform="translate(533.278, 241.389)" >M11</text>
<text fill="#000000"  xml:space="preserve" font-size="6.31466" transform="translate(515.111, 277.932)" >S</text>
<text fill="#000000"  xml:space="preserve" font-size="6.31466" transform="translate(514.111, 242.354)" >D</text>
<text fill="#000000"  xml:space="preserve" font-size="6.31466" transform="translate(545.422, 255.669)" >G</text>
<text fill="#000000"  xml:space="preserve" font-size="8.41955" transform="translate(473.039, 248.935)" >nfet_01v8</text>
<text fill="#000000"  xml:space="preserve" font-size="8.41955" transform="translate(451.027, 276.807)" >1 x 0.42 / 0.15</text>
<text fill="#000000"  xml:space="preserve" font-size="8.41955" transform="translate(492.027, 266.688)" >nf=1</text>
<text fill="#000000"  xml:space="preserve" font-size="8.41955" transform="translate(533.278, 306.154)" >M12</text>
<text fill="#000000"  xml:space="preserve" font-size="6.31466" transform="translate(515.111, 342.698)" >S</text>
<text fill="#000000"  xml:space="preserve" font-size="6.31466" transform="translate(514.111, 307.12)" >D</text>
<text fill="#000000"  xml:space="preserve" font-size="6.31466" transform="translate(545.422, 320.435)" >G</text>
<text fill="#000000"  xml:space="preserve" font-size="8.41955" transform="translate(473.039, 313.701)" >nfet_01v8</text>
<text fill="#000000"  xml:space="preserve" font-size="8.41955" transform="translate(451.027, 341.573)" >1 x 0.42 / 0.15</text>
<text fill="#000000"  xml:space="preserve" font-size="8.41955" transform="translate(492.027, 331.454)" >nf=1</text>
<text fill="#000000"  xml:space="preserve" font-size="8.41955" transform="translate(815.82, 419.494)" >M13</text>
<text fill="#000000"  xml:space="preserve" font-size="6.31466" transform="translate(846.987, 456.038)" >D</text>
<text fill="#000000"  xml:space="preserve" font-size="6.31466" transform="translate(846.987, 420.46)" >S</text>
<text fill="#000000"  xml:space="preserve" font-size="6.31466" transform="translate(815.676, 433.775)" >G</text>
<text fill="#000000"  xml:space="preserve" font-size="8.41955" transform="translate(853.059, 427.041)" >pfet_01v8</text>
<text fill="#000000"  xml:space="preserve" font-size="8.41955" transform="translate(854.071, 454.913)" >1 x 0.42 / 0.15</text>
<text fill="#000000"  xml:space="preserve" font-size="8.41955" transform="translate(854.071, 444.794)" >nf=1</text>
<text fill="#000000"  xml:space="preserve" font-size="8.41955" transform="translate(815.82, 354.729)" >M14</text>
<text fill="#000000"  xml:space="preserve" font-size="6.31466" transform="translate(846.987, 391.272)" >D</text>
<text fill="#000000"  xml:space="preserve" font-size="6.31466" transform="translate(846.987, 355.694)" >S</text>
<text fill="#000000"  xml:space="preserve" font-size="6.31466" transform="translate(815.676, 369.009)" >G</text>
<text fill="#000000"  xml:space="preserve" font-size="8.41955" transform="translate(853.059, 362.275)" >pfet_01v8</text>
<text fill="#000000"  xml:space="preserve" font-size="8.41955" transform="translate(854.071, 390.147)" >1 x 0.42 / 0.15</text>
<text fill="#000000"  xml:space="preserve" font-size="8.41955" transform="translate(854.071, 380.028)" >nf=1</text>
<text fill="#000000"  xml:space="preserve" font-size="8.41955" transform="translate(815.82, 500.452)" >M15</text>
<text fill="#000000"  xml:space="preserve" font-size="6.31466" transform="translate(846.987, 536.995)" >S</text>
<text fill="#000000"  xml:space="preserve" font-size="6.31466" transform="translate(846.987, 501.417)" >D</text>
<text fill="#000000"  xml:space="preserve" font-size="6.31466" transform="translate(815.676, 514.732)" >G</text>
<text fill="#000000"  xml:space="preserve" font-size="8.41955" transform="translate(853.059, 507.998)" >nfet_01v8</text>
<text fill="#000000"  xml:space="preserve" font-size="8.41955" transform="translate(854.071, 535.87)" >1 x 0.42 / 0.15</text>
<text fill="#000000"  xml:space="preserve" font-size="8.41955" transform="translate(854.071, 525.751)" >nf=1</text>
<text fill="#000000"  xml:space="preserve" font-size="8.41955" transform="translate(815.82, 565.217)" >M16</text>
<text fill="#000000"  xml:space="preserve" font-size="6.31466" transform="translate(846.987, 601.761)" >S</text>
<text fill="#000000"  xml:space="preserve" font-size="6.31466" transform="translate(846.987, 566.183)" >D</text>
<text fill="#000000"  xml:space="preserve" font-size="6.31466" transform="translate(815.676, 579.498)" >G</text>
<text fill="#000000"  xml:space="preserve" font-size="8.41955" transform="translate(853.059, 572.764)" >nfet_01v8</text>
<text fill="#000000"  xml:space="preserve" font-size="8.41955" transform="translate(854.071, 600.636)" >1 x 0.42 / 0.15</text>
<text fill="#000000"  xml:space="preserve" font-size="8.41955" transform="translate(854.071, 590.517)" >nf=1</text>
<text fill="#000000"  xml:space="preserve" font-size="8.41955" transform="translate(1058.69, 419.494)" >M17</text>
<text fill="#000000"  xml:space="preserve" font-size="6.31466" transform="translate(1089.86, 456.038)" >D</text>
<text fill="#000000"  xml:space="preserve" font-size="6.31466" transform="translate(1089.86, 420.46)" >S</text>
<text fill="#000000"  xml:space="preserve" font-size="6.31466" transform="translate(1058.55, 433.775)" >G</text>
<text fill="#000000"  xml:space="preserve" font-size="8.41955" transform="translate(1095.93, 427.041)" >pfet_01v8</text>
<text fill="#000000"  xml:space="preserve" font-size="8.41955" transform="translate(1096.94, 454.913)" >1 x 0.84 / 0.15</text>
<text fill="#000000"  xml:space="preserve" font-size="8.41955" transform="translate(1096.94, 444.794)" >nf=1</text>
<text fill="#000000"  xml:space="preserve" font-size="8.41955" transform="translate(1058.69, 500.452)" >M18</text>
<text fill="#000000"  xml:space="preserve" font-size="6.31466" transform="translate(1089.86, 536.995)" >S</text>
<text fill="#000000"  xml:space="preserve" font-size="6.31466" transform="translate(1089.86, 501.417)" >D</text>
<text fill="#000000"  xml:space="preserve" font-size="6.31466" transform="translate(1058.55, 514.732)" >G</text>
<text fill="#000000"  xml:space="preserve" font-size="8.41955" transform="translate(1095.93, 507.998)" >nfet_01v8</text>
<text fill="#000000"  xml:space="preserve" font-size="8.41955" transform="translate(1096.94, 535.87)" >1 x 0.42 / 0.15</text>
<text fill="#000000"  xml:space="preserve" font-size="8.41955" transform="translate(1096.94, 525.751)" >nf=1</text>
<text fill="#000000"  xml:space="preserve" font-size="8.41955" transform="translate(1019.02, 160.431)" >M19</text>
<text fill="#000000"  xml:space="preserve" font-size="6.31466" transform="translate(999.854, 196.975)" >D</text>
<text fill="#000000"  xml:space="preserve" font-size="6.31466" transform="translate(1000.85, 161.397)" >S</text>
<text fill="#000000"  xml:space="preserve" font-size="6.31466" transform="translate(1031.16, 174.712)" >G</text>
<text fill="#000000"  xml:space="preserve" font-size="8.41955" transform="translate(958.782, 167.978)" >pfet_01v8</text>
<text fill="#000000"  xml:space="preserve" font-size="8.41955" transform="translate(936.77, 195.85)" >1 x 0.42 / 0.15</text>
<text fill="#000000"  xml:space="preserve" font-size="8.41955" transform="translate(977.77, 185.731)" >nf=1</text>
<text fill="#000000"  xml:space="preserve" font-size="8.41955" transform="translate(1019.02, 95.6657)" >M20</text>
<text fill="#000000"  xml:space="preserve" font-size="6.31466" transform="translate(999.854, 132.209)" >D</text>
<text fill="#000000"  xml:space="preserve" font-size="6.31466" transform="translate(1000.85, 96.6312)" >S</text>
<text fill="#000000"  xml:space="preserve" font-size="6.31466" transform="translate(1031.16, 109.946)" >G</text>
<text fill="#000000"  xml:space="preserve" font-size="8.41955" transform="translate(958.782, 103.212)" >pfet_01v8</text>
<text fill="#000000"  xml:space="preserve" font-size="8.41955" transform="translate(936.77, 131.084)" >1 x 0.42 / 0.15</text>
<text fill="#000000"  xml:space="preserve" font-size="8.41955" transform="translate(977.77, 120.965)" >nf=1</text>
<text fill="#000000"  xml:space="preserve" font-size="8.41955" transform="translate(1019.02, 241.389)" >M21</text>
<text fill="#000000"  xml:space="preserve" font-size="6.31466" transform="translate(1000.85, 277.932)" >S</text>
<text fill="#000000"  xml:space="preserve" font-size="6.31466" transform="translate(999.854, 242.354)" >D</text>
<text fill="#000000"  xml:space="preserve" font-size="6.31466" transform="translate(1031.16, 255.669)" >G</text>
<text fill="#000000"  xml:space="preserve" font-size="8.41955" transform="translate(958.782, 248.935)" >nfet_01v8</text>
<text fill="#000000"  xml:space="preserve" font-size="8.41955" transform="translate(936.77, 276.807)" >1 x 0.42 / 0.15</text>
<text fill="#000000"  xml:space="preserve" font-size="8.41955" transform="translate(977.77, 266.688)" >nf=1</text>
<text fill="#000000"  xml:space="preserve" font-size="8.41955" transform="translate(1019.02, 306.154)" >M22</text>
<text fill="#000000"  xml:space="preserve" font-size="6.31466" transform="translate(1000.85, 342.698)" >S</text>
<text fill="#000000"  xml:space="preserve" font-size="6.31466" transform="translate(999.854, 307.12)" >D</text>
<text fill="#000000"  xml:space="preserve" font-size="6.31466" transform="translate(1031.16, 320.435)" >G</text>
<text fill="#000000"  xml:space="preserve" font-size="8.41955" transform="translate(958.782, 313.701)" >nfet_01v8</text>
<text fill="#000000"  xml:space="preserve" font-size="8.41955" transform="translate(936.77, 341.573)" >1 x 0.42 / 0.15</text>
<text fill="#000000"  xml:space="preserve" font-size="8.41955" transform="translate(977.77, 331.454)" >nf=1</text>
<path class="l4" d="M19.2 347.084L221.593 347.084"/>
<path class="l4" d="M221.593 104.212L221.593 347.084"/>
<path class="l4" d="M19.2 104.212L221.593 104.212"/>
<path class="l4" d="M19.2 104.212L19.2 347.084"/>
<path class="l4" d="M122.42 256.007L122.42 292.438"/>
<path class="l4" d="M100.157 274.222L118.373 274.222"/>
<path class="l4" d="M132.54 249.935L132.54 260.055"/>
<path class="l4" d="M132.54 288.39L132.54 298.509"/>
<path class="l4" d="M118.373 262.079L118.373 286.366"/>
<path class="l4" d="M122.42 260.055L132.54 260.055"/>
<path class="l4" d="M122.42 288.39L128.492 288.39"/>
<path class="l4" d="M128.492 286.366L132.54 288.39L128.492 290.414L128.492 286.366"/>
<path class="l4" d="M122.42 175.05L122.42 211.48"/>
<path class="l4" d="M132.54 168.978L132.54 179.098"/>
<path class="l4" d="M132.54 207.433L132.54 217.552"/>
<path class="l4" d="M118.373 181.122L118.373 205.409"/>
<path class="l4" d="M122.42 207.433L132.54 207.433"/>
<path class="l4" d="M126.468 179.098L132.54 179.098"/>
<path class="l4" d="M100.157 193.265L110.277 193.265"/>
<path class="l4" d="M126.468 177.074L122.42 179.098L126.468 181.122L126.468 177.074"/>
<circle class="l4" cx="114.325" cy="193.265" r="4.04786" style="fill:none;"/>
<path class="l4" d="M132.54 136.595L132.54 152.786"/>
<path class="l4" d="M124.444 136.595L140.636 136.595"/>
<path class="l4" d="M132.54 314.701L132.54 324.821"/>
<path class="l4" d="M128.492 324.821L136.588 324.821"/>
<path class="l4" d="M132.54 328.868L136.588 324.821"/>
<path class="l4" d="M128.492 324.821L132.54 328.868"/>
<path class="l4" d="M349.101 417.921L349.101 454.352"/>
<path class="l4" d="M359.22 411.85L359.22 421.969"/>
<path class="l4" d="M359.22 450.304L359.22 460.424"/>
<path class="l4" d="M345.053 423.993L345.053 448.28"/>
<path class="l4" d="M349.101 450.304L359.22 450.304"/>
<path class="l4" d="M353.148 421.969L359.22 421.969"/>
<path class="l4" d="M326.837 436.137L336.957 436.137"/>
<path class="l4" d="M353.148 419.945L349.101 421.969L353.148 423.993L353.148 419.945"/>
<circle class="l4" cx="341.005" cy="436.137" r="4.04786" style="fill:none;"/>
<path class="l4" d="M349.101 353.156L349.101 389.586"/>
<path class="l4" d="M359.22 347.084L359.22 357.203"/>
<path class="l4" d="M359.22 385.538L359.22 395.658"/>
<path class="l4" d="M345.053 359.227L345.053 383.514"/>
<path class="l4" d="M349.101 385.538L359.22 385.538"/>
<path class="l4" d="M353.148 357.203L359.22 357.203"/>
<path class="l4" d="M326.837 371.371L336.957 371.371"/>
<path class="l4" d="M353.148 355.179L349.101 357.203L353.148 359.227L353.148 355.179"/>
<circle class="l4" cx="341.005" cy="371.371" r="4.04786" style="fill:none;"/>
<path class="l4" d="M349.101 498.878L349.101 535.309"/>
<path class="l4" d="M326.837 517.094L345.053 517.094"/>
<path class="l4" d="M359.22 492.807L359.22 502.926"/>
<path class="l4" d="M359.22 531.261L359.22 541.381"/>
<path class="l4" d="M345.053 504.95L345.053 529.237"/>
<path class="l4" d="M349.101 502.926L359.22 502.926"/>
<path class="l4" d="M349.101 531.261L355.172 531.261"/>
<path class="l4" d="M355.172 529.237L359.22 531.261L355.172 533.285L355.172 529.237"/>
<path class="l4" d="M349.101 563.644L349.101 600.075"/>
<path class="l4" d="M326.837 581.86L345.053 581.86"/>
<path class="l4" d="M359.22 557.572L359.22 567.692"/>
<path class="l4" d="M359.22 596.027L359.22 606.147"/>
<path class="l4" d="M345.053 569.716L345.053 594.003"/>
<path class="l4" d="M349.101 567.692L359.22 567.692"/>
<path class="l4" d="M349.101 596.027L355.172 596.027"/>
<path class="l4" d="M355.172 594.003L359.22 596.027L355.172 598.051L355.172 594.003"/>
<path class="l4" d="M359.22 622.338L359.22 632.458"/>
<path class="l4" d="M355.172 632.458L363.268 632.458"/>
<path class="l4" d="M359.22 636.506L363.268 632.458"/>
<path class="l4" d="M355.172 632.458L359.22 636.506"/>
<path class="l4" d="M359.22 314.701L359.22 330.892"/>
<path class="l4" d="M351.124 314.701L367.316 314.701"/>
<path class="l4" d="M591.972 417.921L591.972 454.352"/>
<path class="l4" d="M602.092 411.85L602.092 421.969"/>
<path class="l4" d="M602.092 450.304L602.092 460.424"/>
<path class="l4" d="M587.924 423.993L587.924 448.28"/>
<path class="l4" d="M591.972 450.304L602.092 450.304"/>
<path class="l4" d="M596.02 421.969L602.092 421.969"/>
<path class="l4" d="M569.709 436.137L579.829 436.137"/>
<path class="l4" d="M596.02 419.945L591.972 421.969L596.02 423.993L596.02 419.945"/>
<circle class="l4" cx="583.876" cy="436.137" r="4.04786" style="fill:none;"/>
<path class="l4" d="M591.972 498.878L591.972 535.309"/>
<path class="l4" d="M569.709 517.094L587.924 517.094"/>
<path class="l4" d="M602.092 492.807L602.092 502.926"/>
<path class="l4" d="M602.092 531.261L602.092 541.381"/>
<path class="l4" d="M587.924 504.95L587.924 529.237"/>
<path class="l4" d="M591.972 502.926L602.092 502.926"/>
<path class="l4" d="M591.972 531.261L598.044 531.261"/>
<path class="l4" d="M598.044 529.237L602.092 531.261L598.044 533.285L598.044 529.237"/>
<path class="l4" d="M602.092 557.572L602.092 567.692"/>
<path class="l4" d="M598.044 567.692L606.14 567.692"/>
<path class="l4" d="M602.092 571.74L606.14 567.692"/>
<path class="l4" d="M598.044 567.692L602.092 571.74"/>
<path class="l4" d="M602.092 379.467L602.092 395.658"/>
<path class="l4" d="M593.996 379.467L610.187 379.467"/>
<path class="l4" d="M531.254 158.858L531.254 195.289"/>
<path class="l4" d="M521.135 152.786L521.135 162.906"/>
<path class="l4" d="M521.135 191.241L521.135 201.361"/>
<path class="l4" d="M535.302 164.93L535.302 189.217"/>
<path class="l4" d="M521.135 191.241L531.254 191.241"/>
<path class="l4" d="M521.135 162.906L527.206 162.906"/>
<path class="l4" d="M543.398 177.074L553.517 177.074"/>
<path class="l4" d="M527.206 160.882L531.254 162.906L527.206 164.93L527.206 160.882"/>
<circle class="l4" cx="539.35" cy="177.074" r="4.04786" style="fill:none;"/>
<path class="l4" d="M531.254 94.0925L531.254 130.523"/>
<path class="l4" d="M521.135 88.0207L521.135 98.1404"/>
<path class="l4" d="M521.135 126.475L521.135 136.595"/>
<path class="l4" d="M535.302 100.164L535.302 124.451"/>
<path class="l4" d="M521.135 126.475L531.254 126.475"/>
<path class="l4" d="M521.135 98.1404L527.206 98.1404"/>
<path class="l4" d="M543.398 112.308L553.517 112.308"/>
<path class="l4" d="M527.206 96.1165L531.254 98.1404L527.206 100.164L527.206 96.1165"/>
<circle class="l4" cx="539.35" cy="112.308" r="4.04786" style="fill:none;"/>
<path class="l4" d="M531.254 239.815L531.254 276.246"/>
<path class="l4" d="M535.302 258.031L553.517 258.031"/>
<path class="l4" d="M521.135 233.744L521.135 243.863"/>
<path class="l4" d="M521.135 272.198L521.135 282.318"/>
<path class="l4" d="M535.302 245.887L535.302 270.174"/>
<path class="l4" d="M521.135 243.863L531.254 243.863"/>
<path class="l4" d="M525.182 272.198L531.254 272.198"/>
<path class="l4" d="M525.182 270.174L521.135 272.198L525.182 274.222L525.182 270.174"/>
<path class="l4" d="M531.254 304.581L531.254 341.012"/>
<path class="l4" d="M535.302 322.797L553.517 322.797"/>
<path class="l4" d="M521.135 298.509L521.135 308.629"/>
<path class="l4" d="M521.135 336.964L521.135 347.084"/>
<path class="l4" d="M535.302 310.653L535.302 334.94"/>
<path class="l4" d="M521.135 308.629L531.254 308.629"/>
<path class="l4" d="M525.182 336.964L531.254 336.964"/>
<path class="l4" d="M525.182 334.94L521.135 336.964L525.182 338.988L525.182 334.94"/>
<path class="l4" d="M521.135 55.6379L521.135 71.8293"/>
<path class="l4" d="M513.039 55.6379L529.23 55.6379"/>
<path class="l4" d="M521.135 363.275L521.135 373.395"/>
<path class="l4" d="M517.087 373.395L525.182 373.395"/>
<path class="l4" d="M521.135 377.443L525.182 373.395"/>
<path class="l4" d="M517.087 373.395L521.135 377.443"/>
<path class="l4" d="M834.844 417.921L834.844 454.352"/>
<path class="l4" d="M844.963 411.85L844.963 421.969"/>
<path class="l4" d="M844.963 450.304L844.963 460.424"/>
<path class="l4" d="M830.796 423.993L830.796 448.28"/>
<path class="l4" d="M834.844 450.304L844.963 450.304"/>
<path class="l4" d="M838.892 421.969L844.963 421.969"/>
<path class="l4" d="M812.58 436.137L822.7 436.137"/>
<path class="l4" d="M838.892 419.945L834.844 421.969L838.892 423.993L838.892 419.945"/>
<circle class="l4" cx="826.748" cy="436.137" r="4.04786" style="fill:none;"/>
<path class="l4" d="M834.844 353.156L834.844 389.586"/>
<path class="l4" d="M844.963 347.084L844.963 357.203"/>
<path class="l4" d="M844.963 385.538L844.963 395.658"/>
<path class="l4" d="M830.796 359.227L830.796 383.514"/>
<path class="l4" d="M834.844 385.538L844.963 385.538"/>
<path class="l4" d="M838.892 357.203L844.963 357.203"/>
<path class="l4" d="M812.58 371.371L822.7 371.371"/>
<path class="l4" d="M838.892 355.179L834.844 357.203L838.892 359.227L838.892 355.179"/>
<circle class="l4" cx="826.748" cy="371.371" r="4.04786" style="fill:none;"/>
<path class="l4" d="M834.844 498.878L834.844 535.309"/>
<path class="l4" d="M812.58 517.094L830.796 517.094"/>
<path class="l4" d="M844.963 492.807L844.963 502.926"/>
<path class="l4" d="M844.963 531.261L844.963 541.381"/>
<path class="l4" d="M830.796 504.95L830.796 529.237"/>
<path class="l4" d="M834.844 502.926L844.963 502.926"/>
<path class="l4" d="M834.844 531.261L840.915 531.261"/>
<path class="l4" d="M840.915 529.237L844.963 531.261L840.915 533.285L840.915 529.237"/>
<path class="l4" d="M834.844 563.644L834.844 600.075"/>
<path class="l4" d="M812.58 581.86L830.796 581.86"/>
<path class="l4" d="M844.963 557.572L844.963 567.692"/>
<path class="l4" d="M844.963 596.027L844.963 606.147"/>
<path class="l4" d="M830.796 569.716L830.796 594.003"/>
<path class="l4" d="M834.844 567.692L844.963 567.692"/>
<path class="l4" d="M834.844 596.027L840.915 596.027"/>
<path class="l4" d="M840.915 594.003L844.963 596.027L840.915 598.051L840.915 594.003"/>
<path class="l4" d="M844.963 314.701L844.963 330.892"/>
<path class="l4" d="M836.868 314.701L853.059 314.701"/>
<path class="l4" d="M844.963 622.338L844.963 632.458"/>
<path class="l4" d="M840.915 632.458L849.011 632.458"/>
<path class="l4" d="M840.915 632.458L844.963 636.506"/>
<path class="l4" d="M844.963 636.506L849.011 632.458"/>
<path class="l4" d="M1077.72 417.921L1077.72 454.352"/>
<path class="l4" d="M1087.83 411.85L1087.83 421.969"/>
<path class="l4" d="M1087.83 450.304L1087.83 460.424"/>
<path class="l4" d="M1073.67 423.993L1073.67 448.28"/>
<path class="l4" d="M1077.72 450.304L1087.83 450.304"/>
<path class="l4" d="M1081.76 421.969L1087.83 421.969"/>
<path class="l4" d="M1055.45 436.137L1065.57 436.137"/>
<path class="l4" d="M1081.76 419.945L1077.72 421.969L1081.76 423.993L1081.76 419.945"/>
<circle class="l4" cx="1069.62" cy="436.137" r="4.04786" style="fill:none;"/>
<path class="l4" d="M1077.72 498.878L1077.72 535.309"/>
<path class="l4" d="M1055.45 517.094L1073.67 517.094"/>
<path class="l4" d="M1087.83 492.807L1087.83 502.926"/>
<path class="l4" d="M1087.83 531.261L1087.83 541.381"/>
<path class="l4" d="M1073.67 504.95L1073.67 529.237"/>
<path class="l4" d="M1077.72 502.926L1087.83 502.926"/>
<path class="l4" d="M1077.72 531.261L1083.79 531.261"/>
<path class="l4" d="M1083.79 529.237L1087.83 531.261L1083.79 533.285L1083.79 529.237"/>
<path class="l4" d="M1087.83 557.572L1087.83 567.692"/>
<path class="l4" d="M1083.79 567.692L1091.88 567.692"/>
<path class="l4" d="M1087.83 571.74L1091.88 567.692"/>
<path class="l4" d="M1083.79 567.692L1087.83 571.74"/>
<path class="l4" d="M1087.83 379.467L1087.83 395.658"/>
<path class="l4" d="M1079.74 379.467L1095.93 379.467"/>
<path class="l4" d="M1017 158.858L1017 195.289"/>
<path class="l4" d="M1006.88 152.786L1006.88 162.906"/>
<path class="l4" d="M1006.88 191.241L1006.88 201.361"/>
<path class="l4" d="M1021.05 164.93L1021.05 189.217"/>
<path class="l4" d="M1006.88 191.241L1017 191.241"/>
<path class="l4" d="M1006.88 162.906L1012.95 162.906"/>
<path class="l4" d="M1029.14 177.074L1039.26 177.074"/>
<path class="l4" d="M1012.95 160.882L1017 162.906L1012.95 164.93L1012.95 160.882"/>
<circle class="l4" cx="1025.09" cy="177.074" r="4.04786" style="fill:none;"/>
<path class="l4" d="M1017 94.0925L1017 130.523"/>
<path class="l4" d="M1006.88 88.0207L1006.88 98.1404"/>
<path class="l4" d="M1006.88 126.475L1006.88 136.595"/>
<path class="l4" d="M1021.05 100.164L1021.05 124.451"/>
<path class="l4" d="M1006.88 126.475L1017 126.475"/>
<path class="l4" d="M1006.88 98.1404L1012.95 98.1404"/>
<path class="l4" d="M1029.14 112.308L1039.26 112.308"/>
<path class="l4" d="M1012.95 96.1165L1017 98.1404L1012.95 100.164L1012.95 96.1165"/>
<circle class="l4" cx="1025.09" cy="112.308" r="4.04786" style="fill:none;"/>
<path class="l4" d="M1017 239.815L1017 276.246"/>
<path class="l4" d="M1021.05 258.031L1039.26 258.031"/>
<path class="l4" d="M1006.88 233.744L1006.88 243.863"/>
<path class="l4" d="M1006.88 272.198L1006.88 282.318"/>
<path class="l4" d="M1021.05 245.887L1021.05 270.174"/>
<path class="l4" d="M1006.88 243.863L1017 243.863"/>
<path class="l4" d="M1010.93 272.198L1017 272.198"/>
<path class="l4" d="M1010.93 270.174L1006.88 272.198L1010.93 274.222L1010.93 270.174"/>
<path class="l4" d="M1017 304.581L1017 341.012"/>
<path class="l4" d="M1021.05 322.797L1039.26 322.797"/>
<path class="l4" d="M1006.88 298.509L1006.88 308.629"/>
<path class="l4" d="M1006.88 336.964L1006.88 347.084"/>
<path class="l4" d="M1021.05 310.653L1021.05 334.94"/>
<path class="l4" d="M1006.88 308.629L1017 308.629"/>
<path class="l4" d="M1010.93 336.964L1017 336.964"/>
<path class="l4" d="M1010.93 334.94L1006.88 336.964L1010.93 338.988L1010.93 334.94"/>
<path class="l4" d="M1006.88 363.275L1006.88 373.395"/>
<path class="l4" d="M1002.83 373.395L1010.93 373.395"/>
<path class="l4" d="M1002.83 373.395L1006.88 377.443"/>
<path class="l4" d="M1006.88 377.443L1010.93 373.395"/>
<path class="l4" d="M1006.88 55.6379L1006.88 71.8293"/>
<path class="l4" d="M998.782 55.6379L1014.97 55.6379"/>
<path class="l5" d="M130.516 247.911L134.564 247.911L134.564 251.959L130.516 251.959L130.516 247.911z"/>
<path class="l5" d="M98.1333 272.198L102.181 272.198L102.181 276.246L98.1333 276.246L98.1333 272.198z"/>
<path class="l5" d="M130.516 296.486L134.564 296.486L134.564 300.533L130.516 300.533L130.516 296.486z"/>
<path class="l5" d="M130.516 215.528L134.564 215.528L134.564 219.576L130.516 219.576L130.516 215.528z"/>
<path class="l5" d="M98.1333 191.241L102.181 191.241L102.181 195.289L98.1333 195.289L98.1333 191.241z"/>
<path class="l5" d="M130.516 166.954L134.564 166.954L134.564 171.002L130.516 171.002L130.516 166.954z"/>
<path class="l5" d="M55.6307 136.595L59.6786 136.595"/>
<path class="l5" d="M55.6307 136.595L52.5948 132.547L45.5111 132.547L48.547 136.595L45.5111 140.643L52.5948 140.643L55.6307 136.595"/>
<path class="l5" d="M58.6666 135.583L60.6906 135.583L60.6906 137.607L58.6666 137.607L58.6666 135.583z"/>
<path class="l5" d="M163.911 232.732L165.935 232.732L165.935 234.756L163.911 234.756L163.911 232.732z"/>
<path class="l5" d="M82.9538 135.583L84.9777 135.583L84.9777 137.607L82.9538 137.607L82.9538 135.583z"/>
<path class="l5" d="M50.5709 232.732L52.5948 232.732L52.5948 234.756L50.5709 234.756L50.5709 232.732z"/>
<path class="l5" d="M130.516 150.763L134.564 150.763L134.564 154.81L130.516 154.81L130.516 150.763z"/>
<path class="l5" d="M130.516 312.677L134.564 312.677L134.564 316.725L130.516 316.725L130.516 312.677z"/>
<path class="l5" d="M357.196 458.4L361.244 458.4L361.244 462.448L357.196 462.448L357.196 458.4z"/>
<path class="l5" d="M324.813 434.113L328.861 434.113L328.861 438.161L324.813 438.161L324.813 434.113z"/>
<path class="l5" d="M357.196 409.826L361.244 409.826L361.244 413.873L357.196 413.873L357.196 409.826z"/>
<path class="l5" d="M357.196 393.634L361.244 393.634L361.244 397.682L357.196 397.682L357.196 393.634z"/>
<path class="l5" d="M324.813 369.347L328.861 369.347L328.861 373.395L324.813 373.395L324.813 369.347z"/>
<path class="l5" d="M357.196 345.06L361.244 345.06L361.244 349.108L357.196 349.108L357.196 345.06z"/>
<path class="l5" d="M357.196 490.783L361.244 490.783L361.244 494.831L357.196 494.831L357.196 490.783z"/>
<path class="l5" d="M324.813 515.07L328.861 515.07L328.861 519.118L324.813 519.118L324.813 515.07z"/>
<path class="l5" d="M357.196 539.357L361.244 539.357L361.244 543.405L357.196 543.405L357.196 539.357z"/>
<path class="l5" d="M357.196 555.549L361.244 555.549L361.244 559.596L357.196 559.596L357.196 555.549z"/>
<path class="l5" d="M324.813 579.836L328.861 579.836L328.861 583.884L324.813 583.884L324.813 579.836z"/>
<path class="l5" d="M357.196 604.123L361.244 604.123L361.244 608.171L357.196 608.171L357.196 604.123z"/>
<path class="l5" d="M357.196 620.314L361.244 620.314L361.244 624.362L357.196 624.362L357.196 620.314z"/>
<path class="l5" d="M357.196 328.868L361.244 328.868L361.244 332.916L357.196 332.916L357.196 328.868z"/>
<path class="l5" d="M309.634 435.125L311.658 435.125L311.658 437.149L309.634 437.149L309.634 435.125z"/>
<path class="l5" d="M309.634 516.082L311.658 516.082L311.658 518.106L309.634 518.106L309.634 516.082z"/>
<path class="l5" d="M225.641 476.615L229.689 476.615"/>
<path class="l5" d="M225.641 476.615L222.605 472.567L215.521 472.567L218.557 476.615L215.521 480.663L222.605 480.663L225.641 476.615"/>
<path class="l5" d="M228.677 475.603L230.701 475.603L230.701 477.627L228.677 477.627L228.677 475.603z"/>
<path class="l5" d="M600.068 458.4L604.116 458.4L604.116 462.448L600.068 462.448L600.068 458.4z"/>
<path class="l5" d="M567.685 434.113L571.733 434.113L571.733 438.161L567.685 438.161L567.685 434.113z"/>
<path class="l5" d="M600.068 409.826L604.116 409.826L604.116 413.873L600.068 413.873L600.068 409.826z"/>
<path class="l5" d="M600.068 490.783L604.116 490.783L604.116 494.831L600.068 494.831L600.068 490.783z"/>
<path class="l5" d="M567.685 515.07L571.733 515.07L571.733 519.118L567.685 519.118L567.685 515.07z"/>
<path class="l5" d="M600.068 539.357L604.116 539.357L604.116 543.405L600.068 543.405L600.068 539.357z"/>
<path class="l5" d="M600.068 555.549L604.116 555.549L604.116 559.596L600.068 559.596L600.068 555.549z"/>
<path class="l5" d="M600.068 393.634L604.116 393.634L604.116 397.682L600.068 397.682L600.068 393.634z"/>
<path class="l5" d="M519.111 199.337L523.159 199.337L523.159 203.385L519.111 203.385L519.111 199.337z"/>
<path class="l5" d="M551.494 175.05L555.541 175.05L555.541 179.098L551.494 179.098L551.494 175.05z"/>
<path class="l5" d="M519.111 150.763L523.159 150.763L523.159 154.81L519.111 154.81L519.111 150.763z"/>
<path class="l5" d="M519.111 134.571L523.159 134.571L523.159 138.619L519.111 138.619L519.111 134.571z"/>
<path class="l5" d="M551.494 110.284L555.541 110.284L555.541 114.332L551.494 114.332L551.494 110.284z"/>
<path class="l5" d="M519.111 85.9968L523.159 85.9968L523.159 90.0447L519.111 90.0447L519.111 85.9968z"/>
<path class="l5" d="M519.111 231.72L523.159 231.72L523.159 235.768L519.111 235.768L519.111 231.72z"/>
<path class="l5" d="M551.494 256.007L555.541 256.007L555.541 260.055L551.494 260.055L551.494 256.007z"/>
<path class="l5" d="M519.111 280.294L523.159 280.294L523.159 284.342L519.111 284.342L519.111 280.294z"/>
<path class="l5" d="M519.111 296.486L523.159 296.486L523.159 300.533L519.111 300.533L519.111 296.486z"/>
<path class="l5" d="M551.494 320.773L555.541 320.773L555.541 324.821L551.494 324.821L551.494 320.773z"/>
<path class="l5" d="M519.111 345.06L523.159 345.06L523.159 349.108L519.111 349.108L519.111 345.06z"/>
<path class="l5" d="M519.111 69.8054L523.159 69.8054L523.159 73.8532L519.111 73.8532L519.111 69.8054z"/>
<path class="l5" d="M519.111 361.251L523.159 361.251L523.159 365.299L519.111 365.299L519.111 361.251z"/>
<path class="l5" d="M568.697 257.019L570.721 257.019L570.721 259.043L568.697 259.043L568.697 257.019z"/>
<path class="l5" d="M568.697 176.062L570.721 176.062L570.721 178.086L568.697 178.086L568.697 176.062z"/>
<path class="l5" d="M842.939 458.4L846.987 458.4L846.987 462.448L842.939 462.448L842.939 458.4z"/>
<path class="l5" d="M810.557 434.113L814.604 434.113L814.604 438.161L810.557 438.161L810.557 434.113z"/>
<path class="l5" d="M842.939 409.826L846.987 409.826L846.987 413.873L842.939 413.873L842.939 409.826z"/>
<path class="l5" d="M842.939 393.634L846.987 393.634L846.987 397.682L842.939 397.682L842.939 393.634z"/>
<path class="l5" d="M810.557 369.347L814.604 369.347L814.604 373.395L810.557 373.395L810.557 369.347z"/>
<path class="l5" d="M842.939 345.06L846.987 345.06L846.987 349.108L842.939 349.108L842.939 345.06z"/>
<path class="l5" d="M842.939 490.783L846.987 490.783L846.987 494.831L842.939 494.831L842.939 490.783z"/>
<path class="l5" d="M810.557 515.07L814.604 515.07L814.604 519.118L810.557 519.118L810.557 515.07z"/>
<path class="l5" d="M842.939 539.357L846.987 539.357L846.987 543.405L842.939 543.405L842.939 539.357z"/>
<path class="l5" d="M842.939 555.549L846.987 555.549L846.987 559.596L842.939 559.596L842.939 555.549z"/>
<path class="l5" d="M810.557 579.836L814.604 579.836L814.604 583.884L810.557 583.884L810.557 579.836z"/>
<path class="l5" d="M842.939 604.123L846.987 604.123L846.987 608.171L842.939 608.171L842.939 604.123z"/>
<path class="l5" d="M842.939 328.868L846.987 328.868L846.987 332.916L842.939 332.916L842.939 328.868z"/>
<path class="l5" d="M842.939 620.314L846.987 620.314L846.987 624.362L842.939 624.362L842.939 620.314z"/>
<path class="l5" d="M795.377 516.082L797.401 516.082L797.401 518.106L795.377 518.106L795.377 516.082z"/>
<path class="l5" d="M795.377 435.125L797.401 435.125L797.401 437.149L795.377 437.149L795.377 435.125z"/>
<path class="l5" d="M1085.81 458.4L1089.86 458.4L1089.86 462.448L1085.81 462.448L1085.81 458.4z"/>
<path class="l5" d="M1053.43 434.113L1057.48 434.113L1057.48 438.161L1053.43 438.161L1053.43 434.113z"/>
<path class="l5" d="M1085.81 409.826L1089.86 409.826L1089.86 413.873L1085.81 413.873L1085.81 409.826z"/>
<path class="l5" d="M1085.81 490.783L1089.86 490.783L1089.86 494.831L1085.81 494.831L1085.81 490.783z"/>
<path class="l5" d="M1053.43 515.07L1057.48 515.07L1057.48 519.118L1053.43 519.118L1053.43 515.07z"/>
<path class="l5" d="M1085.81 539.357L1089.86 539.357L1089.86 543.405L1085.81 543.405L1085.81 539.357z"/>
<path class="l5" d="M1085.81 555.549L1089.86 555.549L1089.86 559.596L1085.81 559.596L1085.81 555.549z"/>
<path class="l5" d="M1085.81 393.634L1089.86 393.634L1089.86 397.682L1085.81 397.682L1085.81 393.634z"/>
<path class="l5" d="M1004.85 199.337L1008.9 199.337L1008.9 203.385L1004.85 203.385L1004.85 199.337z"/>
<path class="l5" d="M1037.24 175.05L1041.28 175.05L1041.28 179.098L1037.24 179.098L1037.24 175.05z"/>
<path class="l5" d="M1004.85 150.763L1008.9 150.763L1008.9 154.81L1004.85 154.81L1004.85 150.763z"/>
<path class="l5" d="M1004.85 134.571L1008.9 134.571L1008.9 138.619L1004.85 138.619L1004.85 134.571z"/>
<path class="l5" d="M1037.24 110.284L1041.28 110.284L1041.28 114.332L1037.24 114.332L1037.24 110.284z"/>
<path class="l5" d="M1004.85 85.9968L1008.9 85.9968L1008.9 90.0447L1004.85 90.0447L1004.85 85.9968z"/>
<path class="l5" d="M1004.85 231.72L1008.9 231.72L1008.9 235.768L1004.85 235.768L1004.85 231.72z"/>
<path class="l5" d="M1037.24 256.007L1041.28 256.007L1041.28 260.055L1037.24 260.055L1037.24 256.007z"/>
<path class="l5" d="M1004.85 280.294L1008.9 280.294L1008.9 284.342L1004.85 284.342L1004.85 280.294z"/>
<path class="l5" d="M1004.85 296.486L1008.9 296.486L1008.9 300.533L1004.85 300.533L1004.85 296.486z"/>
<path class="l5" d="M1037.24 320.773L1041.28 320.773L1041.28 324.821L1037.24 324.821L1037.24 320.773z"/>
<path class="l5" d="M1004.85 345.06L1008.9 345.06L1008.9 349.108L1004.85 349.108L1004.85 345.06z"/>
<path class="l5" d="M1004.85 361.251L1008.9 361.251L1008.9 365.299L1004.85 365.299L1004.85 361.251z"/>
<path class="l5" d="M1004.85 69.8054L1008.9 69.8054L1008.9 73.8532L1004.85 73.8532L1004.85 69.8054z"/>
<path class="l5" d="M1054.44 176.062L1056.46 176.062L1056.46 178.086L1054.44 178.086L1054.44 176.062z"/>
<path class="l5" d="M1054.44 257.019L1056.46 257.019L1056.46 259.043L1054.44 259.043L1054.44 257.019z"/>
<path class="l5" d="M1233.56 476.615L1240.64 476.615"/>
<path class="l5" d="M1247.73 476.615L1244.69 472.567L1237.61 472.567L1240.64 476.615L1237.61 480.663L1244.69 480.663L1247.73 476.615"/>
<path class="l5" d="M1232.55 475.603L1234.57 475.603L1234.57 477.627L1232.55 477.627L1232.55 475.603z"/>
<path class="l1" d="M132.54 217.552L132.54 249.935"/>
<path class="l1" d="M83.9658 193.265L100.157 193.265"/>
<path class="l1" d="M83.9658 193.265L83.9658 274.222"/>
<path class="l1" d="M83.9658 274.222L100.157 274.222"/>
<path class="l1" d="M132.54 298.509L132.54 314.701"/>
<path class="l1" d="M132.54 152.786L132.54 168.978"/>
<path class="l1" d="M132.54 233.744L164.923 233.744"/>
<path class="l1" d="M51.5829 233.744L83.9658 233.744"/>
<path class="l1" d="M59.6786 136.595L83.9658 136.595"/>
<path class="l1" d="M359.22 460.424L359.22 492.807"/>
<path class="l1" d="M359.22 606.147L359.22 622.338"/>
<path class="l1" d="M359.22 330.892L359.22 347.084"/>
<path class="l1" d="M229.689 476.615L262.072 476.615"/>
<path class="l1" d="M310.646 436.137L326.837 436.137"/>
<path class="l1" d="M310.646 517.094L326.837 517.094"/>
<path class="l1" d="M553.517 436.137L553.517 476.615"/>
<path class="l1" d="M553.517 436.137L569.709 436.137"/>
<path class="l1" d="M553.517 476.615L553.517 517.094"/>
<path class="l1" d="M553.517 517.094L569.709 517.094"/>
<path class="l1" d="M602.092 460.424L602.092 492.807"/>
<path class="l1" d="M602.092 541.381L602.092 557.572"/>
<path class="l1" d="M602.092 395.658L602.092 411.85"/>
<path class="l1" d="M359.22 476.615L553.517 476.615"/>
<path class="l1" d="M521.135 71.8293L521.135 88.0207"/>
<path class="l1" d="M521.135 347.084L521.135 363.275"/>
<path class="l1" d="M553.517 258.031L569.709 258.031"/>
<path class="l1" d="M553.517 177.074L569.709 177.074"/>
<path class="l1" d="M521.135 201.361L521.135 233.744"/>
<path class="l1" d="M521.135 282.318L521.135 298.509"/>
<path class="l1" d="M521.135 136.595L521.135 152.786"/>
<path class="l1" d="M683.049 217.552L683.049 476.615"/>
<path class="l1" d="M602.092 476.615L683.049 476.615"/>
<path class="l1" d="M553.517 322.797L618.283 322.797"/>
<path class="l1" d="M618.283 112.308L618.283 322.797"/>
<path class="l1" d="M553.517 112.308L618.283 112.308"/>
<path class="l1" d="M618.283 217.552L683.049 217.552"/>
<path class="l1" d="M456.369 217.552L521.135 217.552"/>
<path class="l1" d="M456.369 217.552L456.369 476.615"/>
<path class="l1" d="M359.22 541.381L359.22 557.572"/>
<path class="l1" d="M359.22 395.658L359.22 411.85"/>
<path class="l1" d="M262.072 371.371L326.837 371.371"/>
<path class="l1" d="M262.072 371.371L262.072 476.615"/>
<path class="l1" d="M262.072 581.86L326.837 581.86"/>
<path class="l1" d="M262.072 476.615L262.072 581.86"/>
<path class="l1" d="M844.963 330.892L844.963 347.084"/>
<path class="l1" d="M844.963 606.147L844.963 622.338"/>
<path class="l1" d="M844.963 460.424L844.963 492.807"/>
<path class="l1" d="M844.963 541.381L844.963 557.572"/>
<path class="l1" d="M844.963 395.658L844.963 411.85"/>
<path class="l1" d="M796.389 517.094L812.58 517.094"/>
<path class="l1" d="M796.389 436.137L812.58 436.137"/>
<path class="l1" d="M747.815 371.371L812.58 371.371"/>
<path class="l1" d="M747.815 371.371L747.815 581.86"/>
<path class="l1" d="M747.815 581.86L812.58 581.86"/>
<path class="l1" d="M683.049 476.615L747.815 476.615"/>
<path class="l1" d="M844.963 476.615L1039.26 476.615"/>
<path class="l1" d="M1039.26 436.137L1039.26 476.615"/>
<path class="l1" d="M1039.26 436.137L1055.45 436.137"/>
<path class="l1" d="M1039.26 476.615L1039.26 517.094"/>
<path class="l1" d="M1039.26 517.094L1055.45 517.094"/>
<path class="l1" d="M1087.83 460.424L1087.83 492.807"/>
<path class="l1" d="M1087.83 541.381L1087.83 557.572"/>
<path class="l1" d="M1087.83 395.658L1087.83 411.85"/>
<path class="l1" d="M1006.88 201.361L1006.88 233.744"/>
<path class="l1" d="M1006.88 347.084L1006.88 363.275"/>
<path class="l1" d="M1006.88 71.8293L1006.88 88.0207"/>
<path class="l1" d="M1039.26 177.074L1055.45 177.074"/>
<path class="l1" d="M1039.26 258.031L1055.45 258.031"/>
<path class="l1" d="M1006.88 282.318L1006.88 298.509"/>
<path class="l1" d="M1006.88 136.595L1006.88 152.786"/>
<path class="l1" d="M1039.26 112.308L1104.03 112.308"/>
<path class="l1" d="M1104.03 112.308L1104.03 217.552"/>
<path class="l1" d="M1039.26 322.797L1104.03 322.797"/>
<path class="l1" d="M1104.03 217.552L1104.03 322.797"/>
<path class="l1" d="M942.112 217.552L1006.88 217.552"/>
<path class="l1" d="M942.112 217.552L942.112 476.615"/>
<path class="l1" d="M1168.79 217.552L1168.79 476.615"/>
<path class="l1" d="M1104.03 217.552L1168.79 217.552"/>
<path class="l1" d="M1087.83 476.615L1168.79 476.615"/>
<path class="l1" d="M1168.79 476.615L1233.56 476.615"/>
<circle class="l1" cx="262.072" cy="476.615" r="3.23829"/>
<circle class="l1" cx="83.9658" cy="233.744" r="3.23829"/>
<circle class="l1" cx="132.54" cy="233.744" r="3.23829"/>
<circle class="l1" cx="262.072" cy="476.615" r="3.23829"/>
<circle class="l1" cx="262.072" cy="476.615" r="3.23829"/>
<circle class="l1" cx="456.369" cy="476.615" r="3.23829"/>
<circle class="l1" cx="521.135" cy="217.552" r="3.23829"/>
<circle class="l1" cx="618.283" cy="217.552" r="3.23829"/>
<circle class="l1" cx="553.517" cy="476.615" r="3.23829"/>
<circle class="l1" cx="602.092" cy="476.615" r="3.23829"/>
<circle class="l1" cx="683.049" cy="476.615" r="3.23829"/>
<circle class="l1" cx="359.22" cy="476.615" r="3.23829"/>
<circle class="l1" cx="553.517" cy="476.615" r="3.23829"/>
<circle class="l1" cx="553.517" cy="476.615" r="3.23829"/>
<circle class="l1" cx="942.112" cy="476.615" r="3.23829"/>
<circle class="l1" cx="1006.88" cy="217.552" r="3.23829"/>
<circle class="l1" cx="683.049" cy="476.615" r="3.23829"/>
<circle class="l1" cx="844.963" cy="476.615" r="3.23829"/>
<circle class="l1" cx="1039.26" cy="476.615" r="3.23829"/>
<circle class="l1" cx="683.049" cy="476.615" r="3.23829"/>
<circle class="l1" cx="747.815" cy="476.615" r="3.23829"/>
<circle class="l1" cx="1104.03" cy="217.552" r="3.23829"/>
<circle class="l1" cx="1104.03" cy="217.552" r="3.23829"/>
<circle class="l1" cx="1168.79" cy="476.615" r="3.23829"/>
<circle class="l1" cx="1104.03" cy="217.552" r="3.23829"/>
<circle class="l1" cx="1039.26" cy="476.615" r="3.23829"/>
<circle class="l1" cx="1168.79" cy="476.615" r="3.23829"/>
<circle class="l1" cx="1087.83" cy="476.615" r="3.23829"/>
<circle class="l1" cx="1168.79" cy="476.615" r="3.23829"/>
<circle class="l1" cx="1039.26" cy="476.615" r="3.23829"/>
</svg>
