<svg xmlns="http://www.w3.org/2000/svg" xmlns:xlink="http://www.w3.org/1999/xlink" width="1280" height="680" version="1.1">
<style type="text/css">
.l0{
 fill: #000000;
  stroke: #000000;
  stroke-linecap:round;
  stroke-linejoin:round;
  stroke-width: 0.873284;
}
.l1{
 fill: #00ccee;
  stroke: #00ccee;
  stroke-linecap:round;
  stroke-linejoin:round;
  stroke-width: 0.873284;
}
.l2{
  fill: none;
  stroke: #3f3f3f;
  stroke-linecap:round;
  stroke-linejoin:round;
  stroke-width: 0.873284;
}
.l3{
 fill: #cccccc; fill-opacity: 0.5;
  stroke: #cccccc;
  stroke-linecap:round;
  stroke-linejoin:round;
  stroke-width: 0.873284;
}
.l4{
 fill: #88dd00;
  stroke: #88dd00;
  stroke-linecap:round;
  stroke-linejoin:round;
  stroke-width: 0.873284;
}
.l5{
 fill: #bb2200;
  stroke: #bb2200;
  stroke-linecap:round;
  stroke-linejoin:round;
  stroke-width: 0.873284;
}
.l6{
 fill: #00ccee; fill-opacity: 0.5;
  stroke: #00ccee;
  stroke-linecap:round;
  stroke-linejoin:round;
  stroke-width: 0.873284;
}
.l7{
 fill: #ff0000; fill-opacity: 0.5;
  stroke: #ff0000;
  stroke-linecap:round;
  stroke-linejoin:round;
  stroke-width: 0.873284;
}
.l8{
 fill: #ffff00; fill-opacity: 0.5;
  stroke: #ffff00;
  stroke-linecap:round;
  stroke-linejoin:round;
  stroke-width: 0.873284;
}
.l9{
 fill: #ffffff; fill-opacity: 0.5;
  stroke: #ffffff;
  stroke-linecap:round;
  stroke-linejoin:round;
  stroke-width: 0.873284;
}
.l10{
 fill: #ff00ff;
  stroke: #ff00ff;
  stroke-linecap:round;
  stroke-linejoin:round;
  stroke-width: 0.873284;
}
.l11{
 fill: #00ff00; fill-opacity: 0.5;
  stroke: #00ff00;
  stroke-linecap:round;
  stroke-linejoin:round;
  stroke-width: 0.873284;
}
.l12{
 fill: #0044dd; fill-opacity: 0.5;
  stroke: #0044dd;
  stroke-linecap:round;
  stroke-linejoin:round;
  stroke-width: 0.873284;
}
.l13{
 fill: #aaaa00; fill-opacity: 0.5;
  stroke: #aaaa00;
  stroke-linecap:round;
  stroke-linejoin:round;
  stroke-width: 0.873284;
}
.l14{
  fill: none;
  stroke: #aaccaa;
  stroke-linecap:round;
  stroke-linejoin:round;
  stroke-width: 0.873284;
}
.l15{
 fill: #ff7777; fill-opacity: 0.5;
  stroke: #ff7777;
  stroke-linecap:round;
  stroke-linejoin:round;
  stroke-width: 0.873284;
}
.l16{
 fill: #bfff81; fill-opacity: 0.5;
  stroke: #bfff81;
  stroke-linecap:round;
  stroke-linejoin:round;
  stroke-width: 0.873284;
}
.l17{
  fill: none;
  stroke: #00ffcc;
  stroke-linecap:round;
  stroke-linejoin:round;
  stroke-width: 0.873284;
}
.l18{
 fill: #ce0097; fill-opacity: 0.5;
  stroke: #ce0097;
  stroke-linecap:round;
  stroke-linejoin:round;
  stroke-width: 0.873284;
}
.l19{
  fill: none;
  stroke: #d2d46b;
  stroke-linecap:round;
  stroke-linejoin:round;
  stroke-width: 0.873284;
}
.l20{
  fill: none;
  stroke: #ef6158;
  stroke-linecap:round;
  stroke-linejoin:round;
  stroke-width: 0.873284;
}
.l21{
  fill: none;
  stroke: #fdb200;
  stroke-linecap:round;
  stroke-linejoin:round;
  stroke-width: 0.873284;
}
text {font-family: Sans-Serif;}
</style>
<rect class="l0" x="0" y="0" width="1280" height="680"/>
<text fill="#00ccee"  xml:space="preserve" font-size="13.8755" transform="translate(25.7675, 124.309)" >CLK</text>
<text fill="#00ccee"  xml:space="preserve" font-size="13.8755" transform="translate(172.025, 229.932)" >CLK_n</text>
<text fill="#00ccee"  xml:space="preserve" font-size="13.8755" transform="translate(99.2511, 124.815)" >CLK</text>
<text fill="#00ccee"  xml:space="preserve" font-size="13.8755" transform="translate(18.6923, 229.932)" >CLK</text>
<text fill="#00ccee"  xml:space="preserve" font-size="13.8755" transform="translate(277.443, 432.081)" >CLK</text>
<text fill="#00ccee"  xml:space="preserve" font-size="13.8755" transform="translate(262.443, 512.941)" >CLK_n</text>
<text fill="#00ccee"  xml:space="preserve" font-size="13.8755" transform="translate(204.487, 472.006)" >D</text>
<text fill="#00ccee"  xml:space="preserve" font-size="13.8755" transform="translate(576.323, 251.415)" >CLK</text>
<text fill="#00ccee"  xml:space="preserve" font-size="13.8755" transform="translate(576.323, 170.555)" >CLK_n</text>
<text fill="#00ccee"  xml:space="preserve" font-size="13.8755" transform="translate(762.601, 510.166)" >CLK</text>
<text fill="#00ccee"  xml:space="preserve" font-size="13.8755" transform="translate(747.601, 429.306)" >CLK_n</text>
<text fill="#00ccee"  xml:space="preserve" font-size="13.8755" transform="translate(1061.48, 173.331)" >CLK</text>
<text fill="#00ccee"  xml:space="preserve" font-size="13.8755" transform="translate(1061.48, 254.19)" >CLK_n</text>
<text fill="#00ccee"  xml:space="preserve" font-size="13.8755" transform="translate(1249.48, 472.006)" >Q</text>
<text fill="#00ccee"  xml:space="preserve" font-size="11.3527" transform="translate(599.441, 462.758)" >inverter_1_out</text>
<text fill="#00ccee"  xml:space="preserve" font-size="11.3527" transform="translate(393.034, 462.758)" >common_1</text>
<text fill="#00ccee"  xml:space="preserve" font-size="11.3527" transform="translate(878.191, 462.758)" >common_2</text>
<text fill="#00ccee"  xml:space="preserve" font-size="13.8755" transform="translate(489.678, 68.213)" >vdd</text>
<text fill="#00ccee"  xml:space="preserve" font-size="13.8755" transform="translate(327.959, 326.964)" >vdd</text>
<text fill="#00ccee"  xml:space="preserve" font-size="13.8755" transform="translate(570.538, 391.652)" >vdd</text>
<text fill="#00ccee"  xml:space="preserve" font-size="13.8755" transform="translate(813.117, 326.964)" >vdd</text>
<text fill="#00ccee"  xml:space="preserve" font-size="13.8755" transform="translate(974.836, 68.213)" >vdd</text>
<text fill="#00ccee"  xml:space="preserve" font-size="13.8755" transform="translate(1055.7, 391.652)" >vdd</text>
<text fill="#00ccee"  xml:space="preserve" font-size="13.8755" transform="translate(101.552, 149.073)" >vdd</text>
<text fill="#00ccee"  xml:space="preserve" font-size="13.8755" transform="translate(100.552, 310.792)" >gnd</text>
<text fill="#00ccee"  xml:space="preserve" font-size="13.8755" transform="translate(326.959, 618.059)" >gnd</text>
<text fill="#00ccee"  xml:space="preserve" font-size="13.8755" transform="translate(488.678, 359.308)" >gnd</text>
<text fill="#00ccee"  xml:space="preserve" font-size="13.8755" transform="translate(569.538, 553.371)" >gnd</text>
<text fill="#00ccee"  xml:space="preserve" font-size="13.8755" transform="translate(812.117, 618.059)" >gnd</text>
<text fill="#00ccee"  xml:space="preserve" font-size="13.8755" transform="translate(973.836, 359.308)" >gnd</text>
<text fill="#00ccee"  xml:space="preserve" font-size="13.8755" transform="translate(1054.7, 553.371)" >gnd</text>
<text fill="#00ccee"  xml:space="preserve" font-size="13.8755" transform="translate(27.7675, 83.8796)" >vdd</text>
<text fill="#00ccee"  xml:space="preserve" font-size="13.8755" transform="translate(99.2511, 84.385)" >vdd</text>
<text fill="#00ccee"  xml:space="preserve" font-size="13.8755" transform="translate(26.7675, 67.7077)" >gnd</text>
<text fill="#00ccee"  xml:space="preserve" font-size="13.8755" transform="translate(99.2511, 68.213)" >gnd</text>
<text fill="#cccccc"  xml:space="preserve" font-size="8.4094" transform="translate(109.487, 247.711)" >M1</text>
<text fill="#ff0000"  xml:space="preserve" font-size="6.30705" transform="translate(135.638, 284.21)" >S</text>
<text fill="#ff0000"  xml:space="preserve" font-size="6.30705" transform="translate(135.638, 248.675)" >D</text>
<text fill="#ff0000"  xml:space="preserve" font-size="6.30705" transform="translate(104.359, 261.974)" >G</text>
<text fill="#cccccc"  xml:space="preserve" font-size="8.4094" transform="translate(141.702, 255.248)" >nfet_01v8</text>
<text fill="#aaaa00"  xml:space="preserve" font-size="8.4094" transform="translate(142.713, 283.087)" >1 x 0.84 / 0.15</text>
<text fill="#aaaa00"  xml:space="preserve" font-size="8.4094" transform="translate(142.713, 272.98)" >nf=1</text>
<text fill="#cccccc"  xml:space="preserve" font-size="8.4094" transform="translate(109.487, 166.851)" >M2</text>
<text fill="#ff0000"  xml:space="preserve" font-size="6.30705" transform="translate(135.638, 203.351)" >D</text>
<text fill="#ff0000"  xml:space="preserve" font-size="6.30705" transform="translate(135.638, 167.816)" >S</text>
<text fill="#ff0000"  xml:space="preserve" font-size="6.30705" transform="translate(104.359, 181.114)" >G</text>
<text fill="#cccccc"  xml:space="preserve" font-size="8.4094" transform="translate(141.702, 174.388)" >pfet_01v8</text>
<text fill="#aaaa00"  xml:space="preserve" font-size="8.4094" transform="translate(142.713, 202.227)" >1 x 1.68 / 0.15</text>
<text fill="#aaaa00"  xml:space="preserve" font-size="8.4094" transform="translate(142.713, 192.12)" >nf=1</text>
<text fill="#cccccc"  xml:space="preserve" font-size="8.4094" transform="translate(335.894, 409.43)" >M3</text>
<text fill="#ff0000"  xml:space="preserve" font-size="6.30705" transform="translate(362.045, 445.93)" >D</text>
<text fill="#ff0000"  xml:space="preserve" font-size="6.30705" transform="translate(362.045, 410.395)" >S</text>
<text fill="#ff0000"  xml:space="preserve" font-size="6.30705" transform="translate(330.766, 423.693)" >G</text>
<text fill="#cccccc"  xml:space="preserve" font-size="8.4094" transform="translate(368.109, 416.967)" >pfet_01v8</text>
<text fill="#aaaa00"  xml:space="preserve" font-size="8.4094" transform="translate(369.12, 444.806)" >1 x 0.42 / 0.15</text>
<text fill="#aaaa00"  xml:space="preserve" font-size="8.4094" transform="translate(369.12, 434.699)" >nf=1</text>
<text fill="#cccccc"  xml:space="preserve" font-size="8.4094" transform="translate(335.894, 344.742)" >M4</text>
<text fill="#ff0000"  xml:space="preserve" font-size="6.30705" transform="translate(362.045, 381.242)" >D</text>
<text fill="#ff0000"  xml:space="preserve" font-size="6.30705" transform="translate(362.045, 345.707)" >S</text>
<text fill="#ff0000"  xml:space="preserve" font-size="6.30705" transform="translate(330.766, 359.005)" >G</text>
<text fill="#cccccc"  xml:space="preserve" font-size="8.4094" transform="translate(368.109, 352.28)" >pfet_01v8</text>
<text fill="#aaaa00"  xml:space="preserve" font-size="8.4094" transform="translate(369.12, 380.119)" >1 x 0.42 / 0.15</text>
<text fill="#aaaa00"  xml:space="preserve" font-size="8.4094" transform="translate(369.12, 370.011)" >nf=1</text>
<text fill="#cccccc"  xml:space="preserve" font-size="8.4094" transform="translate(335.894, 490.29)" >M5</text>
<text fill="#ff0000"  xml:space="preserve" font-size="6.30705" transform="translate(362.045, 526.789)" >S</text>
<text fill="#ff0000"  xml:space="preserve" font-size="6.30705" transform="translate(362.045, 491.254)" >D</text>
<text fill="#ff0000"  xml:space="preserve" font-size="6.30705" transform="translate(330.766, 504.553)" >G</text>
<text fill="#cccccc"  xml:space="preserve" font-size="8.4094" transform="translate(368.109, 497.827)" >nfet_01v8</text>
<text fill="#aaaa00"  xml:space="preserve" font-size="8.4094" transform="translate(369.12, 525.666)" >1 x 0.42 / 0.15</text>
<text fill="#aaaa00"  xml:space="preserve" font-size="8.4094" transform="translate(369.12, 515.559)" >nf=1</text>
<text fill="#cccccc"  xml:space="preserve" font-size="8.4094" transform="translate(335.894, 554.978)" >M6</text>
<text fill="#ff0000"  xml:space="preserve" font-size="6.30705" transform="translate(362.045, 591.477)" >S</text>
<text fill="#ff0000"  xml:space="preserve" font-size="6.30705" transform="translate(362.045, 555.942)" >D</text>
<text fill="#ff0000"  xml:space="preserve" font-size="6.30705" transform="translate(330.766, 569.241)" >G</text>
<text fill="#cccccc"  xml:space="preserve" font-size="8.4094" transform="translate(368.109, 562.515)" >nfet_01v8</text>
<text fill="#aaaa00"  xml:space="preserve" font-size="8.4094" transform="translate(369.12, 590.354)" >1 x 0.42 / 0.15</text>
<text fill="#aaaa00"  xml:space="preserve" font-size="8.4094" transform="translate(369.12, 580.246)" >nf=1</text>
<text fill="#cccccc"  xml:space="preserve" font-size="8.4094" transform="translate(578.473, 409.43)" >M7</text>
<text fill="#ff0000"  xml:space="preserve" font-size="6.30705" transform="translate(604.624, 445.93)" >D</text>
<text fill="#ff0000"  xml:space="preserve" font-size="6.30705" transform="translate(604.624, 410.395)" >S</text>
<text fill="#ff0000"  xml:space="preserve" font-size="6.30705" transform="translate(573.345, 423.693)" >G</text>
<text fill="#cccccc"  xml:space="preserve" font-size="8.4094" transform="translate(610.688, 416.967)" >pfet_01v8</text>
<text fill="#aaaa00"  xml:space="preserve" font-size="8.4094" transform="translate(611.699, 444.806)" >1 x 0.42 / 0.15</text>
<text fill="#aaaa00"  xml:space="preserve" font-size="8.4094" transform="translate(611.699, 434.699)" >nf=1</text>
<text fill="#cccccc"  xml:space="preserve" font-size="8.4094" transform="translate(578.473, 490.29)" >M8</text>
<text fill="#ff0000"  xml:space="preserve" font-size="6.30705" transform="translate(604.624, 526.789)" >S</text>
<text fill="#ff0000"  xml:space="preserve" font-size="6.30705" transform="translate(604.624, 491.254)" >D</text>
<text fill="#ff0000"  xml:space="preserve" font-size="6.30705" transform="translate(573.345, 504.553)" >G</text>
<text fill="#cccccc"  xml:space="preserve" font-size="8.4094" transform="translate(610.688, 497.827)" >nfet_01v8</text>
<text fill="#aaaa00"  xml:space="preserve" font-size="8.4094" transform="translate(611.699, 525.666)" >1 x 0.42 / 0.15</text>
<text fill="#aaaa00"  xml:space="preserve" font-size="8.4094" transform="translate(611.699, 515.559)" >nf=1</text>
<text fill="#cccccc"  xml:space="preserve" font-size="8.4094" transform="translate(533.872, 150.679)" >M9</text>
<text fill="#ff0000"  xml:space="preserve" font-size="6.30705" transform="translate(514.721, 187.179)" >D</text>
<text fill="#ff0000"  xml:space="preserve" font-size="6.30705" transform="translate(515.721, 151.644)" >S</text>
<text fill="#ff0000"  xml:space="preserve" font-size="6.30705" transform="translate(546.001, 164.942)" >G</text>
<text fill="#cccccc"  xml:space="preserve" font-size="8.4094" transform="translate(473.657, 158.216)" >pfet_01v8</text>
<text fill="#aaaa00"  xml:space="preserve" font-size="8.4094" transform="translate(451.646, 186.055)" >1 x 0.42 / 0.15</text>
<text fill="#aaaa00"  xml:space="preserve" font-size="8.4094" transform="translate(492.646, 175.948)" >nf=1</text>
<text fill="#cccccc"  xml:space="preserve" font-size="8.4094" transform="translate(533.872, 85.9916)" >M10</text>
<text fill="#ff0000"  xml:space="preserve" font-size="6.30705" transform="translate(514.721, 122.491)" >D</text>
<text fill="#ff0000"  xml:space="preserve" font-size="6.30705" transform="translate(515.721, 86.9559)" >S</text>
<text fill="#ff0000"  xml:space="preserve" font-size="6.30705" transform="translate(546.001, 100.255)" >G</text>
<text fill="#cccccc"  xml:space="preserve" font-size="8.4094" transform="translate(473.657, 93.5287)" >pfet_01v8</text>
<text fill="#aaaa00"  xml:space="preserve" font-size="8.4094" transform="translate(451.646, 121.368)" >1 x 0.42 / 0.15</text>
<text fill="#aaaa00"  xml:space="preserve" font-size="8.4094" transform="translate(492.646, 111.26)" >nf=1</text>
<text fill="#cccccc"  xml:space="preserve" font-size="8.4094" transform="translate(533.872, 231.539)" >M11</text>
<text fill="#ff0000"  xml:space="preserve" font-size="6.30705" transform="translate(515.721, 268.038)" >S</text>
<text fill="#ff0000"  xml:space="preserve" font-size="6.30705" transform="translate(514.721, 232.503)" >D</text>
<text fill="#ff0000"  xml:space="preserve" font-size="6.30705" transform="translate(546.001, 245.802)" >G</text>
<text fill="#cccccc"  xml:space="preserve" font-size="8.4094" transform="translate(473.657, 239.076)" >nfet_01v8</text>
<text fill="#aaaa00"  xml:space="preserve" font-size="8.4094" transform="translate(451.646, 266.915)" >1 x 0.42 / 0.15</text>
<text fill="#aaaa00"  xml:space="preserve" font-size="8.4094" transform="translate(492.646, 256.808)" >nf=1</text>
<text fill="#cccccc"  xml:space="preserve" font-size="8.4094" transform="translate(533.872, 296.227)" >M12</text>
<text fill="#ff0000"  xml:space="preserve" font-size="6.30705" transform="translate(515.721, 332.726)" >S</text>
<text fill="#ff0000"  xml:space="preserve" font-size="6.30705" transform="translate(514.721, 297.191)" >D</text>
<text fill="#ff0000"  xml:space="preserve" font-size="6.30705" transform="translate(546.001, 310.49)" >G</text>
<text fill="#cccccc"  xml:space="preserve" font-size="8.4094" transform="translate(473.657, 303.764)" >nfet_01v8</text>
<text fill="#aaaa00"  xml:space="preserve" font-size="8.4094" transform="translate(451.646, 331.603)" >1 x 0.42 / 0.15</text>
<text fill="#aaaa00"  xml:space="preserve" font-size="8.4094" transform="translate(492.646, 321.495)" >nf=1</text>
<text fill="#cccccc"  xml:space="preserve" font-size="8.4094" transform="translate(816.052, 409.43)" >M13</text>
<text fill="#ff0000"  xml:space="preserve" font-size="6.30705" transform="translate(847.203, 445.93)" >D</text>
<text fill="#ff0000"  xml:space="preserve" font-size="6.30705" transform="translate(847.203, 410.395)" >S</text>
<text fill="#ff0000"  xml:space="preserve" font-size="6.30705" transform="translate(815.923, 423.693)" >G</text>
<text fill="#cccccc"  xml:space="preserve" font-size="8.4094" transform="translate(853.267, 416.967)" >pfet_01v8</text>
<text fill="#aaaa00"  xml:space="preserve" font-size="8.4094" transform="translate(854.278, 444.806)" >1 x 0.42 / 0.15</text>
<text fill="#aaaa00"  xml:space="preserve" font-size="8.4094" transform="translate(854.278, 434.699)" >nf=1</text>
<text fill="#cccccc"  xml:space="preserve" font-size="8.4094" transform="translate(816.052, 344.742)" >M14</text>
<text fill="#ff0000"  xml:space="preserve" font-size="6.30705" transform="translate(847.203, 381.242)" >D</text>
<text fill="#ff0000"  xml:space="preserve" font-size="6.30705" transform="translate(847.203, 345.707)" >S</text>
<text fill="#ff0000"  xml:space="preserve" font-size="6.30705" transform="translate(815.923, 359.005)" >G</text>
<text fill="#cccccc"  xml:space="preserve" font-size="8.4094" transform="translate(853.267, 352.28)" >pfet_01v8</text>
<text fill="#aaaa00"  xml:space="preserve" font-size="8.4094" transform="translate(854.278, 380.119)" >1 x 0.42 / 0.15</text>
<text fill="#aaaa00"  xml:space="preserve" font-size="8.4094" transform="translate(854.278, 370.011)" >nf=1</text>
<text fill="#cccccc"  xml:space="preserve" font-size="8.4094" transform="translate(816.052, 490.29)" >M15</text>
<text fill="#ff0000"  xml:space="preserve" font-size="6.30705" transform="translate(847.203, 526.789)" >S</text>
<text fill="#ff0000"  xml:space="preserve" font-size="6.30705" transform="translate(847.203, 491.254)" >D</text>
<text fill="#ff0000"  xml:space="preserve" font-size="6.30705" transform="translate(815.923, 504.553)" >G</text>
<text fill="#cccccc"  xml:space="preserve" font-size="8.4094" transform="translate(853.267, 497.827)" >nfet_01v8</text>
<text fill="#aaaa00"  xml:space="preserve" font-size="8.4094" transform="translate(854.278, 525.666)" >1 x 0.42 / 0.15</text>
<text fill="#aaaa00"  xml:space="preserve" font-size="8.4094" transform="translate(854.278, 515.559)" >nf=1</text>
<text fill="#cccccc"  xml:space="preserve" font-size="8.4094" transform="translate(816.052, 554.978)" >M16</text>
<text fill="#ff0000"  xml:space="preserve" font-size="6.30705" transform="translate(847.203, 591.477)" >S</text>
<text fill="#ff0000"  xml:space="preserve" font-size="6.30705" transform="translate(847.203, 555.942)" >D</text>
<text fill="#ff0000"  xml:space="preserve" font-size="6.30705" transform="translate(815.923, 569.241)" >G</text>
<text fill="#cccccc"  xml:space="preserve" font-size="8.4094" transform="translate(853.267, 562.515)" >nfet_01v8</text>
<text fill="#aaaa00"  xml:space="preserve" font-size="8.4094" transform="translate(854.278, 590.354)" >1 x 0.42 / 0.15</text>
<text fill="#aaaa00"  xml:space="preserve" font-size="8.4094" transform="translate(854.278, 580.246)" >nf=1</text>
<text fill="#cccccc"  xml:space="preserve" font-size="8.4094" transform="translate(1058.63, 409.43)" >M17</text>
<text fill="#ff0000"  xml:space="preserve" font-size="6.30705" transform="translate(1089.78, 445.93)" >D</text>
<text fill="#ff0000"  xml:space="preserve" font-size="6.30705" transform="translate(1089.78, 410.395)" >S</text>
<text fill="#ff0000"  xml:space="preserve" font-size="6.30705" transform="translate(1058.5, 423.693)" >G</text>
<text fill="#cccccc"  xml:space="preserve" font-size="8.4094" transform="translate(1095.85, 416.967)" >pfet_01v8</text>
<text fill="#aaaa00"  xml:space="preserve" font-size="8.4094" transform="translate(1096.86, 444.806)" >1 x 0.84 / 0.15</text>
<text fill="#aaaa00"  xml:space="preserve" font-size="8.4094" transform="translate(1096.86, 434.699)" >nf=1</text>
<text fill="#cccccc"  xml:space="preserve" font-size="8.4094" transform="translate(1058.63, 490.29)" >M18</text>
<text fill="#ff0000"  xml:space="preserve" font-size="6.30705" transform="translate(1089.78, 526.789)" >S</text>
<text fill="#ff0000"  xml:space="preserve" font-size="6.30705" transform="translate(1089.78, 491.254)" >D</text>
<text fill="#ff0000"  xml:space="preserve" font-size="6.30705" transform="translate(1058.5, 504.553)" >G</text>
<text fill="#cccccc"  xml:space="preserve" font-size="8.4094" transform="translate(1095.85, 497.827)" >nfet_01v8</text>
<text fill="#aaaa00"  xml:space="preserve" font-size="8.4094" transform="translate(1096.86, 525.666)" >1 x 0.42 / 0.15</text>
<text fill="#aaaa00"  xml:space="preserve" font-size="8.4094" transform="translate(1096.86, 515.559)" >nf=1</text>
<text fill="#cccccc"  xml:space="preserve" font-size="8.4094" transform="translate(1019.03, 150.679)" >M19</text>
<text fill="#ff0000"  xml:space="preserve" font-size="6.30705" transform="translate(999.879, 187.179)" >D</text>
<text fill="#ff0000"  xml:space="preserve" font-size="6.30705" transform="translate(1000.88, 151.644)" >S</text>
<text fill="#ff0000"  xml:space="preserve" font-size="6.30705" transform="translate(1031.16, 164.942)" >G</text>
<text fill="#cccccc"  xml:space="preserve" font-size="8.4094" transform="translate(958.815, 158.216)" >pfet_01v8</text>
<text fill="#aaaa00"  xml:space="preserve" font-size="8.4094" transform="translate(936.804, 186.055)" >1 x 0.42 / 0.15</text>
<text fill="#aaaa00"  xml:space="preserve" font-size="8.4094" transform="translate(977.804, 175.948)" >nf=1</text>
<text fill="#cccccc"  xml:space="preserve" font-size="8.4094" transform="translate(1019.03, 85.9916)" >M20</text>
<text fill="#ff0000"  xml:space="preserve" font-size="6.30705" transform="translate(999.879, 122.491)" >D</text>
<text fill="#ff0000"  xml:space="preserve" font-size="6.30705" transform="translate(1000.88, 86.9559)" >S</text>
<text fill="#ff0000"  xml:space="preserve" font-size="6.30705" transform="translate(1031.16, 100.255)" >G</text>
<text fill="#cccccc"  xml:space="preserve" font-size="8.4094" transform="translate(958.815, 93.5287)" >pfet_01v8</text>
<text fill="#aaaa00"  xml:space="preserve" font-size="8.4094" transform="translate(936.804, 121.368)" >1 x 0.42 / 0.15</text>
<text fill="#aaaa00"  xml:space="preserve" font-size="8.4094" transform="translate(977.804, 111.26)" >nf=1</text>
<text fill="#cccccc"  xml:space="preserve" font-size="8.4094" transform="translate(1019.03, 231.539)" >M21</text>
<text fill="#ff0000"  xml:space="preserve" font-size="6.30705" transform="translate(1000.88, 268.038)" >S</text>
<text fill="#ff0000"  xml:space="preserve" font-size="6.30705" transform="translate(999.879, 232.503)" >D</text>
<text fill="#ff0000"  xml:space="preserve" font-size="6.30705" transform="translate(1031.16, 245.802)" >G</text>
<text fill="#cccccc"  xml:space="preserve" font-size="8.4094" transform="translate(958.815, 239.076)" >nfet_01v8</text>
<text fill="#aaaa00"  xml:space="preserve" font-size="8.4094" transform="translate(936.804, 266.915)" >1 x 0.42 / 0.15</text>
<text fill="#aaaa00"  xml:space="preserve" font-size="8.4094" transform="translate(977.804, 256.808)" >nf=1</text>
<text fill="#cccccc"  xml:space="preserve" font-size="8.4094" transform="translate(1019.03, 296.227)" >M22</text>
<text fill="#ff0000"  xml:space="preserve" font-size="6.30705" transform="translate(1000.88, 332.726)" >S</text>
<text fill="#ff0000"  xml:space="preserve" font-size="6.30705" transform="translate(999.879, 297.191)" >D</text>
<text fill="#ff0000"  xml:space="preserve" font-size="6.30705" transform="translate(1031.16, 310.49)" >G</text>
<text fill="#cccccc"  xml:space="preserve" font-size="8.4094" transform="translate(958.815, 303.764)" >nfet_01v8</text>
<text fill="#aaaa00"  xml:space="preserve" font-size="8.4094" transform="translate(936.804, 331.603)" >1 x 0.42 / 0.15</text>
<text fill="#aaaa00"  xml:space="preserve" font-size="8.4094" transform="translate(977.804, 321.495)" >nf=1</text>
<path class="l4" d="M20.4129 337.107L222.562 337.107"/>
<path class="l4" d="M222.562 94.5278L222.562 337.107"/>
<path class="l4" d="M20.4129 94.5278L222.562 94.5278"/>
<path class="l4" d="M20.4129 94.5278L20.4129 337.107"/>
<path class="l4" d="M123.509 246.14L123.509 282.526"/>
<path class="l4" d="M101.273 264.333L119.466 264.333"/>
<path class="l4" d="M133.616 240.075L133.616 250.183"/>
<path class="l4" d="M133.616 278.483L133.616 288.591"/>
<path class="l4" d="M119.466 252.204L119.466 276.462"/>
<path class="l4" d="M123.509 250.183L133.616 250.183"/>
<path class="l4" d="M123.509 278.483L129.573 278.483"/>
<path class="l4" d="M129.573 276.462L133.616 278.483L129.573 280.505L129.573 276.462"/>
<path class="l4" d="M123.509 165.28L123.509 201.667"/>
<path class="l4" d="M133.616 159.215L133.616 169.323"/>
<path class="l4" d="M133.616 197.624L133.616 207.731"/>
<path class="l4" d="M119.466 171.344L119.466 195.602"/>
<path class="l4" d="M123.509 197.624L133.616 197.624"/>
<path class="l4" d="M127.552 169.323L133.616 169.323"/>
<path class="l4" d="M101.273 183.473L111.38 183.473"/>
<path class="l4" d="M127.552 167.301L123.509 169.323L127.552 171.344L127.552 167.301"/>
<circle class="l4" cx="115.423" cy="183.473" r="4.04298" style="fill:none;"/>
<path class="l4" d="M349.916 407.859L349.916 444.246"/>
<path class="l4" d="M360.023 401.794L360.023 411.902"/>
<path class="l4" d="M360.023 440.203L360.023 450.31"/>
<path class="l4" d="M345.873 413.923L345.873 438.181"/>
<path class="l4" d="M349.916 440.203L360.023 440.203"/>
<path class="l4" d="M353.959 411.902L360.023 411.902"/>
<path class="l4" d="M327.68 426.052L337.787 426.052"/>
<path class="l4" d="M353.959 409.88L349.916 411.902L353.959 413.923L353.959 409.88"/>
<circle class="l4" cx="341.83" cy="426.052" r="4.04298" style="fill:none;"/>
<path class="l4" d="M349.916 343.171L349.916 379.558"/>
<path class="l4" d="M360.023 337.107L360.023 347.214"/>
<path class="l4" d="M360.023 375.515L360.023 385.623"/>
<path class="l4" d="M345.873 349.236L345.873 373.494"/>
<path class="l4" d="M349.916 375.515L360.023 375.515"/>
<path class="l4" d="M353.959 347.214L360.023 347.214"/>
<path class="l4" d="M327.68 361.365L337.787 361.365"/>
<path class="l4" d="M353.959 345.193L349.916 347.214L353.959 349.236L353.959 345.193"/>
<circle class="l4" cx="341.83" cy="361.365" r="4.04298" style="fill:none;"/>
<path class="l4" d="M349.916 488.719L349.916 525.105"/>
<path class="l4" d="M327.68 506.912L345.873 506.912"/>
<path class="l4" d="M360.023 482.654L360.023 492.762"/>
<path class="l4" d="M360.023 521.062L360.023 531.17"/>
<path class="l4" d="M345.873 494.783L345.873 519.041"/>
<path class="l4" d="M349.916 492.762L360.023 492.762"/>
<path class="l4" d="M349.916 521.062L355.98 521.062"/>
<path class="l4" d="M355.98 519.041L360.023 521.062L355.98 523.084L355.98 519.041"/>
<path class="l4" d="M349.916 553.406L349.916 589.793"/>
<path class="l4" d="M327.68 571.6L345.873 571.6"/>
<path class="l4" d="M360.023 547.342L360.023 557.449"/>
<path class="l4" d="M360.023 585.75L360.023 595.858"/>
<path class="l4" d="M345.873 559.471L345.873 583.729"/>
<path class="l4" d="M349.916 557.449L360.023 557.449"/>
<path class="l4" d="M349.916 585.75L355.98 585.75"/>
<path class="l4" d="M355.98 583.729L360.023 585.75L355.98 587.772L355.98 583.729"/>
<path class="l4" d="M592.495 407.859L592.495 444.246"/>
<path class="l4" d="M602.602 401.794L602.602 411.902"/>
<path class="l4" d="M602.602 440.203L602.602 450.31"/>
<path class="l4" d="M588.452 413.923L588.452 438.181"/>
<path class="l4" d="M592.495 440.203L602.602 440.203"/>
<path class="l4" d="M596.538 411.902L602.602 411.902"/>
<path class="l4" d="M570.259 426.052L580.366 426.052"/>
<path class="l4" d="M596.538 409.88L592.495 411.902L596.538 413.923L596.538 409.88"/>
<circle class="l4" cx="584.409" cy="426.052" r="4.04298" style="fill:none;"/>
<path class="l4" d="M592.495 488.719L592.495 525.105"/>
<path class="l4" d="M570.259 506.912L588.452 506.912"/>
<path class="l4" d="M602.602 482.654L602.602 492.762"/>
<path class="l4" d="M602.602 521.062L602.602 531.17"/>
<path class="l4" d="M588.452 494.783L588.452 519.041"/>
<path class="l4" d="M592.495 492.762L602.602 492.762"/>
<path class="l4" d="M592.495 521.062L598.559 521.062"/>
<path class="l4" d="M598.559 519.041L602.602 521.062L598.559 523.084L598.559 519.041"/>
<path class="l4" d="M531.85 149.108L531.85 185.495"/>
<path class="l4" d="M521.743 143.044L521.743 153.151"/>
<path class="l4" d="M521.743 181.452L521.743 191.559"/>
<path class="l4" d="M535.893 155.173L535.893 179.43"/>
<path class="l4" d="M521.743 181.452L531.85 181.452"/>
<path class="l4" d="M521.743 153.151L527.807 153.151"/>
<path class="l4" d="M543.979 167.301L554.087 167.301"/>
<path class="l4" d="M527.807 151.13L531.85 153.151L527.807 155.173L527.807 151.13"/>
<circle class="l4" cx="539.936" cy="167.301" r="4.04298" style="fill:none;"/>
<path class="l4" d="M531.85 84.4203L531.85 120.807"/>
<path class="l4" d="M521.743 78.3558L521.743 88.4633"/>
<path class="l4" d="M521.743 116.764L521.743 126.872"/>
<path class="l4" d="M535.893 90.4848L535.893 114.743"/>
<path class="l4" d="M521.743 116.764L531.85 116.764"/>
<path class="l4" d="M521.743 88.4633L527.807 88.4633"/>
<path class="l4" d="M543.979 102.614L554.087 102.614"/>
<path class="l4" d="M527.807 86.4418L531.85 88.4633L527.807 90.4848L527.807 86.4418"/>
<circle class="l4" cx="539.936" cy="102.614" r="4.04298" style="fill:none;"/>
<path class="l4" d="M531.85 229.968L531.85 266.355"/>
<path class="l4" d="M535.893 248.161L554.087 248.161"/>
<path class="l4" d="M521.743 223.903L521.743 234.011"/>
<path class="l4" d="M521.743 262.312L521.743 272.419"/>
<path class="l4" d="M535.893 236.032L535.893 260.29"/>
<path class="l4" d="M521.743 234.011L531.85 234.011"/>
<path class="l4" d="M525.786 262.312L531.85 262.312"/>
<path class="l4" d="M525.786 260.29L521.743 262.312L525.786 264.333L525.786 260.29"/>
<path class="l4" d="M531.85 294.655L531.85 331.042"/>
<path class="l4" d="M535.893 312.849L554.087 312.849"/>
<path class="l4" d="M521.743 288.591L521.743 298.698"/>
<path class="l4" d="M521.743 326.999L521.743 337.107"/>
<path class="l4" d="M535.893 300.72L535.893 324.978"/>
<path class="l4" d="M521.743 298.698L531.85 298.698"/>
<path class="l4" d="M525.786 326.999L531.85 326.999"/>
<path class="l4" d="M525.786 324.978L521.743 326.999L525.786 329.021L525.786 324.978"/>
<path class="l4" d="M835.074 407.859L835.074 444.246"/>
<path class="l4" d="M845.181 401.794L845.181 411.902"/>
<path class="l4" d="M845.181 440.203L845.181 450.31"/>
<path class="l4" d="M831.031 413.923L831.031 438.181"/>
<path class="l4" d="M835.074 440.203L845.181 440.203"/>
<path class="l4" d="M839.117 411.902L845.181 411.902"/>
<path class="l4" d="M812.838 426.052L822.945 426.052"/>
<path class="l4" d="M839.117 409.88L835.074 411.902L839.117 413.923L839.117 409.88"/>
<circle class="l4" cx="826.988" cy="426.052" r="4.04298" style="fill:none;"/>
<path class="l4" d="M835.074 343.171L835.074 379.558"/>
<path class="l4" d="M845.181 337.107L845.181 347.214"/>
<path class="l4" d="M845.181 375.515L845.181 385.623"/>
<path class="l4" d="M831.031 349.236L831.031 373.494"/>
<path class="l4" d="M835.074 375.515L845.181 375.515"/>
<path class="l4" d="M839.117 347.214L845.181 347.214"/>
<path class="l4" d="M812.838 361.365L822.945 361.365"/>
<path class="l4" d="M839.117 345.193L835.074 347.214L839.117 349.236L839.117 345.193"/>
<circle class="l4" cx="826.988" cy="361.365" r="4.04298" style="fill:none;"/>
<path class="l4" d="M835.074 488.719L835.074 525.105"/>
<path class="l4" d="M812.838 506.912L831.031 506.912"/>
<path class="l4" d="M845.181 482.654L845.181 492.762"/>
<path class="l4" d="M845.181 521.062L845.181 531.17"/>
<path class="l4" d="M831.031 494.783L831.031 519.041"/>
<path class="l4" d="M835.074 492.762L845.181 492.762"/>
<path class="l4" d="M835.074 521.062L841.138 521.062"/>
<path class="l4" d="M841.138 519.041L845.181 521.062L841.138 523.084L841.138 519.041"/>
<path class="l4" d="M835.074 553.406L835.074 589.793"/>
<path class="l4" d="M812.838 571.6L831.031 571.6"/>
<path class="l4" d="M845.181 547.342L845.181 557.449"/>
<path class="l4" d="M845.181 585.75L845.181 595.858"/>
<path class="l4" d="M831.031 559.471L831.031 583.729"/>
<path class="l4" d="M835.074 557.449L845.181 557.449"/>
<path class="l4" d="M835.074 585.75L841.138 585.75"/>
<path class="l4" d="M841.138 583.729L845.181 585.75L841.138 587.772L841.138 583.729"/>
<path class="l4" d="M1077.65 407.859L1077.65 444.246"/>
<path class="l4" d="M1087.76 401.794L1087.76 411.902"/>
<path class="l4" d="M1087.76 440.203L1087.76 450.31"/>
<path class="l4" d="M1073.61 413.923L1073.61 438.181"/>
<path class="l4" d="M1077.65 440.203L1087.76 440.203"/>
<path class="l4" d="M1081.7 411.902L1087.76 411.902"/>
<path class="l4" d="M1055.42 426.052L1065.52 426.052"/>
<path class="l4" d="M1081.7 409.88L1077.65 411.902L1081.7 413.923L1081.7 409.88"/>
<circle class="l4" cx="1069.57" cy="426.052" r="4.04298" style="fill:none;"/>
<path class="l4" d="M1077.65 488.719L1077.65 525.105"/>
<path class="l4" d="M1055.42 506.912L1073.61 506.912"/>
<path class="l4" d="M1087.76 482.654L1087.76 492.762"/>
<path class="l4" d="M1087.76 521.062L1087.76 531.17"/>
<path class="l4" d="M1073.61 494.783L1073.61 519.041"/>
<path class="l4" d="M1077.65 492.762L1087.76 492.762"/>
<path class="l4" d="M1077.65 521.062L1083.72 521.062"/>
<path class="l4" d="M1083.72 519.041L1087.76 521.062L1083.72 523.084L1083.72 519.041"/>
<path class="l4" d="M1017.01 149.108L1017.01 185.495"/>
<path class="l4" d="M1006.9 143.044L1006.9 153.151"/>
<path class="l4" d="M1006.9 181.452L1006.9 191.559"/>
<path class="l4" d="M1021.05 155.173L1021.05 179.43"/>
<path class="l4" d="M1006.9 181.452L1017.01 181.452"/>
<path class="l4" d="M1006.9 153.151L1012.97 153.151"/>
<path class="l4" d="M1029.14 167.301L1039.24 167.301"/>
<path class="l4" d="M1012.97 151.13L1017.01 153.151L1012.97 155.173L1012.97 151.13"/>
<circle class="l4" cx="1025.09" cy="167.301" r="4.04298" style="fill:none;"/>
<path class="l4" d="M1017.01 84.4203L1017.01 120.807"/>
<path class="l4" d="M1006.9 78.3558L1006.9 88.4633"/>
<path class="l4" d="M1006.9 116.764L1006.9 126.872"/>
<path class="l4" d="M1021.05 90.4848L1021.05 114.743"/>
<path class="l4" d="M1006.9 116.764L1017.01 116.764"/>
<path class="l4" d="M1006.9 88.4633L1012.97 88.4633"/>
<path class="l4" d="M1029.14 102.614L1039.24 102.614"/>
<path class="l4" d="M1012.97 86.4418L1017.01 88.4633L1012.97 90.4848L1012.97 86.4418"/>
<circle class="l4" cx="1025.09" cy="102.614" r="4.04298" style="fill:none;"/>
<path class="l4" d="M1017.01 229.968L1017.01 266.355"/>
<path class="l4" d="M1021.05 248.161L1039.24 248.161"/>
<path class="l4" d="M1006.9 223.903L1006.9 234.011"/>
<path class="l4" d="M1006.9 262.312L1006.9 272.419"/>
<path class="l4" d="M1021.05 236.032L1021.05 260.29"/>
<path class="l4" d="M1006.9 234.011L1017.01 234.011"/>
<path class="l4" d="M1010.94 262.312L1017.01 262.312"/>
<path class="l4" d="M1010.94 260.29L1006.9 262.312L1010.94 264.333L1010.94 260.29"/>
<path class="l4" d="M1017.01 294.655L1017.01 331.042"/>
<path class="l4" d="M1021.05 312.849L1039.24 312.849"/>
<path class="l4" d="M1006.9 288.591L1006.9 298.698"/>
<path class="l4" d="M1006.9 326.999L1006.9 337.107"/>
<path class="l4" d="M1021.05 300.72L1021.05 324.978"/>
<path class="l4" d="M1006.9 298.698L1017.01 298.698"/>
<path class="l4" d="M1010.94 326.999L1017.01 326.999"/>
<path class="l4" d="M1010.94 324.978L1006.9 326.999L1010.94 329.021L1010.94 324.978"/>
<path class="l5" d="M131.595 238.054L135.638 238.054L135.638 242.097L131.595 242.097L131.595 238.054z"/>
<path class="l5" d="M99.2511 262.312L103.294 262.312L103.294 266.355L99.2511 266.355L99.2511 262.312z"/>
<path class="l5" d="M131.595 286.569L135.638 286.569L135.638 290.612L131.595 290.612L131.595 286.569z"/>
<path class="l5" d="M131.595 205.71L135.638 205.71L135.638 209.753L131.595 209.753L131.595 205.71z"/>
<path class="l5" d="M99.2511 181.452L103.294 181.452L103.294 185.495L99.2511 185.495L99.2511 181.452z"/>
<path class="l5" d="M131.595 157.194L135.638 157.194L135.638 161.237L131.595 161.237L131.595 157.194z"/>
<path class="l5" d="M64.8857 118.786L68.9287 118.786"/>
<path class="l5" d="M64.8857 118.786L61.8535 114.743L54.7782 114.743L57.8105 118.786L54.7782 122.829L61.8535 122.829L64.8857 118.786"/>
<path class="l5" d="M67.9179 117.775L69.9394 117.775L69.9394 119.796L67.9179 119.796L67.9179 117.775z"/>
<path class="l5" d="M164.95 222.892L166.971 222.892L166.971 224.914L164.95 224.914L164.95 222.892z"/>
<path class="l5" d="M92.1758 117.775L94.1973 117.775L94.1973 119.796L92.1758 119.796L92.1758 117.775z"/>
<path class="l5" d="M51.746 222.892L53.7675 222.892L53.7675 224.914L51.746 224.914L51.746 222.892z"/>
<path class="l5" d="M358.002 448.289L362.045 448.289L362.045 452.332L358.002 452.332L358.002 448.289z"/>
<path class="l5" d="M325.658 424.031L329.701 424.031L329.701 428.074L325.658 428.074L325.658 424.031z"/>
<path class="l5" d="M358.002 399.773L362.045 399.773L362.045 403.816L358.002 403.816L358.002 399.773z"/>
<path class="l5" d="M358.002 383.601L362.045 383.601L362.045 387.644L358.002 387.644L358.002 383.601z"/>
<path class="l5" d="M325.658 359.343L329.701 359.343L329.701 363.386L325.658 363.386L325.658 359.343z"/>
<path class="l5" d="M358.002 335.085L362.045 335.085L362.045 339.128L358.002 339.128L358.002 335.085z"/>
<path class="l5" d="M358.002 480.633L362.045 480.633L362.045 484.676L358.002 484.676L358.002 480.633z"/>
<path class="l5" d="M325.658 504.891L329.701 504.891L329.701 508.934L325.658 508.934L325.658 504.891z"/>
<path class="l5" d="M358.002 529.148L362.045 529.148L362.045 533.191L358.002 533.191L358.002 529.148z"/>
<path class="l5" d="M358.002 545.32L362.045 545.32L362.045 549.363L358.002 549.363L358.002 545.32z"/>
<path class="l5" d="M325.658 569.578L329.701 569.578L329.701 573.621L325.658 573.621L325.658 569.578z"/>
<path class="l5" d="M358.002 593.836L362.045 593.836L362.045 597.879L358.002 597.879L358.002 593.836z"/>
<path class="l5" d="M310.497 425.042L312.518 425.042L312.518 427.063L310.497 427.063L310.497 425.042z"/>
<path class="l5" d="M310.497 505.901L312.518 505.901L312.518 507.923L310.497 507.923L310.497 505.901z"/>
<path class="l5" d="M226.605 466.482L230.648 466.482"/>
<path class="l5" d="M226.605 466.482L223.573 462.439L216.498 462.439L219.53 466.482L216.498 470.525L223.573 470.525L226.605 466.482"/>
<path class="l5" d="M229.637 465.471L231.659 465.471L231.659 467.493L229.637 467.493L229.637 465.471z"/>
<path class="l5" d="M600.581 448.289L604.624 448.289L604.624 452.332L600.581 452.332L600.581 448.289z"/>
<path class="l5" d="M568.237 424.031L572.28 424.031L572.28 428.074L568.237 428.074L568.237 424.031z"/>
<path class="l5" d="M600.581 399.773L604.624 399.773L604.624 403.816L600.581 403.816L600.581 399.773z"/>
<path class="l5" d="M600.581 480.633L604.624 480.633L604.624 484.676L600.581 484.676L600.581 480.633z"/>
<path class="l5" d="M568.237 504.891L572.28 504.891L572.28 508.934L568.237 508.934L568.237 504.891z"/>
<path class="l5" d="M600.581 529.148L604.624 529.148L604.624 533.191L600.581 533.191L600.581 529.148z"/>
<path class="l5" d="M519.721 189.538L523.764 189.538L523.764 193.581L519.721 193.581L519.721 189.538z"/>
<path class="l5" d="M552.065 165.28L556.108 165.28L556.108 169.323L552.065 169.323L552.065 165.28z"/>
<path class="l5" d="M519.721 141.022L523.764 141.022L523.764 145.065L519.721 145.065L519.721 141.022z"/>
<path class="l5" d="M519.721 124.85L523.764 124.85L523.764 128.893L519.721 128.893L519.721 124.85z"/>
<path class="l5" d="M552.065 100.592L556.108 100.592L556.108 104.635L552.065 104.635L552.065 100.592z"/>
<path class="l5" d="M519.721 76.3344L523.764 76.3344L523.764 80.3773L519.721 80.3773L519.721 76.3344z"/>
<path class="l5" d="M519.721 221.882L523.764 221.882L523.764 225.925L519.721 225.925L519.721 221.882z"/>
<path class="l5" d="M552.065 246.14L556.108 246.14L556.108 250.183L552.065 250.183L552.065 246.14z"/>
<path class="l5" d="M519.721 270.398L523.764 270.398L523.764 274.441L519.721 274.441L519.721 270.398z"/>
<path class="l5" d="M519.721 286.569L523.764 286.569L523.764 290.612L519.721 290.612L519.721 286.569z"/>
<path class="l5" d="M552.065 310.827L556.108 310.827L556.108 314.87L552.065 314.87L552.065 310.827z"/>
<path class="l5" d="M519.721 335.085L523.764 335.085L523.764 339.128L519.721 339.128L519.721 335.085z"/>
<path class="l5" d="M569.248 247.15L571.269 247.15L571.269 249.172L569.248 249.172L569.248 247.15z"/>
<path class="l5" d="M569.248 166.291L571.269 166.291L571.269 168.312L569.248 168.312L569.248 166.291z"/>
<path class="l5" d="M843.16 448.289L847.203 448.289L847.203 452.332L843.16 452.332L843.16 448.289z"/>
<path class="l5" d="M810.816 424.031L814.859 424.031L814.859 428.074L810.816 428.074L810.816 424.031z"/>
<path class="l5" d="M843.16 399.773L847.203 399.773L847.203 403.816L843.16 403.816L843.16 399.773z"/>
<path class="l5" d="M843.16 383.601L847.203 383.601L847.203 387.644L843.16 387.644L843.16 383.601z"/>
<path class="l5" d="M810.816 359.343L814.859 359.343L814.859 363.386L810.816 363.386L810.816 359.343z"/>
<path class="l5" d="M843.16 335.085L847.203 335.085L847.203 339.128L843.16 339.128L843.16 335.085z"/>
<path class="l5" d="M843.16 480.633L847.203 480.633L847.203 484.676L843.16 484.676L843.16 480.633z"/>
<path class="l5" d="M810.816 504.891L814.859 504.891L814.859 508.934L810.816 508.934L810.816 504.891z"/>
<path class="l5" d="M843.16 529.148L847.203 529.148L847.203 533.191L843.16 533.191L843.16 529.148z"/>
<path class="l5" d="M843.16 545.32L847.203 545.32L847.203 549.363L843.16 549.363L843.16 545.32z"/>
<path class="l5" d="M810.816 569.578L814.859 569.578L814.859 573.621L810.816 573.621L810.816 569.578z"/>
<path class="l5" d="M843.16 593.836L847.203 593.836L847.203 597.879L843.16 597.879L843.16 593.836z"/>
<path class="l5" d="M795.655 505.901L797.676 505.901L797.676 507.923L795.655 507.923L795.655 505.901z"/>
<path class="l5" d="M795.655 425.042L797.676 425.042L797.676 427.063L795.655 427.063L795.655 425.042z"/>
<path class="l5" d="M1085.74 448.289L1089.78 448.289L1089.78 452.332L1085.74 452.332L1085.74 448.289z"/>
<path class="l5" d="M1053.39 424.031L1057.44 424.031L1057.44 428.074L1053.39 428.074L1053.39 424.031z"/>
<path class="l5" d="M1085.74 399.773L1089.78 399.773L1089.78 403.816L1085.74 403.816L1085.74 399.773z"/>
<path class="l5" d="M1085.74 480.633L1089.78 480.633L1089.78 484.676L1085.74 484.676L1085.74 480.633z"/>
<path class="l5" d="M1053.39 504.891L1057.44 504.891L1057.44 508.934L1053.39 508.934L1053.39 504.891z"/>
<path class="l5" d="M1085.74 529.148L1089.78 529.148L1089.78 533.191L1085.74 533.191L1085.74 529.148z"/>
<path class="l5" d="M1004.88 189.538L1008.92 189.538L1008.92 193.581L1004.88 193.581L1004.88 189.538z"/>
<path class="l5" d="M1037.22 165.28L1041.27 165.28L1041.27 169.323L1037.22 169.323L1037.22 165.28z"/>
<path class="l5" d="M1004.88 141.022L1008.92 141.022L1008.92 145.065L1004.88 145.065L1004.88 141.022z"/>
<path class="l5" d="M1004.88 124.85L1008.92 124.85L1008.92 128.893L1004.88 128.893L1004.88 124.85z"/>
<path class="l5" d="M1037.22 100.592L1041.27 100.592L1041.27 104.635L1037.22 104.635L1037.22 100.592z"/>
<path class="l5" d="M1004.88 76.3344L1008.92 76.3344L1008.92 80.3773L1004.88 80.3773L1004.88 76.3344z"/>
<path class="l5" d="M1004.88 221.882L1008.92 221.882L1008.92 225.925L1004.88 225.925L1004.88 221.882z"/>
<path class="l5" d="M1037.22 246.14L1041.27 246.14L1041.27 250.183L1037.22 250.183L1037.22 246.14z"/>
<path class="l5" d="M1004.88 270.398L1008.92 270.398L1008.92 274.441L1004.88 274.441L1004.88 270.398z"/>
<path class="l5" d="M1004.88 286.569L1008.92 286.569L1008.92 290.612L1004.88 290.612L1004.88 286.569z"/>
<path class="l5" d="M1037.22 310.827L1041.27 310.827L1041.27 314.87L1037.22 314.87L1037.22 310.827z"/>
<path class="l5" d="M1004.88 335.085L1008.92 335.085L1008.92 339.128L1004.88 339.128L1004.88 335.085z"/>
<path class="l5" d="M1054.41 166.291L1056.43 166.291L1056.43 168.312L1054.41 168.312L1054.41 166.291z"/>
<path class="l5" d="M1054.41 247.15L1056.43 247.15L1056.43 249.172L1054.41 249.172L1054.41 247.15z"/>
<path class="l5" d="M1233.31 466.482L1240.38 466.482"/>
<path class="l5" d="M1247.46 466.482L1244.43 462.439L1237.35 462.439L1240.38 466.482L1237.35 470.525L1244.43 470.525L1247.46 466.482"/>
<path class="l5" d="M1232.3 465.471L1234.32 465.471L1234.32 467.493L1232.3 467.493L1232.3 465.471z"/>
<path class="l5" d="M682.451 465.471L684.473 465.471L684.473 467.493L682.451 467.493L682.451 465.471z"/>
<path class="l5" d="M456.044 465.471L458.066 465.471L458.066 467.493L456.044 467.493L456.044 465.471z"/>
<path class="l5" d="M941.202 465.471L943.224 465.471L943.224 467.493L941.202 467.493L941.202 465.471z"/>
<path class="l5" d="M520.732 61.1732L522.754 61.1732L522.754 63.1947L520.732 63.1947L520.732 61.1732z"/>
<path class="l5" d="M359.013 319.924L361.034 319.924L361.034 321.946L359.013 321.946L359.013 319.924z"/>
<path class="l5" d="M601.592 384.612L603.613 384.612L603.613 386.633L601.592 386.633L601.592 384.612z"/>
<path class="l5" d="M844.171 319.924L846.192 319.924L846.192 321.946L844.171 321.946L844.171 319.924z"/>
<path class="l5" d="M1005.89 61.1732L1007.91 61.1732L1007.91 63.1947L1005.89 63.1947L1005.89 61.1732z"/>
<path class="l5" d="M1086.75 384.612L1088.77 384.612L1088.77 386.633L1086.75 386.633L1086.75 384.612z"/>
<path class="l5" d="M132.606 142.033L134.627 142.033L134.627 144.054L132.606 144.054L132.606 142.033z"/>
<path class="l5" d="M132.606 303.752L134.627 303.752L134.627 305.774L132.606 305.774L132.606 303.752z"/>
<path class="l5" d="M359.013 611.019L361.034 611.019L361.034 613.04L359.013 613.04L359.013 611.019z"/>
<path class="l5" d="M520.732 352.268L522.754 352.268L522.754 354.289L520.732 354.289L520.732 352.268z"/>
<path class="l5" d="M601.592 546.331L603.613 546.331L603.613 548.353L601.592 548.353L601.592 546.331z"/>
<path class="l5" d="M844.171 611.019L846.192 611.019L846.192 613.04L844.171 613.04L844.171 611.019z"/>
<path class="l5" d="M1005.89 352.268L1007.91 352.268L1007.91 354.289L1005.89 354.289L1005.89 352.268z"/>
<path class="l5" d="M1086.75 546.331L1088.77 546.331L1088.77 548.353L1086.75 548.353L1086.75 546.331z"/>
<path class="l5" d="M64.8857 78.3558L68.9287 78.3558"/>
<path class="l5" d="M64.8857 78.3558L61.8535 74.3129L54.7782 74.3129L57.8105 78.3558L54.7782 82.3988L61.8535 82.3988L64.8857 78.3558"/>
<path class="l5" d="M67.9179 77.3451L69.9394 77.3451L69.9394 79.3666L67.9179 79.3666L67.9179 77.3451z"/>
<path class="l5" d="M92.1758 77.3451L94.1973 77.3451L94.1973 79.3666L92.1758 79.3666L92.1758 77.3451z"/>
<path class="l5" d="M64.8857 62.1839L68.9287 62.1839"/>
<path class="l5" d="M64.8857 62.1839L61.8535 58.1409L54.7782 58.1409L57.8105 62.1839L54.7782 66.2269L61.8535 66.2269L64.8857 62.1839"/>
<path class="l5" d="M67.9179 61.1732L69.9394 61.1732L69.9394 63.1947L67.9179 63.1947L67.9179 61.1732z"/>
<path class="l5" d="M92.1758 61.1732L94.1973 61.1732L94.1973 63.1947L92.1758 63.1947L92.1758 61.1732z"/>
<path class="l1" d="M133.616 207.731L133.616 240.075"/>
<path class="l1" d="M85.1006 183.473L101.273 183.473"/>
<path class="l1" d="M85.1006 183.473L85.1006 264.333"/>
<path class="l1" d="M85.1006 264.333L101.273 264.333"/>
<path class="l1" d="M133.616 288.591L133.616 304.763"/>
<path class="l1" d="M133.616 143.044L133.616 159.215"/>
<path class="l1" d="M133.616 223.903L165.96 223.903"/>
<path class="l1" d="M52.7568 223.903L85.1006 223.903"/>
<path class="l1" d="M68.9287 118.786L93.1866 118.786"/>
<path class="l1" d="M360.023 450.31L360.023 482.654"/>
<path class="l1" d="M360.023 595.858L360.023 612.03"/>
<path class="l1" d="M360.023 320.935L360.023 337.107"/>
<path class="l1" d="M230.648 466.482L262.992 466.482"/>
<path class="l1" d="M311.508 426.052L327.68 426.052"/>
<path class="l1" d="M311.508 506.912L327.68 506.912"/>
<path class="l1" d="M554.087 426.052L554.087 466.482"/>
<path class="l1" d="M554.087 426.052L570.259 426.052"/>
<path class="l1" d="M554.087 466.482L554.087 506.912"/>
<path class="l1" d="M554.087 506.912L570.259 506.912"/>
<path class="l1" d="M602.602 450.31L602.602 482.654"/>
<path class="l1" d="M602.602 531.17L602.602 547.342"/>
<path class="l1" d="M602.602 385.623L602.602 401.794"/>
<path class="l1" d="M360.023 466.482L554.087 466.482"/>
<path class="l1" d="M521.743 62.1839L521.743 78.3558"/>
<path class="l1" d="M521.743 337.107L521.743 353.279"/>
<path class="l1" d="M554.087 248.161L570.259 248.161"/>
<path class="l1" d="M554.087 167.301L570.259 167.301"/>
<path class="l1" d="M521.743 191.559L521.743 223.903"/>
<path class="l1" d="M521.743 272.419L521.743 288.591"/>
<path class="l1" d="M521.743 126.872L521.743 143.044"/>
<path class="l1" d="M683.462 207.731L683.462 466.482"/>
<path class="l1" d="M602.602 466.482L683.462 466.482"/>
<path class="l1" d="M554.087 312.849L618.774 312.849"/>
<path class="l1" d="M618.774 102.614L618.774 312.849"/>
<path class="l1" d="M554.087 102.614L618.774 102.614"/>
<path class="l1" d="M618.774 207.731L683.462 207.731"/>
<path class="l1" d="M457.055 207.731L521.743 207.731"/>
<path class="l1" d="M457.055 207.731L457.055 466.482"/>
<path class="l1" d="M360.023 531.17L360.023 547.342"/>
<path class="l1" d="M360.023 385.623L360.023 401.794"/>
<path class="l1" d="M262.992 361.365L327.68 361.365"/>
<path class="l1" d="M262.992 361.365L262.992 466.482"/>
<path class="l1" d="M262.992 571.6L327.68 571.6"/>
<path class="l1" d="M262.992 466.482L262.992 571.6"/>
<path class="l1" d="M845.181 320.935L845.181 337.107"/>
<path class="l1" d="M845.181 595.858L845.181 612.03"/>
<path class="l1" d="M845.181 450.31L845.181 482.654"/>
<path class="l1" d="M845.181 531.17L845.181 547.342"/>
<path class="l1" d="M845.181 385.623L845.181 401.794"/>
<path class="l1" d="M796.666 506.912L812.838 506.912"/>
<path class="l1" d="M796.666 426.052L812.838 426.052"/>
<path class="l1" d="M748.15 361.365L812.838 361.365"/>
<path class="l1" d="M748.15 361.365L748.15 571.6"/>
<path class="l1" d="M748.15 571.6L812.838 571.6"/>
<path class="l1" d="M683.462 466.482L748.15 466.482"/>
<path class="l1" d="M845.181 466.482L1039.24 466.482"/>
<path class="l1" d="M1039.24 426.052L1039.24 466.482"/>
<path class="l1" d="M1039.24 426.052L1055.42 426.052"/>
<path class="l1" d="M1039.24 466.482L1039.24 506.912"/>
<path class="l1" d="M1039.24 506.912L1055.42 506.912"/>
<path class="l1" d="M1087.76 450.31L1087.76 482.654"/>
<path class="l1" d="M1087.76 531.17L1087.76 547.342"/>
<path class="l1" d="M1087.76 385.623L1087.76 401.794"/>
<path class="l1" d="M1006.9 191.559L1006.9 223.903"/>
<path class="l1" d="M1006.9 337.107L1006.9 353.279"/>
<path class="l1" d="M1006.9 62.1839L1006.9 78.3558"/>
<path class="l1" d="M1039.24 167.301L1055.42 167.301"/>
<path class="l1" d="M1039.24 248.161L1055.42 248.161"/>
<path class="l1" d="M1006.9 272.419L1006.9 288.591"/>
<path class="l1" d="M1006.9 126.872L1006.9 143.044"/>
<path class="l1" d="M1039.24 102.614L1103.93 102.614"/>
<path class="l1" d="M1103.93 102.614L1103.93 207.731"/>
<path class="l1" d="M1039.24 312.849L1103.93 312.849"/>
<path class="l1" d="M1103.93 207.731L1103.93 312.849"/>
<path class="l1" d="M942.213 207.731L1006.9 207.731"/>
<path class="l1" d="M942.213 207.731L942.213 466.482"/>
<path class="l1" d="M1168.62 207.731L1168.62 466.482"/>
<path class="l1" d="M1103.93 207.731L1168.62 207.731"/>
<path class="l1" d="M1087.76 466.482L1168.62 466.482"/>
<path class="l1" d="M1168.62 466.482L1233.31 466.482"/>
<path class="l1" d="M68.9287 78.3558L93.1866 78.3558"/>
<path class="l1" d="M68.9287 62.1839L93.1866 62.1839"/>
<circle class="l1" cx="262.992" cy="466.482" r="3.23439"/>
<circle class="l1" cx="85.1006" cy="223.903" r="3.23439"/>
<circle class="l1" cx="133.616" cy="223.903" r="3.23439"/>
<circle class="l1" cx="262.992" cy="466.482" r="3.23439"/>
<circle class="l1" cx="262.992" cy="466.482" r="3.23439"/>
<circle class="l1" cx="457.055" cy="466.482" r="3.23439"/>
<circle class="l1" cx="521.743" cy="207.731" r="3.23439"/>
<circle class="l1" cx="618.774" cy="207.731" r="3.23439"/>
<circle class="l1" cx="554.087" cy="466.482" r="3.23439"/>
<circle class="l1" cx="602.602" cy="466.482" r="3.23439"/>
<circle class="l1" cx="683.462" cy="466.482" r="3.23439"/>
<circle class="l1" cx="360.023" cy="466.482" r="3.23439"/>
<circle class="l1" cx="554.087" cy="466.482" r="3.23439"/>
<circle class="l1" cx="554.087" cy="466.482" r="3.23439"/>
<circle class="l1" cx="942.213" cy="466.482" r="3.23439"/>
<circle class="l1" cx="1006.9" cy="207.731" r="3.23439"/>
<circle class="l1" cx="683.462" cy="466.482" r="3.23439"/>
<circle class="l1" cx="845.181" cy="466.482" r="3.23439"/>
<circle class="l1" cx="1039.24" cy="466.482" r="3.23439"/>
<circle class="l1" cx="683.462" cy="466.482" r="3.23439"/>
<circle class="l1" cx="748.15" cy="466.482" r="3.23439"/>
<circle class="l1" cx="1103.93" cy="207.731" r="3.23439"/>
<circle class="l1" cx="1103.93" cy="207.731" r="3.23439"/>
<circle class="l1" cx="1168.62" cy="466.482" r="3.23439"/>
<circle class="l1" cx="1103.93" cy="207.731" r="3.23439"/>
<circle class="l1" cx="1039.24" cy="466.482" r="3.23439"/>
<circle class="l1" cx="1168.62" cy="466.482" r="3.23439"/>
<circle class="l1" cx="1087.76" cy="466.482" r="3.23439"/>
<circle class="l1" cx="1168.62" cy="466.482" r="3.23439"/>
<circle class="l1" cx="1039.24" cy="466.482" r="3.23439"/>
</svg>
