<svg xmlns="http://www.w3.org/2000/svg" xmlns:xlink="http://www.w3.org/1999/xlink" width="1280" height="680" version="1.1">
<style type="text/css">
.l0{
 fill: #000000;
  stroke: #000000;
  stroke-linecap:round;
  stroke-linejoin:round;
  stroke-width: 0.48658;
}
.l1{
 fill: #00ccee;
  stroke: #00ccee;
  stroke-linecap:round;
  stroke-linejoin:round;
  stroke-width: 0.48658;
}
.l2{
  fill: none;
  stroke: #3f3f3f;
  stroke-linecap:round;
  stroke-linejoin:round;
  stroke-width: 0.48658;
}
.l3{
 fill: #cccccc; fill-opacity: 0.5;
  stroke: #cccccc;
  stroke-linecap:round;
  stroke-linejoin:round;
  stroke-width: 0.48658;
}
.l4{
 fill: #88dd00;
  stroke: #88dd00;
  stroke-linecap:round;
  stroke-linejoin:round;
  stroke-width: 0.48658;
}
.l5{
 fill: #bb2200;
  stroke: #bb2200;
  stroke-linecap:round;
  stroke-linejoin:round;
  stroke-width: 0.48658;
}
.l6{
 fill: #00ccee; fill-opacity: 0.5;
  stroke: #00ccee;
  stroke-linecap:round;
  stroke-linejoin:round;
  stroke-width: 0.48658;
}
.l7{
 fill: #ff0000; fill-opacity: 0.5;
  stroke: #ff0000;
  stroke-linecap:round;
  stroke-linejoin:round;
  stroke-width: 0.48658;
}
.l8{
 fill: #ffff00; fill-opacity: 0.5;
  stroke: #ffff00;
  stroke-linecap:round;
  stroke-linejoin:round;
  stroke-width: 0.48658;
}
.l9{
 fill: #ffffff; fill-opacity: 0.5;
  stroke: #ffffff;
  stroke-linecap:round;
  stroke-linejoin:round;
  stroke-width: 0.48658;
}
.l10{
 fill: #ff00ff;
  stroke: #ff00ff;
  stroke-linecap:round;
  stroke-linejoin:round;
  stroke-width: 0.48658;
}
.l11{
 fill: #00ff00; fill-opacity: 0.5;
  stroke: #00ff00;
  stroke-linecap:round;
  stroke-linejoin:round;
  stroke-width: 0.48658;
}
.l12{
 fill: #0044dd; fill-opacity: 0.5;
  stroke: #0044dd;
  stroke-linecap:round;
  stroke-linejoin:round;
  stroke-width: 0.48658;
}
.l13{
 fill: #aaaa00; fill-opacity: 0.5;
  stroke: #aaaa00;
  stroke-linecap:round;
  stroke-linejoin:round;
  stroke-width: 0.48658;
}
.l14{
  fill: none;
  stroke: #aaccaa;
  stroke-linecap:round;
  stroke-linejoin:round;
  stroke-width: 0.48658;
}
.l15{
 fill: #ff7777; fill-opacity: 0.5;
  stroke: #ff7777;
  stroke-linecap:round;
  stroke-linejoin:round;
  stroke-width: 0.48658;
}
.l16{
 fill: #bfff81; fill-opacity: 0.5;
  stroke: #bfff81;
  stroke-linecap:round;
  stroke-linejoin:round;
  stroke-width: 0.48658;
}
.l17{
  fill: none;
  stroke: #00ffcc;
  stroke-linecap:round;
  stroke-linejoin:round;
  stroke-width: 0.48658;
}
.l18{
 fill: #ce0097; fill-opacity: 0.5;
  stroke: #ce0097;
  stroke-linecap:round;
  stroke-linejoin:round;
  stroke-width: 0.48658;
}
.l19{
  fill: none;
  stroke: #d2d46b;
  stroke-linecap:round;
  stroke-linejoin:round;
  stroke-width: 0.48658;
}
.l20{
  fill: none;
  stroke: #ef6158;
  stroke-linecap:round;
  stroke-linejoin:round;
  stroke-width: 0.48658;
}
.l21{
  fill: none;
  stroke: #fdb200;
  stroke-linecap:round;
  stroke-linejoin:round;
  stroke-width: 0.48658;
}
text {font-family: Sans-Serif;}
</style>
<rect class="l0" x="0" y="0" width="1280" height="680"/>
<path class="l1" d="M718.112 563.516L722.617 559.01"/>
<text fill="#00ccee"  xml:space="preserve" font-size="6.32554" transform="translate(703.48, 561.441)" >Q0</text>
<path class="l1" d="M718.112 491.43L722.617 486.924"/>
<text fill="#00ccee"  xml:space="preserve" font-size="6.32554" transform="translate(703.48, 489.355)" >Q1</text>
<path class="l1" d="M718.112 419.344L722.617 414.838"/>
<text fill="#00ccee"  xml:space="preserve" font-size="6.32554" transform="translate(703.48, 417.269)" >Q2</text>
<path class="l1" d="M718.112 347.258L722.617 342.752"/>
<text fill="#00ccee"  xml:space="preserve" font-size="6.32554" transform="translate(703.48, 345.183)" >Q3</text>
<path class="l1" d="M718.112 275.172L722.617 270.667"/>
<text fill="#00ccee"  xml:space="preserve" font-size="6.32554" transform="translate(703.48, 273.097)" >Q4</text>
<path class="l1" d="M718.112 203.086L722.617 198.581"/>
<text fill="#00ccee"  xml:space="preserve" font-size="6.32554" transform="translate(703.48, 201.011)" >Q5</text>
<path class="l1" d="M718.112 131L722.617 126.495"/>
<text fill="#00ccee"  xml:space="preserve" font-size="6.32554" transform="translate(703.48, 128.925)" >Q6</text>
<path class="l1" d="M718.112 58.9143L722.617 54.4089"/>
<text fill="#00ccee"  xml:space="preserve" font-size="6.32554" transform="translate(703.48, 56.8393)" >Q7</text>
<text fill="#00ccee"  xml:space="preserve" font-size="6.32554" transform="translate(557.045, 565.946)" >B0</text>
<path class="l1" d="M546.908 572.526L551.413 568.021"/>
<text fill="#00ccee"  xml:space="preserve" font-size="6.32554" transform="translate(584.077, 556.935)" >A0</text>
<path class="l1" d="M573.94 563.516L578.445 559.01"/>
<text fill="#00ccee"  xml:space="preserve" font-size="6.32554" transform="translate(557.045, 493.86)" >B1</text>
<path class="l1" d="M546.908 500.44L551.413 495.935"/>
<text fill="#00ccee"  xml:space="preserve" font-size="6.32554" transform="translate(584.077, 484.849)" >A1</text>
<path class="l1" d="M573.94 491.43L578.445 486.924"/>
<text fill="#00ccee"  xml:space="preserve" font-size="6.32554" transform="translate(557.045, 421.774)" >B2</text>
<path class="l1" d="M546.908 428.354L551.413 423.849"/>
<text fill="#00ccee"  xml:space="preserve" font-size="6.32554" transform="translate(584.077, 412.763)" >A2</text>
<path class="l1" d="M573.94 419.344L578.445 414.838"/>
<text fill="#00ccee"  xml:space="preserve" font-size="6.32554" transform="translate(557.045, 349.688)" >B3</text>
<path class="l1" d="M546.908 356.269L551.413 351.763"/>
<text fill="#00ccee"  xml:space="preserve" font-size="6.32554" transform="translate(584.077, 340.678)" >A3</text>
<path class="l1" d="M573.94 347.258L578.445 342.752"/>
<text fill="#00ccee"  xml:space="preserve" font-size="6.32554" transform="translate(557.045, 277.602)" >B4</text>
<path class="l1" d="M546.908 284.183L551.413 279.677"/>
<text fill="#00ccee"  xml:space="preserve" font-size="6.32554" transform="translate(584.077, 268.592)" >A4</text>
<path class="l1" d="M573.94 275.172L578.445 270.667"/>
<text fill="#00ccee"  xml:space="preserve" font-size="6.32554" transform="translate(557.045, 205.516)" >B5</text>
<path class="l1" d="M546.908 212.097L551.413 207.591"/>
<text fill="#00ccee"  xml:space="preserve" font-size="6.32554" transform="translate(584.077, 196.506)" >A5</text>
<path class="l1" d="M573.94 203.086L578.445 198.581"/>
<text fill="#00ccee"  xml:space="preserve" font-size="6.32554" transform="translate(557.045, 133.431)" >B6</text>
<path class="l1" d="M546.908 140.011L551.413 135.506"/>
<text fill="#00ccee"  xml:space="preserve" font-size="6.32554" transform="translate(584.077, 124.42)" >A6</text>
<path class="l1" d="M573.94 131L578.445 126.495"/>
<text fill="#00ccee"  xml:space="preserve" font-size="6.32554" transform="translate(557.045, 61.3447)" >B7</text>
<path class="l1" d="M546.908 67.925L551.413 63.4197"/>
<text fill="#00ccee"  xml:space="preserve" font-size="6.32554" transform="translate(584.077, 52.334)" >A7</text>
<path class="l1" d="M573.94 58.9143L578.445 54.4089"/>
<text fill="#00ccee"  xml:space="preserve" font-size="7.73121" transform="translate(495.439, 557.583)" >A[7..0]</text>
<text fill="#00ccee"  xml:space="preserve" font-size="7.73121" transform="translate(495.439, 575.604)" >B[7..0]</text>
<text fill="#00ccee"  xml:space="preserve" font-size="7.73121" transform="translate(758.66, 57.4867)" >Q[7..0]</text>
<text fill="#00ccee"  xml:space="preserve" font-size="7.73121" transform="translate(568.308, 629.95)" >CLK</text>
<text fill="#00ccee"  xml:space="preserve" font-size="7.73121" transform="translate(568.308, 611.929)" >SUB</text>
<text fill="#00ccee"  xml:space="preserve" font-size="7.73121" transform="translate(568.308, 593.907)" >STORE</text>
<text fill="#00ccee"  xml:space="preserve" font-size="7.73121" transform="translate(494.439, 593.625)" >STORE</text>
<text fill="#00ccee"  xml:space="preserve" font-size="7.73121" transform="translate(504.439, 611.647)" >SUB</text>
<text fill="#00ccee"  xml:space="preserve" font-size="7.73121" transform="translate(505.439, 629.668)" >CLK</text>
<text fill="#00ccee"  xml:space="preserve" font-size="7.73121" transform="translate(631.152, 602.918)" >SUB</text>
<text fill="#00ccee"  xml:space="preserve" font-size="7.73121" transform="translate(758.66, 34.9598)" >CARRY</text>
<text fill="#00ccee"  xml:space="preserve" font-size="7.73121" transform="translate(505.439, 665.711)" >vdd</text>
<text fill="#00ccee"  xml:space="preserve" font-size="7.73121" transform="translate(568.308, 665.993)" >vdd</text>
<text fill="#00ccee"  xml:space="preserve" font-size="7.73121" transform="translate(505.439, 647.69)" >gnd</text>
<text fill="#00ccee"  xml:space="preserve" font-size="7.73121" transform="translate(568.308, 647.972)" >gnd</text>
<text fill="#00ccee"  xml:space="preserve" font-size="7.73121" transform="translate(600.615, 548.853)" >vdd</text>
<text fill="#00ccee"  xml:space="preserve" font-size="7.73121" transform="translate(600.615, 476.768)" >vdd</text>
<text fill="#00ccee"  xml:space="preserve" font-size="7.73121" transform="translate(600.615, 404.682)" >vdd</text>
<text fill="#00ccee"  xml:space="preserve" font-size="7.73121" transform="translate(600.615, 332.596)" >vdd</text>
<text fill="#00ccee"  xml:space="preserve" font-size="7.73121" transform="translate(600.615, 260.51)" >vdd</text>
<text fill="#00ccee"  xml:space="preserve" font-size="7.73121" transform="translate(600.615, 188.424)" >vdd</text>
<text fill="#00ccee"  xml:space="preserve" font-size="7.73121" transform="translate(600.615, 44.2522)" >vdd</text>
<text fill="#00ccee"  xml:space="preserve" font-size="7.73121" transform="translate(600.615, 512.81)" >gnd</text>
<text fill="#00ccee"  xml:space="preserve" font-size="7.73121" transform="translate(600.615, 584.896)" >gnd</text>
<text fill="#00ccee"  xml:space="preserve" font-size="7.73121" transform="translate(600.615, 440.725)" >gnd</text>
<text fill="#00ccee"  xml:space="preserve" font-size="7.73121" transform="translate(600.615, 368.639)" >gnd</text>
<text fill="#00ccee"  xml:space="preserve" font-size="7.73121" transform="translate(600.615, 296.553)" >gnd</text>
<text fill="#00ccee"  xml:space="preserve" font-size="7.73121" transform="translate(600.615, 224.467)" >gnd</text>
<text fill="#00ccee"  xml:space="preserve" font-size="7.73121" transform="translate(600.615, 152.381)" >gnd</text>
<text fill="#00ccee"  xml:space="preserve" font-size="7.73121" transform="translate(600.615, 80.2951)" >gnd</text>
<text fill="#00ccee"  xml:space="preserve" font-size="7.73121" transform="translate(596.109, 539.843)" >CLK</text>
<text fill="#00ccee"  xml:space="preserve" font-size="7.73121" transform="translate(595.109, 530.832)" >SUB</text>
<text fill="#00ccee"  xml:space="preserve" font-size="7.73121" transform="translate(585.109, 521.821)" >STORE</text>
<text fill="#00ccee"  xml:space="preserve" font-size="7.73121" transform="translate(596.109, 467.757)" >CLK</text>
<text fill="#00ccee"  xml:space="preserve" font-size="7.73121" transform="translate(595.109, 458.746)" >SUB</text>
<text fill="#00ccee"  xml:space="preserve" font-size="7.73121" transform="translate(585.109, 449.735)" >STORE</text>
<text fill="#00ccee"  xml:space="preserve" font-size="7.73121" transform="translate(596.109, 395.671)" >CLK</text>
<text fill="#00ccee"  xml:space="preserve" font-size="7.73121" transform="translate(595.109, 386.66)" >SUB</text>
<text fill="#00ccee"  xml:space="preserve" font-size="7.73121" transform="translate(585.109, 377.649)" >STORE</text>
<text fill="#00ccee"  xml:space="preserve" font-size="7.73121" transform="translate(596.109, 323.585)" >CLK</text>
<text fill="#00ccee"  xml:space="preserve" font-size="7.73121" transform="translate(595.109, 314.574)" >SUB</text>
<text fill="#00ccee"  xml:space="preserve" font-size="7.73121" transform="translate(585.109, 305.564)" >STORE</text>
<text fill="#00ccee"  xml:space="preserve" font-size="7.73121" transform="translate(596.109, 251.499)" >CLK</text>
<text fill="#00ccee"  xml:space="preserve" font-size="7.73121" transform="translate(595.109, 242.488)" >SUB</text>
<text fill="#00ccee"  xml:space="preserve" font-size="7.73121" transform="translate(585.109, 233.478)" >STORE</text>
<text fill="#00ccee"  xml:space="preserve" font-size="7.73121" transform="translate(596.109, 179.413)" >CLK</text>
<text fill="#00ccee"  xml:space="preserve" font-size="7.73121" transform="translate(595.109, 170.402)" >SUB</text>
<text fill="#00ccee"  xml:space="preserve" font-size="7.73121" transform="translate(585.109, 161.392)" >STORE</text>
<text fill="#00ccee"  xml:space="preserve" font-size="7.73121" transform="translate(596.109, 107.327)" >CLK</text>
<text fill="#00ccee"  xml:space="preserve" font-size="7.73121" transform="translate(595.109, 98.3166)" >SUB</text>
<text fill="#00ccee"  xml:space="preserve" font-size="7.73121" transform="translate(585.109, 89.3058)" >STORE</text>
<text fill="#00ccee"  xml:space="preserve" font-size="7.73121" transform="translate(596.109, 35.2414)" >CLK</text>
<text fill="#00ccee"  xml:space="preserve" font-size="7.73121" transform="translate(595.109, 26.2307)" >SUB</text>
<text fill="#00ccee"  xml:space="preserve" font-size="7.73121" transform="translate(585.109, 17.2199)" >STORE</text>
<text fill="#00ccee"  xml:space="preserve" font-size="7.73121" transform="translate(600.615, 116.338)" >vdd</text>
<text fill="#cccccc"  xml:space="preserve" font-size="7.02837" transform="translate(671.256, 585.216)" >bitslice</text>
<text fill="#cccccc"  xml:space="preserve" font-size="4.68558" transform="translate(670.805, 544.342)" >x1</text>
<text fill="#cccccc"  xml:space="preserve" font-size="4.68558" transform="translate(666.5, 559.252) rotate(270)" >CO</text>
<text fill="#cccccc"  xml:space="preserve" font-size="4.68558" transform="translate(637.697, 561.252) rotate(270)" >SUB</text>
<text fill="#cccccc"  xml:space="preserve" font-size="4.68558" transform="translate(628.687, 566.757) rotate(270)" >CLK</text>
<text fill="#cccccc"  xml:space="preserve" font-size="4.68558" transform="translate(646.708, 568.252) rotate(270)" >STORE</text>
<text fill="#cccccc"  xml:space="preserve" font-size="4.68558" transform="translate(616.741, 561.463)" >A</text>
<text fill="#cccccc"  xml:space="preserve" font-size="4.68558" transform="translate(671.311, 565.968)" >Q</text>
<text fill="#cccccc"  xml:space="preserve" font-size="4.68558" transform="translate(616.741, 570.473)" >B</text>
<text fill="#cccccc"  xml:space="preserve" font-size="4.68558" transform="translate(666.5, 574.779) rotate(270)" >CI</text>
<text fill="#cccccc"  xml:space="preserve" font-size="7.02837" transform="translate(671.256, 513.13)" >bitslice</text>
<text fill="#cccccc"  xml:space="preserve" font-size="4.68558" transform="translate(670.805, 472.256)" >x2</text>
<text fill="#cccccc"  xml:space="preserve" font-size="4.68558" transform="translate(666.5, 487.166) rotate(270)" >CO</text>
<text fill="#cccccc"  xml:space="preserve" font-size="4.68558" transform="translate(637.697, 489.166) rotate(270)" >SUB</text>
<text fill="#cccccc"  xml:space="preserve" font-size="4.68558" transform="translate(628.687, 494.672) rotate(270)" >CLK</text>
<text fill="#cccccc"  xml:space="preserve" font-size="4.68558" transform="translate(646.708, 496.166) rotate(270)" >STORE</text>
<text fill="#cccccc"  xml:space="preserve" font-size="4.68558" transform="translate(616.741, 489.377)" >A</text>
<text fill="#cccccc"  xml:space="preserve" font-size="4.68558" transform="translate(671.311, 493.882)" >Q</text>
<text fill="#cccccc"  xml:space="preserve" font-size="4.68558" transform="translate(616.741, 498.387)" >B</text>
<text fill="#cccccc"  xml:space="preserve" font-size="4.68558" transform="translate(666.5, 502.693) rotate(270)" >CI</text>
<text fill="#cccccc"  xml:space="preserve" font-size="7.02837" transform="translate(671.256, 441.044)" >bitslice</text>
<text fill="#cccccc"  xml:space="preserve" font-size="4.68558" transform="translate(670.805, 400.17)" >x3</text>
<text fill="#cccccc"  xml:space="preserve" font-size="4.68558" transform="translate(666.5, 415.08) rotate(270)" >CO</text>
<text fill="#cccccc"  xml:space="preserve" font-size="4.68558" transform="translate(637.697, 417.08) rotate(270)" >SUB</text>
<text fill="#cccccc"  xml:space="preserve" font-size="4.68558" transform="translate(628.687, 422.586) rotate(270)" >CLK</text>
<text fill="#cccccc"  xml:space="preserve" font-size="4.68558" transform="translate(646.708, 424.08) rotate(270)" >STORE</text>
<text fill="#cccccc"  xml:space="preserve" font-size="4.68558" transform="translate(616.741, 417.291)" >A</text>
<text fill="#cccccc"  xml:space="preserve" font-size="4.68558" transform="translate(671.311, 421.796)" >Q</text>
<text fill="#cccccc"  xml:space="preserve" font-size="4.68558" transform="translate(616.741, 426.301)" >B</text>
<text fill="#cccccc"  xml:space="preserve" font-size="4.68558" transform="translate(666.5, 430.607) rotate(270)" >CI</text>
<text fill="#cccccc"  xml:space="preserve" font-size="7.02837" transform="translate(671.256, 368.958)" >bitslice</text>
<text fill="#cccccc"  xml:space="preserve" font-size="4.68558" transform="translate(670.805, 328.084)" >x4</text>
<text fill="#cccccc"  xml:space="preserve" font-size="4.68558" transform="translate(666.5, 342.994) rotate(270)" >CO</text>
<text fill="#cccccc"  xml:space="preserve" font-size="4.68558" transform="translate(637.697, 344.994) rotate(270)" >SUB</text>
<text fill="#cccccc"  xml:space="preserve" font-size="4.68558" transform="translate(628.687, 350.5) rotate(270)" >CLK</text>
<text fill="#cccccc"  xml:space="preserve" font-size="4.68558" transform="translate(646.708, 351.994) rotate(270)" >STORE</text>
<text fill="#cccccc"  xml:space="preserve" font-size="4.68558" transform="translate(616.741, 345.205)" >A</text>
<text fill="#cccccc"  xml:space="preserve" font-size="4.68558" transform="translate(671.311, 349.71)" >Q</text>
<text fill="#cccccc"  xml:space="preserve" font-size="4.68558" transform="translate(616.741, 354.216)" >B</text>
<text fill="#cccccc"  xml:space="preserve" font-size="4.68558" transform="translate(666.5, 358.521) rotate(270)" >CI</text>
<text fill="#cccccc"  xml:space="preserve" font-size="7.02837" transform="translate(671.256, 296.872)" >bitslice</text>
<text fill="#cccccc"  xml:space="preserve" font-size="4.68558" transform="translate(670.805, 255.999)" >x5</text>
<text fill="#cccccc"  xml:space="preserve" font-size="4.68558" transform="translate(666.5, 270.909) rotate(270)" >CO</text>
<text fill="#cccccc"  xml:space="preserve" font-size="4.68558" transform="translate(637.697, 272.909) rotate(270)" >SUB</text>
<text fill="#cccccc"  xml:space="preserve" font-size="4.68558" transform="translate(628.687, 278.414) rotate(270)" >CLK</text>
<text fill="#cccccc"  xml:space="preserve" font-size="4.68558" transform="translate(646.708, 279.909) rotate(270)" >STORE</text>
<text fill="#cccccc"  xml:space="preserve" font-size="4.68558" transform="translate(616.741, 273.119)" >A</text>
<text fill="#cccccc"  xml:space="preserve" font-size="4.68558" transform="translate(671.311, 277.624)" >Q</text>
<text fill="#cccccc"  xml:space="preserve" font-size="4.68558" transform="translate(616.741, 282.13)" >B</text>
<text fill="#cccccc"  xml:space="preserve" font-size="4.68558" transform="translate(666.5, 286.435) rotate(270)" >CI</text>
<text fill="#cccccc"  xml:space="preserve" font-size="7.02837" transform="translate(671.256, 224.786)" >bitslice</text>
<text fill="#cccccc"  xml:space="preserve" font-size="4.68558" transform="translate(670.805, 183.913)" >x6</text>
<text fill="#cccccc"  xml:space="preserve" font-size="4.68558" transform="translate(666.5, 198.823) rotate(270)" >CO</text>
<text fill="#cccccc"  xml:space="preserve" font-size="4.68558" transform="translate(637.697, 200.823) rotate(270)" >SUB</text>
<text fill="#cccccc"  xml:space="preserve" font-size="4.68558" transform="translate(628.687, 206.328) rotate(270)" >CLK</text>
<text fill="#cccccc"  xml:space="preserve" font-size="4.68558" transform="translate(646.708, 207.823) rotate(270)" >STORE</text>
<text fill="#cccccc"  xml:space="preserve" font-size="4.68558" transform="translate(616.741, 201.033)" >A</text>
<text fill="#cccccc"  xml:space="preserve" font-size="4.68558" transform="translate(671.311, 205.538)" >Q</text>
<text fill="#cccccc"  xml:space="preserve" font-size="4.68558" transform="translate(616.741, 210.044)" >B</text>
<text fill="#cccccc"  xml:space="preserve" font-size="4.68558" transform="translate(666.5, 214.35) rotate(270)" >CI</text>
<text fill="#cccccc"  xml:space="preserve" font-size="7.02837" transform="translate(671.256, 152.7)" >bitslice</text>
<text fill="#cccccc"  xml:space="preserve" font-size="4.68558" transform="translate(670.805, 111.827)" >x7</text>
<text fill="#cccccc"  xml:space="preserve" font-size="4.68558" transform="translate(666.5, 126.737) rotate(270)" >CO</text>
<text fill="#cccccc"  xml:space="preserve" font-size="4.68558" transform="translate(637.697, 128.737) rotate(270)" >SUB</text>
<text fill="#cccccc"  xml:space="preserve" font-size="4.68558" transform="translate(628.687, 134.242) rotate(270)" >CLK</text>
<text fill="#cccccc"  xml:space="preserve" font-size="4.68558" transform="translate(646.708, 135.737) rotate(270)" >STORE</text>
<text fill="#cccccc"  xml:space="preserve" font-size="4.68558" transform="translate(616.741, 128.947)" >A</text>
<text fill="#cccccc"  xml:space="preserve" font-size="4.68558" transform="translate(671.311, 133.453)" >Q</text>
<text fill="#cccccc"  xml:space="preserve" font-size="4.68558" transform="translate(616.741, 137.958)" >B</text>
<text fill="#cccccc"  xml:space="preserve" font-size="4.68558" transform="translate(666.5, 142.264) rotate(270)" >CI</text>
<text fill="#cccccc"  xml:space="preserve" font-size="7.02837" transform="translate(671.256, 80.6143)" >bitslice</text>
<text fill="#cccccc"  xml:space="preserve" font-size="4.68558" transform="translate(670.805, 39.7409)" >x8</text>
<text fill="#cccccc"  xml:space="preserve" font-size="4.68558" transform="translate(666.5, 54.6509) rotate(270)" >CO</text>
<text fill="#cccccc"  xml:space="preserve" font-size="4.68558" transform="translate(637.697, 56.6509) rotate(270)" >SUB</text>
<text fill="#cccccc"  xml:space="preserve" font-size="4.68558" transform="translate(628.687, 62.1562) rotate(270)" >CLK</text>
<text fill="#cccccc"  xml:space="preserve" font-size="4.68558" transform="translate(646.708, 63.6509) rotate(270)" >STORE</text>
<text fill="#cccccc"  xml:space="preserve" font-size="4.68558" transform="translate(616.741, 56.8613)" >A</text>
<text fill="#cccccc"  xml:space="preserve" font-size="4.68558" transform="translate(671.311, 61.3667)" >Q</text>
<text fill="#cccccc"  xml:space="preserve" font-size="4.68558" transform="translate(616.741, 65.872)" >B</text>
<text fill="#cccccc"  xml:space="preserve" font-size="4.68558" transform="translate(666.5, 70.1777) rotate(270)" >CI</text>
<path class="l4" d="M664.047 540.989L664.047 549.999"/>
<path class="l4" d="M637.015 540.989L637.015 549.999"/>
<path class="l4" d="M628.004 540.989L628.004 549.999"/>
<path class="l4" d="M646.026 540.989L646.026 549.999"/>
<path class="l4" d="M605.478 559.01L614.488 559.01"/>
<path class="l4" d="M677.564 563.516L686.574 563.516"/>
<path class="l4" d="M605.478 568.021L614.488 568.021"/>
<path class="l4" d="M664.047 577.032L664.047 586.042"/>
<path class="l4" d="M614.488 549.999L677.564 549.999"/>
<path class="l4" d="M614.488 577.032L677.564 577.032"/>
<path class="l4" d="M614.488 549.999L614.488 577.032"/>
<path class="l4" d="M677.564 549.999L677.564 577.032"/>
<path class="l4" d="M623.499 549.999L628.004 554.505"/>
<path class="l4" d="M628.004 554.505L632.51 549.999"/>
<path class="l4" d="M618.994 545.494L618.994 549.999"/>
<path class="l4" d="M618.994 577.032L618.994 581.537"/>
<path class="l4" d="M664.047 468.903L664.047 477.914"/>
<path class="l4" d="M637.015 468.903L637.015 477.914"/>
<path class="l4" d="M628.004 468.903L628.004 477.914"/>
<path class="l4" d="M646.026 468.903L646.026 477.914"/>
<path class="l4" d="M605.478 486.924L614.488 486.924"/>
<path class="l4" d="M677.564 491.43L686.574 491.43"/>
<path class="l4" d="M605.478 495.935L614.488 495.935"/>
<path class="l4" d="M664.047 504.946L664.047 513.956"/>
<path class="l4" d="M614.488 477.914L677.564 477.914"/>
<path class="l4" d="M614.488 504.946L677.564 504.946"/>
<path class="l4" d="M614.488 477.914L614.488 504.946"/>
<path class="l4" d="M677.564 477.914L677.564 504.946"/>
<path class="l4" d="M623.499 477.914L628.004 482.419"/>
<path class="l4" d="M628.004 482.419L632.51 477.914"/>
<path class="l4" d="M618.994 473.408L618.994 477.914"/>
<path class="l4" d="M618.994 504.946L618.994 509.451"/>
<path class="l4" d="M664.047 396.817L664.047 405.828"/>
<path class="l4" d="M637.015 396.817L637.015 405.828"/>
<path class="l4" d="M628.004 396.817L628.004 405.828"/>
<path class="l4" d="M646.026 396.817L646.026 405.828"/>
<path class="l4" d="M605.478 414.838L614.488 414.838"/>
<path class="l4" d="M677.564 419.344L686.574 419.344"/>
<path class="l4" d="M605.478 423.849L614.488 423.849"/>
<path class="l4" d="M664.047 432.86L664.047 441.871"/>
<path class="l4" d="M614.488 405.828L677.564 405.828"/>
<path class="l4" d="M614.488 432.86L677.564 432.86"/>
<path class="l4" d="M614.488 405.828L614.488 432.86"/>
<path class="l4" d="M677.564 405.828L677.564 432.86"/>
<path class="l4" d="M623.499 405.828L628.004 410.333"/>
<path class="l4" d="M628.004 410.333L632.51 405.828"/>
<path class="l4" d="M618.994 401.322L618.994 405.828"/>
<path class="l4" d="M618.994 432.86L618.994 437.365"/>
<path class="l4" d="M664.047 324.731L664.047 333.742"/>
<path class="l4" d="M637.015 324.731L637.015 333.742"/>
<path class="l4" d="M628.004 324.731L628.004 333.742"/>
<path class="l4" d="M646.026 324.731L646.026 333.742"/>
<path class="l4" d="M605.478 342.752L614.488 342.752"/>
<path class="l4" d="M677.564 347.258L686.574 347.258"/>
<path class="l4" d="M605.478 351.763L614.488 351.763"/>
<path class="l4" d="M664.047 360.774L664.047 369.785"/>
<path class="l4" d="M614.488 333.742L677.564 333.742"/>
<path class="l4" d="M614.488 360.774L677.564 360.774"/>
<path class="l4" d="M614.488 333.742L614.488 360.774"/>
<path class="l4" d="M677.564 333.742L677.564 360.774"/>
<path class="l4" d="M623.499 333.742L628.004 338.247"/>
<path class="l4" d="M628.004 338.247L632.51 333.742"/>
<path class="l4" d="M618.994 329.236L618.994 333.742"/>
<path class="l4" d="M618.994 360.774L618.994 365.279"/>
<path class="l4" d="M664.047 252.645L664.047 261.656"/>
<path class="l4" d="M637.015 252.645L637.015 261.656"/>
<path class="l4" d="M628.004 252.645L628.004 261.656"/>
<path class="l4" d="M646.026 252.645L646.026 261.656"/>
<path class="l4" d="M605.478 270.667L614.488 270.667"/>
<path class="l4" d="M677.564 275.172L686.574 275.172"/>
<path class="l4" d="M605.478 279.677L614.488 279.677"/>
<path class="l4" d="M664.047 288.688L664.047 297.699"/>
<path class="l4" d="M614.488 261.656L677.564 261.656"/>
<path class="l4" d="M614.488 288.688L677.564 288.688"/>
<path class="l4" d="M614.488 261.656L614.488 288.688"/>
<path class="l4" d="M677.564 261.656L677.564 288.688"/>
<path class="l4" d="M623.499 261.656L628.004 266.161"/>
<path class="l4" d="M628.004 266.161L632.51 261.656"/>
<path class="l4" d="M618.994 257.151L618.994 261.656"/>
<path class="l4" d="M618.994 288.688L618.994 293.193"/>
<path class="l4" d="M664.047 180.559L664.047 189.57"/>
<path class="l4" d="M637.015 180.559L637.015 189.57"/>
<path class="l4" d="M628.004 180.559L628.004 189.57"/>
<path class="l4" d="M646.026 180.559L646.026 189.57"/>
<path class="l4" d="M605.478 198.581L614.488 198.581"/>
<path class="l4" d="M677.564 203.086L686.574 203.086"/>
<path class="l4" d="M605.478 207.591L614.488 207.591"/>
<path class="l4" d="M664.047 216.602L664.047 225.613"/>
<path class="l4" d="M614.488 189.57L677.564 189.57"/>
<path class="l4" d="M614.488 216.602L677.564 216.602"/>
<path class="l4" d="M614.488 189.57L614.488 216.602"/>
<path class="l4" d="M677.564 189.57L677.564 216.602"/>
<path class="l4" d="M623.499 189.57L628.004 194.075"/>
<path class="l4" d="M628.004 194.075L632.51 189.57"/>
<path class="l4" d="M618.994 185.065L618.994 189.57"/>
<path class="l4" d="M618.994 216.602L618.994 221.108"/>
<path class="l4" d="M664.047 108.473L664.047 117.484"/>
<path class="l4" d="M637.015 108.473L637.015 117.484"/>
<path class="l4" d="M628.004 108.473L628.004 117.484"/>
<path class="l4" d="M646.026 108.473L646.026 117.484"/>
<path class="l4" d="M605.478 126.495L614.488 126.495"/>
<path class="l4" d="M677.564 131L686.574 131"/>
<path class="l4" d="M605.478 135.506L614.488 135.506"/>
<path class="l4" d="M664.047 144.516L664.047 153.527"/>
<path class="l4" d="M614.488 117.484L677.564 117.484"/>
<path class="l4" d="M614.488 144.516L677.564 144.516"/>
<path class="l4" d="M614.488 117.484L614.488 144.516"/>
<path class="l4" d="M677.564 117.484L677.564 144.516"/>
<path class="l4" d="M623.499 117.484L628.004 121.989"/>
<path class="l4" d="M628.004 121.989L632.51 117.484"/>
<path class="l4" d="M618.994 112.979L618.994 117.484"/>
<path class="l4" d="M618.994 144.516L618.994 149.022"/>
<path class="l4" d="M664.047 36.3875L664.047 45.3982"/>
<path class="l4" d="M637.015 36.3875L637.015 45.3982"/>
<path class="l4" d="M628.004 36.3875L628.004 45.3982"/>
<path class="l4" d="M646.026 36.3875L646.026 45.3982"/>
<path class="l4" d="M605.478 54.4089L614.488 54.4089"/>
<path class="l4" d="M677.564 58.9143L686.574 58.9143"/>
<path class="l4" d="M605.478 63.4197L614.488 63.4197"/>
<path class="l4" d="M664.047 72.4304L664.047 81.4411"/>
<path class="l4" d="M614.488 45.3982L677.564 45.3982"/>
<path class="l4" d="M614.488 72.4304L677.564 72.4304"/>
<path class="l4" d="M614.488 45.3982L614.488 72.4304"/>
<path class="l4" d="M677.564 45.3982L677.564 72.4304"/>
<path class="l4" d="M623.499 45.3982L628.004 49.9036"/>
<path class="l4" d="M628.004 49.9036L632.51 45.3982"/>
<path class="l4" d="M618.994 40.8928L618.994 45.3982"/>
<path class="l4" d="M618.994 72.4304L618.994 76.9358"/>
<path class="l5" d="M662.921 539.862L665.174 539.862L665.174 542.115L662.921 542.115L662.921 539.862z"/>
<path class="l5" d="M635.889 539.862L638.142 539.862L638.142 542.115L635.889 542.115L635.889 539.862z"/>
<path class="l5" d="M626.878 539.862L629.131 539.862L629.131 542.115L626.878 542.115L626.878 539.862z"/>
<path class="l5" d="M644.9 539.862L647.152 539.862L647.152 542.115L644.9 542.115L644.9 539.862z"/>
<path class="l5" d="M604.351 557.884L606.604 557.884L606.604 560.137L604.351 560.137L604.351 557.884z"/>
<path class="l5" d="M685.448 562.389L687.701 562.389L687.701 564.642L685.448 564.642L685.448 562.389z"/>
<path class="l5" d="M604.351 566.895L606.604 566.895L606.604 569.147L604.351 569.147L604.351 566.895z"/>
<path class="l5" d="M662.921 584.916L665.174 584.916L665.174 587.169L662.921 587.169L662.921 584.916z"/>
<path class="l5" d="M617.867 544.368L620.12 544.368L620.12 546.62L617.867 546.62L617.867 544.368z"/>
<path class="l5" d="M617.867 580.411L620.12 580.411L620.12 582.663L617.867 582.663L617.867 580.411z"/>
<path class="l5" d="M662.921 467.776L665.174 467.776L665.174 470.029L662.921 470.029L662.921 467.776z"/>
<path class="l5" d="M635.889 467.776L638.142 467.776L638.142 470.029L635.889 470.029L635.889 467.776z"/>
<path class="l5" d="M626.878 467.776L629.131 467.776L629.131 470.029L626.878 470.029L626.878 467.776z"/>
<path class="l5" d="M644.9 467.776L647.152 467.776L647.152 470.029L644.9 470.029L644.9 467.776z"/>
<path class="l5" d="M604.351 485.798L606.604 485.798L606.604 488.051L604.351 488.051L604.351 485.798z"/>
<path class="l5" d="M685.448 490.303L687.701 490.303L687.701 492.556L685.448 492.556L685.448 490.303z"/>
<path class="l5" d="M604.351 494.809L606.604 494.809L606.604 497.061L604.351 497.061L604.351 494.809z"/>
<path class="l5" d="M662.921 512.83L665.174 512.83L665.174 515.083L662.921 515.083L662.921 512.83z"/>
<path class="l5" d="M617.867 472.282L620.12 472.282L620.12 474.535L617.867 474.535L617.867 472.282z"/>
<path class="l5" d="M617.867 508.325L620.12 508.325L620.12 510.577L617.867 510.577L617.867 508.325z"/>
<path class="l5" d="M662.921 395.691L665.174 395.691L665.174 397.943L662.921 397.943L662.921 395.691z"/>
<path class="l5" d="M635.889 395.691L638.142 395.691L638.142 397.943L635.889 397.943L635.889 395.691z"/>
<path class="l5" d="M626.878 395.691L629.131 395.691L629.131 397.943L626.878 397.943L626.878 395.691z"/>
<path class="l5" d="M644.9 395.691L647.152 395.691L647.152 397.943L644.9 397.943L644.9 395.691z"/>
<path class="l5" d="M604.351 413.712L606.604 413.712L606.604 415.965L604.351 415.965L604.351 413.712z"/>
<path class="l5" d="M685.448 418.217L687.701 418.217L687.701 420.47L685.448 420.47L685.448 418.217z"/>
<path class="l5" d="M604.351 422.723L606.604 422.723L606.604 424.975L604.351 424.975L604.351 422.723z"/>
<path class="l5" d="M662.921 440.744L665.174 440.744L665.174 442.997L662.921 442.997L662.921 440.744z"/>
<path class="l5" d="M617.867 400.196L620.12 400.196L620.12 402.449L617.867 402.449L617.867 400.196z"/>
<path class="l5" d="M617.867 436.239L620.12 436.239L620.12 438.492L617.867 438.492L617.867 436.239z"/>
<path class="l5" d="M662.921 323.605L665.174 323.605L665.174 325.857L662.921 325.857L662.921 323.605z"/>
<path class="l5" d="M635.889 323.605L638.142 323.605L638.142 325.857L635.889 325.857L635.889 323.605z"/>
<path class="l5" d="M626.878 323.605L629.131 323.605L629.131 325.857L626.878 325.857L626.878 323.605z"/>
<path class="l5" d="M644.9 323.605L647.152 323.605L647.152 325.857L644.9 325.857L644.9 323.605z"/>
<path class="l5" d="M604.351 341.626L606.604 341.626L606.604 343.879L604.351 343.879L604.351 341.626z"/>
<path class="l5" d="M685.448 346.132L687.701 346.132L687.701 348.384L685.448 348.384L685.448 346.132z"/>
<path class="l5" d="M604.351 350.637L606.604 350.637L606.604 352.89L604.351 352.89L604.351 350.637z"/>
<path class="l5" d="M662.921 368.658L665.174 368.658L665.174 370.911L662.921 370.911L662.921 368.658z"/>
<path class="l5" d="M617.867 328.11L620.12 328.11L620.12 330.363L617.867 330.363L617.867 328.11z"/>
<path class="l5" d="M617.867 364.153L620.12 364.153L620.12 366.406L617.867 366.406L617.867 364.153z"/>
<path class="l5" d="M662.921 251.519L665.174 251.519L665.174 253.771L662.921 253.771L662.921 251.519z"/>
<path class="l5" d="M635.889 251.519L638.142 251.519L638.142 253.771L635.889 253.771L635.889 251.519z"/>
<path class="l5" d="M626.878 251.519L629.131 251.519L629.131 253.771L626.878 253.771L626.878 251.519z"/>
<path class="l5" d="M644.9 251.519L647.152 251.519L647.152 253.771L644.9 253.771L644.9 251.519z"/>
<path class="l5" d="M604.351 269.54L606.604 269.54L606.604 271.793L604.351 271.793L604.351 269.54z"/>
<path class="l5" d="M685.448 274.046L687.701 274.046L687.701 276.298L685.448 276.298L685.448 274.046z"/>
<path class="l5" d="M604.351 278.551L606.604 278.551L606.604 280.804L604.351 280.804L604.351 278.551z"/>
<path class="l5" d="M662.921 296.572L665.174 296.572L665.174 298.825L662.921 298.825L662.921 296.572z"/>
<path class="l5" d="M617.867 256.024L620.12 256.024L620.12 258.277L617.867 258.277L617.867 256.024z"/>
<path class="l5" d="M617.867 292.067L620.12 292.067L620.12 294.32L617.867 294.32L617.867 292.067z"/>
<path class="l5" d="M662.921 179.433L665.174 179.433L665.174 181.686L662.921 181.686L662.921 179.433z"/>
<path class="l5" d="M635.889 179.433L638.142 179.433L638.142 181.686L635.889 181.686L635.889 179.433z"/>
<path class="l5" d="M626.878 179.433L629.131 179.433L629.131 181.686L626.878 181.686L626.878 179.433z"/>
<path class="l5" d="M644.9 179.433L647.152 179.433L647.152 181.686L644.9 181.686L644.9 179.433z"/>
<path class="l5" d="M604.351 197.454L606.604 197.454L606.604 199.707L604.351 199.707L604.351 197.454z"/>
<path class="l5" d="M685.448 201.96L687.701 201.96L687.701 204.212L685.448 204.212L685.448 201.96z"/>
<path class="l5" d="M604.351 206.465L606.604 206.465L606.604 208.718L604.351 208.718L604.351 206.465z"/>
<path class="l5" d="M662.921 224.487L665.174 224.487L665.174 226.739L662.921 226.739L662.921 224.487z"/>
<path class="l5" d="M617.867 183.938L620.12 183.938L620.12 186.191L617.867 186.191L617.867 183.938z"/>
<path class="l5" d="M617.867 219.981L620.12 219.981L620.12 222.234L617.867 222.234L617.867 219.981z"/>
<path class="l5" d="M662.921 107.347L665.174 107.347L665.174 109.6L662.921 109.6L662.921 107.347z"/>
<path class="l5" d="M635.889 107.347L638.142 107.347L638.142 109.6L635.889 109.6L635.889 107.347z"/>
<path class="l5" d="M626.878 107.347L629.131 107.347L629.131 109.6L626.878 109.6L626.878 107.347z"/>
<path class="l5" d="M644.9 107.347L647.152 107.347L647.152 109.6L644.9 109.6L644.9 107.347z"/>
<path class="l5" d="M604.351 125.368L606.604 125.368L606.604 127.621L604.351 127.621L604.351 125.368z"/>
<path class="l5" d="M685.448 129.874L687.701 129.874L687.701 132.127L685.448 132.127L685.448 129.874z"/>
<path class="l5" d="M604.351 134.379L606.604 134.379L606.604 136.632L604.351 136.632L604.351 134.379z"/>
<path class="l5" d="M662.921 152.401L665.174 152.401L665.174 154.653L662.921 154.653L662.921 152.401z"/>
<path class="l5" d="M617.867 111.852L620.12 111.852L620.12 114.105L617.867 114.105L617.867 111.852z"/>
<path class="l5" d="M617.867 147.895L620.12 147.895L620.12 150.148L617.867 150.148L617.867 147.895z"/>
<path class="l5" d="M662.921 35.2611L665.174 35.2611L665.174 37.5138L662.921 37.5138L662.921 35.2611z"/>
<path class="l5" d="M635.889 35.2611L638.142 35.2611L638.142 37.5138L635.889 37.5138L635.889 35.2611z"/>
<path class="l5" d="M626.878 35.2611L629.131 35.2611L629.131 37.5138L626.878 37.5138L626.878 35.2611z"/>
<path class="l5" d="M644.9 35.2611L647.152 35.2611L647.152 37.5138L644.9 37.5138L644.9 35.2611z"/>
<path class="l5" d="M604.351 53.2826L606.604 53.2826L606.604 55.5353L604.351 55.5353L604.351 53.2826z"/>
<path class="l5" d="M685.448 57.788L687.701 57.788L687.701 60.0406L685.448 60.0406L685.448 57.788z"/>
<path class="l5" d="M604.351 62.2933L606.604 62.2933L606.604 64.546L604.351 64.546L604.351 62.2933z"/>
<path class="l5" d="M662.921 80.3148L665.174 80.3148L665.174 82.5675L662.921 82.5675L662.921 80.3148z"/>
<path class="l5" d="M617.867 39.7665L620.12 39.7665L620.12 42.0192L617.867 42.0192L617.867 39.7665z"/>
<path class="l5" d="M617.867 75.8094L620.12 75.8094L620.12 78.0621L617.867 78.0621L617.867 75.8094z"/>
<path class="l5" d="M722.547 558.94L722.688 558.94L722.688 559.081L722.547 559.081L722.547 558.94z"/>
<path class="l5" d="M713.043 562.952L714.17 562.952L714.17 564.079L713.043 564.079L713.043 562.952z"/>
<path class="l5" d="M722.547 486.854L722.688 486.854L722.688 486.995L722.547 486.995L722.547 486.854z"/>
<path class="l5" d="M713.043 490.866L714.17 490.866L714.17 491.993L713.043 491.993L713.043 490.866z"/>
<path class="l5" d="M722.547 414.768L722.688 414.768L722.688 414.909L722.547 414.909L722.547 414.768z"/>
<path class="l5" d="M713.043 418.781L714.17 418.781L714.17 419.907L713.043 419.907L713.043 418.781z"/>
<path class="l5" d="M722.547 342.682L722.688 342.682L722.688 342.823L722.547 342.823L722.547 342.682z"/>
<path class="l5" d="M713.043 346.695L714.17 346.695L714.17 347.821L713.043 347.821L713.043 346.695z"/>
<path class="l5" d="M722.547 270.596L722.688 270.596L722.688 270.737L722.547 270.737L722.547 270.596z"/>
<path class="l5" d="M713.043 274.609L714.17 274.609L714.17 275.735L713.043 275.735L713.043 274.609z"/>
<path class="l5" d="M722.547 198.51L722.688 198.51L722.688 198.651L722.547 198.651L722.547 198.51z"/>
<path class="l5" d="M713.043 202.523L714.17 202.523L714.17 203.649L713.043 203.649L713.043 202.523z"/>
<path class="l5" d="M722.547 126.424L722.688 126.424L722.688 126.565L722.547 126.565L722.547 126.424z"/>
<path class="l5" d="M713.043 130.437L714.17 130.437L714.17 131.563L713.043 131.563L713.043 130.437z"/>
<path class="l5" d="M722.547 54.3385L722.688 54.3385L722.688 54.4793L722.547 54.4793L722.547 54.3385z"/>
<path class="l5" d="M713.043 58.3511L714.17 58.3511L714.17 59.4775L713.043 59.4775L713.043 58.3511z"/>
<path class="l5" d="M555.355 567.458L556.482 567.458L556.482 568.584L555.355 568.584L555.355 567.458z"/>
<path class="l5" d="M546.837 572.456L546.978 572.456L546.978 572.597L546.837 572.597L546.837 572.456z"/>
<path class="l5" d="M582.388 558.447L583.514 558.447L583.514 559.573L582.388 559.573L582.388 558.447z"/>
<path class="l5" d="M573.87 563.445L574.01 563.445L574.01 563.586L573.87 563.586L573.87 563.445z"/>
<path class="l5" d="M555.355 495.372L556.482 495.372L556.482 496.498L555.355 496.498L555.355 495.372z"/>
<path class="l5" d="M546.837 500.37L546.978 500.37L546.978 500.511L546.837 500.511L546.837 500.37z"/>
<path class="l5" d="M582.388 486.361L583.514 486.361L583.514 487.487L582.388 487.487L582.388 486.361z"/>
<path class="l5" d="M573.87 491.359L574.01 491.359L574.01 491.5L573.87 491.5L573.87 491.359z"/>
<path class="l5" d="M555.355 423.286L556.482 423.286L556.482 424.412L555.355 424.412L555.355 423.286z"/>
<path class="l5" d="M546.837 428.284L546.978 428.284L546.978 428.425L546.837 428.425L546.837 428.284z"/>
<path class="l5" d="M582.388 414.275L583.514 414.275L583.514 415.402L582.388 415.402L582.388 414.275z"/>
<path class="l5" d="M573.87 419.273L574.01 419.273L574.01 419.414L573.87 419.414L573.87 419.273z"/>
<path class="l5" d="M555.355 351.2L556.482 351.2L556.482 352.326L555.355 352.326L555.355 351.2z"/>
<path class="l5" d="M546.837 356.198L546.978 356.198L546.978 356.339L546.837 356.339L546.837 356.198z"/>
<path class="l5" d="M582.388 342.189L583.514 342.189L583.514 343.316L582.388 343.316L582.388 342.189z"/>
<path class="l5" d="M573.87 347.187L574.01 347.187L574.01 347.328L573.87 347.328L573.87 347.187z"/>
<path class="l5" d="M555.355 279.114L556.482 279.114L556.482 280.241L555.355 280.241L555.355 279.114z"/>
<path class="l5" d="M546.837 284.112L546.978 284.112L546.978 284.253L546.837 284.253L546.837 284.112z"/>
<path class="l5" d="M582.388 270.103L583.514 270.103L583.514 271.23L582.388 271.23L582.388 270.103z"/>
<path class="l5" d="M573.87 275.102L574.01 275.102L574.01 275.242L573.87 275.242L573.87 275.102z"/>
<path class="l5" d="M555.355 207.028L556.482 207.028L556.482 208.155L555.355 208.155L555.355 207.028z"/>
<path class="l5" d="M546.837 212.026L546.978 212.026L546.978 212.167L546.837 212.167L546.837 212.026z"/>
<path class="l5" d="M582.388 198.018L583.514 198.018L583.514 199.144L582.388 199.144L582.388 198.018z"/>
<path class="l5" d="M573.87 203.016L574.01 203.016L574.01 203.156L573.87 203.156L573.87 203.016z"/>
<path class="l5" d="M555.355 134.942L556.482 134.942L556.482 136.069L555.355 136.069L555.355 134.942z"/>
<path class="l5" d="M546.837 139.941L546.978 139.941L546.978 140.081L546.837 140.081L546.837 139.941z"/>
<path class="l5" d="M582.388 125.932L583.514 125.932L583.514 127.058L582.388 127.058L582.388 125.932z"/>
<path class="l5" d="M573.87 130.93L574.01 130.93L574.01 131.071L573.87 131.071L573.87 130.93z"/>
<path class="l5" d="M555.355 62.8565L556.482 62.8565L556.482 63.9828L555.355 63.9828L555.355 62.8565z"/>
<path class="l5" d="M546.837 67.8546L546.978 67.8546L546.978 67.9954L546.837 67.9954L546.837 67.8546z"/>
<path class="l5" d="M582.388 53.8458L583.514 53.8458L583.514 54.9721L582.388 54.9721L582.388 53.8458z"/>
<path class="l5" d="M573.87 58.8439L574.01 58.8439L574.01 58.9847L573.87 58.9847L573.87 58.8439z"/>
<path class="l5" d="M526.634 554.505L528.886 554.505"/>
<path class="l5" d="M526.634 554.505L524.944 552.252L521.002 552.252L522.691 554.505L521.002 556.757L524.944 556.757L526.634 554.505"/>
<path class="l5" d="M528.323 553.942L529.45 553.942L529.45 555.068L528.323 555.068L528.323 553.942z"/>
<path class="l5" d="M526.634 572.526L528.886 572.526"/>
<path class="l5" d="M526.634 572.526L524.944 570.274L521.002 570.274L522.691 572.526L521.002 574.779L524.944 574.779L526.634 572.526"/>
<path class="l5" d="M528.323 571.963L529.45 571.963L529.45 573.089L528.323 573.089L528.323 571.963z"/>
<path class="l5" d="M749.649 54.4089L753.592 54.4089"/>
<path class="l5" d="M757.534 54.4089L755.844 52.1562L751.902 52.1562L753.592 54.4089L751.902 56.6616L755.844 56.6616L757.534 54.4089"/>
<path class="l5" d="M749.086 53.8458L750.213 53.8458L750.213 54.9721L749.086 54.9721L749.086 53.8458z"/>
<path class="l5" d="M564.366 626.028L565.492 626.028L565.492 627.154L564.366 627.154L564.366 626.028z"/>
<path class="l5" d="M564.366 608.006L565.492 608.006L565.492 609.132L564.366 609.132L564.366 608.006z"/>
<path class="l5" d="M564.366 589.985L565.492 589.985L565.492 591.111L564.366 591.111L564.366 589.985z"/>
<path class="l5" d="M526.634 590.548L528.886 590.548"/>
<path class="l5" d="M526.634 590.548L524.944 588.295L521.002 588.295L522.691 590.548L521.002 592.8L524.944 592.8L526.634 590.548"/>
<path class="l5" d="M528.323 589.985L529.45 589.985L529.45 591.111L528.323 591.111L528.323 589.985z"/>
<path class="l5" d="M526.634 608.569L528.886 608.569"/>
<path class="l5" d="M526.634 608.569L524.944 606.317L521.002 606.317L522.691 608.569L521.002 610.822L524.944 610.822L526.634 608.569"/>
<path class="l5" d="M528.323 608.006L529.45 608.006L529.45 609.132L528.323 609.132L528.323 608.006z"/>
<path class="l5" d="M526.634 626.591L528.886 626.591"/>
<path class="l5" d="M526.634 626.591L524.944 624.338L521.002 624.338L522.691 626.591L521.002 628.843L524.944 628.843L526.634 626.591"/>
<path class="l5" d="M528.323 626.028L529.45 626.028L529.45 627.154L528.323 627.154L528.323 626.028z"/>
<path class="l5" d="M649.968 598.995L651.094 598.995L651.094 600.122L649.968 600.122L649.968 598.995z"/>
<path class="l5" d="M749.649 31.8821L753.592 31.8821"/>
<path class="l5" d="M757.534 31.8821L755.844 29.6294L751.902 29.6294L753.592 31.8821L751.902 34.1348L755.844 34.1348L757.534 31.8821"/>
<path class="l5" d="M749.086 31.3189L750.213 31.3189L750.213 32.4453L749.086 32.4453L749.086 31.3189z"/>
<path class="l5" d="M526.634 662.634L528.886 662.634"/>
<path class="l5" d="M526.634 662.634L524.944 660.381L521.002 660.381L522.691 662.634L521.002 664.886L524.944 664.886L526.634 662.634"/>
<path class="l5" d="M528.323 662.07L529.45 662.07L529.45 663.197L528.323 663.197L528.323 662.07z"/>
<path class="l5" d="M564.366 662.07L565.492 662.07L565.492 663.197L564.366 663.197L564.366 662.07z"/>
<path class="l5" d="M526.634 644.612L528.886 644.612"/>
<path class="l5" d="M526.634 644.612L524.944 642.359L521.002 642.359L522.691 644.612L521.002 646.865L524.944 646.865L526.634 644.612"/>
<path class="l5" d="M528.323 644.049L529.45 644.049L529.45 645.175L528.323 645.175L528.323 644.049z"/>
<path class="l5" d="M564.366 644.049L565.492 644.049L565.492 645.175L564.366 645.175L564.366 644.049z"/>
<path class="l5" d="M618.431 544.931L619.557 544.931L619.557 546.057L618.431 546.057L618.431 544.931z"/>
<path class="l5" d="M618.431 472.845L619.557 472.845L619.557 473.971L618.431 473.971L618.431 472.845z"/>
<path class="l5" d="M618.431 400.759L619.557 400.759L619.557 401.885L618.431 401.885L618.431 400.759z"/>
<path class="l5" d="M618.431 328.673L619.557 328.673L619.557 329.8L618.431 329.8L618.431 328.673z"/>
<path class="l5" d="M618.431 256.587L619.557 256.587L619.557 257.714L618.431 257.714L618.431 256.587z"/>
<path class="l5" d="M618.431 184.501L619.557 184.501L619.557 185.628L618.431 185.628L618.431 184.501z"/>
<path class="l5" d="M618.431 40.3297L619.557 40.3297L619.557 41.456L618.431 41.456L618.431 40.3297z"/>
<path class="l5" d="M618.431 508.888L619.557 508.888L619.557 510.014L618.431 510.014L618.431 508.888z"/>
<path class="l5" d="M618.431 580.974L619.557 580.974L619.557 582.1L618.431 582.1L618.431 580.974z"/>
<path class="l5" d="M618.431 436.802L619.557 436.802L619.557 437.928L618.431 437.928L618.431 436.802z"/>
<path class="l5" d="M618.431 364.716L619.557 364.716L619.557 365.843L618.431 365.843L618.431 364.716z"/>
<path class="l5" d="M618.431 292.63L619.557 292.63L619.557 293.757L618.431 293.757L618.431 292.63z"/>
<path class="l5" d="M618.431 220.544L619.557 220.544L619.557 221.671L618.431 221.671L618.431 220.544z"/>
<path class="l5" d="M618.431 148.458L619.557 148.458L619.557 149.585L618.431 149.585L618.431 148.458z"/>
<path class="l5" d="M618.431 76.3726L619.557 76.3726L619.557 77.4989L618.431 77.4989L618.431 76.3726z"/>
<path class="l5" d="M613.925 535.92L615.052 535.92L615.052 537.047L613.925 537.047L613.925 535.92z"/>
<path class="l5" d="M613.925 526.909L615.052 526.909L615.052 528.036L613.925 528.036L613.925 526.909z"/>
<path class="l5" d="M613.925 517.899L615.052 517.899L615.052 519.025L613.925 519.025L613.925 517.899z"/>
<path class="l5" d="M613.925 463.834L615.052 463.834L615.052 464.961L613.925 464.961L613.925 463.834z"/>
<path class="l5" d="M613.925 454.824L615.052 454.824L615.052 455.95L613.925 455.95L613.925 454.824z"/>
<path class="l5" d="M613.925 445.813L615.052 445.813L615.052 446.939L613.925 446.939L613.925 445.813z"/>
<path class="l5" d="M613.925 391.748L615.052 391.748L615.052 392.875L613.925 392.875L613.925 391.748z"/>
<path class="l5" d="M613.925 382.738L615.052 382.738L615.052 383.864L613.925 383.864L613.925 382.738z"/>
<path class="l5" d="M613.925 373.727L615.052 373.727L615.052 374.853L613.925 374.853L613.925 373.727z"/>
<path class="l5" d="M613.925 319.662L615.052 319.662L615.052 320.789L613.925 320.789L613.925 319.662z"/>
<path class="l5" d="M613.925 310.652L615.052 310.652L615.052 311.778L613.925 311.778L613.925 310.652z"/>
<path class="l5" d="M613.925 301.641L615.052 301.641L615.052 302.767L613.925 302.767L613.925 301.641z"/>
<path class="l5" d="M613.925 247.577L615.052 247.577L615.052 248.703L613.925 248.703L613.925 247.577z"/>
<path class="l5" d="M613.925 238.566L615.052 238.566L615.052 239.692L613.925 239.692L613.925 238.566z"/>
<path class="l5" d="M613.925 229.555L615.052 229.555L615.052 230.681L613.925 230.681L613.925 229.555z"/>
<path class="l5" d="M613.925 175.491L615.052 175.491L615.052 176.617L613.925 176.617L613.925 175.491z"/>
<path class="l5" d="M613.925 166.48L615.052 166.48L615.052 167.606L613.925 167.606L613.925 166.48z"/>
<path class="l5" d="M613.925 157.469L615.052 157.469L615.052 158.596L613.925 158.596L613.925 157.469z"/>
<path class="l5" d="M613.925 103.405L615.052 103.405L615.052 104.531L613.925 104.531L613.925 103.405z"/>
<path class="l5" d="M613.925 94.3941L615.052 94.3941L615.052 95.5204L613.925 95.5204L613.925 94.3941z"/>
<path class="l5" d="M613.925 85.3833L615.052 85.3833L615.052 86.5097L613.925 86.5097L613.925 85.3833z"/>
<path class="l5" d="M613.925 31.3189L615.052 31.3189L615.052 32.4453L613.925 32.4453L613.925 31.3189z"/>
<path class="l5" d="M613.925 22.3082L615.052 22.3082L615.052 23.4345L613.925 23.4345L613.925 22.3082z"/>
<path class="l5" d="M613.925 13.2974L615.052 13.2974L615.052 14.4238L613.925 14.4238L613.925 13.2974z"/>
<path class="l5" d="M618.431 112.416L619.557 112.416L619.557 113.542L618.431 113.542L618.431 112.416z"/>
<path class="l1" style="stroke-width:1.94632;" d="M722.617 54.4089L749.649 54.4089"/>
<path class="l1" d="M551.413 568.021L605.478 568.021"/>
<path class="l1" d="M578.445 559.01L605.478 559.01"/>
<path class="l1" d="M551.413 495.935L605.478 495.935"/>
<path class="l1" d="M578.445 486.924L605.478 486.924"/>
<path class="l1" d="M551.413 423.849L605.478 423.849"/>
<path class="l1" d="M578.445 414.838L605.478 414.838"/>
<path class="l1" d="M551.413 351.763L605.478 351.763"/>
<path class="l1" d="M578.445 342.752L605.478 342.752"/>
<path class="l1" d="M551.413 279.677L605.478 279.677"/>
<path class="l1" d="M578.445 270.667L605.478 270.667"/>
<path class="l1" d="M551.413 207.591L605.478 207.591"/>
<path class="l1" d="M578.445 198.581L605.478 198.581"/>
<path class="l1" d="M551.413 135.506L605.478 135.506"/>
<path class="l1" d="M578.445 126.495L605.478 126.495"/>
<path class="l1" d="M551.413 63.4197L605.478 63.4197"/>
<path class="l1" d="M578.445 54.4089L605.478 54.4089"/>
<path class="l1" d="M686.574 58.9143L718.112 58.9143"/>
<path class="l1" d="M686.574 131L718.112 131"/>
<path class="l1" d="M686.574 203.086L718.112 203.086"/>
<path class="l1" d="M686.574 275.172L718.112 275.172"/>
<path class="l1" d="M686.574 347.258L718.112 347.258"/>
<path class="l1" d="M686.574 419.344L718.112 419.344"/>
<path class="l1" d="M686.574 491.43L718.112 491.43"/>
<path class="l1" d="M686.574 563.516L713.606 563.516"/>
<path class="l1" d="M628.004 536.483L628.004 540.989"/>
<path class="l1" d="M614.488 536.483L628.004 536.483"/>
<path class="l1" d="M614.488 527.473L637.015 527.473"/>
<path class="l1" d="M637.015 527.473L637.015 540.989"/>
<path class="l1" d="M614.488 518.462L646.026 518.462"/>
<path class="l1" d="M646.026 518.462L646.026 540.989"/>
<path class="l1" d="M628.004 464.397L628.004 468.903"/>
<path class="l1" d="M614.488 464.397L628.004 464.397"/>
<path class="l1" d="M614.488 455.387L637.015 455.387"/>
<path class="l1" d="M637.015 455.387L637.015 468.903"/>
<path class="l1" d="M614.488 446.376L646.026 446.376"/>
<path class="l1" d="M646.026 446.376L646.026 468.903"/>
<path class="l1" d="M628.004 392.312L628.004 396.817"/>
<path class="l1" d="M614.488 392.312L628.004 392.312"/>
<path class="l1" d="M614.488 383.301L637.015 383.301"/>
<path class="l1" d="M637.015 383.301L637.015 396.817"/>
<path class="l1" d="M614.488 374.29L646.026 374.29"/>
<path class="l1" d="M646.026 374.29L646.026 396.817"/>
<path class="l1" d="M628.004 320.226L628.004 324.731"/>
<path class="l1" d="M614.488 320.226L628.004 320.226"/>
<path class="l1" d="M614.488 311.215L637.015 311.215"/>
<path class="l1" d="M637.015 311.215L637.015 324.731"/>
<path class="l1" d="M614.488 302.204L646.026 302.204"/>
<path class="l1" d="M646.026 302.204L646.026 324.731"/>
<path class="l1" d="M628.004 248.14L628.004 252.645"/>
<path class="l1" d="M614.488 248.14L628.004 248.14"/>
<path class="l1" d="M614.488 239.129L637.015 239.129"/>
<path class="l1" d="M637.015 239.129L637.015 252.645"/>
<path class="l1" d="M614.488 230.118L646.026 230.118"/>
<path class="l1" d="M646.026 230.118L646.026 252.645"/>
<path class="l1" d="M628.004 176.054L628.004 180.559"/>
<path class="l1" d="M614.488 176.054L628.004 176.054"/>
<path class="l1" d="M614.488 167.043L637.015 167.043"/>
<path class="l1" d="M637.015 167.043L637.015 180.559"/>
<path class="l1" d="M614.488 158.032L646.026 158.032"/>
<path class="l1" d="M646.026 158.032L646.026 180.559"/>
<path class="l1" d="M628.004 103.968L628.004 108.473"/>
<path class="l1" d="M614.488 103.968L628.004 103.968"/>
<path class="l1" d="M614.488 94.9572L637.015 94.9572"/>
<path class="l1" d="M637.015 94.9572L637.015 108.473"/>
<path class="l1" d="M614.488 85.9465L646.026 85.9465"/>
<path class="l1" d="M646.026 85.9465L646.026 108.473"/>
<path class="l1" d="M628.004 31.8821L628.004 36.3875"/>
<path class="l1" d="M614.488 31.8821L628.004 31.8821"/>
<path class="l1" d="M614.488 22.8713L637.015 22.8713"/>
<path class="l1" d="M637.015 22.8713L637.015 36.3875"/>
<path class="l1" d="M614.488 13.8606L646.026 13.8606"/>
<path class="l1" d="M646.026 13.8606L646.026 36.3875"/>
<path class="l1" d="M528.886 626.591L564.929 626.591"/>
<path class="l1" d="M528.886 608.569L564.929 608.569"/>
<path class="l1" d="M528.886 590.548L564.929 590.548"/>
<path class="l1" d="M650.531 599.558L664.047 599.558"/>
<path class="l1" d="M664.047 586.042L664.047 599.558"/>
<path class="l1" d="M664.047 31.8821L664.047 36.3875"/>
<path class="l1" d="M664.047 31.8821L749.649 31.8821"/>
<path class="l1" style="stroke-width:1.94632;" d="M528.886 554.505L573.94 554.505"/>
<path class="l1" style="stroke-width:1.94632;" d="M528.886 572.526L546.908 572.526"/>
<path class="l1" d="M528.886 644.612L564.929 644.612"/>
<path class="l1" d="M528.886 662.634L564.929 662.634"/>
<path class="l1" d="M664.047 513.956L664.047 540.989"/>
<path class="l1" d="M664.047 441.871L664.047 468.903"/>
<path class="l1" d="M664.047 369.785L664.047 396.817"/>
<path class="l1" d="M664.047 297.699L664.047 324.731"/>
<path class="l1" d="M664.047 225.613L664.047 252.645"/>
<path class="l1" d="M664.047 153.527L664.047 180.559"/>
<path class="l1" d="M664.047 81.4411L664.047 108.473"/>
<path class="l1" style="stroke-width:1.94632;" d="M573.94 58.9143L573.94 563.516"/>
<path class="l1" style="stroke-width:1.94632;" d="M546.908 67.925L546.908 572.526"/>
<path class="l1" style="stroke-width:1.94632;" d="M722.617 54.4089L722.617 559.01"/>
<circle class="l1" cx="573.94" cy="554.505" r="1.80215"/>
</svg>
