<svg xmlns="http://www.w3.org/2000/svg" xmlns:xlink="http://www.w3.org/1999/xlink" width="1280" height="680" version="1.1">
<style type="text/css">
.l0{
 fill: #000000;
  stroke: #000000;
  stroke-linecap:round;
  stroke-linejoin:round;
  stroke-width: 2.13604;
}
.l1{
 fill: #00ccee;
  stroke: #00ccee;
  stroke-linecap:round;
  stroke-linejoin:round;
  stroke-width: 2.13604;
}
.l2{
  fill: none;
  stroke: #3f3f3f;
  stroke-linecap:round;
  stroke-linejoin:round;
  stroke-width: 2.13604;
}
.l3{
 fill: #cccccc; fill-opacity: 0.5;
  stroke: #cccccc;
  stroke-linecap:round;
  stroke-linejoin:round;
  stroke-width: 2.13604;
}
.l4{
 fill: #88dd00;
  stroke: #88dd00;
  stroke-linecap:round;
  stroke-linejoin:round;
  stroke-width: 2.13604;
}
.l5{
 fill: #bb2200;
  stroke: #bb2200;
  stroke-linecap:round;
  stroke-linejoin:round;
  stroke-width: 2.13604;
}
.l6{
 fill: #00ccee; fill-opacity: 0.5;
  stroke: #00ccee;
  stroke-linecap:round;
  stroke-linejoin:round;
  stroke-width: 2.13604;
}
.l7{
 fill: #ff0000; fill-opacity: 0.5;
  stroke: #ff0000;
  stroke-linecap:round;
  stroke-linejoin:round;
  stroke-width: 2.13604;
}
.l8{
 fill: #ffff00; fill-opacity: 0.5;
  stroke: #ffff00;
  stroke-linecap:round;
  stroke-linejoin:round;
  stroke-width: 2.13604;
}
.l9{
 fill: #ffffff; fill-opacity: 0.5;
  stroke: #ffffff;
  stroke-linecap:round;
  stroke-linejoin:round;
  stroke-width: 2.13604;
}
.l10{
 fill: #ff00ff;
  stroke: #ff00ff;
  stroke-linecap:round;
  stroke-linejoin:round;
  stroke-width: 2.13604;
}
.l11{
 fill: #00ff00; fill-opacity: 0.5;
  stroke: #00ff00;
  stroke-linecap:round;
  stroke-linejoin:round;
  stroke-width: 2.13604;
}
.l12{
 fill: #0044dd; fill-opacity: 0.5;
  stroke: #0044dd;
  stroke-linecap:round;
  stroke-linejoin:round;
  stroke-width: 2.13604;
}
.l13{
 fill: #aaaa00; fill-opacity: 0.5;
  stroke: #aaaa00;
  stroke-linecap:round;
  stroke-linejoin:round;
  stroke-width: 2.13604;
}
.l14{
  fill: none;
  stroke: #aaccaa;
  stroke-linecap:round;
  stroke-linejoin:round;
  stroke-width: 2.13604;
}
.l15{
 fill: #ff7777; fill-opacity: 0.5;
  stroke: #ff7777;
  stroke-linecap:round;
  stroke-linejoin:round;
  stroke-width: 2.13604;
}
.l16{
 fill: #bfff81; fill-opacity: 0.5;
  stroke: #bfff81;
  stroke-linecap:round;
  stroke-linejoin:round;
  stroke-width: 2.13604;
}
.l17{
  fill: none;
  stroke: #00ffcc;
  stroke-linecap:round;
  stroke-linejoin:round;
  stroke-width: 2.13604;
}
.l18{
 fill: #ce0097; fill-opacity: 0.5;
  stroke: #ce0097;
  stroke-linecap:round;
  stroke-linejoin:round;
  stroke-width: 2.13604;
}
.l19{
  fill: none;
  stroke: #d2d46b;
  stroke-linecap:round;
  stroke-linejoin:round;
  stroke-width: 2.13604;
}
.l20{
  fill: none;
  stroke: #ef6158;
  stroke-linecap:round;
  stroke-linejoin:round;
  stroke-width: 2.13604;
}
.l21{
  fill: none;
  stroke: #fdb200;
  stroke-linecap:round;
  stroke-linejoin:round;
  stroke-width: 2.13604;
}
text {font-family: Sans-Serif;}
</style>
<rect class="l0" x="0" y="0" width="1280" height="680"/>
<text fill="#00ccee"  xml:space="preserve" font-size="33.9392" transform="translate(202.907, 82.0564)" >S</text>
<text fill="#00ccee"  xml:space="preserve" font-size="33.9392" transform="translate(439.244, 536.953)" >A</text>
<text fill="#00ccee"  xml:space="preserve" font-size="33.9392" transform="translate(439.244, 240.281)" >B</text>
<text fill="#00ccee"  xml:space="preserve" font-size="33.9392" transform="translate(1053.12, 378.728)" >Y</text>
<text fill="#cccccc"  xml:space="preserve" font-size="30.8539" transform="translate(786.111, 638.481)" >t_gate</text>
<text fill="#cccccc"  xml:space="preserve" font-size="20.5692" transform="translate(786.111, 439.273)" >x1</text>
<text fill="#cccccc"  xml:space="preserve" font-size="30.8539" transform="translate(786.111, 341.809)" >t_gate</text>
<text fill="#cccccc"  xml:space="preserve" font-size="20.5692" transform="translate(786.111, 142.601)" >x2</text>
<text fill="#cccccc"  xml:space="preserve" font-size="30.8539" transform="translate(437.027, 144.028)" >inv</text>
<text fill="#cccccc"  xml:space="preserve" font-size="20.5692" transform="translate(479.55, 28.8769)" >x3</text>
<text fill="#cccccc"  xml:space="preserve" font-size="20.5692" transform="translate(480.384, 74.3665)" >Z</text>
<text fill="#cccccc"  xml:space="preserve" font-size="20.5692" transform="translate(444.938, 74.3665)" >A</text>
<path class="l4" d="M657.553 523.442L697.109 523.442"/>
<path class="l4" d="M815.778 523.442L855.334 523.442"/>
<path class="l4" d="M756.444 582.776L756.444 622.333"/>
<path class="l4" d="M697.109 483.886L697.109 562.998"/>
<path class="l4" d="M697.109 562.998L815.778 562.998"/>
<path class="l4" d="M815.778 483.886L815.778 562.998"/>
<path class="l4" d="M697.109 483.886L815.778 483.886"/>
<path class="l4" d="M697.109 464.108L815.778 464.108"/>
<path class="l4" d="M697.109 582.776L815.778 582.776"/>
<path class="l4" d="M756.444 404.773L756.444 439.385"/>
<circle class="l4" cx="756.444" cy="451.746" r="11.0563" style="fill:none;"/>
<path class="l4" d="M657.553 226.77L697.109 226.77"/>
<path class="l4" d="M815.778 226.77L855.334 226.77"/>
<path class="l4" d="M756.444 286.105L756.444 325.661"/>
<path class="l4" d="M697.109 187.214L697.109 266.327"/>
<path class="l4" d="M697.109 266.327L815.778 266.327"/>
<path class="l4" d="M815.778 187.214L815.778 266.327"/>
<path class="l4" d="M697.109 187.214L815.778 187.214"/>
<path class="l4" d="M697.109 167.436L815.778 167.436"/>
<path class="l4" d="M697.109 286.105L815.778 286.105"/>
<path class="l4" d="M756.444 108.102L756.444 142.713"/>
<circle class="l4" cx="756.444" cy="155.075" r="11.0563" style="fill:none;"/>
<path class="l4" d="M548.773 68.5454L578.441 68.5454"/>
<path class="l4" d="M380.66 68.5454L439.994 68.5454"/>
<path class="l4" style="fill:none;" d="M439.994 108.102L439.994 28.9892L519.106 68.5454L439.994 108.102"/>
<circle class="l4" cx="533.94" cy="68.5454" r="13.9852" style="fill:none;"/>
<path class="l5" d="M751.499 399.829L761.388 399.829L761.388 409.718L751.499 409.718L751.499 399.829z"/>
<path class="l5" d="M652.609 518.497L662.498 518.497L662.498 528.387L652.609 528.387L652.609 518.497z"/>
<path class="l5" d="M850.39 518.497L860.279 518.497L860.279 528.387L850.39 528.387L850.39 518.497z"/>
<path class="l5" d="M751.499 617.388L761.388 617.388L761.388 627.277L751.499 627.277L751.499 617.388z"/>
<path class="l5" d="M751.499 103.157L761.388 103.157L761.388 113.046L751.499 113.046L751.499 103.157z"/>
<path class="l5" d="M652.609 221.826L662.498 221.826L662.498 231.715L652.609 231.715L652.609 221.826z"/>
<path class="l5" d="M850.39 221.826L860.279 221.826L860.279 231.715L850.39 231.715L850.39 221.826z"/>
<path class="l5" d="M751.499 320.716L761.388 320.716L761.388 330.605L751.499 330.605L751.499 320.716z"/>
<path class="l5" d="M573.496 63.6009L583.385 63.6009L583.385 73.49L573.496 73.49L573.496 63.6009z"/>
<path class="l5" d="M375.715 63.6009L385.604 63.6009L385.604 73.49L375.715 73.49L375.715 63.6009z"/>
<path class="l5" d="M252.102 68.5454L261.991 68.5454"/>
<path class="l5" d="M252.102 68.5454L244.685 58.6564L227.379 58.6564L234.796 68.5454L227.379 78.4345L244.685 78.4345L252.102 68.5454"/>
<path class="l5" d="M259.519 66.0732L264.463 66.0732L264.463 71.0177L259.519 71.0177L259.519 66.0732z"/>
<path class="l5" d="M489.439 523.442L499.328 523.442"/>
<path class="l5" d="M489.439 523.442L482.022 513.553L464.716 513.553L472.133 523.442L464.716 533.331L482.022 533.331L489.439 523.442"/>
<path class="l5" d="M496.856 520.97L501.8 520.97L501.8 525.914L496.856 525.914L496.856 520.97z"/>
<path class="l5" d="M489.439 226.77L499.328 226.77"/>
<path class="l5" d="M489.439 226.77L482.022 216.881L464.716 216.881L472.133 226.77L464.716 236.659L482.022 236.659L489.439 226.77"/>
<path class="l5" d="M496.856 224.298L501.8 224.298L501.8 229.243L496.856 229.243L496.856 224.298z"/>
<path class="l5" d="M1013.56 365.217L1030.86 365.217"/>
<path class="l5" d="M1048.17 365.217L1040.75 355.328L1023.45 355.328L1030.86 365.217L1023.45 375.106L1040.75 375.106L1048.17 365.217"/>
<path class="l5" d="M1011.09 362.745L1016.03 362.745L1016.03 367.689L1011.09 367.689L1011.09 362.745z"/>
<path class="l1" d="M756.444 325.661L756.444 404.773"/>
<path class="l1" d="M499.328 226.77L657.553 226.77"/>
<path class="l1" d="M499.328 523.442L657.553 523.442"/>
<path class="l1" d="M855.334 523.442L934.447 523.442"/>
<path class="l1" d="M934.447 226.77L934.447 523.442"/>
<path class="l1" d="M855.334 226.77L934.447 226.77"/>
<path class="l1" d="M934.447 365.217L1013.56 365.217"/>
<path class="l1" d="M578.441 68.5454L756.444 68.5454"/>
<path class="l1" d="M756.444 68.5454L756.444 108.102"/>
<path class="l1" d="M756.444 622.333L756.444 661.889"/>
<path class="l1" d="M617.997 661.889L756.444 661.889"/>
<path class="l1" d="M617.997 68.5454L617.997 661.889"/>
<path class="l1" d="M341.103 365.217L756.444 365.217"/>
<path class="l1" d="M341.103 68.5454L341.103 365.217"/>
<path class="l1" d="M341.103 68.5454L380.66 68.5454"/>
<path class="l1" d="M261.991 68.5454L341.103 68.5454"/>
<circle class="l1" cx="341.103" cy="68.5454" r="7.91124"/>
<circle class="l1" cx="341.103" cy="68.5454" r="7.91124"/>
<circle class="l1" cx="341.103" cy="68.5454" r="7.91124"/>
<circle class="l1" cx="617.997" cy="68.5454" r="7.91124"/>
<circle class="l1" cx="756.444" cy="365.217" r="7.91124"/>
<circle class="l1" cx="934.447" cy="365.217" r="7.91124"/>
</svg>
