<svg xmlns="http://www.w3.org/2000/svg" xmlns:xlink="http://www.w3.org/1999/xlink" width="1280" height="680" version="1.1">
<style type="text/css">
.l0{
 fill: #000000;
  stroke: #000000;
  stroke-linecap:round;
  stroke-linejoin:round;
  stroke-width: 2.03825;
}
.l1{
 fill: #00ccee;
  stroke: #00ccee;
  stroke-linecap:round;
  stroke-linejoin:round;
  stroke-width: 2.03825;
}
.l2{
  fill: none;
  stroke: #3f3f3f;
  stroke-linecap:round;
  stroke-linejoin:round;
  stroke-width: 2.03825;
}
.l3{
 fill: #cccccc; fill-opacity: 0.5;
  stroke: #cccccc;
  stroke-linecap:round;
  stroke-linejoin:round;
  stroke-width: 2.03825;
}
.l4{
 fill: #88dd00;
  stroke: #88dd00;
  stroke-linecap:round;
  stroke-linejoin:round;
  stroke-width: 2.03825;
}
.l5{
 fill: #bb2200;
  stroke: #bb2200;
  stroke-linecap:round;
  stroke-linejoin:round;
  stroke-width: 2.03825;
}
.l6{
 fill: #00ccee; fill-opacity: 0.5;
  stroke: #00ccee;
  stroke-linecap:round;
  stroke-linejoin:round;
  stroke-width: 2.03825;
}
.l7{
 fill: #ff0000; fill-opacity: 0.5;
  stroke: #ff0000;
  stroke-linecap:round;
  stroke-linejoin:round;
  stroke-width: 2.03825;
}
.l8{
 fill: #ffff00; fill-opacity: 0.5;
  stroke: #ffff00;
  stroke-linecap:round;
  stroke-linejoin:round;
  stroke-width: 2.03825;
}
.l9{
 fill: #ffffff; fill-opacity: 0.5;
  stroke: #ffffff;
  stroke-linecap:round;
  stroke-linejoin:round;
  stroke-width: 2.03825;
}
.l10{
 fill: #ff00ff;
  stroke: #ff00ff;
  stroke-linecap:round;
  stroke-linejoin:round;
  stroke-width: 2.03825;
}
.l11{
 fill: #00ff00; fill-opacity: 0.5;
  stroke: #00ff00;
  stroke-linecap:round;
  stroke-linejoin:round;
  stroke-width: 2.03825;
}
.l12{
 fill: #0044dd; fill-opacity: 0.5;
  stroke: #0044dd;
  stroke-linecap:round;
  stroke-linejoin:round;
  stroke-width: 2.03825;
}
.l13{
 fill: #aaaa00; fill-opacity: 0.5;
  stroke: #aaaa00;
  stroke-linecap:round;
  stroke-linejoin:round;
  stroke-width: 2.03825;
}
.l14{
  fill: none;
  stroke: #aaccaa;
  stroke-linecap:round;
  stroke-linejoin:round;
  stroke-width: 2.03825;
}
.l15{
 fill: #ff7777; fill-opacity: 0.5;
  stroke: #ff7777;
  stroke-linecap:round;
  stroke-linejoin:round;
  stroke-width: 2.03825;
}
.l16{
 fill: #bfff81; fill-opacity: 0.5;
  stroke: #bfff81;
  stroke-linecap:round;
  stroke-linejoin:round;
  stroke-width: 2.03825;
}
.l17{
  fill: none;
  stroke: #00ffcc;
  stroke-linecap:round;
  stroke-linejoin:round;
  stroke-width: 2.03825;
}
.l18{
 fill: #ce0097; fill-opacity: 0.5;
  stroke: #ce0097;
  stroke-linecap:round;
  stroke-linejoin:round;
  stroke-width: 2.03825;
}
.l19{
  fill: none;
  stroke: #d2d46b;
  stroke-linecap:round;
  stroke-linejoin:round;
  stroke-width: 2.03825;
}
.l20{
  fill: none;
  stroke: #ef6158;
  stroke-linecap:round;
  stroke-linejoin:round;
  stroke-width: 2.03825;
}
.l21{
  fill: none;
  stroke: #fdb200;
  stroke-linecap:round;
  stroke-linejoin:round;
  stroke-width: 2.03825;
}
text {font-family: Sans-Serif;}
</style>
<rect class="l0" x="0" y="0" width="1280" height="680"/>
<text fill="#00ccee"  xml:space="preserve" font-size="32.3855" transform="translate(482.845, 362.329)" >in</text>
<text fill="#00ccee"  xml:space="preserve" font-size="32.3855" transform="translate(925.685, 362.329)" >out</text>
<text fill="#00ccee"  xml:space="preserve" font-size="32.3855" transform="translate(730.978, 669.04) rotate(270)" >E</text>
<text fill="#00ccee"  xml:space="preserve" font-size="32.3855" transform="translate(726.859, 68.7053) rotate(270)" >E_n</text>
<text fill="#00ccee"  xml:space="preserve" font-size="32.3855" transform="translate(812.785, 118.164)" >vdd</text>
<text fill="#00ccee"  xml:space="preserve" font-size="32.3855" transform="translate(471.077, 627.726)" >gnd</text>
<text fill="#00ccee"  xml:space="preserve" font-size="32.3855" transform="translate(300.864, 211.347)" >vdd</text>
<text fill="#00ccee"  xml:space="preserve" font-size="32.3855" transform="translate(468.023, 212.527)" >vdd</text>
<text fill="#00ccee"  xml:space="preserve" font-size="32.3855" transform="translate(298.864, 173.602)" >gnd</text>
<text fill="#00ccee"  xml:space="preserve" font-size="32.3855" transform="translate(468.023, 174.782)" >gnd</text>
<text fill="#cccccc"  xml:space="preserve" font-size="19.6276" transform="translate(679.29, 576.599) rotate(270)" >M1</text>
<text fill="#ff0000"  xml:space="preserve" font-size="14.7207" transform="translate(764.479, 514.572) rotate(270)" >S</text>
<text fill="#ff0000"  xml:space="preserve" font-size="14.7207" transform="translate(681.54, 514.572) rotate(270)" >D</text>
<text fill="#ff0000"  xml:space="preserve" font-size="14.7207" transform="translate(712.579, 519.29) rotate(270)" >B</text>
<text fill="#ff0000"  xml:space="preserve" font-size="14.7207" transform="translate(712.579, 586.908) rotate(270)" >G</text>
<text fill="#cccccc"  xml:space="preserve" font-size="19.6276" transform="translate(696.881, 500.418) rotate(270)" >nfet_01v8</text>
<text fill="#aaaa00"  xml:space="preserve" font-size="19.6276" transform="translate(761.857, 498.059) rotate(270)" >1 x 0.42 / 0.15</text>
<text fill="#aaaa00"  xml:space="preserve" font-size="19.6276" transform="translate(738.267, 498.059) rotate(270)" >nf=1</text>
<text fill="#cccccc"  xml:space="preserve" font-size="19.6276" transform="translate(770.013, 170.146) rotate(270)" >M2</text>
<text fill="#ff0000"  xml:space="preserve" font-size="14.7207" transform="translate(681.54, 214.173) rotate(270)" >D</text>
<text fill="#ff0000"  xml:space="preserve" font-size="14.7207" transform="translate(764.479, 212.173) rotate(270)" >S</text>
<text fill="#ff0000"  xml:space="preserve" font-size="14.7207" transform="translate(733.44, 208.455) rotate(270)" >B</text>
<text fill="#ff0000"  xml:space="preserve" font-size="14.7207" transform="translate(733.44, 141.837) rotate(270)" >G</text>
<text fill="#cccccc"  xml:space="preserve" font-size="19.6276" transform="translate(752.421, 314.328) rotate(270)" >pfet_01v8</text>
<text fill="#aaaa00"  xml:space="preserve" font-size="19.6276" transform="translate(687.445, 358.687) rotate(270)" >1 x 0.84 / 0.15</text>
<text fill="#aaaa00"  xml:space="preserve" font-size="19.6276" transform="translate(711.036, 266.687) rotate(270)" >nf=1</text>
<path class="l4" d="M675.622 542.881L760.549 542.881"/>
<path class="l4" d="M718.086 552.318L718.086 594.781"/>
<path class="l4" d="M661.468 519.29L685.059 519.29"/>
<path class="l4" d="M751.113 519.29L774.704 519.29"/>
<path class="l4" d="M689.777 552.318L746.395 552.318"/>
<path class="l4" d="M685.059 519.29L685.059 542.881"/>
<path class="l4" d="M751.113 528.727L751.113 542.881"/>
<path class="l4" d="M746.395 528.727L751.113 519.29L755.831 528.727L746.395 528.727"/>
<path class="l4" d="M675.622 174.864L760.549 174.864"/>
<path class="l4" d="M751.113 198.455L774.704 198.455"/>
<path class="l4" d="M661.468 198.455L685.059 198.455"/>
<path class="l4" d="M689.777 165.428L746.395 165.428"/>
<path class="l4" d="M685.059 174.864L685.059 198.455"/>
<path class="l4" d="M751.113 184.3L751.113 198.455"/>
<path class="l4" d="M718.086 122.964L718.086 146.555"/>
<path class="l4" d="M755.831 184.3L751.113 174.864L746.395 184.3L755.831 184.3"/>
<circle class="l4" cx="718.086" cy="155.991" r="9.43634" style="fill:none;"/>
<path class="l5" d="M713.368 519.29L718.086 528.727L722.804 519.29L713.368 519.29"/>
<path class="l5" d="M656.749 514.572L666.186 514.572L666.186 524.009L656.749 524.009L656.749 514.572z"/>
<path class="l5" d="M713.368 590.063L722.804 590.063L722.804 599.499L713.368 599.499L713.368 590.063z"/>
<path class="l5" d="M769.986 514.572L779.422 514.572L779.422 524.009L769.986 524.009L769.986 514.572z"/>
<path class="l5" d="M717.938 519.143L718.233 519.143L718.233 519.438L717.938 519.438L717.938 519.143z"/>
<path class="l5" d="M722.804 189.019L718.086 198.455L713.368 189.019L722.804 189.019"/>
<path class="l5" d="M656.749 193.737L666.186 193.737L666.186 203.173L656.749 203.173L656.749 193.737z"/>
<path class="l5" d="M713.368 118.246L722.804 118.246L722.804 127.682L713.368 127.682L713.368 118.246z"/>
<path class="l5" d="M769.986 193.737L779.422 193.737L779.422 203.173L769.986 203.173L769.986 193.737z"/>
<path class="l5" d="M717.938 198.307L718.233 198.307L718.233 198.602L717.938 198.602L717.938 198.307z"/>
<path class="l5" d="M538.795 349.436L548.232 349.436"/>
<path class="l5" d="M538.795 349.436L531.718 340L515.204 340L522.282 349.436L515.204 358.873L531.718 358.873L538.795 349.436"/>
<path class="l5" d="M545.873 347.077L550.591 347.077L550.591 351.795L545.873 351.795L545.873 347.077z"/>
<path class="l5" d="M887.94 349.436L904.453 349.436"/>
<path class="l5" d="M920.967 349.436L913.89 340L897.376 340L904.453 349.436L897.376 358.873L913.89 358.873L920.967 349.436"/>
<path class="l5" d="M885.581 347.077L890.299 347.077L890.299 351.795L885.581 351.795L885.581 347.077z"/>
<path class="l5" d="M718.086 613.654L718.086 623.09"/>
<path class="l5" d="M718.086 623.09L708.649 630.167L708.649 646.681L718.086 639.604L727.522 646.681L727.522 630.167L718.086 623.09"/>
<path class="l5" d="M715.727 611.295L720.445 611.295L720.445 616.013L715.727 616.013L715.727 611.295z"/>
<path class="l5" d="M718.086 94.6552L718.086 104.092"/>
<path class="l5" d="M718.086 94.6552L727.522 87.578L727.522 71.0644L718.086 78.1416L708.649 71.0644L708.649 87.578L718.086 94.6552"/>
<path class="l5" d="M715.727 101.732L720.445 101.732L720.445 106.451L715.727 106.451L715.727 101.732z"/>
<path class="l5" d="M885.581 101.732L890.299 101.732L890.299 106.451L885.581 106.451L885.581 101.732z"/>
<path class="l5" d="M545.873 611.295L550.591 611.295L550.591 616.013L545.873 616.013L545.873 611.295z"/>
<path class="l5" d="M387.814 198.455L397.25 198.455"/>
<path class="l5" d="M387.814 198.455L380.737 189.019L364.223 189.019L371.3 198.455L364.223 207.891L380.737 207.891L387.814 198.455"/>
<path class="l5" d="M394.891 196.096L399.609 196.096L399.609 200.814L394.891 200.814L394.891 196.096z"/>
<path class="l5" d="M451.509 196.096L456.227 196.096L456.227 200.814L451.509 200.814L451.509 196.096z"/>
<path class="l5" d="M387.814 160.71L397.25 160.71"/>
<path class="l5" d="M387.814 160.71L380.737 151.273L364.223 151.273L371.3 160.71L364.223 170.146L380.737 170.146L387.814 160.71"/>
<path class="l5" d="M394.891 158.351L399.609 158.351L399.609 163.069L394.891 163.069L394.891 158.351z"/>
<path class="l5" d="M451.509 158.351L456.227 158.351L456.227 163.069L451.509 163.069L451.509 158.351z"/>
<path class="l1" d="M623.722 198.455L661.468 198.455"/>
<path class="l1" d="M623.722 519.29L661.468 519.29"/>
<path class="l1" d="M774.704 519.29L812.449 519.29"/>
<path class="l1" d="M774.704 198.455L812.449 198.455"/>
<path class="l1" d="M812.449 198.455L812.449 519.29"/>
<path class="l1" d="M623.722 198.455L623.722 519.29"/>
<path class="l1" d="M718.086 198.455L718.086 273.946"/>
<path class="l1" d="M887.94 104.092L887.94 273.946"/>
<path class="l1" d="M718.086 443.8L718.086 519.29"/>
<path class="l1" d="M548.232 443.8L548.232 613.654"/>
<path class="l1" d="M548.232 349.436L623.722 349.436"/>
<path class="l1" d="M812.449 349.436L887.94 349.436"/>
<path class="l1" d="M718.086 594.781L718.086 613.654"/>
<path class="l1" d="M718.086 104.092L718.086 122.964"/>
<path class="l1" d="M718.086 273.946L887.94 273.946"/>
<path class="l1" d="M548.232 443.8L718.086 443.8"/>
<path class="l1" d="M397.25 198.455L453.868 198.455"/>
<path class="l1" d="M397.25 160.71L453.868 160.71"/>
<circle class="l1" cx="623.722" cy="349.436" r="7.54907"/>
<circle class="l1" cx="812.449" cy="349.436" r="7.54907"/>
</svg>
