<svg xmlns="http://www.w3.org/2000/svg" xmlns:xlink="http://www.w3.org/1999/xlink" width="1280" height="680" version="1.1">
<style type="text/css">
.l0{
 fill: #ffffff;
  stroke: #ffffff;
  stroke-linecap:round;
  stroke-linejoin:round;
  stroke-width: 2.04437;
  fill-opacity: 0;
  stroke-opacity: 0;
}
.l1{
 fill: #000000;
  stroke: #000000;
  stroke-linecap:round;
  stroke-linejoin:round;
  stroke-width: 2.04437;
}
.l2{
  fill: none;
  stroke: #000000;
  stroke-linecap:round;
  stroke-linejoin:round;
  stroke-width: 2.04437;
}
.l3{
 fill: #000000; fill-opacity: 0.5;
  stroke: #000000;
  stroke-linecap:round;
  stroke-linejoin:round;
  stroke-width: 2.04437;
}
.l4{
 fill: #000000;
  stroke: #000000;
  stroke-linecap:round;
  stroke-linejoin:round;
  stroke-width: 2.04437;
}
.l5{
 fill: #000000;
  stroke: #000000;
  stroke-linecap:round;
  stroke-linejoin:round;
  stroke-width: 2.04437;
}
.l6{
 fill: #000000; fill-opacity: 0.5;
  stroke: #000000;
  stroke-linecap:round;
  stroke-linejoin:round;
  stroke-width: 2.04437;
}
.l7{
 fill: #000000; fill-opacity: 0.5;
  stroke: #000000;
  stroke-linecap:round;
  stroke-linejoin:round;
  stroke-width: 2.04437;
}
.l8{
 fill: #000000; fill-opacity: 0.5;
  stroke: #000000;
  stroke-linecap:round;
  stroke-linejoin:round;
  stroke-width: 2.04437;
}
.l9{
 fill: #000000; fill-opacity: 0.5;
  stroke: #000000;
  stroke-linecap:round;
  stroke-linejoin:round;
  stroke-width: 2.04437;
}
.l10{
 fill: #000000;
  stroke: #000000;
  stroke-linecap:round;
  stroke-linejoin:round;
  stroke-width: 2.04437;
}
.l11{
 fill: #000000; fill-opacity: 0.5;
  stroke: #000000;
  stroke-linecap:round;
  stroke-linejoin:round;
  stroke-width: 2.04437;
}
.l12{
 fill: #000000; fill-opacity: 0.5;
  stroke: #000000;
  stroke-linecap:round;
  stroke-linejoin:round;
  stroke-width: 2.04437;
}
.l13{
 fill: #000000; fill-opacity: 0.5;
  stroke: #000000;
  stroke-linecap:round;
  stroke-linejoin:round;
  stroke-width: 2.04437;
}
.l14{
  fill: none;
  stroke: #000000;
  stroke-linecap:round;
  stroke-linejoin:round;
  stroke-width: 2.04437;
}
.l15{
 fill: #000000; fill-opacity: 0.5;
  stroke: #000000;
  stroke-linecap:round;
  stroke-linejoin:round;
  stroke-width: 2.04437;
}
.l16{
 fill: #000000; fill-opacity: 0.5;
  stroke: #000000;
  stroke-linecap:round;
  stroke-linejoin:round;
  stroke-width: 2.04437;
}
.l17{
  fill: none;
  stroke: #000000;
  stroke-linecap:round;
  stroke-linejoin:round;
  stroke-width: 2.04437;
}
.l18{
 fill: #000000; fill-opacity: 0.5;
  stroke: #000000;
  stroke-linecap:round;
  stroke-linejoin:round;
  stroke-width: 2.04437;
}
.l19{
  fill: none;
  stroke: #000000;
  stroke-linecap:round;
  stroke-linejoin:round;
  stroke-width: 2.04437;
}
.l20{
  fill: none;
  stroke: #000000;
  stroke-linecap:round;
  stroke-linejoin:round;
  stroke-width: 2.04437;
}
.l21{
  fill: none;
  stroke: #000000;
  stroke-linecap:round;
  stroke-linejoin:round;
  stroke-width: 2.04437;
}
text {font-family: Sans-Serif;}
</style>
<rect class="l0" x="0" y="0" width="1280" height="680"/>
<text fill="#000000"  xml:space="preserve" font-size="19.6865" transform="translate(470.687, 641.549)" >GND</text>
<text fill="#000000"  xml:space="preserve" font-size="19.6865" transform="translate(773.556, 54.7402)" >VDD</text>
<text fill="#000000"  xml:space="preserve" font-size="32.4827" transform="translate(390.997, 362.13)" >in</text>
<text fill="#000000"  xml:space="preserve" font-size="32.4827" transform="translate(835.076, 362.13)" >out</text>
<text fill="#000000"  xml:space="preserve" font-size="32.4827" transform="translate(639.785, 670.701) rotate(270)" >E</text>
<text fill="#000000"  xml:space="preserve" font-size="32.4827" transform="translate(635.653, 67.625) rotate(270)" >E_n</text>
<text fill="#000000"  xml:space="preserve" font-size="19.6865" transform="translate(587.941, 577.956) rotate(270)" >M1</text>
<text fill="#000000"  xml:space="preserve" font-size="14.7649" transform="translate(673.386, 514.83) rotate(270)" >S</text>
<text fill="#000000"  xml:space="preserve" font-size="14.7649" transform="translate(590.198, 514.83) rotate(270)" >D</text>
<text fill="#000000"  xml:space="preserve" font-size="14.7649" transform="translate(621.331, 519.562) rotate(270)" >B</text>
<text fill="#000000"  xml:space="preserve" font-size="14.7649" transform="translate(621.331, 587.35) rotate(270)" >G</text>
<text fill="#000000"  xml:space="preserve" font-size="19.6865" transform="translate(605.585, 500.633) rotate(270)" >nfet_01v8</text>
<text fill="#000000"  xml:space="preserve" font-size="19.6865" transform="translate(670.756, 498.267) rotate(270)" >1 x 0.42 / 0.15</text>
<text fill="#000000"  xml:space="preserve" font-size="19.6865" transform="translate(647.095, 498.267) rotate(270)" >nf=1</text>
<text fill="#000000"  xml:space="preserve" font-size="19.6865" transform="translate(678.936, 169.37) rotate(270)" >M2</text>
<text fill="#000000"  xml:space="preserve" font-size="14.7649" transform="translate(590.198, 213.496) rotate(270)" >D</text>
<text fill="#000000"  xml:space="preserve" font-size="14.7649" transform="translate(673.386, 211.496) rotate(270)" >S</text>
<text fill="#000000"  xml:space="preserve" font-size="14.7649" transform="translate(642.254, 207.764) rotate(270)" >B</text>
<text fill="#000000"  xml:space="preserve" font-size="14.7649" transform="translate(642.254, 140.976) rotate(270)" >G</text>
<text fill="#000000"  xml:space="preserve" font-size="19.6865" transform="translate(661.292, 317.693) rotate(270)" >pfet_01v8</text>
<text fill="#000000"  xml:space="preserve" font-size="19.6865" transform="translate(596.121, 365.059) rotate(270)" >1 x 0.84 / 0.15</text>
<text fill="#000000"  xml:space="preserve" font-size="19.6865" transform="translate(619.782, 268.059) rotate(270)" >nf=1</text>
<path class="l4" d="M584.262 543.224L669.444 543.224"/>
<path class="l4" d="M626.853 552.689L626.853 595.279"/>
<path class="l4" d="M570.065 519.562L593.727 519.562"/>
<path class="l4" d="M659.98 519.562L683.641 519.562"/>
<path class="l4" d="M598.459 552.689L655.247 552.689"/>
<path class="l4" d="M593.727 519.562L593.727 543.224"/>
<path class="l4" d="M659.98 529.027L659.98 543.224"/>
<path class="l4" d="M655.247 529.027L659.98 519.562L664.712 529.027L655.247 529.027"/>
<path class="l4" d="M584.262 174.102L669.444 174.102"/>
<path class="l4" d="M659.98 197.764L683.641 197.764"/>
<path class="l4" d="M570.065 197.764L593.727 197.764"/>
<path class="l4" d="M598.459 164.638L655.247 164.638"/>
<path class="l4" d="M593.727 174.102L593.727 197.764"/>
<path class="l4" d="M659.98 183.567L659.98 197.764"/>
<path class="l4" d="M626.853 122.047L626.853 145.708"/>
<path class="l4" d="M664.712 183.567L659.98 174.102L655.247 183.567L664.712 183.567"/>
<circle class="l4" cx="626.853" cy="155.173" r="9.46465" style="fill:none;"/>
<path class="l4" d="M456.49 614.209L456.49 637.87"/>
<path class="l4" d="M447.025 637.87L465.954 637.87"/>
<path class="l4" d="M456.49 647.335L465.954 637.87"/>
<path class="l4" d="M447.025 637.87L456.49 647.335"/>
<path class="l4" d="M797.217 65.2589L797.217 103.117"/>
<path class="l4" d="M778.288 65.2589L816.146 65.2589"/>
<path class="l5" d="M622.121 519.562L626.853 529.027L631.586 519.562L622.121 519.562"/>
<path class="l5" d="M565.333 514.83L574.798 514.83L574.798 524.295L565.333 524.295L565.333 514.83z"/>
<path class="l5" d="M622.121 590.547L631.586 590.547L631.586 600.012L622.121 600.012L622.121 590.547z"/>
<path class="l5" d="M678.909 514.83L688.374 514.83L688.374 524.295L678.909 524.295L678.909 514.83z"/>
<path class="l5" d="M626.705 519.414L627.001 519.414L627.001 519.71L626.705 519.71L626.705 519.414z"/>
<path class="l5" d="M631.586 188.299L626.853 197.764L622.121 188.299L631.586 188.299"/>
<path class="l5" d="M565.333 193.032L574.798 193.032L574.798 202.496L565.333 202.496L565.333 193.032z"/>
<path class="l5" d="M622.121 117.314L631.586 117.314L631.586 126.779L622.121 126.779L622.121 117.314z"/>
<path class="l5" d="M678.909 193.032L688.374 193.032L688.374 202.496L678.909 202.496L678.909 193.032z"/>
<path class="l5" d="M626.705 197.616L627.001 197.616L627.001 197.912L626.705 197.912L626.705 197.616z"/>
<path class="l5" d="M451.757 609.476L461.222 609.476L461.222 618.941L451.757 618.941L451.757 609.476z"/>
<path class="l5" d="M792.485 98.3851L801.949 98.3851L801.949 107.85L792.485 107.85L792.485 98.3851z"/>
<path class="l5" d="M447.025 349.198L456.49 349.198"/>
<path class="l5" d="M447.025 349.198L439.926 339.734L423.363 339.734L430.462 349.198L423.363 358.663L439.926 358.663L447.025 349.198"/>
<path class="l5" d="M454.123 346.832L458.856 346.832L458.856 351.565L454.123 351.565L454.123 346.832z"/>
<path class="l5" d="M797.217 349.198L813.78 349.198"/>
<path class="l5" d="M830.343 349.198L823.245 339.734L806.682 339.734L813.78 349.198L806.682 358.663L823.245 358.663L830.343 349.198"/>
<path class="l5" d="M794.851 346.832L799.583 346.832L799.583 351.565L794.851 351.565L794.851 346.832z"/>
<path class="l5" d="M626.853 614.209L626.853 623.673"/>
<path class="l5" d="M626.853 623.673L617.389 630.772L617.389 647.335L626.853 640.237L636.318 647.335L636.318 630.772L626.853 623.673"/>
<path class="l5" d="M624.487 611.843L629.22 611.843L629.22 616.575L624.487 616.575L624.487 611.843z"/>
<path class="l5" d="M626.853 93.6528L626.853 103.117"/>
<path class="l5" d="M626.853 93.6528L636.318 86.5543L636.318 69.9912L626.853 77.0897L617.389 69.9912L617.389 86.5543L626.853 93.6528"/>
<path class="l5" d="M624.487 100.751L629.22 100.751L629.22 105.484L624.487 105.484L624.487 100.751z"/>
<path class="l1" d="M532.207 197.764L570.065 197.764"/>
<path class="l1" d="M532.207 519.562L570.065 519.562"/>
<path class="l1" d="M683.641 519.562L721.5 519.562"/>
<path class="l1" d="M683.641 197.764L721.5 197.764"/>
<path class="l1" d="M721.5 197.764L721.5 519.562"/>
<path class="l1" d="M532.207 197.764L532.207 519.562"/>
<path class="l1" d="M626.853 197.764L626.853 273.481"/>
<path class="l1" d="M797.217 103.117L797.217 273.481"/>
<path class="l1" d="M626.853 443.845L626.853 519.562"/>
<path class="l1" d="M456.49 443.845L456.49 614.209"/>
<path class="l1" d="M456.49 349.198L532.207 349.198"/>
<path class="l1" d="M721.5 349.198L797.217 349.198"/>
<path class="l1" d="M626.853 595.279L626.853 614.209"/>
<path class="l1" d="M626.853 103.117L626.853 122.047"/>
<path class="l1" d="M626.853 273.481L797.217 273.481"/>
<path class="l1" d="M456.49 443.845L626.853 443.845"/>
<circle class="l1" cx="532.207" cy="349.198" r="7.57172"/>
<circle class="l1" cx="721.5" cy="349.198" r="7.57172"/>
</svg>
